G04 #@! TF.GenerationSoftware,KiCad,Pcbnew,7.0.2-0*
G04 #@! TF.CreationDate,2023-04-27T16:56:16-04:00*
G04 #@! TF.ProjectId,TFT_CAN,5446545f-4341-44e2-9e6b-696361645f70,rev?*
G04 #@! TF.SameCoordinates,Original*
G04 #@! TF.FileFunction,Legend,Bot*
G04 #@! TF.FilePolarity,Positive*
%FSLAX46Y46*%
G04 Gerber Fmt 4.6, Leading zero omitted, Abs format (unit mm)*
G04 Created by KiCad (PCBNEW 7.0.2-0) date 2023-04-27 16:56:16*
%MOMM*%
%LPD*%
G01*
G04 APERTURE LIST*
%ADD10C,0.150000*%
%ADD11C,0.120000*%
G04 APERTURE END LIST*
D10*
X38308619Y-74279191D02*
X37308619Y-74279191D01*
X37784809Y-74279191D02*
X37784809Y-74850619D01*
X38308619Y-74850619D02*
X37308619Y-74850619D01*
X38308619Y-75326810D02*
X37308619Y-75326810D01*
X40797819Y-74715714D02*
X40797819Y-74239524D01*
X40797819Y-74239524D02*
X39797819Y-74239524D01*
X39797819Y-75239524D02*
X39797819Y-75430000D01*
X39797819Y-75430000D02*
X39845438Y-75525238D01*
X39845438Y-75525238D02*
X39940676Y-75620476D01*
X39940676Y-75620476D02*
X40131152Y-75668095D01*
X40131152Y-75668095D02*
X40464485Y-75668095D01*
X40464485Y-75668095D02*
X40654961Y-75620476D01*
X40654961Y-75620476D02*
X40750200Y-75525238D01*
X40750200Y-75525238D02*
X40797819Y-75430000D01*
X40797819Y-75430000D02*
X40797819Y-75239524D01*
X40797819Y-75239524D02*
X40750200Y-75144286D01*
X40750200Y-75144286D02*
X40654961Y-75049048D01*
X40654961Y-75049048D02*
X40464485Y-75001429D01*
X40464485Y-75001429D02*
X40131152Y-75001429D01*
X40131152Y-75001429D02*
X39940676Y-75049048D01*
X39940676Y-75049048D02*
X39845438Y-75144286D01*
X39845438Y-75144286D02*
X39797819Y-75239524D01*
X34641619Y-72469571D02*
X35641619Y-72802904D01*
X35641619Y-72802904D02*
X34641619Y-73136237D01*
X35117809Y-73802904D02*
X35165428Y-73945761D01*
X35165428Y-73945761D02*
X35213047Y-73993380D01*
X35213047Y-73993380D02*
X35308285Y-74040999D01*
X35308285Y-74040999D02*
X35451142Y-74040999D01*
X35451142Y-74040999D02*
X35546380Y-73993380D01*
X35546380Y-73993380D02*
X35594000Y-73945761D01*
X35594000Y-73945761D02*
X35641619Y-73850523D01*
X35641619Y-73850523D02*
X35641619Y-73469571D01*
X35641619Y-73469571D02*
X34641619Y-73469571D01*
X34641619Y-73469571D02*
X34641619Y-73802904D01*
X34641619Y-73802904D02*
X34689238Y-73898142D01*
X34689238Y-73898142D02*
X34736857Y-73945761D01*
X34736857Y-73945761D02*
X34832095Y-73993380D01*
X34832095Y-73993380D02*
X34927333Y-73993380D01*
X34927333Y-73993380D02*
X35022571Y-73945761D01*
X35022571Y-73945761D02*
X35070190Y-73898142D01*
X35070190Y-73898142D02*
X35117809Y-73802904D01*
X35117809Y-73802904D02*
X35117809Y-73469571D01*
X35641619Y-74898142D02*
X35117809Y-74898142D01*
X35117809Y-74898142D02*
X35022571Y-74850523D01*
X35022571Y-74850523D02*
X34974952Y-74755285D01*
X34974952Y-74755285D02*
X34974952Y-74564809D01*
X34974952Y-74564809D02*
X35022571Y-74469571D01*
X35594000Y-74898142D02*
X35641619Y-74802904D01*
X35641619Y-74802904D02*
X35641619Y-74564809D01*
X35641619Y-74564809D02*
X35594000Y-74469571D01*
X35594000Y-74469571D02*
X35498761Y-74421952D01*
X35498761Y-74421952D02*
X35403523Y-74421952D01*
X35403523Y-74421952D02*
X35308285Y-74469571D01*
X35308285Y-74469571D02*
X35260666Y-74564809D01*
X35260666Y-74564809D02*
X35260666Y-74802904D01*
X35260666Y-74802904D02*
X35213047Y-74898142D01*
X34974952Y-75231476D02*
X34974952Y-75612428D01*
X34641619Y-75374333D02*
X35498761Y-75374333D01*
X35498761Y-75374333D02*
X35594000Y-75421952D01*
X35594000Y-75421952D02*
X35641619Y-75517190D01*
X35641619Y-75517190D02*
X35641619Y-75612428D01*
X42436238Y-74295095D02*
X42388619Y-74199857D01*
X42388619Y-74199857D02*
X42388619Y-74057000D01*
X42388619Y-74057000D02*
X42436238Y-73914143D01*
X42436238Y-73914143D02*
X42531476Y-73818905D01*
X42531476Y-73818905D02*
X42626714Y-73771286D01*
X42626714Y-73771286D02*
X42817190Y-73723667D01*
X42817190Y-73723667D02*
X42960047Y-73723667D01*
X42960047Y-73723667D02*
X43150523Y-73771286D01*
X43150523Y-73771286D02*
X43245761Y-73818905D01*
X43245761Y-73818905D02*
X43341000Y-73914143D01*
X43341000Y-73914143D02*
X43388619Y-74057000D01*
X43388619Y-74057000D02*
X43388619Y-74152238D01*
X43388619Y-74152238D02*
X43341000Y-74295095D01*
X43341000Y-74295095D02*
X43293380Y-74342714D01*
X43293380Y-74342714D02*
X42960047Y-74342714D01*
X42960047Y-74342714D02*
X42960047Y-74152238D01*
X43388619Y-74771286D02*
X42388619Y-74771286D01*
X42388619Y-74771286D02*
X43388619Y-75342714D01*
X43388619Y-75342714D02*
X42388619Y-75342714D01*
X43388619Y-75818905D02*
X42388619Y-75818905D01*
X42388619Y-75818905D02*
X42388619Y-76057000D01*
X42388619Y-76057000D02*
X42436238Y-76199857D01*
X42436238Y-76199857D02*
X42531476Y-76295095D01*
X42531476Y-76295095D02*
X42626714Y-76342714D01*
X42626714Y-76342714D02*
X42817190Y-76390333D01*
X42817190Y-76390333D02*
X42960047Y-76390333D01*
X42960047Y-76390333D02*
X43150523Y-76342714D01*
X43150523Y-76342714D02*
X43245761Y-76295095D01*
X43245761Y-76295095D02*
X43341000Y-76199857D01*
X43341000Y-76199857D02*
X43388619Y-76057000D01*
X43388619Y-76057000D02*
X43388619Y-75818905D01*
D11*
X26730000Y-74990000D02*
X24070000Y-74990000D01*
X26730000Y-26670000D02*
X26730000Y-74990000D01*
X26730000Y-26670000D02*
X24070000Y-26670000D01*
X26730000Y-25400000D02*
X26730000Y-24070000D01*
X26730000Y-24070000D02*
X25400000Y-24070000D01*
X24070000Y-26670000D02*
X24070000Y-74990000D01*
X118170000Y-74990000D02*
X115510000Y-74990000D01*
X118170000Y-26670000D02*
X118170000Y-74990000D01*
X118170000Y-26670000D02*
X115510000Y-26670000D01*
X118170000Y-25400000D02*
X118170000Y-24070000D01*
X118170000Y-24070000D02*
X116840000Y-24070000D01*
X115510000Y-26670000D02*
X115510000Y-74990000D01*
M02*
