G04 #@! TF.GenerationSoftware,KiCad,Pcbnew,7.0.2-0*
G04 #@! TF.CreationDate,2023-04-27T16:56:16-04:00*
G04 #@! TF.ProjectId,TFT_CAN,5446545f-4341-44e2-9e6b-696361645f70,rev?*
G04 #@! TF.SameCoordinates,Original*
G04 #@! TF.FileFunction,Copper,L1,Top*
G04 #@! TF.FilePolarity,Positive*
%FSLAX46Y46*%
G04 Gerber Fmt 4.6, Leading zero omitted, Abs format (unit mm)*
G04 Created by KiCad (PCBNEW 7.0.2-0) date 2023-04-27 16:56:16*
%MOMM*%
%LPD*%
G01*
G04 APERTURE LIST*
G04 Aperture macros list*
%AMRoundRect*
0 Rectangle with rounded corners*
0 $1 Rounding radius*
0 $2 $3 $4 $5 $6 $7 $8 $9 X,Y pos of 4 corners*
0 Add a 4 corners polygon primitive as box body*
4,1,4,$2,$3,$4,$5,$6,$7,$8,$9,$2,$3,0*
0 Add four circle primitives for the rounded corners*
1,1,$1+$1,$2,$3*
1,1,$1+$1,$4,$5*
1,1,$1+$1,$6,$7*
1,1,$1+$1,$8,$9*
0 Add four rect primitives between the rounded corners*
20,1,$1+$1,$2,$3,$4,$5,0*
20,1,$1+$1,$4,$5,$6,$7,0*
20,1,$1+$1,$6,$7,$8,$9,0*
20,1,$1+$1,$8,$9,$2,$3,0*%
G04 Aperture macros list end*
G04 #@! TA.AperFunction,ComponentPad*
%ADD10R,1.700000X1.700000*%
G04 #@! TD*
G04 #@! TA.AperFunction,ComponentPad*
%ADD11O,1.700000X1.700000*%
G04 #@! TD*
G04 #@! TA.AperFunction,ComponentPad*
%ADD12C,1.600000*%
G04 #@! TD*
G04 #@! TA.AperFunction,ComponentPad*
%ADD13R,1.600000X1.600000*%
G04 #@! TD*
G04 #@! TA.AperFunction,SMDPad,CuDef*
%ADD14RoundRect,0.250000X-0.450000X0.262500X-0.450000X-0.262500X0.450000X-0.262500X0.450000X0.262500X0*%
G04 #@! TD*
G04 #@! TA.AperFunction,ViaPad*
%ADD15C,0.800000*%
G04 #@! TD*
G04 #@! TA.AperFunction,Conductor*
%ADD16C,0.500000*%
G04 #@! TD*
G04 APERTURE END LIST*
D10*
X94107000Y-34290000D03*
D11*
X96647000Y-34290000D03*
X99187000Y-34290000D03*
X101727000Y-34290000D03*
X104267000Y-34290000D03*
X106807000Y-34290000D03*
D10*
X80111600Y-60706000D03*
D11*
X77571600Y-60706000D03*
X75031600Y-60706000D03*
X72491600Y-60706000D03*
D12*
X79502000Y-37357500D03*
X79502000Y-39897500D03*
X79502000Y-42437500D03*
X49022000Y-29737500D03*
X51562000Y-29737500D03*
X54102000Y-29737500D03*
X56642000Y-29737500D03*
X59182000Y-29737500D03*
X61722000Y-29737500D03*
X64262000Y-29737500D03*
X66802000Y-29737500D03*
X69342000Y-29737500D03*
X71882000Y-29737500D03*
X74422000Y-29737500D03*
X76962000Y-29737500D03*
X76962000Y-50057500D03*
X74422000Y-50057500D03*
X71882000Y-50057500D03*
X69342000Y-50057500D03*
X66802000Y-50057500D03*
X64262000Y-50057500D03*
X61722000Y-50057500D03*
X59182000Y-50057500D03*
X56642000Y-50057500D03*
X54102000Y-50057500D03*
X51562000Y-50057500D03*
X49022000Y-50057500D03*
X46482000Y-50057500D03*
X43942000Y-50057500D03*
X41402000Y-50057500D03*
D13*
X38862000Y-50057500D03*
D14*
X53924000Y-62972000D03*
X53924000Y-64797000D03*
D10*
X53924000Y-69190000D03*
D11*
X53924000Y-71730000D03*
D10*
X48895000Y-69312000D03*
D11*
X48895000Y-71852000D03*
D14*
X48895000Y-62920000D03*
X48895000Y-64745000D03*
D10*
X25400000Y-25400000D03*
D11*
X25400000Y-27940000D03*
X25400000Y-30480000D03*
X25400000Y-33020000D03*
X25400000Y-35560000D03*
X25400000Y-38100000D03*
X25400000Y-40640000D03*
X25400000Y-43180000D03*
X25400000Y-45720000D03*
X25400000Y-48260000D03*
X25400000Y-50800000D03*
X25400000Y-53340000D03*
X25400000Y-55880000D03*
X25400000Y-58420000D03*
X25400000Y-60960000D03*
X25400000Y-63500000D03*
X25400000Y-66040000D03*
X25400000Y-68580000D03*
X25400000Y-71120000D03*
X25400000Y-73660000D03*
D10*
X116840000Y-25400000D03*
D11*
X116840000Y-27940000D03*
X116840000Y-30480000D03*
X116840000Y-33020000D03*
X116840000Y-35560000D03*
X116840000Y-38100000D03*
X116840000Y-40640000D03*
X116840000Y-43180000D03*
X116840000Y-45720000D03*
X116840000Y-48260000D03*
X116840000Y-50800000D03*
X116840000Y-53340000D03*
X116840000Y-55880000D03*
X116840000Y-58420000D03*
X116840000Y-60960000D03*
X116840000Y-63500000D03*
X116840000Y-66040000D03*
X116840000Y-68580000D03*
X116840000Y-71120000D03*
X116840000Y-73660000D03*
D15*
X40640000Y-76200000D03*
X38100000Y-75946000D03*
X35560000Y-75946000D03*
X29210000Y-65151000D03*
X29464000Y-58928000D03*
X87680800Y-38455600D03*
X94742000Y-42214800D03*
X31597600Y-44399200D03*
X35712400Y-61722000D03*
X36576000Y-56896000D03*
X39624000Y-59944000D03*
X108712000Y-51816000D03*
X110236000Y-50800000D03*
X107188000Y-47752000D03*
X109220000Y-45720000D03*
X46990000Y-64389000D03*
X51308000Y-62230000D03*
D16*
X40640000Y-76200000D02*
X40640000Y-75565000D01*
X35560000Y-75946000D02*
X35560000Y-61874400D01*
X77316525Y-33173475D02*
X91183424Y-33173475D01*
X33147000Y-55626000D02*
X29845000Y-58928000D01*
X29845000Y-58928000D02*
X29464000Y-58928000D01*
X60641000Y-53659000D02*
X34987000Y-53659000D01*
X66059500Y-48260000D02*
X67590050Y-48260000D01*
X91971900Y-32385000D02*
X95885000Y-32385000D01*
X74295000Y-36195000D02*
X77316525Y-33173475D01*
X67590050Y-48260000D02*
X74295000Y-41555050D01*
X28321000Y-66040000D02*
X29210000Y-65151000D01*
X91183424Y-33173475D02*
X91971900Y-32385000D01*
X34987000Y-53659000D02*
X33147000Y-55499000D01*
X64262000Y-50057500D02*
X66059500Y-48260000D01*
X74295000Y-41555050D02*
X74295000Y-36195000D01*
X96647000Y-33147000D02*
X96647000Y-34290000D01*
X33147000Y-55499000D02*
X33147000Y-55626000D01*
X95885000Y-32385000D02*
X96647000Y-33147000D01*
X64135000Y-50165000D02*
X60641000Y-53659000D01*
X25400000Y-66040000D02*
X28321000Y-66040000D01*
X63246000Y-54483000D02*
X66675000Y-51054000D01*
X69215000Y-47644500D02*
X69215000Y-47625000D01*
X89118475Y-33873475D02*
X78394950Y-33873475D01*
X78394950Y-33873475D02*
X77815051Y-33873475D01*
X25400000Y-60960000D02*
X28888082Y-60960000D01*
X77815051Y-33873475D02*
X74995000Y-36693526D01*
X28888082Y-60960000D02*
X35365082Y-54483000D01*
X69215000Y-47625000D02*
X74995000Y-41845000D01*
X91948000Y-36703000D02*
X89118475Y-33873475D01*
X99187000Y-35560000D02*
X98044000Y-36703000D01*
X99187000Y-34290000D02*
X99187000Y-35560000D01*
X66675000Y-51054000D02*
X66675000Y-50165000D01*
X66802000Y-50057500D02*
X69215000Y-47644500D01*
X74995000Y-36693526D02*
X74995000Y-40005000D01*
X74995000Y-41845000D02*
X74995000Y-37273425D01*
X98044000Y-36703000D02*
X91948000Y-36703000D01*
X35365082Y-54483000D02*
X63246000Y-54483000D01*
X69342000Y-50057500D02*
X69850000Y-49549500D01*
X25400000Y-63500000D02*
X27432000Y-63500000D01*
X98614000Y-37403000D02*
X91658050Y-37403000D01*
X75695000Y-36983476D02*
X75695000Y-38230000D01*
X78105001Y-34573475D02*
X75695000Y-36983476D01*
X35749000Y-55183000D02*
X64197000Y-55183000D01*
X27432000Y-63500000D02*
X35749000Y-55183000D01*
X101727000Y-34290000D02*
X98614000Y-37403000D01*
X69850000Y-49549500D02*
X69850000Y-47979950D01*
X64197000Y-55183000D02*
X69215000Y-50165000D01*
X91658050Y-37403000D02*
X88828525Y-34573475D01*
X69850000Y-47979950D02*
X75695000Y-42134950D01*
X75695000Y-42134950D02*
X75695000Y-37618475D01*
X88828525Y-34573475D02*
X78105001Y-34573475D01*
X25400000Y-58420000D02*
X26111200Y-57708800D01*
X61722000Y-51562000D02*
X61595000Y-51435000D01*
X60325000Y-52959000D02*
X61722000Y-51562000D01*
X30022800Y-57633251D02*
X34697051Y-52959000D01*
X34697051Y-52959000D02*
X60325000Y-52959000D01*
X26111200Y-57708800D02*
X30022800Y-57708800D01*
X61595000Y-51435000D02*
X61595000Y-50165000D01*
X30022800Y-57708800D02*
X30022800Y-57633251D01*
X71755000Y-55600600D02*
X75031600Y-58877200D01*
X71755000Y-50165000D02*
X71755000Y-55600600D01*
X75031600Y-58877200D02*
X75031600Y-60706000D01*
X74295000Y-50165000D02*
X74295000Y-55549800D01*
X77571600Y-58826400D02*
X77571600Y-60706000D01*
X74295000Y-55549800D02*
X77571600Y-58826400D01*
X87680800Y-38455600D02*
X90881200Y-41656000D01*
X94183200Y-41656000D02*
X94742000Y-42214800D01*
X90881200Y-41656000D02*
X94183200Y-41656000D01*
X76542900Y-52244367D02*
X78681133Y-50106133D01*
X78740000Y-46990000D02*
X76395000Y-44645000D01*
X51234750Y-31950250D02*
X49022000Y-29737500D01*
X41915050Y-44399200D02*
X52799375Y-33514875D01*
X80111600Y-59283600D02*
X76542900Y-55714900D01*
X78450051Y-35273475D02*
X88538575Y-35273475D01*
X52799375Y-33514875D02*
X52845125Y-33514875D01*
X89715475Y-36477075D02*
X91341400Y-38103000D01*
X91820150Y-31546800D02*
X90893475Y-32473475D01*
X78681133Y-50106133D02*
X78681133Y-50008866D01*
X100454000Y-38103000D02*
X104267000Y-34290000D01*
X76542900Y-55714900D02*
X76542900Y-52244367D01*
X76395000Y-44645000D02*
X76395000Y-37328526D01*
X78681133Y-50008866D02*
X78740000Y-49949999D01*
X104267000Y-34290000D02*
X102336600Y-32359600D01*
X80111600Y-60706000D02*
X80111600Y-59283600D01*
X53886525Y-32473475D02*
X51757975Y-32473475D01*
X35560000Y-61874400D02*
X35712400Y-61722000D01*
X96875600Y-32359600D02*
X96062800Y-31546800D01*
X78740000Y-49949999D02*
X78740000Y-46990000D01*
X90893475Y-32473475D02*
X53886525Y-32473475D01*
X31597600Y-44399200D02*
X41915050Y-44399200D01*
X96062800Y-31546800D02*
X91820150Y-31546800D01*
X102336600Y-32359600D02*
X96875600Y-32359600D01*
X52845125Y-33514875D02*
X53886525Y-32473475D01*
X51757975Y-32473475D02*
X51234750Y-31950250D01*
X76395000Y-37328526D02*
X78450051Y-35273475D01*
X88538575Y-35273475D02*
X89715475Y-36450375D01*
X91341400Y-38103000D02*
X100454000Y-38103000D01*
X89715475Y-36450375D02*
X89715475Y-36477075D01*
X36576000Y-56896000D02*
X38100000Y-58420000D01*
X38100000Y-58420000D02*
X38100000Y-75946000D01*
X39370000Y-60198000D02*
X39624000Y-59944000D01*
X39370000Y-74295000D02*
X39370000Y-60198000D01*
X40640000Y-75565000D02*
X39370000Y-74295000D01*
X110236000Y-53340000D02*
X108712000Y-51816000D01*
X116840000Y-53340000D02*
X110236000Y-53340000D01*
X116840000Y-50800000D02*
X110236000Y-50800000D01*
X109220000Y-49784000D02*
X107188000Y-47752000D01*
X114808000Y-48260000D02*
X113284000Y-49784000D01*
X116840000Y-48260000D02*
X114808000Y-48260000D01*
X113284000Y-49784000D02*
X109220000Y-49784000D01*
X116840000Y-45720000D02*
X109220000Y-45720000D01*
X47346000Y-64745000D02*
X46990000Y-64389000D01*
X48895000Y-69249750D02*
X48895000Y-64812250D01*
X48895000Y-64745000D02*
X47346000Y-64745000D01*
X53848000Y-69122750D02*
X53848000Y-64735250D01*
X52859000Y-64797000D02*
X51308000Y-63246000D01*
X53924000Y-64797000D02*
X52859000Y-64797000D01*
X51308000Y-63246000D02*
X51308000Y-62230000D01*
G04 #@! TA.AperFunction,Conductor*
G36*
X119296621Y-22905502D02*
G01*
X119343114Y-22959158D01*
X119354500Y-23011500D01*
X119354500Y-76048500D01*
X119334498Y-76116621D01*
X119280842Y-76163114D01*
X119228500Y-76174500D01*
X44480136Y-76174500D01*
X44469574Y-76172399D01*
X44450000Y-76172399D01*
X44444928Y-76174500D01*
X44430482Y-76180482D01*
X44422399Y-76199999D01*
X44422399Y-76219575D01*
X44424500Y-76230136D01*
X44424500Y-86208500D01*
X44404498Y-86276621D01*
X44350842Y-86323114D01*
X44298500Y-86334500D01*
X33933500Y-86334500D01*
X33865379Y-86314498D01*
X33818886Y-86260842D01*
X33807500Y-86208500D01*
X33807500Y-76230136D01*
X33809601Y-76219575D01*
X33809601Y-76199999D01*
X33801517Y-76180483D01*
X33787072Y-76174500D01*
X33782000Y-76172399D01*
X33762426Y-76172399D01*
X33751864Y-76174500D01*
X23011500Y-76174500D01*
X22943379Y-76154498D01*
X22896886Y-76100842D01*
X22885500Y-76048500D01*
X22885500Y-75945999D01*
X34646496Y-75945999D01*
X34666458Y-76135929D01*
X34725472Y-76317556D01*
X34820958Y-76482942D01*
X34948746Y-76624865D01*
X34948747Y-76624866D01*
X35103248Y-76737118D01*
X35277712Y-76814794D01*
X35464513Y-76854500D01*
X35464515Y-76854500D01*
X35655485Y-76854500D01*
X35655487Y-76854500D01*
X35842288Y-76814794D01*
X36016752Y-76737118D01*
X36171253Y-76624866D01*
X36299040Y-76482944D01*
X36394527Y-76317556D01*
X36453542Y-76135928D01*
X36473504Y-75946000D01*
X36453542Y-75756072D01*
X36398676Y-75587212D01*
X36394527Y-75574443D01*
X36335381Y-75471999D01*
X36318500Y-75408999D01*
X36318500Y-62454955D01*
X36338502Y-62386834D01*
X36350858Y-62370651D01*
X36451440Y-62258944D01*
X36546927Y-62093556D01*
X36605942Y-61911928D01*
X36625904Y-61722000D01*
X36605942Y-61532072D01*
X36550424Y-61361206D01*
X36546927Y-61350443D01*
X36451441Y-61185057D01*
X36323652Y-61043133D01*
X36169153Y-60930883D01*
X36169152Y-60930882D01*
X35994688Y-60853206D01*
X35807887Y-60813500D01*
X35616913Y-60813500D01*
X35492379Y-60839970D01*
X35430111Y-60853206D01*
X35290096Y-60915544D01*
X35256794Y-60930372D01*
X35255646Y-60930883D01*
X35101147Y-61043133D01*
X34973358Y-61185057D01*
X34877872Y-61350443D01*
X34818858Y-61532070D01*
X34798896Y-61722000D01*
X34802094Y-61752430D01*
X34800904Y-61771019D01*
X34801500Y-61771019D01*
X34801500Y-61784029D01*
X34799202Y-61806515D01*
X34801447Y-61883658D01*
X34801500Y-61887322D01*
X34801500Y-75408999D01*
X34784619Y-75471999D01*
X34725472Y-75574443D01*
X34666458Y-75756070D01*
X34646496Y-75945999D01*
X22885500Y-75945999D01*
X22885500Y-73660000D01*
X24036844Y-73660000D01*
X24055436Y-73884368D01*
X24055436Y-73884371D01*
X24055437Y-73884372D01*
X24110702Y-74102611D01*
X24201139Y-74308790D01*
X24324278Y-74497268D01*
X24476762Y-74662908D01*
X24654421Y-74801187D01*
X24654424Y-74801189D01*
X24852426Y-74908342D01*
X25065365Y-74981444D01*
X25287431Y-75018500D01*
X25287434Y-75018500D01*
X25512566Y-75018500D01*
X25512569Y-75018500D01*
X25734635Y-74981444D01*
X25947574Y-74908342D01*
X26145576Y-74801189D01*
X26323240Y-74662906D01*
X26475722Y-74497268D01*
X26598860Y-74308791D01*
X26689296Y-74102616D01*
X26744564Y-73884368D01*
X26763156Y-73660000D01*
X26744564Y-73435632D01*
X26689296Y-73217384D01*
X26598860Y-73011209D01*
X26475722Y-72822732D01*
X26323240Y-72657094D01*
X26323239Y-72657093D01*
X26323237Y-72657091D01*
X26145578Y-72518812D01*
X25947573Y-72411657D01*
X25803427Y-72362172D01*
X25734635Y-72338556D01*
X25512569Y-72301500D01*
X25287431Y-72301500D01*
X25065365Y-72338556D01*
X25065362Y-72338556D01*
X25065362Y-72338557D01*
X24852426Y-72411657D01*
X24654421Y-72518812D01*
X24476762Y-72657091D01*
X24324278Y-72822731D01*
X24201139Y-73011209D01*
X24110702Y-73217388D01*
X24055437Y-73435627D01*
X24055436Y-73435632D01*
X24036844Y-73660000D01*
X22885500Y-73660000D01*
X22885500Y-68580000D01*
X24036844Y-68580000D01*
X24055436Y-68804368D01*
X24055436Y-68804371D01*
X24055437Y-68804372D01*
X24110702Y-69022611D01*
X24201139Y-69228790D01*
X24324278Y-69417268D01*
X24476762Y-69582908D01*
X24654421Y-69721187D01*
X24654424Y-69721189D01*
X24852426Y-69828342D01*
X25065365Y-69901444D01*
X25287431Y-69938500D01*
X25287434Y-69938500D01*
X25512566Y-69938500D01*
X25512569Y-69938500D01*
X25734635Y-69901444D01*
X25947574Y-69828342D01*
X26145576Y-69721189D01*
X26323240Y-69582906D01*
X26475722Y-69417268D01*
X26598860Y-69228791D01*
X26689296Y-69022616D01*
X26744564Y-68804368D01*
X26763156Y-68580000D01*
X26744564Y-68355632D01*
X26689296Y-68137384D01*
X26598860Y-67931209D01*
X26475722Y-67742732D01*
X26323240Y-67577094D01*
X26323239Y-67577093D01*
X26323237Y-67577091D01*
X26145579Y-67438813D01*
X26145577Y-67438812D01*
X26145576Y-67438811D01*
X26112317Y-67420812D01*
X26061929Y-67370801D01*
X26046576Y-67301484D01*
X26071136Y-67234871D01*
X26112316Y-67199187D01*
X26145576Y-67181189D01*
X26323240Y-67042906D01*
X26475722Y-66877268D01*
X26489888Y-66855584D01*
X26543892Y-66809496D01*
X26595371Y-66798500D01*
X28256559Y-66798500D01*
X28274820Y-66799830D01*
X28298789Y-66803341D01*
X28345253Y-66799275D01*
X28348647Y-66798979D01*
X28359628Y-66798500D01*
X28361513Y-66798500D01*
X28365180Y-66798500D01*
X28396301Y-66794861D01*
X28399896Y-66794494D01*
X28475426Y-66787887D01*
X28475430Y-66787885D01*
X28476751Y-66787770D01*
X28495856Y-66783535D01*
X28497106Y-66783079D01*
X28497113Y-66783079D01*
X28568400Y-66757132D01*
X28571769Y-66755961D01*
X28643738Y-66732114D01*
X28643739Y-66732112D01*
X28645007Y-66731693D01*
X28662613Y-66723169D01*
X28663725Y-66722437D01*
X28663732Y-66722435D01*
X28727138Y-66680730D01*
X28730161Y-66678806D01*
X28794651Y-66639030D01*
X28794652Y-66639028D01*
X28795788Y-66638328D01*
X28810959Y-66625970D01*
X28811871Y-66625002D01*
X28811874Y-66625001D01*
X28863929Y-66569824D01*
X28866448Y-66567231D01*
X29366332Y-66067347D01*
X29428642Y-66033323D01*
X29428946Y-66033257D01*
X29492288Y-66019794D01*
X29666752Y-65942118D01*
X29821253Y-65829866D01*
X29949040Y-65687944D01*
X30044527Y-65522556D01*
X30103542Y-65340928D01*
X30123504Y-65151000D01*
X30103542Y-64961072D01*
X30044527Y-64779444D01*
X30044527Y-64779443D01*
X29949041Y-64614057D01*
X29834783Y-64487161D01*
X29821253Y-64472134D01*
X29666752Y-64359882D01*
X29492288Y-64282206D01*
X29305487Y-64242500D01*
X29114513Y-64242500D01*
X28989979Y-64268970D01*
X28927711Y-64282206D01*
X28753246Y-64359883D01*
X28598747Y-64472133D01*
X28470958Y-64614057D01*
X28375473Y-64779442D01*
X28320613Y-64948283D01*
X28289876Y-64998441D01*
X28043724Y-65244595D01*
X27981412Y-65278620D01*
X27954628Y-65281500D01*
X26595371Y-65281500D01*
X26527250Y-65261498D01*
X26489888Y-65224415D01*
X26475723Y-65202734D01*
X26475722Y-65202732D01*
X26323240Y-65037094D01*
X26323239Y-65037093D01*
X26323237Y-65037091D01*
X26145578Y-64898812D01*
X26112317Y-64880812D01*
X26061927Y-64830798D01*
X26046576Y-64761481D01*
X26071138Y-64694868D01*
X26112315Y-64659188D01*
X26145576Y-64641189D01*
X26323240Y-64502906D01*
X26475722Y-64337268D01*
X26489888Y-64315584D01*
X26543892Y-64269496D01*
X26595371Y-64258500D01*
X27367559Y-64258500D01*
X27385820Y-64259830D01*
X27409789Y-64263341D01*
X27456253Y-64259275D01*
X27459647Y-64258979D01*
X27470628Y-64258500D01*
X27472513Y-64258500D01*
X27476180Y-64258500D01*
X27507301Y-64254861D01*
X27510896Y-64254494D01*
X27586426Y-64247887D01*
X27586430Y-64247885D01*
X27587751Y-64247770D01*
X27606856Y-64243535D01*
X27608106Y-64243079D01*
X27608113Y-64243079D01*
X27679400Y-64217132D01*
X27682769Y-64215961D01*
X27754738Y-64192114D01*
X27754739Y-64192112D01*
X27756007Y-64191693D01*
X27773613Y-64183169D01*
X27774725Y-64182437D01*
X27774732Y-64182435D01*
X27838138Y-64140730D01*
X27841161Y-64138806D01*
X27905651Y-64099030D01*
X27905652Y-64099028D01*
X27906788Y-64098328D01*
X27921959Y-64085970D01*
X27922871Y-64085002D01*
X27922874Y-64085001D01*
X27974929Y-64029824D01*
X27977448Y-64027231D01*
X35496100Y-56508580D01*
X35558410Y-56474556D01*
X35629225Y-56479621D01*
X35686061Y-56522168D01*
X35710872Y-56588688D01*
X35705027Y-56636612D01*
X35682458Y-56706072D01*
X35662496Y-56896000D01*
X35682458Y-57085929D01*
X35741472Y-57267556D01*
X35836958Y-57432942D01*
X35836960Y-57432944D01*
X35964747Y-57574866D01*
X36119248Y-57687118D01*
X36293712Y-57764794D01*
X36356771Y-57778197D01*
X36419244Y-57811926D01*
X36419668Y-57812349D01*
X37304595Y-58697276D01*
X37338621Y-58759588D01*
X37341500Y-58786371D01*
X37341500Y-75408999D01*
X37324619Y-75471999D01*
X37265472Y-75574443D01*
X37206458Y-75756070D01*
X37186496Y-75946000D01*
X37206458Y-76135929D01*
X37265472Y-76317556D01*
X37360958Y-76482942D01*
X37488747Y-76624865D01*
X37488747Y-76624866D01*
X37643248Y-76737118D01*
X37817712Y-76814794D01*
X38004513Y-76854500D01*
X38004515Y-76854500D01*
X38195485Y-76854500D01*
X38195487Y-76854500D01*
X38382288Y-76814794D01*
X38556752Y-76737118D01*
X38711253Y-76624866D01*
X38839040Y-76482944D01*
X38934527Y-76317556D01*
X38993542Y-76135928D01*
X39013504Y-75946000D01*
X38993542Y-75756072D01*
X38938676Y-75587212D01*
X38934527Y-75574443D01*
X38875381Y-75471999D01*
X38858500Y-75408999D01*
X38858500Y-75160371D01*
X38878502Y-75092250D01*
X38932158Y-75045757D01*
X39002432Y-75035653D01*
X39067012Y-75065147D01*
X39073595Y-75071276D01*
X39757076Y-75754757D01*
X39791102Y-75817069D01*
X39787814Y-75882787D01*
X39746459Y-76010068D01*
X39746458Y-76010072D01*
X39730373Y-76163114D01*
X39726496Y-76200000D01*
X39746458Y-76389929D01*
X39805472Y-76571556D01*
X39900958Y-76736942D01*
X39971055Y-76814793D01*
X40028747Y-76878866D01*
X40183248Y-76991118D01*
X40357712Y-77068794D01*
X40544513Y-77108500D01*
X40544515Y-77108500D01*
X40735485Y-77108500D01*
X40735487Y-77108500D01*
X40922288Y-77068794D01*
X41096752Y-76991118D01*
X41251253Y-76878866D01*
X41379040Y-76736944D01*
X41474527Y-76571556D01*
X41533542Y-76389928D01*
X41553504Y-76200000D01*
X41533542Y-76010072D01*
X41474527Y-75828444D01*
X41474527Y-75828443D01*
X41415381Y-75725999D01*
X41398500Y-75662999D01*
X41398500Y-75629435D01*
X41399831Y-75611172D01*
X41399859Y-75610977D01*
X41403341Y-75587211D01*
X41398979Y-75537351D01*
X41398500Y-75526371D01*
X41398500Y-75524487D01*
X41398500Y-75520820D01*
X41394862Y-75489705D01*
X41394492Y-75486078D01*
X41387887Y-75410573D01*
X41387886Y-75410570D01*
X41387770Y-75409242D01*
X41383537Y-75390147D01*
X41383079Y-75388889D01*
X41383079Y-75388887D01*
X41357137Y-75317611D01*
X41355977Y-75314277D01*
X41332114Y-75242261D01*
X41332111Y-75242256D01*
X41331691Y-75240988D01*
X41323167Y-75223380D01*
X41280775Y-75158925D01*
X41278807Y-75155836D01*
X41238328Y-75090211D01*
X41225964Y-75075034D01*
X41169825Y-75022069D01*
X41167197Y-75019516D01*
X40165405Y-74017724D01*
X40131379Y-73955412D01*
X40128500Y-73928629D01*
X40128500Y-73660000D01*
X115476844Y-73660000D01*
X115495436Y-73884368D01*
X115495436Y-73884371D01*
X115495437Y-73884372D01*
X115550702Y-74102611D01*
X115641139Y-74308790D01*
X115764278Y-74497268D01*
X115916762Y-74662908D01*
X116094421Y-74801187D01*
X116094424Y-74801189D01*
X116292426Y-74908342D01*
X116505365Y-74981444D01*
X116727431Y-75018500D01*
X116727434Y-75018500D01*
X116952566Y-75018500D01*
X116952569Y-75018500D01*
X117174635Y-74981444D01*
X117387574Y-74908342D01*
X117585576Y-74801189D01*
X117763240Y-74662906D01*
X117915722Y-74497268D01*
X118038860Y-74308791D01*
X118129296Y-74102616D01*
X118184564Y-73884368D01*
X118203156Y-73660000D01*
X118184564Y-73435632D01*
X118129296Y-73217384D01*
X118038860Y-73011209D01*
X117915722Y-72822732D01*
X117763240Y-72657094D01*
X117763239Y-72657093D01*
X117763237Y-72657091D01*
X117585578Y-72518812D01*
X117387573Y-72411657D01*
X117243427Y-72362172D01*
X117174635Y-72338556D01*
X116952569Y-72301500D01*
X116727431Y-72301500D01*
X116505365Y-72338556D01*
X116505362Y-72338556D01*
X116505362Y-72338557D01*
X116292426Y-72411657D01*
X116094421Y-72518812D01*
X115916762Y-72657091D01*
X115764278Y-72822731D01*
X115641139Y-73011209D01*
X115550702Y-73217388D01*
X115495437Y-73435627D01*
X115495436Y-73435632D01*
X115476844Y-73660000D01*
X40128500Y-73660000D01*
X40128500Y-64389000D01*
X46076496Y-64389000D01*
X46096458Y-64578929D01*
X46155472Y-64760556D01*
X46250958Y-64925942D01*
X46351037Y-65037091D01*
X46378747Y-65067866D01*
X46533248Y-65180118D01*
X46707712Y-65257794D01*
X46769921Y-65271016D01*
X46824710Y-65297738D01*
X46828866Y-65301225D01*
X46836974Y-65308655D01*
X46840899Y-65312580D01*
X46863231Y-65330238D01*
X46865453Y-65331995D01*
X46868292Y-65334308D01*
X46927382Y-65383890D01*
X46943889Y-65394406D01*
X47013806Y-65427008D01*
X47017043Y-65428574D01*
X47084812Y-65462609D01*
X47084814Y-65462609D01*
X47086014Y-65463212D01*
X47104488Y-65469633D01*
X47105792Y-65469902D01*
X47105794Y-65469903D01*
X47180044Y-65485234D01*
X47183587Y-65486019D01*
X47257344Y-65503500D01*
X47257346Y-65503500D01*
X47258641Y-65503807D01*
X47278112Y-65505796D01*
X47279439Y-65505757D01*
X47279442Y-65505758D01*
X47355239Y-65503552D01*
X47358903Y-65503500D01*
X47816128Y-65503500D01*
X47884249Y-65523502D01*
X47905218Y-65540400D01*
X47971348Y-65606530D01*
X48076647Y-65671479D01*
X48124125Y-65724263D01*
X48136500Y-65778719D01*
X48136500Y-67827500D01*
X48116498Y-67895621D01*
X48062842Y-67942114D01*
X48010500Y-67953500D01*
X47996362Y-67953500D01*
X47993013Y-67953859D01*
X47993013Y-67953860D01*
X47935799Y-67960011D01*
X47798794Y-68011111D01*
X47681738Y-68098738D01*
X47594111Y-68215794D01*
X47567175Y-68288013D01*
X47543011Y-68352799D01*
X47536500Y-68413362D01*
X47536500Y-70210638D01*
X47543011Y-70271201D01*
X47568561Y-70339702D01*
X47594111Y-70408205D01*
X47681738Y-70525261D01*
X47798794Y-70612888D01*
X47798795Y-70612888D01*
X47798796Y-70612889D01*
X47913808Y-70655786D01*
X47970642Y-70698331D01*
X47995453Y-70764852D01*
X47980362Y-70834226D01*
X47962475Y-70859178D01*
X47819281Y-71014728D01*
X47696139Y-71203209D01*
X47605702Y-71409388D01*
X47550437Y-71627627D01*
X47550436Y-71627632D01*
X47531844Y-71852000D01*
X47550436Y-72076368D01*
X47550436Y-72076371D01*
X47550437Y-72076372D01*
X47605702Y-72294611D01*
X47696139Y-72500790D01*
X47798256Y-72657091D01*
X47819278Y-72689268D01*
X47942141Y-72822732D01*
X47971762Y-72854908D01*
X48149421Y-72993187D01*
X48149424Y-72993189D01*
X48347426Y-73100342D01*
X48560365Y-73173444D01*
X48782431Y-73210500D01*
X48782434Y-73210500D01*
X49007566Y-73210500D01*
X49007569Y-73210500D01*
X49229635Y-73173444D01*
X49442574Y-73100342D01*
X49640576Y-72993189D01*
X49818240Y-72854906D01*
X49970722Y-72689268D01*
X50093860Y-72500791D01*
X50184296Y-72294616D01*
X50239564Y-72076368D01*
X50258156Y-71852000D01*
X50239564Y-71627632D01*
X50184296Y-71409384D01*
X50093860Y-71203209D01*
X49970722Y-71014732D01*
X49827524Y-70859179D01*
X49796103Y-70795514D01*
X49804090Y-70724968D01*
X49848949Y-70669939D01*
X49876183Y-70655789D01*
X49991204Y-70612889D01*
X50108261Y-70525261D01*
X50195889Y-70408204D01*
X50246989Y-70271201D01*
X50253500Y-70210638D01*
X50253500Y-68413362D01*
X50246989Y-68352799D01*
X50195889Y-68215796D01*
X50195888Y-68215794D01*
X50108261Y-68098738D01*
X49991205Y-68011111D01*
X49899047Y-67976738D01*
X49854201Y-67960011D01*
X49793638Y-67953500D01*
X49790269Y-67953500D01*
X49779500Y-67953500D01*
X49711379Y-67933498D01*
X49664886Y-67879842D01*
X49653500Y-67827500D01*
X49653500Y-65778719D01*
X49673502Y-65710598D01*
X49713352Y-65671479D01*
X49818652Y-65606530D01*
X49944030Y-65481152D01*
X50037115Y-65330238D01*
X50092887Y-65161926D01*
X50103500Y-65058045D01*
X50103499Y-64431956D01*
X50092887Y-64328074D01*
X50037115Y-64159762D01*
X49944030Y-64008848D01*
X49944028Y-64008846D01*
X49944027Y-64008844D01*
X49818655Y-63883472D01*
X49818652Y-63883470D01*
X49667738Y-63790385D01*
X49499426Y-63734613D01*
X49499423Y-63734612D01*
X49499421Y-63734612D01*
X49398746Y-63724326D01*
X49398725Y-63724324D01*
X49395545Y-63724000D01*
X49392339Y-63724000D01*
X48397661Y-63724000D01*
X48397641Y-63724000D01*
X48394456Y-63724001D01*
X48391279Y-63724325D01*
X48391270Y-63724326D01*
X48290573Y-63734613D01*
X48122262Y-63790385D01*
X47971346Y-63883471D01*
X47945339Y-63909478D01*
X47883027Y-63943502D01*
X47812211Y-63938436D01*
X47755376Y-63895889D01*
X47747126Y-63883381D01*
X47729041Y-63852057D01*
X47614069Y-63724368D01*
X47601253Y-63710134D01*
X47446752Y-63597882D01*
X47272288Y-63520206D01*
X47085487Y-63480500D01*
X46894513Y-63480500D01*
X46769979Y-63506970D01*
X46707711Y-63520206D01*
X46533246Y-63597883D01*
X46378747Y-63710133D01*
X46250958Y-63852057D01*
X46155472Y-64017443D01*
X46096458Y-64199070D01*
X46076496Y-64389000D01*
X40128500Y-64389000D01*
X40128500Y-62230000D01*
X50394496Y-62230000D01*
X50414458Y-62419929D01*
X50473471Y-62601553D01*
X50473473Y-62601556D01*
X50532619Y-62704000D01*
X50549500Y-62766999D01*
X50549499Y-63181559D01*
X50548169Y-63199816D01*
X50544658Y-63223786D01*
X50549020Y-63273633D01*
X50549500Y-63284616D01*
X50549500Y-63290180D01*
X50549924Y-63293815D01*
X50549926Y-63293834D01*
X50553135Y-63321291D01*
X50553507Y-63324932D01*
X50560228Y-63401744D01*
X50564469Y-63420873D01*
X50590846Y-63493342D01*
X50592049Y-63496804D01*
X50616304Y-63570000D01*
X50624837Y-63587627D01*
X50667232Y-63652084D01*
X50669171Y-63655127D01*
X50703100Y-63710134D01*
X50709674Y-63720792D01*
X50722038Y-63735967D01*
X50778155Y-63788911D01*
X50780784Y-63791465D01*
X52277092Y-65287773D01*
X52289060Y-65301620D01*
X52303531Y-65321058D01*
X52327212Y-65340929D01*
X52341870Y-65353228D01*
X52349974Y-65360655D01*
X52353899Y-65364580D01*
X52376231Y-65382238D01*
X52378453Y-65383995D01*
X52381292Y-65386308D01*
X52440382Y-65435890D01*
X52456889Y-65446405D01*
X52458093Y-65446966D01*
X52458094Y-65446967D01*
X52497156Y-65465182D01*
X52526794Y-65479002D01*
X52530094Y-65480600D01*
X52599000Y-65515206D01*
X52617485Y-65521631D01*
X52618791Y-65521900D01*
X52618794Y-65521902D01*
X52693113Y-65537247D01*
X52696525Y-65538003D01*
X52770344Y-65555500D01*
X52770347Y-65555500D01*
X52771642Y-65555807D01*
X52791110Y-65557796D01*
X52792438Y-65557757D01*
X52792442Y-65557758D01*
X52842221Y-65556309D01*
X52910893Y-65574321D01*
X52934975Y-65593157D01*
X53000348Y-65658530D01*
X53029645Y-65676600D01*
X53077124Y-65729385D01*
X53089500Y-65783842D01*
X53089500Y-67711424D01*
X53069498Y-67779545D01*
X53015842Y-67826038D01*
X52976973Y-67836702D01*
X52969069Y-67837551D01*
X52964799Y-67838011D01*
X52919131Y-67855044D01*
X52827794Y-67889111D01*
X52710738Y-67976738D01*
X52623111Y-68093794D01*
X52577608Y-68215794D01*
X52572011Y-68230799D01*
X52565500Y-68291362D01*
X52565500Y-70088638D01*
X52572011Y-70149201D01*
X52594926Y-70210638D01*
X52623111Y-70286205D01*
X52710738Y-70403261D01*
X52827794Y-70490888D01*
X52827795Y-70490888D01*
X52827796Y-70490889D01*
X52942808Y-70533786D01*
X52999642Y-70576331D01*
X53024453Y-70642852D01*
X53009362Y-70712226D01*
X52991475Y-70737178D01*
X52848281Y-70892728D01*
X52725139Y-71081209D01*
X52634702Y-71287388D01*
X52603809Y-71409384D01*
X52579436Y-71505632D01*
X52560844Y-71730000D01*
X52579436Y-71954368D01*
X52579436Y-71954371D01*
X52579437Y-71954372D01*
X52634702Y-72172611D01*
X52725139Y-72378790D01*
X52816620Y-72518812D01*
X52848278Y-72567268D01*
X52930969Y-72657094D01*
X53000762Y-72732908D01*
X53157506Y-72854908D01*
X53178424Y-72871189D01*
X53376426Y-72978342D01*
X53589365Y-73051444D01*
X53811431Y-73088500D01*
X53811434Y-73088500D01*
X54036566Y-73088500D01*
X54036569Y-73088500D01*
X54258635Y-73051444D01*
X54471574Y-72978342D01*
X54669576Y-72871189D01*
X54847240Y-72732906D01*
X54999722Y-72567268D01*
X55122860Y-72378791D01*
X55213296Y-72172616D01*
X55268564Y-71954368D01*
X55287156Y-71730000D01*
X55268564Y-71505632D01*
X55213296Y-71287384D01*
X55122860Y-71081209D01*
X54999722Y-70892732D01*
X54856524Y-70737179D01*
X54825103Y-70673514D01*
X54833090Y-70602968D01*
X54877949Y-70547939D01*
X54905183Y-70533789D01*
X55020204Y-70490889D01*
X55137261Y-70403261D01*
X55224889Y-70286204D01*
X55275989Y-70149201D01*
X55282500Y-70088638D01*
X55282500Y-68580000D01*
X115476844Y-68580000D01*
X115495436Y-68804368D01*
X115495436Y-68804371D01*
X115495437Y-68804372D01*
X115550702Y-69022611D01*
X115641139Y-69228790D01*
X115764278Y-69417268D01*
X115916762Y-69582908D01*
X116094421Y-69721187D01*
X116094424Y-69721189D01*
X116292426Y-69828342D01*
X116505365Y-69901444D01*
X116727431Y-69938500D01*
X116727434Y-69938500D01*
X116952566Y-69938500D01*
X116952569Y-69938500D01*
X117174635Y-69901444D01*
X117387574Y-69828342D01*
X117585576Y-69721189D01*
X117763240Y-69582906D01*
X117915722Y-69417268D01*
X118038860Y-69228791D01*
X118129296Y-69022616D01*
X118184564Y-68804368D01*
X118203156Y-68580000D01*
X118184564Y-68355632D01*
X118129296Y-68137384D01*
X118038860Y-67931209D01*
X117915722Y-67742732D01*
X117763240Y-67577094D01*
X117763239Y-67577093D01*
X117763237Y-67577091D01*
X117585579Y-67438813D01*
X117585577Y-67438812D01*
X117585576Y-67438811D01*
X117552317Y-67420812D01*
X117501929Y-67370801D01*
X117486576Y-67301484D01*
X117511136Y-67234871D01*
X117552316Y-67199187D01*
X117585576Y-67181189D01*
X117763240Y-67042906D01*
X117915722Y-66877268D01*
X118038860Y-66688791D01*
X118129296Y-66482616D01*
X118184564Y-66264368D01*
X118203156Y-66040000D01*
X118184564Y-65815632D01*
X118129296Y-65597384D01*
X118038860Y-65391209D01*
X117915722Y-65202732D01*
X117763240Y-65037094D01*
X117763239Y-65037093D01*
X117763237Y-65037091D01*
X117585579Y-64898813D01*
X117585577Y-64898812D01*
X117585576Y-64898811D01*
X117552317Y-64880812D01*
X117501929Y-64830801D01*
X117486576Y-64761484D01*
X117511136Y-64694871D01*
X117552316Y-64659187D01*
X117585576Y-64641189D01*
X117763240Y-64502906D01*
X117915722Y-64337268D01*
X118038860Y-64148791D01*
X118129296Y-63942616D01*
X118184564Y-63724368D01*
X118203156Y-63500000D01*
X118184564Y-63275632D01*
X118129296Y-63057384D01*
X118038860Y-62851209D01*
X117915722Y-62662732D01*
X117763240Y-62497094D01*
X117763239Y-62497093D01*
X117763237Y-62497091D01*
X117585579Y-62358813D01*
X117585577Y-62358812D01*
X117585576Y-62358811D01*
X117552317Y-62340812D01*
X117501929Y-62290801D01*
X117486576Y-62221484D01*
X117511136Y-62154871D01*
X117552316Y-62119187D01*
X117585576Y-62101189D01*
X117763240Y-61962906D01*
X117915722Y-61797268D01*
X118038860Y-61608791D01*
X118129296Y-61402616D01*
X118184564Y-61184368D01*
X118203156Y-60960000D01*
X118184564Y-60735632D01*
X118129296Y-60517384D01*
X118038860Y-60311209D01*
X117915722Y-60122732D01*
X117763240Y-59957094D01*
X117763239Y-59957093D01*
X117763237Y-59957091D01*
X117585578Y-59818812D01*
X117387573Y-59711657D01*
X117243427Y-59662172D01*
X117174635Y-59638556D01*
X116952569Y-59601500D01*
X116727431Y-59601500D01*
X116505365Y-59638556D01*
X116505362Y-59638556D01*
X116505362Y-59638557D01*
X116292426Y-59711657D01*
X116094421Y-59818812D01*
X115916762Y-59957091D01*
X115764278Y-60122731D01*
X115641139Y-60311209D01*
X115550702Y-60517388D01*
X115495437Y-60735627D01*
X115495436Y-60735632D01*
X115476844Y-60960000D01*
X115495436Y-61184368D01*
X115495436Y-61184371D01*
X115495437Y-61184372D01*
X115550702Y-61402611D01*
X115641139Y-61608790D01*
X115764278Y-61797268D01*
X115916762Y-61962908D01*
X116094418Y-62101185D01*
X116094420Y-62101186D01*
X116094424Y-62101189D01*
X116127682Y-62119187D01*
X116178071Y-62169200D01*
X116193423Y-62238517D01*
X116168862Y-62305130D01*
X116127683Y-62340812D01*
X116102794Y-62354281D01*
X116094418Y-62358814D01*
X115916762Y-62497091D01*
X115764278Y-62662731D01*
X115641139Y-62851209D01*
X115550702Y-63057388D01*
X115516933Y-63190741D01*
X115495436Y-63275632D01*
X115476844Y-63500000D01*
X115495436Y-63724368D01*
X115495436Y-63724371D01*
X115495437Y-63724372D01*
X115550702Y-63942611D01*
X115641139Y-64148790D01*
X115764278Y-64337268D01*
X115916762Y-64502908D01*
X116094418Y-64641185D01*
X116094420Y-64641186D01*
X116094424Y-64641189D01*
X116127682Y-64659187D01*
X116178071Y-64709200D01*
X116193423Y-64778517D01*
X116168862Y-64845130D01*
X116127683Y-64880812D01*
X116102794Y-64894281D01*
X116094418Y-64898814D01*
X115916762Y-65037091D01*
X115764278Y-65202731D01*
X115641139Y-65391209D01*
X115550702Y-65597388D01*
X115504075Y-65781516D01*
X115495436Y-65815632D01*
X115476844Y-66040000D01*
X115495436Y-66264368D01*
X115495436Y-66264371D01*
X115495437Y-66264372D01*
X115550702Y-66482611D01*
X115641139Y-66688790D01*
X115764278Y-66877268D01*
X115916762Y-67042908D01*
X116094418Y-67181185D01*
X116094420Y-67181186D01*
X116094424Y-67181189D01*
X116127682Y-67199187D01*
X116178071Y-67249200D01*
X116193423Y-67318517D01*
X116168862Y-67385130D01*
X116127683Y-67420812D01*
X116102794Y-67434281D01*
X116094418Y-67438814D01*
X115916762Y-67577091D01*
X115764278Y-67742731D01*
X115641139Y-67931209D01*
X115550702Y-68137388D01*
X115496153Y-68352799D01*
X115495436Y-68355632D01*
X115476844Y-68580000D01*
X55282500Y-68580000D01*
X55282500Y-68291362D01*
X55275989Y-68230799D01*
X55224889Y-68093796D01*
X55162992Y-68011111D01*
X55137261Y-67976738D01*
X55020205Y-67889111D01*
X54951702Y-67863561D01*
X54883201Y-67838011D01*
X54822638Y-67831500D01*
X54819269Y-67831500D01*
X54732500Y-67831500D01*
X54664379Y-67811498D01*
X54617886Y-67757842D01*
X54606500Y-67705500D01*
X54606500Y-65872501D01*
X54626502Y-65804380D01*
X54680158Y-65757887D01*
X54692855Y-65752901D01*
X54696738Y-65751615D01*
X54847652Y-65658530D01*
X54973030Y-65533152D01*
X55066115Y-65382238D01*
X55121887Y-65213926D01*
X55132500Y-65110045D01*
X55132499Y-64483956D01*
X55121887Y-64380074D01*
X55066115Y-64211762D01*
X54973030Y-64060848D01*
X54973028Y-64060846D01*
X54973027Y-64060844D01*
X54847655Y-63935472D01*
X54805512Y-63909478D01*
X54696738Y-63842385D01*
X54528426Y-63786613D01*
X54528423Y-63786612D01*
X54528421Y-63786612D01*
X54427746Y-63776326D01*
X54427725Y-63776324D01*
X54424545Y-63776000D01*
X54421339Y-63776000D01*
X53426661Y-63776000D01*
X53426641Y-63776000D01*
X53423456Y-63776001D01*
X53420279Y-63776325D01*
X53420270Y-63776326D01*
X53319573Y-63786613D01*
X53151258Y-63842386D01*
X53128311Y-63856540D01*
X53059832Y-63875275D01*
X52992093Y-63854014D01*
X52973073Y-63838392D01*
X52103405Y-62968724D01*
X52069379Y-62906412D01*
X52066500Y-62879629D01*
X52066500Y-62766999D01*
X52083380Y-62704000D01*
X52142527Y-62601556D01*
X52201542Y-62419928D01*
X52221504Y-62230000D01*
X52201542Y-62040072D01*
X52162288Y-61919261D01*
X52142527Y-61858443D01*
X52047041Y-61693057D01*
X51919252Y-61551133D01*
X51764753Y-61438883D01*
X51764752Y-61438882D01*
X51590288Y-61361206D01*
X51403487Y-61321500D01*
X51212513Y-61321500D01*
X51087979Y-61347970D01*
X51025711Y-61361206D01*
X50851246Y-61438883D01*
X50696747Y-61551133D01*
X50568958Y-61693057D01*
X50473472Y-61858443D01*
X50414458Y-62040070D01*
X50394496Y-62230000D01*
X40128500Y-62230000D01*
X40128500Y-60764626D01*
X40148502Y-60696505D01*
X40180437Y-60662691D01*
X40235253Y-60622866D01*
X40363040Y-60480944D01*
X40458527Y-60315556D01*
X40517542Y-60133928D01*
X40537504Y-59944000D01*
X40517542Y-59754072D01*
X40476968Y-59629200D01*
X40458527Y-59572443D01*
X40363041Y-59407057D01*
X40235252Y-59265133D01*
X40098791Y-59165988D01*
X40080752Y-59152882D01*
X39906288Y-59075206D01*
X39719487Y-59035500D01*
X39528513Y-59035500D01*
X39403979Y-59061970D01*
X39341711Y-59075206D01*
X39264034Y-59109789D01*
X39167248Y-59152882D01*
X39149209Y-59165988D01*
X39058560Y-59231848D01*
X38991693Y-59255706D01*
X38922541Y-59239625D01*
X38873061Y-59188711D01*
X38858500Y-59129911D01*
X38858500Y-58484435D01*
X38859831Y-58466172D01*
X38859859Y-58465977D01*
X38863341Y-58442211D01*
X38858979Y-58392351D01*
X38858500Y-58381371D01*
X38858500Y-58379487D01*
X38858500Y-58375820D01*
X38854862Y-58344705D01*
X38854492Y-58341078D01*
X38847887Y-58265573D01*
X38847886Y-58265570D01*
X38847770Y-58264242D01*
X38843537Y-58245147D01*
X38843079Y-58243889D01*
X38843079Y-58243887D01*
X38817137Y-58172611D01*
X38815977Y-58169277D01*
X38792114Y-58097261D01*
X38792111Y-58097256D01*
X38791691Y-58095988D01*
X38783170Y-58078386D01*
X38740776Y-58013928D01*
X38738808Y-58010839D01*
X38698326Y-57945209D01*
X38685964Y-57930034D01*
X38629825Y-57877069D01*
X38627197Y-57874516D01*
X37496126Y-56743445D01*
X37465388Y-56693286D01*
X37410527Y-56524444D01*
X37315041Y-56359057D01*
X37187252Y-56217133D01*
X37121603Y-56169436D01*
X37078249Y-56113213D01*
X37072174Y-56042477D01*
X37105306Y-55979686D01*
X37167126Y-55944774D01*
X37195664Y-55941500D01*
X64132559Y-55941500D01*
X64150820Y-55942830D01*
X64174789Y-55946341D01*
X64221253Y-55942275D01*
X64224647Y-55941979D01*
X64235628Y-55941500D01*
X64237513Y-55941500D01*
X64241180Y-55941500D01*
X64272301Y-55937861D01*
X64275896Y-55937494D01*
X64351426Y-55930887D01*
X64351430Y-55930885D01*
X64352751Y-55930770D01*
X64371856Y-55926535D01*
X64373106Y-55926079D01*
X64373113Y-55926079D01*
X64444400Y-55900132D01*
X64447769Y-55898961D01*
X64519738Y-55875114D01*
X64519739Y-55875112D01*
X64521007Y-55874693D01*
X64538613Y-55866169D01*
X64539725Y-55865437D01*
X64539732Y-55865435D01*
X64603138Y-55823730D01*
X64606161Y-55821806D01*
X64670651Y-55782030D01*
X64670652Y-55782028D01*
X64671788Y-55781328D01*
X64686959Y-55768970D01*
X64687871Y-55768002D01*
X64687874Y-55768001D01*
X64739929Y-55712824D01*
X64742448Y-55710231D01*
X69061080Y-51391599D01*
X69123390Y-51357575D01*
X69161147Y-51355175D01*
X69342000Y-51370998D01*
X69570087Y-51351043D01*
X69791243Y-51291784D01*
X69998749Y-51195023D01*
X70186300Y-51063698D01*
X70348198Y-50901800D01*
X70479523Y-50714249D01*
X70497804Y-50675043D01*
X70544722Y-50621757D01*
X70612999Y-50602296D01*
X70680959Y-50622837D01*
X70726195Y-50675043D01*
X70744476Y-50714248D01*
X70868023Y-50890691D01*
X70875802Y-50901800D01*
X70959596Y-50985594D01*
X70993620Y-51047904D01*
X70996500Y-51074688D01*
X70996500Y-55536159D01*
X70995170Y-55554420D01*
X70991658Y-55578390D01*
X70996020Y-55628233D01*
X70996500Y-55639216D01*
X70996500Y-55644780D01*
X70996924Y-55648415D01*
X70996926Y-55648434D01*
X71000135Y-55675891D01*
X71000507Y-55679532D01*
X71007228Y-55756344D01*
X71011469Y-55775473D01*
X71037846Y-55847942D01*
X71039049Y-55851404D01*
X71063304Y-55924600D01*
X71071837Y-55942227D01*
X71114232Y-56006684D01*
X71116171Y-56009727D01*
X71155970Y-56074251D01*
X71156674Y-56075392D01*
X71169038Y-56090567D01*
X71169998Y-56091473D01*
X71169999Y-56091474D01*
X71183666Y-56104368D01*
X71225155Y-56143511D01*
X71227784Y-56146065D01*
X74236195Y-59154475D01*
X74270221Y-59216787D01*
X74273100Y-59243570D01*
X74273100Y-59513273D01*
X74253098Y-59581394D01*
X74224491Y-59612704D01*
X74108362Y-59703091D01*
X73955878Y-59868731D01*
X73867083Y-60004643D01*
X73813079Y-60050731D01*
X73742731Y-60060306D01*
X73678374Y-60030328D01*
X73656117Y-60004643D01*
X73567321Y-59868731D01*
X73485633Y-59779995D01*
X73414840Y-59703094D01*
X73414839Y-59703093D01*
X73414837Y-59703091D01*
X73237178Y-59564812D01*
X73039173Y-59457657D01*
X72886110Y-59405111D01*
X72826235Y-59384556D01*
X72604169Y-59347500D01*
X72379031Y-59347500D01*
X72156965Y-59384556D01*
X72156962Y-59384556D01*
X72156962Y-59384557D01*
X71944026Y-59457657D01*
X71746021Y-59564812D01*
X71568362Y-59703091D01*
X71415878Y-59868731D01*
X71292739Y-60057209D01*
X71202302Y-60263388D01*
X71147210Y-60480944D01*
X71147036Y-60481632D01*
X71128444Y-60706000D01*
X71147036Y-60930368D01*
X71147036Y-60930371D01*
X71147037Y-60930372D01*
X71202302Y-61148611D01*
X71292739Y-61354790D01*
X71327082Y-61407356D01*
X71415878Y-61543268D01*
X71528125Y-61665200D01*
X71568362Y-61708908D01*
X71746021Y-61847187D01*
X71746024Y-61847189D01*
X71944026Y-61954342D01*
X72156965Y-62027444D01*
X72379031Y-62064500D01*
X72379034Y-62064500D01*
X72604166Y-62064500D01*
X72604169Y-62064500D01*
X72826235Y-62027444D01*
X73039174Y-61954342D01*
X73237176Y-61847189D01*
X73414840Y-61708906D01*
X73567322Y-61543268D01*
X73656118Y-61407354D01*
X73710121Y-61361268D01*
X73780469Y-61351693D01*
X73844826Y-61381670D01*
X73867080Y-61407353D01*
X73955878Y-61543268D01*
X74068125Y-61665200D01*
X74108362Y-61708908D01*
X74286021Y-61847187D01*
X74286024Y-61847189D01*
X74484026Y-61954342D01*
X74696965Y-62027444D01*
X74919031Y-62064500D01*
X74919034Y-62064500D01*
X75144166Y-62064500D01*
X75144169Y-62064500D01*
X75366235Y-62027444D01*
X75579174Y-61954342D01*
X75777176Y-61847189D01*
X75954840Y-61708906D01*
X76107322Y-61543268D01*
X76196118Y-61407354D01*
X76250121Y-61361268D01*
X76320469Y-61351693D01*
X76384826Y-61381670D01*
X76407080Y-61407353D01*
X76495878Y-61543268D01*
X76608125Y-61665200D01*
X76648362Y-61708908D01*
X76826021Y-61847187D01*
X76826024Y-61847189D01*
X77024026Y-61954342D01*
X77236965Y-62027444D01*
X77459031Y-62064500D01*
X77459034Y-62064500D01*
X77684166Y-62064500D01*
X77684169Y-62064500D01*
X77906235Y-62027444D01*
X78119174Y-61954342D01*
X78317176Y-61847189D01*
X78494840Y-61708906D01*
X78555846Y-61642635D01*
X78616696Y-61606067D01*
X78687661Y-61608200D01*
X78746206Y-61648362D01*
X78766600Y-61683942D01*
X78810709Y-61802203D01*
X78898338Y-61919261D01*
X79015394Y-62006888D01*
X79015395Y-62006888D01*
X79015396Y-62006889D01*
X79152399Y-62057989D01*
X79212962Y-62064500D01*
X79216331Y-62064500D01*
X81006869Y-62064500D01*
X81010238Y-62064500D01*
X81070801Y-62057989D01*
X81207804Y-62006889D01*
X81324861Y-61919261D01*
X81412489Y-61802204D01*
X81463589Y-61665201D01*
X81470100Y-61604638D01*
X81470100Y-59807362D01*
X81463589Y-59746799D01*
X81412489Y-59609796D01*
X81406279Y-59601500D01*
X81324861Y-59492738D01*
X81207805Y-59405111D01*
X81122583Y-59373325D01*
X81070801Y-59354011D01*
X81010238Y-59347500D01*
X81006869Y-59347500D01*
X80994863Y-59347500D01*
X80926742Y-59327498D01*
X80880249Y-59273842D01*
X80869715Y-59236134D01*
X80866460Y-59208284D01*
X80866096Y-59204723D01*
X80859487Y-59129174D01*
X80859485Y-59129169D01*
X80859370Y-59127850D01*
X80855134Y-59108738D01*
X80853292Y-59103676D01*
X80828747Y-59036241D01*
X80827552Y-59032803D01*
X80803714Y-58960862D01*
X80803712Y-58960860D01*
X80803292Y-58959590D01*
X80794770Y-58941986D01*
X80794035Y-58940868D01*
X80752356Y-58877500D01*
X80750412Y-58874446D01*
X80709930Y-58808813D01*
X80697564Y-58793634D01*
X80641425Y-58740669D01*
X80638797Y-58738116D01*
X77338305Y-55437624D01*
X77304279Y-55375312D01*
X77301400Y-55348529D01*
X77301400Y-52610736D01*
X77321402Y-52542615D01*
X77338300Y-52521646D01*
X79171910Y-50688035D01*
X79185757Y-50676069D01*
X79205191Y-50661602D01*
X79237354Y-50623271D01*
X79244793Y-50615153D01*
X79248714Y-50611233D01*
X79268145Y-50586656D01*
X79270419Y-50583864D01*
X79319165Y-50525773D01*
X79319166Y-50525769D01*
X79320023Y-50524749D01*
X79330535Y-50508250D01*
X79349492Y-50467595D01*
X79363169Y-50438264D01*
X79364677Y-50435148D01*
X79398742Y-50367321D01*
X79398743Y-50367312D01*
X79399345Y-50366116D01*
X79405766Y-50347642D01*
X79406034Y-50346342D01*
X79406036Y-50346339D01*
X79414064Y-50307455D01*
X79424862Y-50276389D01*
X79457609Y-50211187D01*
X79457610Y-50211182D01*
X79458210Y-50209988D01*
X79464634Y-50191508D01*
X79480233Y-50115960D01*
X79481027Y-50112380D01*
X79498807Y-50037361D01*
X79500797Y-50017881D01*
X79500758Y-50016558D01*
X79500759Y-50016556D01*
X79498553Y-49940738D01*
X79498500Y-49937074D01*
X79498500Y-47752000D01*
X106274496Y-47752000D01*
X106294458Y-47941929D01*
X106353472Y-48123556D01*
X106448958Y-48288942D01*
X106576747Y-48430866D01*
X106731248Y-48543118D01*
X106905712Y-48620794D01*
X106968771Y-48634197D01*
X107031244Y-48667926D01*
X107031668Y-48668349D01*
X108638092Y-50274773D01*
X108650060Y-50288620D01*
X108653087Y-50292686D01*
X108664531Y-50308058D01*
X108702870Y-50340228D01*
X108710974Y-50347655D01*
X108714900Y-50351581D01*
X108717780Y-50353858D01*
X108739455Y-50370997D01*
X108742296Y-50373311D01*
X108801377Y-50422885D01*
X108817890Y-50433405D01*
X108819094Y-50433966D01*
X108819095Y-50433967D01*
X108821372Y-50435029D01*
X108887786Y-50465998D01*
X108891078Y-50467591D01*
X108958812Y-50501609D01*
X108958814Y-50501609D01*
X108960008Y-50502209D01*
X108978490Y-50508633D01*
X108979791Y-50508901D01*
X108979794Y-50508903D01*
X109054078Y-50524241D01*
X109057630Y-50525029D01*
X109131344Y-50542500D01*
X109131346Y-50542500D01*
X109132641Y-50542807D01*
X109152112Y-50544797D01*
X109153438Y-50544758D01*
X109153442Y-50544759D01*
X109205888Y-50543232D01*
X109274559Y-50561244D01*
X109322593Y-50613524D01*
X109334861Y-50682349D01*
X109322496Y-50799999D01*
X109332028Y-50890691D01*
X109319256Y-50960529D01*
X109270754Y-51012376D01*
X109201921Y-51029770D01*
X109155470Y-51018968D01*
X108994290Y-50947207D01*
X108994288Y-50947206D01*
X108807487Y-50907500D01*
X108616513Y-50907500D01*
X108491979Y-50933970D01*
X108429711Y-50947206D01*
X108385925Y-50966701D01*
X108256394Y-51024372D01*
X108255246Y-51024883D01*
X108100747Y-51137133D01*
X107972958Y-51279057D01*
X107877472Y-51444443D01*
X107818458Y-51626070D01*
X107798496Y-51816000D01*
X107818458Y-52005929D01*
X107877472Y-52187556D01*
X107972958Y-52352942D01*
X108042775Y-52430482D01*
X108100747Y-52494866D01*
X108255248Y-52607118D01*
X108429712Y-52684794D01*
X108492771Y-52698197D01*
X108555244Y-52731926D01*
X108555668Y-52732349D01*
X109654092Y-53830773D01*
X109666060Y-53844620D01*
X109680531Y-53864058D01*
X109718870Y-53896228D01*
X109726974Y-53903655D01*
X109730899Y-53907580D01*
X109755453Y-53926995D01*
X109758292Y-53929308D01*
X109817378Y-53978886D01*
X109833887Y-53989403D01*
X109835090Y-53989964D01*
X109835094Y-53989967D01*
X109903867Y-54022035D01*
X109907036Y-54023570D01*
X109974812Y-54057609D01*
X109976001Y-54058206D01*
X109994493Y-54064633D01*
X109995790Y-54064900D01*
X109995793Y-54064902D01*
X110070066Y-54080237D01*
X110073530Y-54081004D01*
X110147344Y-54098500D01*
X110147347Y-54098500D01*
X110148642Y-54098807D01*
X110168111Y-54100796D01*
X110169438Y-54100757D01*
X110169442Y-54100758D01*
X110243697Y-54098597D01*
X110245224Y-54098553D01*
X110248888Y-54098500D01*
X115644629Y-54098500D01*
X115712750Y-54118502D01*
X115750111Y-54155584D01*
X115764278Y-54177268D01*
X115916760Y-54342906D01*
X115916762Y-54342908D01*
X116094418Y-54481185D01*
X116094420Y-54481186D01*
X116094424Y-54481189D01*
X116127682Y-54499187D01*
X116178071Y-54549200D01*
X116193423Y-54618517D01*
X116168862Y-54685130D01*
X116127683Y-54720812D01*
X116102794Y-54734281D01*
X116094418Y-54738814D01*
X115916762Y-54877091D01*
X115764278Y-55042731D01*
X115641139Y-55231209D01*
X115550702Y-55437388D01*
X115496746Y-55650459D01*
X115495436Y-55655632D01*
X115476844Y-55880000D01*
X115495436Y-56104368D01*
X115495436Y-56104371D01*
X115495437Y-56104372D01*
X115550702Y-56322611D01*
X115641139Y-56528790D01*
X115764278Y-56717268D01*
X115916762Y-56882908D01*
X116094421Y-57021187D01*
X116094424Y-57021189D01*
X116292426Y-57128342D01*
X116505365Y-57201444D01*
X116727431Y-57238500D01*
X116727434Y-57238500D01*
X116952566Y-57238500D01*
X116952569Y-57238500D01*
X117174635Y-57201444D01*
X117387574Y-57128342D01*
X117585576Y-57021189D01*
X117763240Y-56882906D01*
X117915722Y-56717268D01*
X118038860Y-56528791D01*
X118129296Y-56322616D01*
X118184564Y-56104368D01*
X118203156Y-55880000D01*
X118184564Y-55655632D01*
X118129296Y-55437384D01*
X118038860Y-55231209D01*
X117915722Y-55042732D01*
X117763240Y-54877094D01*
X117763239Y-54877093D01*
X117763237Y-54877091D01*
X117585578Y-54738812D01*
X117552317Y-54720812D01*
X117501927Y-54670798D01*
X117486576Y-54601481D01*
X117511138Y-54534868D01*
X117552315Y-54499188D01*
X117585576Y-54481189D01*
X117763240Y-54342906D01*
X117915722Y-54177268D01*
X118038860Y-53988791D01*
X118129296Y-53782616D01*
X118184564Y-53564368D01*
X118203156Y-53340000D01*
X118184564Y-53115632D01*
X118129296Y-52897384D01*
X118038860Y-52691209D01*
X117915722Y-52502732D01*
X117763240Y-52337094D01*
X117763239Y-52337093D01*
X117763237Y-52337091D01*
X117585579Y-52198813D01*
X117585577Y-52198812D01*
X117585576Y-52198811D01*
X117552317Y-52180812D01*
X117501929Y-52130801D01*
X117486576Y-52061484D01*
X117511136Y-51994871D01*
X117552316Y-51959187D01*
X117585576Y-51941189D01*
X117763240Y-51802906D01*
X117915722Y-51637268D01*
X118038860Y-51448791D01*
X118129296Y-51242616D01*
X118184564Y-51024368D01*
X118203156Y-50800000D01*
X118184564Y-50575632D01*
X118129296Y-50357384D01*
X118038860Y-50151209D01*
X117915722Y-49962732D01*
X117763240Y-49797094D01*
X117763239Y-49797093D01*
X117763237Y-49797091D01*
X117585579Y-49658813D01*
X117585577Y-49658812D01*
X117585576Y-49658811D01*
X117552317Y-49640812D01*
X117501929Y-49590801D01*
X117486576Y-49521484D01*
X117511136Y-49454871D01*
X117552316Y-49419187D01*
X117585576Y-49401189D01*
X117763240Y-49262906D01*
X117915722Y-49097268D01*
X118038860Y-48908791D01*
X118129296Y-48702616D01*
X118184564Y-48484368D01*
X118203156Y-48260000D01*
X118184564Y-48035632D01*
X118129296Y-47817384D01*
X118038860Y-47611209D01*
X117915722Y-47422732D01*
X117763240Y-47257094D01*
X117763239Y-47257093D01*
X117763237Y-47257091D01*
X117585579Y-47118813D01*
X117585577Y-47118812D01*
X117585576Y-47118811D01*
X117552317Y-47100812D01*
X117501929Y-47050801D01*
X117486576Y-46981484D01*
X117511136Y-46914871D01*
X117552316Y-46879187D01*
X117585576Y-46861189D01*
X117763240Y-46722906D01*
X117915722Y-46557268D01*
X118038860Y-46368791D01*
X118129296Y-46162616D01*
X118184564Y-45944368D01*
X118203156Y-45720000D01*
X118184564Y-45495632D01*
X118129296Y-45277384D01*
X118038860Y-45071209D01*
X117915722Y-44882732D01*
X117763240Y-44717094D01*
X117763239Y-44717093D01*
X117763237Y-44717091D01*
X117585579Y-44578813D01*
X117585577Y-44578812D01*
X117585576Y-44578811D01*
X117552317Y-44560812D01*
X117501929Y-44510801D01*
X117486576Y-44441484D01*
X117511136Y-44374871D01*
X117552316Y-44339187D01*
X117585576Y-44321189D01*
X117763240Y-44182906D01*
X117915722Y-44017268D01*
X118038860Y-43828791D01*
X118129296Y-43622616D01*
X118184564Y-43404368D01*
X118203156Y-43180000D01*
X118184564Y-42955632D01*
X118129296Y-42737384D01*
X118038860Y-42531209D01*
X117915722Y-42342732D01*
X117763240Y-42177094D01*
X117763239Y-42177093D01*
X117763237Y-42177091D01*
X117585579Y-42038813D01*
X117585577Y-42038812D01*
X117585576Y-42038811D01*
X117552317Y-42020812D01*
X117501929Y-41970801D01*
X117486576Y-41901484D01*
X117511136Y-41834871D01*
X117552316Y-41799187D01*
X117585576Y-41781189D01*
X117763240Y-41642906D01*
X117915722Y-41477268D01*
X118038860Y-41288791D01*
X118129296Y-41082616D01*
X118184564Y-40864368D01*
X118203156Y-40640000D01*
X118184564Y-40415632D01*
X118129296Y-40197384D01*
X118038860Y-39991209D01*
X117915722Y-39802732D01*
X117763240Y-39637094D01*
X117763239Y-39637093D01*
X117763237Y-39637091D01*
X117585579Y-39498813D01*
X117585577Y-39498812D01*
X117585576Y-39498811D01*
X117552317Y-39480812D01*
X117501929Y-39430801D01*
X117486576Y-39361484D01*
X117511136Y-39294871D01*
X117552316Y-39259187D01*
X117585576Y-39241189D01*
X117763240Y-39102906D01*
X117915722Y-38937268D01*
X118038860Y-38748791D01*
X118129296Y-38542616D01*
X118184564Y-38324368D01*
X118203156Y-38100000D01*
X118184564Y-37875632D01*
X118129296Y-37657384D01*
X118038860Y-37451209D01*
X117915722Y-37262732D01*
X117763240Y-37097094D01*
X117763239Y-37097093D01*
X117763237Y-37097091D01*
X117585579Y-36958813D01*
X117585577Y-36958812D01*
X117585576Y-36958811D01*
X117552317Y-36940812D01*
X117501929Y-36890801D01*
X117486576Y-36821484D01*
X117511136Y-36754871D01*
X117552316Y-36719187D01*
X117585576Y-36701189D01*
X117763240Y-36562906D01*
X117915722Y-36397268D01*
X118038860Y-36208791D01*
X118129296Y-36002616D01*
X118184564Y-35784368D01*
X118203156Y-35560000D01*
X118184564Y-35335632D01*
X118129296Y-35117384D01*
X118038860Y-34911209D01*
X117915722Y-34722732D01*
X117763240Y-34557094D01*
X117763239Y-34557093D01*
X117763237Y-34557091D01*
X117585579Y-34418813D01*
X117585577Y-34418812D01*
X117585576Y-34418811D01*
X117552317Y-34400812D01*
X117501929Y-34350801D01*
X117486576Y-34281484D01*
X117511136Y-34214871D01*
X117552316Y-34179187D01*
X117585576Y-34161189D01*
X117763240Y-34022906D01*
X117915722Y-33857268D01*
X118038860Y-33668791D01*
X118129296Y-33462616D01*
X118184564Y-33244368D01*
X118203156Y-33020000D01*
X118184564Y-32795632D01*
X118129296Y-32577384D01*
X118038860Y-32371209D01*
X117915722Y-32182732D01*
X117763240Y-32017094D01*
X117763239Y-32017093D01*
X117763237Y-32017091D01*
X117585578Y-31878812D01*
X117552317Y-31860812D01*
X117501927Y-31810798D01*
X117486576Y-31741481D01*
X117511138Y-31674868D01*
X117552315Y-31639188D01*
X117585576Y-31621189D01*
X117763240Y-31482906D01*
X117915722Y-31317268D01*
X118038860Y-31128791D01*
X118129296Y-30922616D01*
X118184564Y-30704368D01*
X118203156Y-30480000D01*
X118184564Y-30255632D01*
X118129296Y-30037384D01*
X118038860Y-29831209D01*
X117915722Y-29642732D01*
X117763240Y-29477094D01*
X117763239Y-29477093D01*
X117763237Y-29477091D01*
X117585579Y-29338813D01*
X117585577Y-29338812D01*
X117585576Y-29338811D01*
X117552317Y-29320812D01*
X117501929Y-29270801D01*
X117486576Y-29201484D01*
X117511136Y-29134871D01*
X117552316Y-29099187D01*
X117585576Y-29081189D01*
X117763240Y-28942906D01*
X117915722Y-28777268D01*
X118038860Y-28588791D01*
X118129296Y-28382616D01*
X118184564Y-28164368D01*
X118203156Y-27940000D01*
X118184564Y-27715632D01*
X118129296Y-27497384D01*
X118038860Y-27291209D01*
X117915722Y-27102732D01*
X117772524Y-26947179D01*
X117741103Y-26883514D01*
X117749090Y-26812968D01*
X117793949Y-26757939D01*
X117821183Y-26743789D01*
X117936204Y-26700889D01*
X118053261Y-26613261D01*
X118140889Y-26496204D01*
X118191989Y-26359201D01*
X118198500Y-26298638D01*
X118198500Y-24501362D01*
X118191989Y-24440799D01*
X118140889Y-24303796D01*
X118140888Y-24303794D01*
X118053261Y-24186738D01*
X117936205Y-24099111D01*
X117867702Y-24073560D01*
X117799201Y-24048011D01*
X117738638Y-24041500D01*
X115941362Y-24041500D01*
X115938013Y-24041859D01*
X115938013Y-24041860D01*
X115880799Y-24048011D01*
X115743794Y-24099111D01*
X115626738Y-24186738D01*
X115539111Y-24303794D01*
X115488011Y-24440799D01*
X115481500Y-24501362D01*
X115481500Y-26298638D01*
X115481860Y-26301986D01*
X115488011Y-26359200D01*
X115539111Y-26496205D01*
X115626738Y-26613261D01*
X115743794Y-26700888D01*
X115743795Y-26700888D01*
X115743796Y-26700889D01*
X115858808Y-26743786D01*
X115915642Y-26786331D01*
X115940453Y-26852852D01*
X115925362Y-26922226D01*
X115907475Y-26947178D01*
X115764281Y-27102728D01*
X115641139Y-27291209D01*
X115550702Y-27497388D01*
X115495437Y-27715627D01*
X115495436Y-27715632D01*
X115476844Y-27940000D01*
X115495436Y-28164368D01*
X115495436Y-28164371D01*
X115495437Y-28164372D01*
X115550702Y-28382611D01*
X115641139Y-28588790D01*
X115764278Y-28777268D01*
X115916762Y-28942908D01*
X116094418Y-29081185D01*
X116094420Y-29081186D01*
X116094424Y-29081189D01*
X116127682Y-29099187D01*
X116178071Y-29149200D01*
X116193423Y-29218517D01*
X116168862Y-29285130D01*
X116127683Y-29320812D01*
X116102794Y-29334281D01*
X116094418Y-29338814D01*
X115916762Y-29477091D01*
X115764278Y-29642731D01*
X115641139Y-29831209D01*
X115550702Y-30037388D01*
X115512881Y-30186743D01*
X115495436Y-30255632D01*
X115476844Y-30480000D01*
X115495436Y-30704368D01*
X115495436Y-30704371D01*
X115495437Y-30704372D01*
X115550702Y-30922611D01*
X115550703Y-30922614D01*
X115550704Y-30922616D01*
X115562042Y-30948465D01*
X115641139Y-31128790D01*
X115641140Y-31128791D01*
X115764278Y-31317268D01*
X115824484Y-31382669D01*
X115916762Y-31482908D01*
X116018611Y-31562181D01*
X116094424Y-31621189D01*
X116127682Y-31639187D01*
X116178070Y-31689197D01*
X116193423Y-31758513D01*
X116168863Y-31825127D01*
X116127683Y-31860811D01*
X116094423Y-31878810D01*
X115916762Y-32017091D01*
X115764278Y-32182731D01*
X115641139Y-32371209D01*
X115550702Y-32577388D01*
X115495437Y-32795627D01*
X115495436Y-32795632D01*
X115476844Y-33020000D01*
X115495436Y-33244368D01*
X115495436Y-33244371D01*
X115495437Y-33244372D01*
X115550702Y-33462611D01*
X115641139Y-33668790D01*
X115764278Y-33857268D01*
X115916762Y-34022908D01*
X116094418Y-34161185D01*
X116094420Y-34161186D01*
X116094424Y-34161189D01*
X116127682Y-34179187D01*
X116178071Y-34229200D01*
X116193423Y-34298517D01*
X116168862Y-34365130D01*
X116127683Y-34400812D01*
X116102794Y-34414281D01*
X116094418Y-34418814D01*
X115916762Y-34557091D01*
X115764278Y-34722731D01*
X115641139Y-34911209D01*
X115550702Y-35117388D01*
X115506255Y-35292908D01*
X115495436Y-35335632D01*
X115476844Y-35560000D01*
X115495436Y-35784368D01*
X115495436Y-35784371D01*
X115495437Y-35784372D01*
X115550702Y-36002611D01*
X115550703Y-36002614D01*
X115550704Y-36002616D01*
X115563582Y-36031975D01*
X115641139Y-36208790D01*
X115764278Y-36397268D01*
X115916762Y-36562908D01*
X116094418Y-36701185D01*
X116094420Y-36701186D01*
X116094424Y-36701189D01*
X116127682Y-36719187D01*
X116178071Y-36769200D01*
X116193423Y-36838517D01*
X116168862Y-36905130D01*
X116127683Y-36940812D01*
X116109364Y-36950726D01*
X116094418Y-36958814D01*
X115916762Y-37097091D01*
X115764278Y-37262731D01*
X115641139Y-37451209D01*
X115550702Y-37657388D01*
X115520480Y-37776734D01*
X115495436Y-37875632D01*
X115476844Y-38100000D01*
X115495436Y-38324368D01*
X115495436Y-38324371D01*
X115495437Y-38324372D01*
X115550702Y-38542611D01*
X115641139Y-38748790D01*
X115764278Y-38937268D01*
X115916762Y-39102908D01*
X116094418Y-39241185D01*
X116094420Y-39241186D01*
X116094424Y-39241189D01*
X116127682Y-39259187D01*
X116178071Y-39309200D01*
X116193423Y-39378517D01*
X116168862Y-39445130D01*
X116127683Y-39480812D01*
X116102794Y-39494281D01*
X116094418Y-39498814D01*
X115916762Y-39637091D01*
X115764278Y-39802731D01*
X115641139Y-39991209D01*
X115550702Y-40197388D01*
X115512881Y-40346743D01*
X115495436Y-40415632D01*
X115476844Y-40640000D01*
X115495436Y-40864368D01*
X115495436Y-40864371D01*
X115495437Y-40864372D01*
X115550702Y-41082611D01*
X115641139Y-41288790D01*
X115729269Y-41423683D01*
X115764278Y-41477268D01*
X115818283Y-41535933D01*
X115916762Y-41642908D01*
X116094418Y-41781185D01*
X116094420Y-41781186D01*
X116094424Y-41781189D01*
X116127682Y-41799187D01*
X116178071Y-41849200D01*
X116193423Y-41918517D01*
X116168862Y-41985130D01*
X116127683Y-42020812D01*
X116102794Y-42034281D01*
X116094418Y-42038814D01*
X115916762Y-42177091D01*
X115764278Y-42342731D01*
X115641139Y-42531209D01*
X115550702Y-42737388D01*
X115495437Y-42955627D01*
X115495436Y-42955632D01*
X115476844Y-43180000D01*
X115495436Y-43404368D01*
X115495436Y-43404371D01*
X115495437Y-43404372D01*
X115550702Y-43622611D01*
X115550703Y-43622614D01*
X115550704Y-43622616D01*
X115558636Y-43640700D01*
X115641139Y-43828790D01*
X115764278Y-44017268D01*
X115916762Y-44182908D01*
X116094418Y-44321185D01*
X116094420Y-44321186D01*
X116094424Y-44321189D01*
X116127682Y-44339187D01*
X116178071Y-44389200D01*
X116193423Y-44458517D01*
X116168862Y-44525130D01*
X116127683Y-44560812D01*
X116102794Y-44574281D01*
X116094418Y-44578814D01*
X115916762Y-44717091D01*
X115764276Y-44882734D01*
X115750112Y-44904415D01*
X115696108Y-44950504D01*
X115644629Y-44961500D01*
X109762586Y-44961500D01*
X109694465Y-44941498D01*
X109688551Y-44937454D01*
X109676752Y-44928882D01*
X109502288Y-44851206D01*
X109315487Y-44811500D01*
X109124513Y-44811500D01*
X108999978Y-44837970D01*
X108937711Y-44851206D01*
X108763246Y-44928883D01*
X108608747Y-45041133D01*
X108480958Y-45183057D01*
X108385472Y-45348443D01*
X108326458Y-45530070D01*
X108306496Y-45720000D01*
X108326458Y-45909929D01*
X108385472Y-46091556D01*
X108480958Y-46256942D01*
X108480960Y-46256944D01*
X108608747Y-46398866D01*
X108763248Y-46511118D01*
X108937712Y-46588794D01*
X109124513Y-46628500D01*
X109124515Y-46628500D01*
X109315485Y-46628500D01*
X109315487Y-46628500D01*
X109502288Y-46588794D01*
X109676752Y-46511118D01*
X109688527Y-46502562D01*
X109755392Y-46478706D01*
X109762586Y-46478500D01*
X115644629Y-46478500D01*
X115712750Y-46498502D01*
X115750111Y-46535584D01*
X115764278Y-46557268D01*
X115864365Y-46665990D01*
X115916762Y-46722908D01*
X116094418Y-46861185D01*
X116094420Y-46861186D01*
X116094424Y-46861189D01*
X116127682Y-46879187D01*
X116178071Y-46929200D01*
X116193423Y-46998517D01*
X116168862Y-47065130D01*
X116127683Y-47100812D01*
X116102794Y-47114281D01*
X116094418Y-47118814D01*
X115916762Y-47257091D01*
X115764276Y-47422734D01*
X115750112Y-47444415D01*
X115696108Y-47490504D01*
X115644629Y-47501500D01*
X114872441Y-47501500D01*
X114854180Y-47500170D01*
X114830211Y-47496659D01*
X114780353Y-47501021D01*
X114769372Y-47501500D01*
X114763820Y-47501500D01*
X114760185Y-47501924D01*
X114760165Y-47501926D01*
X114732709Y-47505135D01*
X114729068Y-47505507D01*
X114652251Y-47512228D01*
X114633139Y-47516465D01*
X114560653Y-47542846D01*
X114557198Y-47544047D01*
X114483995Y-47568305D01*
X114466373Y-47576837D01*
X114401927Y-47619224D01*
X114398838Y-47621192D01*
X114333218Y-47661667D01*
X114318036Y-47674034D01*
X114265087Y-47730156D01*
X114262534Y-47732783D01*
X113006722Y-48988596D01*
X112944412Y-49022620D01*
X112917629Y-49025500D01*
X109586371Y-49025500D01*
X109518250Y-49005498D01*
X109497276Y-48988595D01*
X108108126Y-47599445D01*
X108077388Y-47549286D01*
X108022527Y-47380444D01*
X107927041Y-47215057D01*
X107840383Y-47118814D01*
X107799253Y-47073134D01*
X107788236Y-47065130D01*
X107673108Y-46981484D01*
X107644752Y-46960882D01*
X107470288Y-46883206D01*
X107283487Y-46843500D01*
X107092513Y-46843500D01*
X106967978Y-46869970D01*
X106905711Y-46883206D01*
X106731246Y-46960883D01*
X106576747Y-47073133D01*
X106448958Y-47215057D01*
X106353472Y-47380443D01*
X106294458Y-47562070D01*
X106274496Y-47752000D01*
X79498500Y-47752000D01*
X79498500Y-47054441D01*
X79499830Y-47036180D01*
X79503341Y-47012211D01*
X79498979Y-46962353D01*
X79498500Y-46951372D01*
X79498500Y-46949487D01*
X79498500Y-46945820D01*
X79494866Y-46914734D01*
X79494496Y-46911122D01*
X79487887Y-46835574D01*
X79487885Y-46835569D01*
X79487770Y-46834250D01*
X79483534Y-46815138D01*
X79457156Y-46742666D01*
X79455952Y-46739203D01*
X79432114Y-46667262D01*
X79432112Y-46667260D01*
X79431692Y-46665990D01*
X79423170Y-46648386D01*
X79422435Y-46647268D01*
X79380756Y-46583900D01*
X79378812Y-46580846D01*
X79338330Y-46515213D01*
X79325964Y-46500034D01*
X79269825Y-46447069D01*
X79267197Y-46444516D01*
X77190405Y-44367723D01*
X77156379Y-44305411D01*
X77153500Y-44278628D01*
X77153500Y-37694897D01*
X77173502Y-37626776D01*
X77190399Y-37605807D01*
X78094250Y-36701956D01*
X78156559Y-36667934D01*
X78227374Y-36672998D01*
X78284210Y-36715545D01*
X78309021Y-36782065D01*
X78297537Y-36844303D01*
X78267716Y-36908254D01*
X78208457Y-37129412D01*
X78196084Y-37270842D01*
X78188502Y-37357500D01*
X78205090Y-37547100D01*
X78208457Y-37585587D01*
X78267715Y-37806743D01*
X78364477Y-38014250D01*
X78495804Y-38201803D01*
X78657696Y-38363695D01*
X78657699Y-38363697D01*
X78657700Y-38363698D01*
X78845251Y-38495023D01*
X78880359Y-38511394D01*
X78884457Y-38513305D01*
X78937742Y-38560222D01*
X78957203Y-38628500D01*
X78936661Y-38696460D01*
X78884457Y-38741695D01*
X78845250Y-38759977D01*
X78657696Y-38891304D01*
X78495804Y-39053196D01*
X78364477Y-39240749D01*
X78267715Y-39448256D01*
X78208457Y-39669412D01*
X78188502Y-39897500D01*
X78208457Y-40125587D01*
X78267715Y-40346743D01*
X78364477Y-40554250D01*
X78495804Y-40741803D01*
X78657696Y-40903695D01*
X78657699Y-40903697D01*
X78657700Y-40903698D01*
X78845251Y-41035023D01*
X78880359Y-41051394D01*
X78884457Y-41053305D01*
X78937742Y-41100222D01*
X78957203Y-41168500D01*
X78936661Y-41236460D01*
X78884457Y-41281695D01*
X78845250Y-41299977D01*
X78657696Y-41431304D01*
X78495804Y-41593196D01*
X78364477Y-41780749D01*
X78267715Y-41988256D01*
X78208457Y-42209412D01*
X78193867Y-42376183D01*
X78188502Y-42437500D01*
X78201525Y-42586356D01*
X78208457Y-42665587D01*
X78267715Y-42886743D01*
X78364477Y-43094250D01*
X78495804Y-43281803D01*
X78657696Y-43443695D01*
X78657699Y-43443697D01*
X78657700Y-43443698D01*
X78711294Y-43481225D01*
X78845249Y-43575022D01*
X79052756Y-43671784D01*
X79112015Y-43687662D01*
X79273913Y-43731043D01*
X79502000Y-43750998D01*
X79730087Y-43731043D01*
X79951243Y-43671784D01*
X80158749Y-43575023D01*
X80346300Y-43443698D01*
X80508198Y-43281800D01*
X80639523Y-43094249D01*
X80736284Y-42886743D01*
X80795543Y-42665587D01*
X80815498Y-42437500D01*
X80795543Y-42209413D01*
X80746095Y-42024872D01*
X80736284Y-41988256D01*
X80639522Y-41780749D01*
X80508195Y-41593196D01*
X80346303Y-41431304D01*
X80158748Y-41299976D01*
X80119543Y-41281695D01*
X80066257Y-41234778D01*
X80046796Y-41166501D01*
X80067337Y-41098541D01*
X80119543Y-41053305D01*
X80124163Y-41051150D01*
X80158749Y-41035023D01*
X80346300Y-40903698D01*
X80508198Y-40741800D01*
X80639523Y-40554249D01*
X80736284Y-40346743D01*
X80795543Y-40125587D01*
X80815498Y-39897500D01*
X80795543Y-39669413D01*
X80736284Y-39448257D01*
X80728144Y-39430801D01*
X80642305Y-39246718D01*
X80639523Y-39240751D01*
X80508198Y-39053200D01*
X80508197Y-39053199D01*
X80508195Y-39053196D01*
X80346303Y-38891304D01*
X80158748Y-38759976D01*
X80119543Y-38741695D01*
X80066257Y-38694778D01*
X80046796Y-38626501D01*
X80067337Y-38558541D01*
X80119543Y-38513305D01*
X80124163Y-38511150D01*
X80158749Y-38495023D01*
X80215051Y-38455600D01*
X86767296Y-38455600D01*
X86787258Y-38645529D01*
X86846272Y-38827156D01*
X86941758Y-38992542D01*
X86941760Y-38992544D01*
X87069547Y-39134466D01*
X87224048Y-39246718D01*
X87398512Y-39324394D01*
X87461571Y-39337797D01*
X87524044Y-39371526D01*
X87524468Y-39371949D01*
X90299292Y-42146773D01*
X90311260Y-42160620D01*
X90323522Y-42177091D01*
X90325731Y-42180058D01*
X90364070Y-42212228D01*
X90372174Y-42219655D01*
X90376099Y-42223580D01*
X90400653Y-42242995D01*
X90403492Y-42245308D01*
X90462582Y-42294890D01*
X90479089Y-42305405D01*
X90548994Y-42338002D01*
X90552294Y-42339600D01*
X90621200Y-42374206D01*
X90639685Y-42380631D01*
X90640991Y-42380900D01*
X90640994Y-42380902D01*
X90715313Y-42396247D01*
X90718725Y-42397003D01*
X90792544Y-42414500D01*
X90792547Y-42414500D01*
X90793842Y-42414807D01*
X90813311Y-42416796D01*
X90814638Y-42416757D01*
X90814642Y-42416758D01*
X90890439Y-42414552D01*
X90894103Y-42414500D01*
X93760089Y-42414500D01*
X93828210Y-42434502D01*
X93874703Y-42488158D01*
X93879922Y-42501564D01*
X93907472Y-42586356D01*
X94002958Y-42751742D01*
X94002960Y-42751744D01*
X94130747Y-42893666D01*
X94285248Y-43005918D01*
X94459712Y-43083594D01*
X94646513Y-43123300D01*
X94646515Y-43123300D01*
X94837485Y-43123300D01*
X94837487Y-43123300D01*
X95024288Y-43083594D01*
X95198752Y-43005918D01*
X95353253Y-42893666D01*
X95481040Y-42751744D01*
X95576527Y-42586356D01*
X95635542Y-42404728D01*
X95655504Y-42214800D01*
X95635542Y-42024872D01*
X95598217Y-41909999D01*
X95576527Y-41843243D01*
X95481041Y-41677857D01*
X95353252Y-41535933D01*
X95276002Y-41479808D01*
X95198752Y-41423682D01*
X95024288Y-41346006D01*
X95024284Y-41346004D01*
X94961228Y-41332601D01*
X94898755Y-41298872D01*
X94898331Y-41298450D01*
X94765109Y-41165228D01*
X94753137Y-41151375D01*
X94738670Y-41131943D01*
X94700327Y-41099769D01*
X94692224Y-41092343D01*
X94690894Y-41091013D01*
X94688301Y-41088420D01*
X94685435Y-41086153D01*
X94685424Y-41086144D01*
X94663730Y-41068991D01*
X94660908Y-41066692D01*
X94602840Y-41017968D01*
X94602839Y-41017967D01*
X94601821Y-41017113D01*
X94585310Y-41006594D01*
X94515405Y-40973996D01*
X94512109Y-40972401D01*
X94443196Y-40937792D01*
X94424704Y-40931365D01*
X94349142Y-40915762D01*
X94345567Y-40914969D01*
X94270556Y-40897191D01*
X94251085Y-40895202D01*
X94173941Y-40897447D01*
X94170277Y-40897500D01*
X91247571Y-40897500D01*
X91179450Y-40877498D01*
X91158476Y-40860595D01*
X88600926Y-38303045D01*
X88570188Y-38252886D01*
X88515327Y-38084044D01*
X88419841Y-37918657D01*
X88292052Y-37776733D01*
X88137553Y-37664483D01*
X88137552Y-37664482D01*
X87963088Y-37586806D01*
X87776287Y-37547100D01*
X87585313Y-37547100D01*
X87460778Y-37573570D01*
X87398511Y-37586806D01*
X87308737Y-37626776D01*
X87239982Y-37657388D01*
X87224046Y-37664483D01*
X87069547Y-37776733D01*
X86941758Y-37918657D01*
X86846272Y-38084043D01*
X86787258Y-38265670D01*
X86767296Y-38455600D01*
X80215051Y-38455600D01*
X80346300Y-38363698D01*
X80508198Y-38201800D01*
X80639523Y-38014249D01*
X80736284Y-37806743D01*
X80795543Y-37585587D01*
X80815498Y-37357500D01*
X80795543Y-37129413D01*
X80736284Y-36908257D01*
X80729441Y-36893583D01*
X80648119Y-36719186D01*
X80639523Y-36700751D01*
X80616544Y-36667934D01*
X80508195Y-36513196D01*
X80346303Y-36351304D01*
X80217604Y-36261188D01*
X80173276Y-36205731D01*
X80165967Y-36135111D01*
X80197998Y-36071751D01*
X80259199Y-36035766D01*
X80289875Y-36031975D01*
X88172204Y-36031975D01*
X88240325Y-36051977D01*
X88261299Y-36068880D01*
X89063053Y-36870634D01*
X89081199Y-36893583D01*
X89117145Y-36951862D01*
X89129513Y-36967042D01*
X89185630Y-37019986D01*
X89188259Y-37022540D01*
X90759492Y-38593773D01*
X90771460Y-38607620D01*
X90785516Y-38626501D01*
X90785931Y-38627058D01*
X90824270Y-38659228D01*
X90832374Y-38666655D01*
X90836299Y-38670580D01*
X90858331Y-38688001D01*
X90860853Y-38689995D01*
X90863692Y-38692308D01*
X90922782Y-38741890D01*
X90939289Y-38752405D01*
X91009194Y-38785002D01*
X91012485Y-38786596D01*
X91028608Y-38794693D01*
X91081400Y-38821206D01*
X91099885Y-38827631D01*
X91101191Y-38827900D01*
X91101194Y-38827902D01*
X91175513Y-38843247D01*
X91178925Y-38844003D01*
X91252744Y-38861500D01*
X91252747Y-38861500D01*
X91254042Y-38861807D01*
X91273511Y-38863796D01*
X91274838Y-38863757D01*
X91274842Y-38863758D01*
X91349097Y-38861597D01*
X91350624Y-38861553D01*
X91354288Y-38861500D01*
X100389559Y-38861500D01*
X100407820Y-38862830D01*
X100431789Y-38866341D01*
X100478253Y-38862275D01*
X100481647Y-38861979D01*
X100492628Y-38861500D01*
X100494513Y-38861500D01*
X100498180Y-38861500D01*
X100529301Y-38857861D01*
X100532896Y-38857494D01*
X100608426Y-38850887D01*
X100608430Y-38850885D01*
X100609751Y-38850770D01*
X100628856Y-38846535D01*
X100630106Y-38846079D01*
X100630113Y-38846079D01*
X100701400Y-38820132D01*
X100704769Y-38818961D01*
X100776738Y-38795114D01*
X100776739Y-38795112D01*
X100778007Y-38794693D01*
X100795613Y-38786169D01*
X100796725Y-38785437D01*
X100796732Y-38785435D01*
X100860138Y-38743730D01*
X100863161Y-38741806D01*
X100864416Y-38741032D01*
X100927651Y-38702030D01*
X100927652Y-38702028D01*
X100928788Y-38701328D01*
X100943959Y-38688970D01*
X100944871Y-38688002D01*
X100944874Y-38688001D01*
X100996929Y-38632824D01*
X100999448Y-38630231D01*
X103960096Y-35669583D01*
X104022406Y-35635559D01*
X104069928Y-35634399D01*
X104076880Y-35635559D01*
X104154429Y-35648500D01*
X104154431Y-35648500D01*
X104379566Y-35648500D01*
X104379569Y-35648500D01*
X104601635Y-35611444D01*
X104814574Y-35538342D01*
X105012576Y-35431189D01*
X105190240Y-35292906D01*
X105342722Y-35127268D01*
X105431518Y-34991354D01*
X105485521Y-34945268D01*
X105555869Y-34935693D01*
X105620226Y-34965670D01*
X105642480Y-34991353D01*
X105731278Y-35127268D01*
X105843525Y-35249200D01*
X105883762Y-35292908D01*
X106003629Y-35386205D01*
X106061424Y-35431189D01*
X106259426Y-35538342D01*
X106472365Y-35611444D01*
X106694431Y-35648500D01*
X106694434Y-35648500D01*
X106919566Y-35648500D01*
X106919569Y-35648500D01*
X107141635Y-35611444D01*
X107354574Y-35538342D01*
X107552576Y-35431189D01*
X107730240Y-35292906D01*
X107882722Y-35127268D01*
X108005860Y-34938791D01*
X108096296Y-34732616D01*
X108151564Y-34514368D01*
X108170156Y-34290000D01*
X108151564Y-34065632D01*
X108096296Y-33847384D01*
X108005860Y-33641209D01*
X107882722Y-33452732D01*
X107730240Y-33287094D01*
X107730239Y-33287093D01*
X107730237Y-33287091D01*
X107552578Y-33148812D01*
X107354573Y-33041657D01*
X107210427Y-32992172D01*
X107141635Y-32968556D01*
X106919569Y-32931500D01*
X106694431Y-32931500D01*
X106472365Y-32968556D01*
X106472362Y-32968556D01*
X106472362Y-32968557D01*
X106259426Y-33041657D01*
X106061421Y-33148812D01*
X105883762Y-33287091D01*
X105731278Y-33452731D01*
X105642483Y-33588643D01*
X105588479Y-33634731D01*
X105518131Y-33644306D01*
X105453774Y-33614328D01*
X105431517Y-33588643D01*
X105423486Y-33576350D01*
X105342722Y-33452732D01*
X105190240Y-33287094D01*
X105190239Y-33287093D01*
X105190237Y-33287091D01*
X105012578Y-33148812D01*
X104814573Y-33041657D01*
X104670427Y-32992172D01*
X104601635Y-32968556D01*
X104379569Y-32931500D01*
X104154431Y-32931500D01*
X104139331Y-32934019D01*
X104069926Y-32945600D01*
X103999442Y-32937082D01*
X103960094Y-32910413D01*
X102918509Y-31868828D01*
X102906537Y-31854975D01*
X102892070Y-31835543D01*
X102853727Y-31803369D01*
X102845624Y-31795943D01*
X102844294Y-31794613D01*
X102841701Y-31792020D01*
X102838835Y-31789753D01*
X102838824Y-31789744D01*
X102817130Y-31772591D01*
X102814308Y-31770292D01*
X102756240Y-31721568D01*
X102756239Y-31721567D01*
X102755221Y-31720713D01*
X102738710Y-31710194D01*
X102668805Y-31677596D01*
X102665509Y-31676001D01*
X102596596Y-31641392D01*
X102578104Y-31634965D01*
X102502542Y-31619362D01*
X102498967Y-31618569D01*
X102423956Y-31600791D01*
X102404485Y-31598802D01*
X102327341Y-31601047D01*
X102323677Y-31601100D01*
X97241971Y-31601100D01*
X97173850Y-31581098D01*
X97152876Y-31564195D01*
X96644709Y-31056028D01*
X96632737Y-31042175D01*
X96618270Y-31022743D01*
X96579927Y-30990569D01*
X96571824Y-30983143D01*
X96570494Y-30981813D01*
X96567901Y-30979220D01*
X96565035Y-30976953D01*
X96565024Y-30976944D01*
X96543330Y-30959791D01*
X96540508Y-30957492D01*
X96482440Y-30908768D01*
X96482439Y-30908767D01*
X96481421Y-30907913D01*
X96464910Y-30897394D01*
X96395005Y-30864796D01*
X96391709Y-30863201D01*
X96386422Y-30860546D01*
X96374754Y-30854686D01*
X96322796Y-30828592D01*
X96304304Y-30822165D01*
X96228742Y-30806562D01*
X96225167Y-30805769D01*
X96150156Y-30787991D01*
X96130685Y-30786002D01*
X96053541Y-30788247D01*
X96049877Y-30788300D01*
X91884591Y-30788300D01*
X91866330Y-30786970D01*
X91842361Y-30783459D01*
X91792503Y-30787821D01*
X91781522Y-30788300D01*
X91775970Y-30788300D01*
X91772335Y-30788724D01*
X91772315Y-30788726D01*
X91744859Y-30791935D01*
X91741218Y-30792307D01*
X91664401Y-30799028D01*
X91645289Y-30803265D01*
X91572803Y-30829646D01*
X91569348Y-30830847D01*
X91496145Y-30855105D01*
X91478522Y-30863637D01*
X91414082Y-30906020D01*
X91410993Y-30907988D01*
X91345371Y-30948465D01*
X91330186Y-30960834D01*
X91277254Y-31016938D01*
X91274702Y-31019565D01*
X90616199Y-31678070D01*
X90553886Y-31712095D01*
X90527103Y-31714975D01*
X53950966Y-31714975D01*
X53932705Y-31713645D01*
X53908736Y-31710134D01*
X53858878Y-31714496D01*
X53847897Y-31714975D01*
X52124346Y-31714975D01*
X52056225Y-31694973D01*
X52035251Y-31678070D01*
X51757575Y-31400394D01*
X51757574Y-31400392D01*
X51739851Y-31382669D01*
X51611619Y-31254437D01*
X51577595Y-31192127D01*
X51582659Y-31121311D01*
X51625206Y-31064475D01*
X51689731Y-31039822D01*
X51790087Y-31031043D01*
X52011243Y-30971784D01*
X52218749Y-30875023D01*
X52406300Y-30743698D01*
X52568198Y-30581800D01*
X52699523Y-30394249D01*
X52717804Y-30355043D01*
X52764722Y-30301757D01*
X52832999Y-30282296D01*
X52900959Y-30302837D01*
X52946195Y-30355043D01*
X52964476Y-30394248D01*
X53095804Y-30581803D01*
X53257696Y-30743695D01*
X53445249Y-30875022D01*
X53652756Y-30971784D01*
X53672014Y-30976944D01*
X53873913Y-31031043D01*
X54102000Y-31050998D01*
X54330087Y-31031043D01*
X54551243Y-30971784D01*
X54758749Y-30875023D01*
X54946300Y-30743698D01*
X55108198Y-30581800D01*
X55239523Y-30394249D01*
X55257804Y-30355043D01*
X55304722Y-30301757D01*
X55372999Y-30282296D01*
X55440959Y-30302837D01*
X55486195Y-30355043D01*
X55504476Y-30394248D01*
X55635804Y-30581803D01*
X55797696Y-30743695D01*
X55985249Y-30875022D01*
X56192756Y-30971784D01*
X56212014Y-30976944D01*
X56413913Y-31031043D01*
X56642000Y-31050998D01*
X56870087Y-31031043D01*
X57091243Y-30971784D01*
X57298749Y-30875023D01*
X57486300Y-30743698D01*
X57648198Y-30581800D01*
X57779523Y-30394249D01*
X57797804Y-30355043D01*
X57844722Y-30301757D01*
X57912999Y-30282296D01*
X57980959Y-30302837D01*
X58026195Y-30355043D01*
X58044476Y-30394248D01*
X58175804Y-30581803D01*
X58337696Y-30743695D01*
X58525249Y-30875022D01*
X58732756Y-30971784D01*
X58752014Y-30976944D01*
X58953913Y-31031043D01*
X59182000Y-31050998D01*
X59410087Y-31031043D01*
X59631243Y-30971784D01*
X59838749Y-30875023D01*
X60026300Y-30743698D01*
X60188198Y-30581800D01*
X60319523Y-30394249D01*
X60337804Y-30355043D01*
X60384722Y-30301757D01*
X60452999Y-30282296D01*
X60520959Y-30302837D01*
X60566195Y-30355043D01*
X60584476Y-30394248D01*
X60715804Y-30581803D01*
X60877696Y-30743695D01*
X61065249Y-30875022D01*
X61272756Y-30971784D01*
X61292014Y-30976944D01*
X61493913Y-31031043D01*
X61722000Y-31050998D01*
X61950087Y-31031043D01*
X62171243Y-30971784D01*
X62378749Y-30875023D01*
X62566300Y-30743698D01*
X62728198Y-30581800D01*
X62859523Y-30394249D01*
X62877804Y-30355043D01*
X62924722Y-30301757D01*
X62992999Y-30282296D01*
X63060959Y-30302837D01*
X63106195Y-30355043D01*
X63124476Y-30394248D01*
X63255804Y-30581803D01*
X63417696Y-30743695D01*
X63605249Y-30875022D01*
X63812756Y-30971784D01*
X63832014Y-30976944D01*
X64033913Y-31031043D01*
X64262000Y-31050998D01*
X64490087Y-31031043D01*
X64711243Y-30971784D01*
X64918749Y-30875023D01*
X65106300Y-30743698D01*
X65268198Y-30581800D01*
X65399523Y-30394249D01*
X65417804Y-30355043D01*
X65464722Y-30301757D01*
X65532999Y-30282296D01*
X65600959Y-30302837D01*
X65646195Y-30355043D01*
X65664476Y-30394248D01*
X65795804Y-30581803D01*
X65957696Y-30743695D01*
X66145249Y-30875022D01*
X66352756Y-30971784D01*
X66372014Y-30976944D01*
X66573913Y-31031043D01*
X66802000Y-31050998D01*
X67030087Y-31031043D01*
X67251243Y-30971784D01*
X67458749Y-30875023D01*
X67646300Y-30743698D01*
X67808198Y-30581800D01*
X67939523Y-30394249D01*
X67957804Y-30355043D01*
X68004722Y-30301757D01*
X68072999Y-30282296D01*
X68140959Y-30302837D01*
X68186195Y-30355043D01*
X68204476Y-30394248D01*
X68335804Y-30581803D01*
X68497696Y-30743695D01*
X68685249Y-30875022D01*
X68892756Y-30971784D01*
X68912014Y-30976944D01*
X69113913Y-31031043D01*
X69342000Y-31050998D01*
X69570087Y-31031043D01*
X69791243Y-30971784D01*
X69998749Y-30875023D01*
X70186300Y-30743698D01*
X70348198Y-30581800D01*
X70479523Y-30394249D01*
X70497804Y-30355043D01*
X70544722Y-30301757D01*
X70612999Y-30282296D01*
X70680959Y-30302837D01*
X70726195Y-30355043D01*
X70744476Y-30394248D01*
X70875804Y-30581803D01*
X71037696Y-30743695D01*
X71225249Y-30875022D01*
X71432756Y-30971784D01*
X71452014Y-30976944D01*
X71653913Y-31031043D01*
X71882000Y-31050998D01*
X72110087Y-31031043D01*
X72331243Y-30971784D01*
X72538749Y-30875023D01*
X72726300Y-30743698D01*
X72888198Y-30581800D01*
X73019523Y-30394249D01*
X73037804Y-30355043D01*
X73084722Y-30301757D01*
X73152999Y-30282296D01*
X73220959Y-30302837D01*
X73266195Y-30355043D01*
X73284476Y-30394248D01*
X73415804Y-30581803D01*
X73577696Y-30743695D01*
X73765249Y-30875022D01*
X73972756Y-30971784D01*
X73992014Y-30976944D01*
X74193913Y-31031043D01*
X74422000Y-31050998D01*
X74650087Y-31031043D01*
X74871243Y-30971784D01*
X75078749Y-30875023D01*
X75266300Y-30743698D01*
X75428198Y-30581800D01*
X75559523Y-30394249D01*
X75577804Y-30355043D01*
X75624722Y-30301757D01*
X75692999Y-30282296D01*
X75760959Y-30302837D01*
X75806195Y-30355043D01*
X75824476Y-30394248D01*
X75955804Y-30581803D01*
X76117696Y-30743695D01*
X76305249Y-30875022D01*
X76512756Y-30971784D01*
X76532014Y-30976944D01*
X76733913Y-31031043D01*
X76962000Y-31050998D01*
X77190087Y-31031043D01*
X77411243Y-30971784D01*
X77618749Y-30875023D01*
X77806300Y-30743698D01*
X77968198Y-30581800D01*
X78099523Y-30394249D01*
X78196284Y-30186743D01*
X78255543Y-29965587D01*
X78275498Y-29737500D01*
X78255543Y-29509413D01*
X78196284Y-29288257D01*
X78194824Y-29285127D01*
X78099522Y-29080749D01*
X77968195Y-28893196D01*
X77806303Y-28731304D01*
X77618750Y-28599977D01*
X77411243Y-28503215D01*
X77190087Y-28443957D01*
X76962000Y-28424002D01*
X76733912Y-28443957D01*
X76512756Y-28503215D01*
X76305249Y-28599977D01*
X76117696Y-28731304D01*
X75955804Y-28893196D01*
X75824477Y-29080750D01*
X75806195Y-29119957D01*
X75759278Y-29173242D01*
X75691000Y-29192703D01*
X75623040Y-29172161D01*
X75577805Y-29119957D01*
X75559727Y-29081189D01*
X75559523Y-29080751D01*
X75428198Y-28893200D01*
X75428197Y-28893199D01*
X75428195Y-28893196D01*
X75266303Y-28731304D01*
X75078750Y-28599977D01*
X74871243Y-28503215D01*
X74650087Y-28443957D01*
X74422000Y-28424002D01*
X74193912Y-28443957D01*
X73972756Y-28503215D01*
X73765249Y-28599977D01*
X73577696Y-28731304D01*
X73415804Y-28893196D01*
X73284477Y-29080750D01*
X73266195Y-29119957D01*
X73219278Y-29173242D01*
X73151000Y-29192703D01*
X73083040Y-29172161D01*
X73037805Y-29119957D01*
X73019727Y-29081189D01*
X73019523Y-29080751D01*
X72888198Y-28893200D01*
X72888197Y-28893199D01*
X72888195Y-28893196D01*
X72726303Y-28731304D01*
X72538750Y-28599977D01*
X72331243Y-28503215D01*
X72110087Y-28443957D01*
X71882000Y-28424002D01*
X71653912Y-28443957D01*
X71432756Y-28503215D01*
X71225249Y-28599977D01*
X71037696Y-28731304D01*
X70875804Y-28893196D01*
X70744477Y-29080750D01*
X70726195Y-29119957D01*
X70679278Y-29173242D01*
X70611000Y-29192703D01*
X70543040Y-29172161D01*
X70497805Y-29119957D01*
X70479727Y-29081189D01*
X70479523Y-29080751D01*
X70348198Y-28893200D01*
X70348197Y-28893199D01*
X70348195Y-28893196D01*
X70186303Y-28731304D01*
X69998750Y-28599977D01*
X69791243Y-28503215D01*
X69570087Y-28443957D01*
X69342000Y-28424002D01*
X69113912Y-28443957D01*
X68892756Y-28503215D01*
X68685249Y-28599977D01*
X68497696Y-28731304D01*
X68335804Y-28893196D01*
X68204477Y-29080750D01*
X68186195Y-29119957D01*
X68139278Y-29173242D01*
X68071000Y-29192703D01*
X68003040Y-29172161D01*
X67957805Y-29119957D01*
X67939727Y-29081189D01*
X67939523Y-29080751D01*
X67808198Y-28893200D01*
X67808197Y-28893199D01*
X67808195Y-28893196D01*
X67646303Y-28731304D01*
X67458750Y-28599977D01*
X67251243Y-28503215D01*
X67030087Y-28443957D01*
X66802000Y-28424002D01*
X66573912Y-28443957D01*
X66352756Y-28503215D01*
X66145249Y-28599977D01*
X65957696Y-28731304D01*
X65795804Y-28893196D01*
X65664477Y-29080750D01*
X65646195Y-29119957D01*
X65599278Y-29173242D01*
X65531000Y-29192703D01*
X65463040Y-29172161D01*
X65417805Y-29119957D01*
X65399727Y-29081189D01*
X65399523Y-29080751D01*
X65268198Y-28893200D01*
X65268197Y-28893199D01*
X65268195Y-28893196D01*
X65106303Y-28731304D01*
X64918750Y-28599977D01*
X64711243Y-28503215D01*
X64490087Y-28443957D01*
X64262000Y-28424002D01*
X64033912Y-28443957D01*
X63812756Y-28503215D01*
X63605249Y-28599977D01*
X63417696Y-28731304D01*
X63255804Y-28893196D01*
X63124477Y-29080750D01*
X63106195Y-29119957D01*
X63059278Y-29173242D01*
X62991000Y-29192703D01*
X62923040Y-29172161D01*
X62877805Y-29119957D01*
X62859727Y-29081189D01*
X62859523Y-29080751D01*
X62728198Y-28893200D01*
X62728197Y-28893199D01*
X62728195Y-28893196D01*
X62566303Y-28731304D01*
X62378750Y-28599977D01*
X62171243Y-28503215D01*
X61950087Y-28443957D01*
X61722000Y-28424002D01*
X61493912Y-28443957D01*
X61272756Y-28503215D01*
X61065249Y-28599977D01*
X60877696Y-28731304D01*
X60715804Y-28893196D01*
X60584477Y-29080750D01*
X60566195Y-29119957D01*
X60519278Y-29173242D01*
X60451000Y-29192703D01*
X60383040Y-29172161D01*
X60337805Y-29119957D01*
X60319727Y-29081189D01*
X60319523Y-29080751D01*
X60188198Y-28893200D01*
X60188197Y-28893199D01*
X60188195Y-28893196D01*
X60026303Y-28731304D01*
X59838750Y-28599977D01*
X59631243Y-28503215D01*
X59410087Y-28443957D01*
X59182000Y-28424002D01*
X58953912Y-28443957D01*
X58732756Y-28503215D01*
X58525249Y-28599977D01*
X58337696Y-28731304D01*
X58175804Y-28893196D01*
X58044477Y-29080750D01*
X58026195Y-29119957D01*
X57979278Y-29173242D01*
X57911000Y-29192703D01*
X57843040Y-29172161D01*
X57797805Y-29119957D01*
X57779727Y-29081189D01*
X57779523Y-29080751D01*
X57648198Y-28893200D01*
X57648197Y-28893199D01*
X57648195Y-28893196D01*
X57486303Y-28731304D01*
X57298750Y-28599977D01*
X57091243Y-28503215D01*
X56870087Y-28443957D01*
X56642000Y-28424002D01*
X56413912Y-28443957D01*
X56192756Y-28503215D01*
X55985249Y-28599977D01*
X55797696Y-28731304D01*
X55635804Y-28893196D01*
X55504477Y-29080750D01*
X55486195Y-29119957D01*
X55439278Y-29173242D01*
X55371000Y-29192703D01*
X55303040Y-29172161D01*
X55257805Y-29119957D01*
X55239727Y-29081189D01*
X55239523Y-29080751D01*
X55108198Y-28893200D01*
X55108197Y-28893199D01*
X55108195Y-28893196D01*
X54946303Y-28731304D01*
X54758750Y-28599977D01*
X54551243Y-28503215D01*
X54330087Y-28443957D01*
X54102000Y-28424002D01*
X53873912Y-28443957D01*
X53652756Y-28503215D01*
X53445249Y-28599977D01*
X53257696Y-28731304D01*
X53095804Y-28893196D01*
X52964477Y-29080750D01*
X52946195Y-29119957D01*
X52899278Y-29173242D01*
X52831000Y-29192703D01*
X52763040Y-29172161D01*
X52717805Y-29119957D01*
X52699727Y-29081189D01*
X52699523Y-29080751D01*
X52568198Y-28893200D01*
X52568197Y-28893199D01*
X52568195Y-28893196D01*
X52406303Y-28731304D01*
X52218750Y-28599977D01*
X52011243Y-28503215D01*
X51790087Y-28443957D01*
X51562000Y-28424002D01*
X51333912Y-28443957D01*
X51112756Y-28503215D01*
X50905249Y-28599977D01*
X50717696Y-28731304D01*
X50555804Y-28893196D01*
X50424477Y-29080750D01*
X50406195Y-29119957D01*
X50359278Y-29173242D01*
X50291000Y-29192703D01*
X50223040Y-29172161D01*
X50177805Y-29119957D01*
X50159727Y-29081189D01*
X50159523Y-29080751D01*
X50028198Y-28893200D01*
X50028197Y-28893199D01*
X50028195Y-28893196D01*
X49866303Y-28731304D01*
X49678750Y-28599977D01*
X49471243Y-28503215D01*
X49250087Y-28443957D01*
X49022000Y-28424002D01*
X48793912Y-28443957D01*
X48572756Y-28503215D01*
X48365249Y-28599977D01*
X48177696Y-28731304D01*
X48015804Y-28893196D01*
X47884477Y-29080749D01*
X47787715Y-29288256D01*
X47728457Y-29509412D01*
X47728457Y-29509413D01*
X47708502Y-29737500D01*
X47728456Y-29965586D01*
X47728457Y-29965587D01*
X47787715Y-30186743D01*
X47884477Y-30394250D01*
X48015804Y-30581803D01*
X48177696Y-30743695D01*
X48365249Y-30875022D01*
X48572756Y-30971784D01*
X48592014Y-30976944D01*
X48793913Y-31031043D01*
X49022000Y-31050998D01*
X49184914Y-31036744D01*
X49254517Y-31050733D01*
X49284989Y-31073170D01*
X51176067Y-32964248D01*
X51188035Y-32978095D01*
X51202506Y-32997533D01*
X51240845Y-33029703D01*
X51248949Y-33037130D01*
X51252875Y-33041056D01*
X51255755Y-33043333D01*
X51277430Y-33060472D01*
X51280271Y-33062786D01*
X51339352Y-33112360D01*
X51355865Y-33122880D01*
X51357069Y-33123441D01*
X51357070Y-33123442D01*
X51393003Y-33140198D01*
X51425761Y-33155473D01*
X51429053Y-33157066D01*
X51496787Y-33191084D01*
X51496789Y-33191084D01*
X51497983Y-33191684D01*
X51516465Y-33198108D01*
X51517766Y-33198376D01*
X51517769Y-33198378D01*
X51592053Y-33213716D01*
X51595605Y-33214504D01*
X51669319Y-33231975D01*
X51669321Y-33231975D01*
X51670616Y-33232282D01*
X51690086Y-33234272D01*
X51691413Y-33234233D01*
X51691417Y-33234234D01*
X51699776Y-33233990D01*
X51768448Y-33252001D01*
X51816483Y-33304281D01*
X51828628Y-33374231D01*
X51801026Y-33439643D01*
X51792536Y-33449032D01*
X41637774Y-43603795D01*
X41575462Y-43637821D01*
X41548679Y-43640700D01*
X32140186Y-43640700D01*
X32072065Y-43620698D01*
X32066151Y-43616654D01*
X32054352Y-43608082D01*
X31879888Y-43530406D01*
X31693087Y-43490700D01*
X31502113Y-43490700D01*
X31377578Y-43517170D01*
X31315311Y-43530406D01*
X31140846Y-43608083D01*
X30986347Y-43720333D01*
X30858558Y-43862257D01*
X30763072Y-44027643D01*
X30704058Y-44209270D01*
X30684096Y-44399199D01*
X30704058Y-44589129D01*
X30763072Y-44770756D01*
X30858558Y-44936142D01*
X30895560Y-44977237D01*
X30986347Y-45078066D01*
X31140848Y-45190318D01*
X31315312Y-45267994D01*
X31502113Y-45307700D01*
X31502115Y-45307700D01*
X31693085Y-45307700D01*
X31693087Y-45307700D01*
X31879888Y-45267994D01*
X32054352Y-45190318D01*
X32066127Y-45181762D01*
X32132992Y-45157906D01*
X32140186Y-45157700D01*
X41850609Y-45157700D01*
X41868870Y-45159030D01*
X41892839Y-45162541D01*
X41939303Y-45158475D01*
X41942697Y-45158179D01*
X41953678Y-45157700D01*
X41955563Y-45157700D01*
X41959230Y-45157700D01*
X41990351Y-45154061D01*
X41993946Y-45153694D01*
X42069476Y-45147087D01*
X42069480Y-45147085D01*
X42070801Y-45146970D01*
X42089906Y-45142735D01*
X42091156Y-45142279D01*
X42091163Y-45142279D01*
X42162450Y-45116332D01*
X42165819Y-45115161D01*
X42237788Y-45091314D01*
X42237789Y-45091312D01*
X42239057Y-45090893D01*
X42256663Y-45082369D01*
X42257775Y-45081637D01*
X42257782Y-45081635D01*
X42321188Y-45039930D01*
X42324211Y-45038006D01*
X42388701Y-44998230D01*
X42388702Y-44998228D01*
X42389838Y-44997528D01*
X42405009Y-44985170D01*
X42405921Y-44984202D01*
X42405924Y-44984201D01*
X42457979Y-44929024D01*
X42460498Y-44926431D01*
X53183910Y-34203019D01*
X53203755Y-34186852D01*
X53251245Y-34155617D01*
X53254276Y-34153687D01*
X53318776Y-34113905D01*
X53318777Y-34113903D01*
X53319913Y-34113203D01*
X53335084Y-34100845D01*
X53335996Y-34099877D01*
X53335999Y-34099876D01*
X53388037Y-34044717D01*
X53390558Y-34042121D01*
X54163801Y-33268879D01*
X54226114Y-33234854D01*
X54252897Y-33231975D01*
X75881154Y-33231975D01*
X75949275Y-33251977D01*
X75995768Y-33305633D01*
X76005872Y-33375907D01*
X75976378Y-33440487D01*
X75970249Y-33447070D01*
X73804225Y-35613092D01*
X73790377Y-35625061D01*
X73770944Y-35639529D01*
X73770942Y-35639530D01*
X73770942Y-35639531D01*
X73763719Y-35648139D01*
X73738773Y-35677868D01*
X73731360Y-35685958D01*
X73730017Y-35687301D01*
X73730011Y-35687307D01*
X73727420Y-35689899D01*
X73725149Y-35692770D01*
X73725140Y-35692781D01*
X73707997Y-35714460D01*
X73705688Y-35717294D01*
X73656119Y-35776369D01*
X73645589Y-35792899D01*
X73612995Y-35862794D01*
X73611401Y-35866087D01*
X73576795Y-35934997D01*
X73570363Y-35953500D01*
X73554759Y-36029064D01*
X73553967Y-36032637D01*
X73536192Y-36107640D01*
X73534202Y-36127115D01*
X73536447Y-36204258D01*
X73536500Y-36207922D01*
X73536500Y-41188678D01*
X73516498Y-41256799D01*
X73499595Y-41277773D01*
X67312774Y-47464595D01*
X67250462Y-47498621D01*
X67223679Y-47501500D01*
X66123942Y-47501500D01*
X66105682Y-47500170D01*
X66081712Y-47496659D01*
X66081711Y-47496659D01*
X66059286Y-47498621D01*
X66031853Y-47501021D01*
X66020872Y-47501500D01*
X66015320Y-47501500D01*
X66011682Y-47501925D01*
X66011667Y-47501926D01*
X65984211Y-47505135D01*
X65980570Y-47505507D01*
X65903760Y-47512227D01*
X65884623Y-47516470D01*
X65812134Y-47542853D01*
X65808676Y-47544055D01*
X65735500Y-47568303D01*
X65717872Y-47576838D01*
X65653418Y-47619229D01*
X65650331Y-47621196D01*
X65584718Y-47661667D01*
X65569532Y-47674038D01*
X65516587Y-47730156D01*
X65514034Y-47732783D01*
X64524989Y-48721828D01*
X64462677Y-48755854D01*
X64424914Y-48758254D01*
X64262000Y-48744002D01*
X64033912Y-48763957D01*
X63812756Y-48823215D01*
X63605249Y-48919977D01*
X63417696Y-49051304D01*
X63255804Y-49213196D01*
X63124477Y-49400750D01*
X63106195Y-49439957D01*
X63059278Y-49493242D01*
X62991000Y-49512703D01*
X62923040Y-49492161D01*
X62877805Y-49439957D01*
X62859727Y-49401189D01*
X62859523Y-49400751D01*
X62728198Y-49213200D01*
X62728197Y-49213199D01*
X62728195Y-49213196D01*
X62566303Y-49051304D01*
X62378750Y-48919977D01*
X62171243Y-48823215D01*
X61950087Y-48763957D01*
X61722000Y-48744002D01*
X61493912Y-48763957D01*
X61272756Y-48823215D01*
X61065249Y-48919977D01*
X60877696Y-49051304D01*
X60715804Y-49213196D01*
X60584477Y-49400750D01*
X60566195Y-49439957D01*
X60519278Y-49493242D01*
X60451000Y-49512703D01*
X60383040Y-49492161D01*
X60337805Y-49439957D01*
X60319727Y-49401189D01*
X60319523Y-49400751D01*
X60188198Y-49213200D01*
X60188197Y-49213199D01*
X60188195Y-49213196D01*
X60026303Y-49051304D01*
X59838750Y-48919977D01*
X59631243Y-48823215D01*
X59410087Y-48763957D01*
X59317469Y-48755854D01*
X59182000Y-48744002D01*
X59181999Y-48744002D01*
X58953912Y-48763957D01*
X58732756Y-48823215D01*
X58525249Y-48919977D01*
X58337696Y-49051304D01*
X58175804Y-49213196D01*
X58044477Y-49400750D01*
X58026195Y-49439957D01*
X57979278Y-49493242D01*
X57911000Y-49512703D01*
X57843040Y-49492161D01*
X57797805Y-49439957D01*
X57779727Y-49401189D01*
X57779523Y-49400751D01*
X57648198Y-49213200D01*
X57648197Y-49213199D01*
X57648195Y-49213196D01*
X57486303Y-49051304D01*
X57298750Y-48919977D01*
X57091243Y-48823215D01*
X56870087Y-48763957D01*
X56642000Y-48744002D01*
X56413912Y-48763957D01*
X56192756Y-48823215D01*
X55985249Y-48919977D01*
X55797696Y-49051304D01*
X55635804Y-49213196D01*
X55504477Y-49400750D01*
X55486195Y-49439957D01*
X55439278Y-49493242D01*
X55371000Y-49512703D01*
X55303040Y-49492161D01*
X55257805Y-49439957D01*
X55239727Y-49401189D01*
X55239523Y-49400751D01*
X55108198Y-49213200D01*
X55108197Y-49213199D01*
X55108195Y-49213196D01*
X54946303Y-49051304D01*
X54758750Y-48919977D01*
X54551243Y-48823215D01*
X54330087Y-48763957D01*
X54237469Y-48755854D01*
X54102000Y-48744002D01*
X54101999Y-48744002D01*
X53873912Y-48763957D01*
X53652756Y-48823215D01*
X53445249Y-48919977D01*
X53257696Y-49051304D01*
X53095804Y-49213196D01*
X52964477Y-49400750D01*
X52946195Y-49439957D01*
X52899278Y-49493242D01*
X52831000Y-49512703D01*
X52763040Y-49492161D01*
X52717805Y-49439957D01*
X52699727Y-49401189D01*
X52699523Y-49400751D01*
X52568198Y-49213200D01*
X52568197Y-49213199D01*
X52568195Y-49213196D01*
X52406303Y-49051304D01*
X52218750Y-48919977D01*
X52011243Y-48823215D01*
X51790087Y-48763957D01*
X51562000Y-48744002D01*
X51333912Y-48763957D01*
X51112756Y-48823215D01*
X50905249Y-48919977D01*
X50717696Y-49051304D01*
X50555804Y-49213196D01*
X50424477Y-49400750D01*
X50406195Y-49439957D01*
X50359278Y-49493242D01*
X50291000Y-49512703D01*
X50223040Y-49492161D01*
X50177805Y-49439957D01*
X50159727Y-49401189D01*
X50159523Y-49400751D01*
X50028198Y-49213200D01*
X50028197Y-49213199D01*
X50028195Y-49213196D01*
X49866303Y-49051304D01*
X49678750Y-48919977D01*
X49471243Y-48823215D01*
X49250087Y-48763957D01*
X49157469Y-48755854D01*
X49022000Y-48744002D01*
X49021999Y-48744002D01*
X48793912Y-48763957D01*
X48572756Y-48823215D01*
X48365249Y-48919977D01*
X48177696Y-49051304D01*
X48015804Y-49213196D01*
X47884477Y-49400750D01*
X47866195Y-49439957D01*
X47819278Y-49493242D01*
X47751000Y-49512703D01*
X47683040Y-49492161D01*
X47637805Y-49439957D01*
X47619727Y-49401189D01*
X47619523Y-49400751D01*
X47488198Y-49213200D01*
X47488197Y-49213199D01*
X47488195Y-49213196D01*
X47326303Y-49051304D01*
X47138750Y-48919977D01*
X46931243Y-48823215D01*
X46710087Y-48763957D01*
X46482000Y-48744002D01*
X46253912Y-48763957D01*
X46032756Y-48823215D01*
X45825249Y-48919977D01*
X45637696Y-49051304D01*
X45475804Y-49213196D01*
X45344477Y-49400750D01*
X45326195Y-49439957D01*
X45279278Y-49493242D01*
X45211000Y-49512703D01*
X45143040Y-49492161D01*
X45097805Y-49439957D01*
X45079727Y-49401189D01*
X45079523Y-49400751D01*
X44948198Y-49213200D01*
X44948197Y-49213199D01*
X44948195Y-49213196D01*
X44786303Y-49051304D01*
X44598750Y-48919977D01*
X44391243Y-48823215D01*
X44170087Y-48763957D01*
X44077469Y-48755854D01*
X43942000Y-48744002D01*
X43941999Y-48744002D01*
X43713912Y-48763957D01*
X43492756Y-48823215D01*
X43285249Y-48919977D01*
X43097696Y-49051304D01*
X42935804Y-49213196D01*
X42804477Y-49400749D01*
X42707715Y-49608256D01*
X42648457Y-49829412D01*
X42628502Y-50057500D01*
X42648457Y-50285587D01*
X42707715Y-50506743D01*
X42804477Y-50714250D01*
X42935804Y-50901803D01*
X43097696Y-51063695D01*
X43097699Y-51063697D01*
X43097700Y-51063698D01*
X43154834Y-51103704D01*
X43285249Y-51195022D01*
X43492756Y-51291784D01*
X43552014Y-51307662D01*
X43713913Y-51351043D01*
X43942000Y-51370998D01*
X44170087Y-51351043D01*
X44391243Y-51291784D01*
X44598749Y-51195023D01*
X44786300Y-51063698D01*
X44948198Y-50901800D01*
X45079523Y-50714249D01*
X45097804Y-50675043D01*
X45144722Y-50621757D01*
X45212999Y-50602296D01*
X45280959Y-50622837D01*
X45326195Y-50675043D01*
X45344476Y-50714248D01*
X45475804Y-50901803D01*
X45637696Y-51063695D01*
X45637699Y-51063697D01*
X45637700Y-51063698D01*
X45694834Y-51103704D01*
X45825249Y-51195022D01*
X46032756Y-51291784D01*
X46092014Y-51307662D01*
X46253913Y-51351043D01*
X46482000Y-51370998D01*
X46710087Y-51351043D01*
X46931243Y-51291784D01*
X47138749Y-51195023D01*
X47326300Y-51063698D01*
X47488198Y-50901800D01*
X47619523Y-50714249D01*
X47637804Y-50675043D01*
X47684722Y-50621757D01*
X47752999Y-50602296D01*
X47820959Y-50622837D01*
X47866195Y-50675043D01*
X47884476Y-50714248D01*
X48015804Y-50901803D01*
X48177696Y-51063695D01*
X48177699Y-51063697D01*
X48177700Y-51063698D01*
X48234834Y-51103704D01*
X48365249Y-51195022D01*
X48572756Y-51291784D01*
X48632014Y-51307662D01*
X48793913Y-51351043D01*
X49022000Y-51370998D01*
X49250087Y-51351043D01*
X49471243Y-51291784D01*
X49678749Y-51195023D01*
X49866300Y-51063698D01*
X50028198Y-50901800D01*
X50159523Y-50714249D01*
X50177804Y-50675043D01*
X50224722Y-50621757D01*
X50292999Y-50602296D01*
X50360959Y-50622837D01*
X50406195Y-50675043D01*
X50424476Y-50714248D01*
X50555804Y-50901803D01*
X50717696Y-51063695D01*
X50717699Y-51063697D01*
X50717700Y-51063698D01*
X50774834Y-51103704D01*
X50905249Y-51195022D01*
X51112756Y-51291784D01*
X51172014Y-51307662D01*
X51333913Y-51351043D01*
X51562000Y-51370998D01*
X51790087Y-51351043D01*
X52011243Y-51291784D01*
X52218749Y-51195023D01*
X52406300Y-51063698D01*
X52568198Y-50901800D01*
X52699523Y-50714249D01*
X52717804Y-50675043D01*
X52764722Y-50621757D01*
X52832999Y-50602296D01*
X52900959Y-50622837D01*
X52946195Y-50675043D01*
X52964476Y-50714248D01*
X53095804Y-50901803D01*
X53257696Y-51063695D01*
X53257699Y-51063697D01*
X53257700Y-51063698D01*
X53314834Y-51103704D01*
X53445249Y-51195022D01*
X53652756Y-51291784D01*
X53712014Y-51307662D01*
X53873913Y-51351043D01*
X54102000Y-51370998D01*
X54330087Y-51351043D01*
X54551243Y-51291784D01*
X54758749Y-51195023D01*
X54946300Y-51063698D01*
X55108198Y-50901800D01*
X55239523Y-50714249D01*
X55257804Y-50675043D01*
X55304722Y-50621757D01*
X55372999Y-50602296D01*
X55440959Y-50622837D01*
X55486195Y-50675043D01*
X55504476Y-50714248D01*
X55635804Y-50901803D01*
X55797696Y-51063695D01*
X55797699Y-51063697D01*
X55797700Y-51063698D01*
X55854834Y-51103704D01*
X55985249Y-51195022D01*
X56192756Y-51291784D01*
X56252014Y-51307662D01*
X56413913Y-51351043D01*
X56642000Y-51370998D01*
X56870087Y-51351043D01*
X57091243Y-51291784D01*
X57298749Y-51195023D01*
X57486300Y-51063698D01*
X57648198Y-50901800D01*
X57779523Y-50714249D01*
X57797804Y-50675043D01*
X57844722Y-50621757D01*
X57912999Y-50602296D01*
X57980959Y-50622837D01*
X58026195Y-50675043D01*
X58044476Y-50714248D01*
X58175804Y-50901803D01*
X58337696Y-51063695D01*
X58337699Y-51063697D01*
X58337700Y-51063698D01*
X58394834Y-51103704D01*
X58525249Y-51195022D01*
X58732756Y-51291784D01*
X58792014Y-51307662D01*
X58953913Y-51351043D01*
X59182000Y-51370998D01*
X59410087Y-51351043D01*
X59631243Y-51291784D01*
X59838749Y-51195023D01*
X60026300Y-51063698D01*
X60188198Y-50901800D01*
X60319523Y-50714249D01*
X60337804Y-50675043D01*
X60384722Y-50621757D01*
X60452999Y-50602296D01*
X60520959Y-50622837D01*
X60566195Y-50675043D01*
X60584476Y-50714248D01*
X60715804Y-50901803D01*
X60799594Y-50985593D01*
X60833620Y-51047905D01*
X60836499Y-51074687D01*
X60836500Y-51322626D01*
X60816498Y-51390747D01*
X60799596Y-51411722D01*
X60047724Y-52163595D01*
X59985411Y-52197620D01*
X59958628Y-52200500D01*
X34761492Y-52200500D01*
X34743231Y-52199170D01*
X34719262Y-52195659D01*
X34669404Y-52200021D01*
X34658423Y-52200500D01*
X34652871Y-52200500D01*
X34649236Y-52200924D01*
X34649216Y-52200926D01*
X34621760Y-52204135D01*
X34618119Y-52204507D01*
X34541302Y-52211228D01*
X34522186Y-52215466D01*
X34449710Y-52241844D01*
X34446253Y-52243046D01*
X34373050Y-52267304D01*
X34355423Y-52275838D01*
X34290969Y-52318229D01*
X34287882Y-52320196D01*
X34222269Y-52360667D01*
X34207083Y-52373038D01*
X34154138Y-52429156D01*
X34151585Y-52431783D01*
X29669975Y-56913395D01*
X29607663Y-56947420D01*
X29580880Y-56950300D01*
X26548451Y-56950300D01*
X26480330Y-56930298D01*
X26433837Y-56876642D01*
X26423733Y-56806368D01*
X26453227Y-56741788D01*
X26455751Y-56738962D01*
X26475722Y-56717268D01*
X26598860Y-56528791D01*
X26689296Y-56322616D01*
X26744564Y-56104368D01*
X26763156Y-55880000D01*
X26744564Y-55655632D01*
X26689296Y-55437384D01*
X26598860Y-55231209D01*
X26475722Y-55042732D01*
X26323240Y-54877094D01*
X26323239Y-54877093D01*
X26323237Y-54877091D01*
X26145578Y-54738812D01*
X25947573Y-54631657D01*
X25803427Y-54582172D01*
X25734635Y-54558556D01*
X25512569Y-54521500D01*
X25287431Y-54521500D01*
X25065365Y-54558556D01*
X25065362Y-54558556D01*
X25065362Y-54558557D01*
X24852426Y-54631657D01*
X24654421Y-54738812D01*
X24476762Y-54877091D01*
X24324278Y-55042731D01*
X24201139Y-55231209D01*
X24110702Y-55437388D01*
X24056746Y-55650459D01*
X24055436Y-55655632D01*
X24036844Y-55880000D01*
X24055436Y-56104368D01*
X24055436Y-56104371D01*
X24055437Y-56104372D01*
X24110702Y-56322611D01*
X24201139Y-56528790D01*
X24324278Y-56717268D01*
X24476762Y-56882908D01*
X24654418Y-57021185D01*
X24654420Y-57021186D01*
X24654424Y-57021189D01*
X24687682Y-57039187D01*
X24738071Y-57089200D01*
X24753423Y-57158517D01*
X24728862Y-57225130D01*
X24687683Y-57260812D01*
X24662794Y-57274281D01*
X24654418Y-57278814D01*
X24476762Y-57417091D01*
X24324278Y-57582731D01*
X24201139Y-57771209D01*
X24110702Y-57977388D01*
X24055437Y-58195627D01*
X24055436Y-58195632D01*
X24036844Y-58420000D01*
X24055436Y-58644368D01*
X24055436Y-58644371D01*
X24055437Y-58644372D01*
X24110702Y-58862611D01*
X24201139Y-59068790D01*
X24312617Y-59239420D01*
X24324278Y-59257268D01*
X24460378Y-59405111D01*
X24476762Y-59422908D01*
X24654418Y-59561185D01*
X24654420Y-59561186D01*
X24654424Y-59561189D01*
X24687682Y-59579187D01*
X24738071Y-59629200D01*
X24753423Y-59698517D01*
X24728862Y-59765130D01*
X24687683Y-59800812D01*
X24662794Y-59814281D01*
X24654418Y-59818814D01*
X24476762Y-59957091D01*
X24324278Y-60122731D01*
X24201139Y-60311209D01*
X24110702Y-60517388D01*
X24055437Y-60735627D01*
X24055436Y-60735632D01*
X24036844Y-60960000D01*
X24055436Y-61184368D01*
X24055436Y-61184371D01*
X24055437Y-61184372D01*
X24110702Y-61402611D01*
X24201139Y-61608790D01*
X24324278Y-61797268D01*
X24476762Y-61962908D01*
X24559675Y-62027442D01*
X24654424Y-62101189D01*
X24687682Y-62119187D01*
X24738070Y-62169197D01*
X24753423Y-62238513D01*
X24728863Y-62305127D01*
X24687683Y-62340811D01*
X24654423Y-62358810D01*
X24476762Y-62497091D01*
X24324278Y-62662731D01*
X24201139Y-62851209D01*
X24110702Y-63057388D01*
X24076933Y-63190741D01*
X24055436Y-63275632D01*
X24036844Y-63500000D01*
X24055436Y-63724368D01*
X24055436Y-63724371D01*
X24055437Y-63724372D01*
X24110702Y-63942611D01*
X24201139Y-64148790D01*
X24324278Y-64337268D01*
X24476762Y-64502908D01*
X24574432Y-64578928D01*
X24654424Y-64641189D01*
X24687682Y-64659187D01*
X24738070Y-64709197D01*
X24753423Y-64778513D01*
X24728863Y-64845127D01*
X24687683Y-64880811D01*
X24654423Y-64898810D01*
X24476762Y-65037091D01*
X24324278Y-65202731D01*
X24201139Y-65391209D01*
X24110702Y-65597388D01*
X24064075Y-65781516D01*
X24055436Y-65815632D01*
X24036844Y-66040000D01*
X24055436Y-66264368D01*
X24055436Y-66264371D01*
X24055437Y-66264372D01*
X24110702Y-66482611D01*
X24201139Y-66688790D01*
X24324278Y-66877268D01*
X24476762Y-67042908D01*
X24654418Y-67181185D01*
X24654420Y-67181186D01*
X24654424Y-67181189D01*
X24687682Y-67199187D01*
X24738071Y-67249200D01*
X24753423Y-67318517D01*
X24728862Y-67385130D01*
X24687683Y-67420812D01*
X24662794Y-67434281D01*
X24654418Y-67438814D01*
X24476762Y-67577091D01*
X24324278Y-67742731D01*
X24201139Y-67931209D01*
X24110702Y-68137388D01*
X24056153Y-68352799D01*
X24055436Y-68355632D01*
X24036844Y-68580000D01*
X22885500Y-68580000D01*
X22885500Y-50800000D01*
X24036844Y-50800000D01*
X24055436Y-51024368D01*
X24055436Y-51024371D01*
X24055437Y-51024372D01*
X24110702Y-51242611D01*
X24201139Y-51448790D01*
X24324278Y-51637268D01*
X24476762Y-51802908D01*
X24654420Y-51941186D01*
X24654424Y-51941189D01*
X24852426Y-52048342D01*
X25065365Y-52121444D01*
X25287431Y-52158500D01*
X25287434Y-52158500D01*
X25512566Y-52158500D01*
X25512569Y-52158500D01*
X25734635Y-52121444D01*
X25947574Y-52048342D01*
X26145576Y-51941189D01*
X26323240Y-51802906D01*
X26475722Y-51637268D01*
X26598860Y-51448791D01*
X26689296Y-51242616D01*
X26744564Y-51024368D01*
X26754361Y-50906138D01*
X37553500Y-50906138D01*
X37560011Y-50966701D01*
X37577047Y-51012376D01*
X37611111Y-51103705D01*
X37698738Y-51220761D01*
X37815794Y-51308388D01*
X37815795Y-51308388D01*
X37815796Y-51308389D01*
X37952799Y-51359489D01*
X38013362Y-51366000D01*
X38016731Y-51366000D01*
X39707269Y-51366000D01*
X39710638Y-51366000D01*
X39771201Y-51359489D01*
X39908204Y-51308389D01*
X40025261Y-51220761D01*
X40112889Y-51103704D01*
X40163989Y-50966701D01*
X40170500Y-50906138D01*
X40170500Y-49208862D01*
X40163989Y-49148299D01*
X40112889Y-49011296D01*
X40108549Y-49005498D01*
X40025261Y-48894238D01*
X39908205Y-48806611D01*
X39793845Y-48763957D01*
X39771201Y-48755511D01*
X39710638Y-48749000D01*
X38013362Y-48749000D01*
X38010013Y-48749359D01*
X38010013Y-48749360D01*
X37952799Y-48755511D01*
X37815794Y-48806611D01*
X37698738Y-48894238D01*
X37611111Y-49011294D01*
X37560010Y-49148299D01*
X37560011Y-49148299D01*
X37553500Y-49208862D01*
X37553500Y-50906138D01*
X26754361Y-50906138D01*
X26763156Y-50800000D01*
X26744564Y-50575632D01*
X26689296Y-50357384D01*
X26598860Y-50151209D01*
X26475722Y-49962732D01*
X26323240Y-49797094D01*
X26323239Y-49797093D01*
X26323237Y-49797091D01*
X26145579Y-49658813D01*
X26145577Y-49658812D01*
X26145576Y-49658811D01*
X26112317Y-49640812D01*
X26061929Y-49590801D01*
X26046576Y-49521484D01*
X26071136Y-49454871D01*
X26112316Y-49419187D01*
X26145576Y-49401189D01*
X26323240Y-49262906D01*
X26475722Y-49097268D01*
X26598860Y-48908791D01*
X26689296Y-48702616D01*
X26744564Y-48484368D01*
X26763156Y-48260000D01*
X26744564Y-48035632D01*
X26689296Y-47817384D01*
X26598860Y-47611209D01*
X26475722Y-47422732D01*
X26323240Y-47257094D01*
X26323239Y-47257093D01*
X26323237Y-47257091D01*
X26145579Y-47118813D01*
X26145577Y-47118812D01*
X26145576Y-47118811D01*
X26112317Y-47100812D01*
X26061929Y-47050801D01*
X26046576Y-46981484D01*
X26071136Y-46914871D01*
X26112316Y-46879187D01*
X26145576Y-46861189D01*
X26323240Y-46722906D01*
X26475722Y-46557268D01*
X26598860Y-46368791D01*
X26689296Y-46162616D01*
X26744564Y-45944368D01*
X26763156Y-45720000D01*
X26744564Y-45495632D01*
X26689296Y-45277384D01*
X26598860Y-45071209D01*
X26475722Y-44882732D01*
X26323240Y-44717094D01*
X26323239Y-44717093D01*
X26323237Y-44717091D01*
X26145579Y-44578813D01*
X26145577Y-44578812D01*
X26145576Y-44578811D01*
X26112317Y-44560812D01*
X26061929Y-44510801D01*
X26046576Y-44441484D01*
X26071136Y-44374871D01*
X26112316Y-44339187D01*
X26145576Y-44321189D01*
X26323240Y-44182906D01*
X26475722Y-44017268D01*
X26598860Y-43828791D01*
X26689296Y-43622616D01*
X26744564Y-43404368D01*
X26763156Y-43180000D01*
X26744564Y-42955632D01*
X26689296Y-42737384D01*
X26598860Y-42531209D01*
X26475722Y-42342732D01*
X26323240Y-42177094D01*
X26323239Y-42177093D01*
X26323237Y-42177091D01*
X26145579Y-42038813D01*
X26145577Y-42038812D01*
X26145576Y-42038811D01*
X26112317Y-42020812D01*
X26061929Y-41970801D01*
X26046576Y-41901484D01*
X26071136Y-41834871D01*
X26112316Y-41799187D01*
X26145576Y-41781189D01*
X26323240Y-41642906D01*
X26475722Y-41477268D01*
X26598860Y-41288791D01*
X26689296Y-41082616D01*
X26744564Y-40864368D01*
X26763156Y-40640000D01*
X26744564Y-40415632D01*
X26689296Y-40197384D01*
X26598860Y-39991209D01*
X26475722Y-39802732D01*
X26323240Y-39637094D01*
X26323239Y-39637093D01*
X26323237Y-39637091D01*
X26145579Y-39498813D01*
X26145577Y-39498812D01*
X26145576Y-39498811D01*
X26112317Y-39480812D01*
X26061929Y-39430801D01*
X26046576Y-39361484D01*
X26071136Y-39294871D01*
X26112316Y-39259187D01*
X26145576Y-39241189D01*
X26323240Y-39102906D01*
X26475722Y-38937268D01*
X26598860Y-38748791D01*
X26689296Y-38542616D01*
X26744564Y-38324368D01*
X26763156Y-38100000D01*
X26744564Y-37875632D01*
X26689296Y-37657384D01*
X26598860Y-37451209D01*
X26475722Y-37262732D01*
X26323240Y-37097094D01*
X26323239Y-37097093D01*
X26323237Y-37097091D01*
X26145579Y-36958813D01*
X26145577Y-36958812D01*
X26145576Y-36958811D01*
X26112317Y-36940812D01*
X26061929Y-36890801D01*
X26046576Y-36821484D01*
X26071136Y-36754871D01*
X26112316Y-36719187D01*
X26145576Y-36701189D01*
X26323240Y-36562906D01*
X26475722Y-36397268D01*
X26598860Y-36208791D01*
X26689296Y-36002616D01*
X26744564Y-35784368D01*
X26763156Y-35560000D01*
X26744564Y-35335632D01*
X26689296Y-35117384D01*
X26598860Y-34911209D01*
X26475722Y-34722732D01*
X26323240Y-34557094D01*
X26323239Y-34557093D01*
X26323237Y-34557091D01*
X26145579Y-34418813D01*
X26145577Y-34418812D01*
X26145576Y-34418811D01*
X26112317Y-34400812D01*
X26061929Y-34350801D01*
X26046576Y-34281484D01*
X26071136Y-34214871D01*
X26112316Y-34179187D01*
X26145576Y-34161189D01*
X26323240Y-34022906D01*
X26475722Y-33857268D01*
X26598860Y-33668791D01*
X26689296Y-33462616D01*
X26744564Y-33244368D01*
X26763156Y-33020000D01*
X26744564Y-32795632D01*
X26689296Y-32577384D01*
X26598860Y-32371209D01*
X26475722Y-32182732D01*
X26323240Y-32017094D01*
X26323239Y-32017093D01*
X26323237Y-32017091D01*
X26145578Y-31878812D01*
X26112317Y-31860812D01*
X26061927Y-31810798D01*
X26046576Y-31741481D01*
X26071138Y-31674868D01*
X26112315Y-31639188D01*
X26145576Y-31621189D01*
X26323240Y-31482906D01*
X26475722Y-31317268D01*
X26598860Y-31128791D01*
X26689296Y-30922616D01*
X26744564Y-30704368D01*
X26763156Y-30480000D01*
X26744564Y-30255632D01*
X26689296Y-30037384D01*
X26598860Y-29831209D01*
X26475722Y-29642732D01*
X26323240Y-29477094D01*
X26323239Y-29477093D01*
X26323237Y-29477091D01*
X26145579Y-29338813D01*
X26145577Y-29338812D01*
X26145576Y-29338811D01*
X26112317Y-29320812D01*
X26061929Y-29270801D01*
X26046576Y-29201484D01*
X26071136Y-29134871D01*
X26112316Y-29099187D01*
X26145576Y-29081189D01*
X26323240Y-28942906D01*
X26475722Y-28777268D01*
X26598860Y-28588791D01*
X26689296Y-28382616D01*
X26744564Y-28164368D01*
X26763156Y-27940000D01*
X26744564Y-27715632D01*
X26689296Y-27497384D01*
X26598860Y-27291209D01*
X26475722Y-27102732D01*
X26332524Y-26947179D01*
X26301103Y-26883514D01*
X26309090Y-26812968D01*
X26353949Y-26757939D01*
X26381183Y-26743789D01*
X26496204Y-26700889D01*
X26613261Y-26613261D01*
X26700889Y-26496204D01*
X26751989Y-26359201D01*
X26758500Y-26298638D01*
X26758500Y-24501362D01*
X26751989Y-24440799D01*
X26700889Y-24303796D01*
X26700888Y-24303794D01*
X26613261Y-24186738D01*
X26496205Y-24099111D01*
X26427702Y-24073560D01*
X26359201Y-24048011D01*
X26298638Y-24041500D01*
X24501362Y-24041500D01*
X24498013Y-24041859D01*
X24498013Y-24041860D01*
X24440799Y-24048011D01*
X24303794Y-24099111D01*
X24186738Y-24186738D01*
X24099111Y-24303794D01*
X24048011Y-24440798D01*
X24048011Y-24440799D01*
X24041500Y-24501362D01*
X24041500Y-26298638D01*
X24041860Y-26301986D01*
X24048011Y-26359200D01*
X24099111Y-26496205D01*
X24186738Y-26613261D01*
X24303794Y-26700888D01*
X24303795Y-26700888D01*
X24303796Y-26700889D01*
X24418808Y-26743786D01*
X24475642Y-26786331D01*
X24500453Y-26852852D01*
X24485362Y-26922226D01*
X24467475Y-26947178D01*
X24324281Y-27102728D01*
X24201139Y-27291209D01*
X24110702Y-27497388D01*
X24055437Y-27715627D01*
X24055436Y-27715632D01*
X24036844Y-27940000D01*
X24055436Y-28164368D01*
X24055436Y-28164371D01*
X24055437Y-28164372D01*
X24110702Y-28382611D01*
X24201139Y-28588790D01*
X24324278Y-28777268D01*
X24476762Y-28942908D01*
X24578611Y-29022181D01*
X24654424Y-29081189D01*
X24687682Y-29099187D01*
X24738070Y-29149197D01*
X24753423Y-29218513D01*
X24728863Y-29285127D01*
X24687683Y-29320811D01*
X24654423Y-29338810D01*
X24476762Y-29477091D01*
X24324278Y-29642731D01*
X24201139Y-29831209D01*
X24110702Y-30037388D01*
X24072881Y-30186743D01*
X24055436Y-30255632D01*
X24036844Y-30480000D01*
X24055436Y-30704368D01*
X24055436Y-30704371D01*
X24055437Y-30704372D01*
X24110702Y-30922611D01*
X24110703Y-30922614D01*
X24110704Y-30922616D01*
X24122042Y-30948465D01*
X24201139Y-31128790D01*
X24201140Y-31128791D01*
X24324278Y-31317268D01*
X24384484Y-31382669D01*
X24476762Y-31482908D01*
X24578611Y-31562181D01*
X24654424Y-31621189D01*
X24687682Y-31639187D01*
X24738070Y-31689197D01*
X24753423Y-31758513D01*
X24728863Y-31825127D01*
X24687683Y-31860811D01*
X24654423Y-31878810D01*
X24476762Y-32017091D01*
X24324278Y-32182731D01*
X24201139Y-32371209D01*
X24110702Y-32577388D01*
X24055437Y-32795627D01*
X24055436Y-32795632D01*
X24036844Y-33020000D01*
X24055436Y-33244368D01*
X24055436Y-33244371D01*
X24055437Y-33244372D01*
X24110702Y-33462611D01*
X24201139Y-33668790D01*
X24324278Y-33857268D01*
X24476762Y-34022908D01*
X24654418Y-34161185D01*
X24654420Y-34161186D01*
X24654424Y-34161189D01*
X24687682Y-34179187D01*
X24738071Y-34229200D01*
X24753423Y-34298517D01*
X24728862Y-34365130D01*
X24687683Y-34400812D01*
X24662794Y-34414281D01*
X24654418Y-34418814D01*
X24476762Y-34557091D01*
X24324278Y-34722731D01*
X24201139Y-34911209D01*
X24110702Y-35117388D01*
X24066255Y-35292908D01*
X24055436Y-35335632D01*
X24036844Y-35560000D01*
X24055436Y-35784368D01*
X24055436Y-35784371D01*
X24055437Y-35784372D01*
X24110702Y-36002611D01*
X24110703Y-36002614D01*
X24110704Y-36002616D01*
X24123582Y-36031975D01*
X24201139Y-36208790D01*
X24324278Y-36397268D01*
X24476762Y-36562908D01*
X24654418Y-36701185D01*
X24654420Y-36701186D01*
X24654424Y-36701189D01*
X24687682Y-36719187D01*
X24738071Y-36769200D01*
X24753423Y-36838517D01*
X24728862Y-36905130D01*
X24687683Y-36940812D01*
X24669364Y-36950726D01*
X24654418Y-36958814D01*
X24476762Y-37097091D01*
X24324278Y-37262731D01*
X24201139Y-37451209D01*
X24110702Y-37657388D01*
X24080480Y-37776734D01*
X24055436Y-37875632D01*
X24036844Y-38100000D01*
X24055436Y-38324368D01*
X24055436Y-38324371D01*
X24055437Y-38324372D01*
X24110702Y-38542611D01*
X24201139Y-38748790D01*
X24324278Y-38937268D01*
X24476762Y-39102908D01*
X24654418Y-39241185D01*
X24654420Y-39241186D01*
X24654424Y-39241189D01*
X24687682Y-39259187D01*
X24738071Y-39309200D01*
X24753423Y-39378517D01*
X24728862Y-39445130D01*
X24687683Y-39480812D01*
X24662794Y-39494281D01*
X24654418Y-39498814D01*
X24476762Y-39637091D01*
X24324278Y-39802731D01*
X24201139Y-39991209D01*
X24110702Y-40197388D01*
X24072881Y-40346743D01*
X24055436Y-40415632D01*
X24036844Y-40640000D01*
X24055436Y-40864368D01*
X24055436Y-40864371D01*
X24055437Y-40864372D01*
X24110702Y-41082611D01*
X24201139Y-41288790D01*
X24289269Y-41423683D01*
X24324278Y-41477268D01*
X24378283Y-41535933D01*
X24476762Y-41642908D01*
X24578611Y-41722181D01*
X24654424Y-41781189D01*
X24687682Y-41799187D01*
X24738070Y-41849197D01*
X24753423Y-41918513D01*
X24728863Y-41985127D01*
X24687683Y-42020811D01*
X24654423Y-42038810D01*
X24476762Y-42177091D01*
X24324278Y-42342731D01*
X24201139Y-42531209D01*
X24110702Y-42737388D01*
X24055437Y-42955627D01*
X24055436Y-42955632D01*
X24036844Y-43180000D01*
X24055436Y-43404368D01*
X24055436Y-43404371D01*
X24055437Y-43404372D01*
X24110702Y-43622611D01*
X24110703Y-43622614D01*
X24110704Y-43622616D01*
X24118636Y-43640700D01*
X24201139Y-43828790D01*
X24324278Y-44017268D01*
X24476762Y-44182908D01*
X24654418Y-44321185D01*
X24654420Y-44321186D01*
X24654424Y-44321189D01*
X24687682Y-44339187D01*
X24738071Y-44389200D01*
X24753423Y-44458517D01*
X24728862Y-44525130D01*
X24687683Y-44560812D01*
X24662794Y-44574281D01*
X24654418Y-44578814D01*
X24476762Y-44717091D01*
X24324278Y-44882731D01*
X24201139Y-45071209D01*
X24110702Y-45277388D01*
X24055437Y-45495627D01*
X24055436Y-45495632D01*
X24036844Y-45720000D01*
X24055436Y-45944368D01*
X24055436Y-45944371D01*
X24055437Y-45944372D01*
X24110702Y-46162611D01*
X24201139Y-46368790D01*
X24324278Y-46557268D01*
X24476762Y-46722908D01*
X24654418Y-46861185D01*
X24654420Y-46861186D01*
X24654424Y-46861189D01*
X24687682Y-46879187D01*
X24738071Y-46929200D01*
X24753423Y-46998517D01*
X24728862Y-47065130D01*
X24687683Y-47100812D01*
X24662794Y-47114281D01*
X24654418Y-47118814D01*
X24476762Y-47257091D01*
X24324278Y-47422731D01*
X24201139Y-47611209D01*
X24110702Y-47817388D01*
X24055437Y-48035627D01*
X24055436Y-48035632D01*
X24036844Y-48260000D01*
X24055436Y-48484368D01*
X24055436Y-48484371D01*
X24055437Y-48484372D01*
X24110702Y-48702611D01*
X24201139Y-48908790D01*
X24324278Y-49097268D01*
X24476762Y-49262908D01*
X24654418Y-49401185D01*
X24654420Y-49401186D01*
X24654424Y-49401189D01*
X24687682Y-49419187D01*
X24738071Y-49469200D01*
X24753423Y-49538517D01*
X24728862Y-49605130D01*
X24687683Y-49640812D01*
X24662794Y-49654281D01*
X24654418Y-49658814D01*
X24476762Y-49797091D01*
X24324278Y-49962731D01*
X24201139Y-50151209D01*
X24110702Y-50357388D01*
X24055437Y-50575627D01*
X24055436Y-50575632D01*
X24036844Y-50800000D01*
X22885500Y-50800000D01*
X22885500Y-23011500D01*
X22905502Y-22943379D01*
X22959158Y-22896886D01*
X23011500Y-22885500D01*
X119228500Y-22885500D01*
X119296621Y-22905502D01*
G37*
G04 #@! TD.AperFunction*
M02*
