G04 #@! TF.GenerationSoftware,KiCad,Pcbnew,7.0.2-0*
G04 #@! TF.CreationDate,2023-04-27T16:56:16-04:00*
G04 #@! TF.ProjectId,TFT_CAN,5446545f-4341-44e2-9e6b-696361645f70,rev?*
G04 #@! TF.SameCoordinates,Original*
G04 #@! TF.FileFunction,Copper,L2,Bot*
G04 #@! TF.FilePolarity,Positive*
%FSLAX46Y46*%
G04 Gerber Fmt 4.6, Leading zero omitted, Abs format (unit mm)*
G04 Created by KiCad (PCBNEW 7.0.2-0) date 2023-04-27 16:56:16*
%MOMM*%
%LPD*%
G01*
G04 APERTURE LIST*
G04 #@! TA.AperFunction,ComponentPad*
%ADD10R,1.700000X1.700000*%
G04 #@! TD*
G04 #@! TA.AperFunction,ComponentPad*
%ADD11O,1.700000X1.700000*%
G04 #@! TD*
G04 #@! TA.AperFunction,ComponentPad*
%ADD12C,1.600000*%
G04 #@! TD*
G04 #@! TA.AperFunction,ComponentPad*
%ADD13R,1.600000X1.600000*%
G04 #@! TD*
G04 #@! TA.AperFunction,ConnectorPad*
%ADD14R,1.700000X8.000000*%
G04 #@! TD*
G04 #@! TA.AperFunction,ViaPad*
%ADD15C,0.800000*%
G04 #@! TD*
G04 #@! TA.AperFunction,Conductor*
%ADD16C,0.500000*%
G04 #@! TD*
G04 APERTURE END LIST*
D10*
X94107000Y-34290000D03*
D11*
X96647000Y-34290000D03*
X99187000Y-34290000D03*
X101727000Y-34290000D03*
X104267000Y-34290000D03*
X106807000Y-34290000D03*
D10*
X80111600Y-60706000D03*
D11*
X77571600Y-60706000D03*
X75031600Y-60706000D03*
X72491600Y-60706000D03*
D12*
X79502000Y-37357500D03*
X79502000Y-39897500D03*
X79502000Y-42437500D03*
X49022000Y-29737500D03*
X51562000Y-29737500D03*
X54102000Y-29737500D03*
X56642000Y-29737500D03*
X59182000Y-29737500D03*
X61722000Y-29737500D03*
X64262000Y-29737500D03*
X66802000Y-29737500D03*
X69342000Y-29737500D03*
X71882000Y-29737500D03*
X74422000Y-29737500D03*
X76962000Y-29737500D03*
X76962000Y-50057500D03*
X74422000Y-50057500D03*
X71882000Y-50057500D03*
X69342000Y-50057500D03*
X66802000Y-50057500D03*
X64262000Y-50057500D03*
X61722000Y-50057500D03*
X59182000Y-50057500D03*
X56642000Y-50057500D03*
X54102000Y-50057500D03*
X51562000Y-50057500D03*
X49022000Y-50057500D03*
X46482000Y-50057500D03*
X43942000Y-50057500D03*
X41402000Y-50057500D03*
D13*
X38862000Y-50057500D03*
D10*
X53924000Y-69190000D03*
D11*
X53924000Y-71730000D03*
D14*
X35280600Y-81280000D03*
X37820600Y-81280000D03*
X40360600Y-81280000D03*
X42900600Y-81280000D03*
D10*
X48895000Y-69312000D03*
D11*
X48895000Y-71852000D03*
D10*
X25400000Y-25400000D03*
D11*
X25400000Y-27940000D03*
X25400000Y-30480000D03*
X25400000Y-33020000D03*
X25400000Y-35560000D03*
X25400000Y-38100000D03*
X25400000Y-40640000D03*
X25400000Y-43180000D03*
X25400000Y-45720000D03*
X25400000Y-48260000D03*
X25400000Y-50800000D03*
X25400000Y-53340000D03*
X25400000Y-55880000D03*
X25400000Y-58420000D03*
X25400000Y-60960000D03*
X25400000Y-63500000D03*
X25400000Y-66040000D03*
X25400000Y-68580000D03*
X25400000Y-71120000D03*
X25400000Y-73660000D03*
D10*
X116840000Y-25400000D03*
D11*
X116840000Y-27940000D03*
X116840000Y-30480000D03*
X116840000Y-33020000D03*
X116840000Y-35560000D03*
X116840000Y-38100000D03*
X116840000Y-40640000D03*
X116840000Y-43180000D03*
X116840000Y-45720000D03*
X116840000Y-48260000D03*
X116840000Y-50800000D03*
X116840000Y-53340000D03*
X116840000Y-55880000D03*
X116840000Y-58420000D03*
X116840000Y-60960000D03*
X116840000Y-63500000D03*
X116840000Y-66040000D03*
X116840000Y-68580000D03*
X116840000Y-71120000D03*
X116840000Y-73660000D03*
D15*
X40640000Y-76200000D03*
X38100000Y-75946000D03*
X35560000Y-75946000D03*
X29210000Y-65151000D03*
X29464000Y-58928000D03*
X87680800Y-38455600D03*
X94742000Y-42214800D03*
X31597600Y-44399200D03*
X35712400Y-61722000D03*
X36576000Y-56896000D03*
X39624000Y-59944000D03*
X108712000Y-51816000D03*
X110236000Y-50800000D03*
X107188000Y-47752000D03*
X109220000Y-45720000D03*
X46990000Y-64389000D03*
X51308000Y-62230000D03*
D16*
X40640000Y-76200000D02*
X40360600Y-76479400D01*
X40360600Y-76479400D02*
X40360600Y-81280000D01*
X37820600Y-76225400D02*
X37820600Y-81280000D01*
X38100000Y-75946000D02*
X37820600Y-76225400D01*
X35560000Y-75946000D02*
X35280600Y-76225400D01*
X35280600Y-76225400D02*
X35280600Y-81280000D01*
X29464000Y-58928000D02*
X28894000Y-59498000D01*
X28894000Y-59498000D02*
X28894000Y-64200000D01*
X29210000Y-64516000D02*
X28894000Y-64200000D01*
X29210000Y-65151000D02*
X29210000Y-64516000D01*
X87680800Y-35966400D02*
X87680800Y-38455600D01*
X108215200Y-43496000D02*
X111760000Y-47040800D01*
X85242400Y-33528000D02*
X87680800Y-35966400D01*
X111760000Y-53848000D02*
X111760000Y-47040800D01*
X116840000Y-55880000D02*
X113792000Y-55880000D01*
X75672500Y-33528000D02*
X85242400Y-33528000D01*
X113792000Y-55880000D02*
X111760000Y-53848000D01*
X96124800Y-43496000D02*
X108215200Y-43496000D01*
X94742000Y-42214800D02*
X96023200Y-43496000D01*
X96023200Y-43496000D02*
X96124800Y-43496000D01*
X71882000Y-29737500D02*
X75672500Y-33528000D01*
X69215000Y-28829000D02*
X69215000Y-29845000D01*
X42418000Y-28067000D02*
X68453000Y-28067000D01*
X27344000Y-53936000D02*
X27344000Y-43141000D01*
X68453000Y-28067000D02*
X69215000Y-28829000D01*
X25400000Y-55880000D02*
X27344000Y-53936000D01*
X27344000Y-43141000D02*
X42418000Y-28067000D01*
X30146800Y-54988000D02*
X32613600Y-57454800D01*
X31597600Y-45665805D02*
X30146800Y-47116606D01*
X35712400Y-60526250D02*
X35712400Y-61722000D01*
X32613600Y-57454800D02*
X32640950Y-57454800D01*
X32640950Y-57454800D02*
X35712400Y-60526250D01*
X30146800Y-47116606D02*
X30146800Y-54988000D01*
X31597600Y-44399200D02*
X31597600Y-45665805D01*
X33020000Y-48203204D02*
X33020000Y-53874050D01*
X38785704Y-42437500D02*
X33020000Y-48203204D01*
X79502000Y-42437500D02*
X38785704Y-42437500D01*
X36195000Y-56515000D02*
X36576000Y-56896000D01*
X35660950Y-56515000D02*
X36195000Y-56515000D01*
X33020000Y-53874050D02*
X35660950Y-56515000D01*
X77216000Y-39643500D02*
X77216000Y-39674800D01*
X37084000Y-58928000D02*
X32258000Y-54102000D01*
X32258000Y-54102000D02*
X32258000Y-47975254D01*
X32258000Y-47975254D02*
X38577254Y-41656000D01*
X38577254Y-41656000D02*
X75234800Y-41656000D01*
X39624000Y-59944000D02*
X38608000Y-58928000D01*
X77216000Y-39674800D02*
X75234800Y-41656000D01*
X38608000Y-58928000D02*
X37084000Y-58928000D01*
X77216000Y-39643500D02*
X79502000Y-37357500D01*
X86995000Y-34290000D02*
X85533000Y-32828000D01*
X94107000Y-34290000D02*
X86995000Y-34290000D01*
X77512500Y-32828000D02*
X74422000Y-29737500D01*
X85533000Y-32828000D02*
X77512500Y-32828000D01*
X59182000Y-48198000D02*
X60960000Y-46420000D01*
X60960000Y-46420000D02*
X104332000Y-46420000D01*
X59182000Y-50057500D02*
X59182000Y-48198000D01*
X104332000Y-46420000D02*
X108712000Y-50800000D01*
X108712000Y-50800000D02*
X108712000Y-51816000D01*
X110236000Y-50800000D02*
X110236000Y-48960000D01*
X110236000Y-48960000D02*
X106172000Y-44896000D01*
X106172000Y-44896000D02*
X58380400Y-44896000D01*
X54102000Y-49174400D02*
X54102000Y-50057500D01*
X58380400Y-44896000D02*
X54102000Y-49174400D01*
X107188000Y-47244000D02*
X107188000Y-47752000D01*
X59131200Y-45720000D02*
X105664000Y-45720000D01*
X105664000Y-45720000D02*
X107188000Y-47244000D01*
X56642000Y-50057500D02*
X56642000Y-48209200D01*
X56642000Y-48209200D02*
X59131200Y-45720000D01*
X107696000Y-44196000D02*
X109220000Y-45720000D01*
X57423500Y-44196000D02*
X107696000Y-44196000D01*
X51562000Y-50057500D02*
X57423500Y-44196000D01*
X54445225Y-40221225D02*
X38032130Y-40221225D01*
X38032130Y-40221225D02*
X30846800Y-47406555D01*
X37693600Y-60351575D02*
X40272025Y-62930000D01*
X45531000Y-62930000D02*
X46990000Y-64389000D01*
X30846800Y-47406555D02*
X30846800Y-54670700D01*
X40272025Y-62930000D02*
X45531000Y-62930000D01*
X56642000Y-29737500D02*
X58267600Y-31363100D01*
X58267600Y-31363100D02*
X58267600Y-36398850D01*
X36527675Y-60351575D02*
X37693600Y-60351575D01*
X58267600Y-36398850D02*
X54445225Y-40221225D01*
X30846800Y-54670700D02*
X36527675Y-60351575D01*
X38298504Y-40944800D02*
X54711600Y-40944800D01*
X38341625Y-59651575D02*
X36817625Y-59651575D01*
X38341625Y-59863707D02*
X38341625Y-59651575D01*
X31546800Y-54380750D02*
X31546800Y-47696504D01*
X40707918Y-62230000D02*
X38341625Y-59863707D01*
X51308000Y-62230000D02*
X40707918Y-62230000D01*
X31546800Y-47696504D02*
X38298504Y-40944800D01*
X54711600Y-40944800D02*
X59182000Y-36474400D01*
X59182000Y-36474400D02*
X59182000Y-29737500D01*
X36817625Y-59651575D02*
X31546800Y-54380750D01*
G04 #@! TA.AperFunction,Conductor*
G36*
X119296621Y-22905502D02*
G01*
X119343114Y-22959158D01*
X119354500Y-23011500D01*
X119354500Y-76048500D01*
X119334498Y-76116621D01*
X119280842Y-76163114D01*
X119228500Y-76174500D01*
X44480136Y-76174500D01*
X44469574Y-76172399D01*
X44450000Y-76172399D01*
X44444928Y-76174500D01*
X44430482Y-76180482D01*
X44422399Y-76199999D01*
X44422399Y-76219575D01*
X44424500Y-76230136D01*
X44424500Y-86208500D01*
X44404498Y-86276621D01*
X44350842Y-86323114D01*
X44298500Y-86334500D01*
X33933500Y-86334500D01*
X33865379Y-86314498D01*
X33818886Y-86260842D01*
X33807500Y-86208500D01*
X33807500Y-85674727D01*
X33827502Y-85606606D01*
X33881158Y-85560113D01*
X33951432Y-85550009D01*
X34016012Y-85579503D01*
X34034368Y-85599218D01*
X34067338Y-85643261D01*
X34184394Y-85730888D01*
X34184395Y-85730888D01*
X34184396Y-85730889D01*
X34321399Y-85781989D01*
X34381962Y-85788500D01*
X34385331Y-85788500D01*
X36175869Y-85788500D01*
X36179238Y-85788500D01*
X36239801Y-85781989D01*
X36376804Y-85730889D01*
X36475092Y-85657311D01*
X36541610Y-85632501D01*
X36610985Y-85647592D01*
X36626102Y-85657306D01*
X36724396Y-85730889D01*
X36861399Y-85781989D01*
X36921962Y-85788500D01*
X36925331Y-85788500D01*
X38715869Y-85788500D01*
X38719238Y-85788500D01*
X38779801Y-85781989D01*
X38916804Y-85730889D01*
X39015092Y-85657311D01*
X39081610Y-85632501D01*
X39150985Y-85647592D01*
X39166102Y-85657306D01*
X39264396Y-85730889D01*
X39401399Y-85781989D01*
X39461962Y-85788500D01*
X39465331Y-85788500D01*
X41255869Y-85788500D01*
X41259238Y-85788500D01*
X41319801Y-85781989D01*
X41456804Y-85730889D01*
X41573861Y-85643261D01*
X41661489Y-85526204D01*
X41712589Y-85389201D01*
X41719100Y-85328638D01*
X41719100Y-77231362D01*
X41712589Y-77170799D01*
X41661489Y-77033796D01*
X41630600Y-76992533D01*
X41573861Y-76916738D01*
X41454878Y-76827669D01*
X41412331Y-76770834D01*
X41407266Y-76700018D01*
X41421267Y-76663804D01*
X41454263Y-76606655D01*
X41474527Y-76571557D01*
X41503320Y-76482942D01*
X41533542Y-76389928D01*
X41553504Y-76200000D01*
X41533542Y-76010072D01*
X41474527Y-75828444D01*
X41474527Y-75828443D01*
X41379041Y-75663057D01*
X41251252Y-75521133D01*
X41174002Y-75465008D01*
X41096752Y-75408882D01*
X40922288Y-75331206D01*
X40735487Y-75291500D01*
X40544513Y-75291500D01*
X40419979Y-75317970D01*
X40357711Y-75331206D01*
X40183246Y-75408883D01*
X40028747Y-75521133D01*
X39900958Y-75663057D01*
X39805473Y-75828443D01*
X39742775Y-76021404D01*
X39728884Y-76046465D01*
X39729173Y-76046610D01*
X39723327Y-76058247D01*
X39711189Y-76077299D01*
X39678595Y-76147194D01*
X39677001Y-76150487D01*
X39642395Y-76219397D01*
X39635963Y-76237900D01*
X39620359Y-76313464D01*
X39619567Y-76317037D01*
X39601792Y-76392040D01*
X39599802Y-76411515D01*
X39602047Y-76488658D01*
X39602100Y-76492322D01*
X39602100Y-76645500D01*
X39582098Y-76713621D01*
X39528442Y-76760114D01*
X39476100Y-76771500D01*
X39461962Y-76771500D01*
X39458613Y-76771859D01*
X39458613Y-76771860D01*
X39401399Y-76778011D01*
X39264394Y-76829111D01*
X39166109Y-76902687D01*
X39099589Y-76927498D01*
X39030215Y-76912407D01*
X39015091Y-76902687D01*
X38916805Y-76829111D01*
X38798796Y-76785096D01*
X38741960Y-76742549D01*
X38717149Y-76676029D01*
X38732240Y-76606655D01*
X38749187Y-76582735D01*
X38839040Y-76482944D01*
X38934527Y-76317556D01*
X38993542Y-76135928D01*
X39013504Y-75946000D01*
X38993542Y-75756072D01*
X38934527Y-75574444D01*
X38934527Y-75574443D01*
X38839041Y-75409057D01*
X38711252Y-75267133D01*
X38556753Y-75154883D01*
X38556752Y-75154882D01*
X38382288Y-75077206D01*
X38195487Y-75037500D01*
X38004513Y-75037500D01*
X37879978Y-75063970D01*
X37817711Y-75077206D01*
X37643246Y-75154883D01*
X37488747Y-75267133D01*
X37360958Y-75409057D01*
X37265473Y-75574443D01*
X37202775Y-75767404D01*
X37188884Y-75792465D01*
X37189173Y-75792610D01*
X37183327Y-75804247D01*
X37171189Y-75823299D01*
X37138595Y-75893194D01*
X37137001Y-75896487D01*
X37102395Y-75965397D01*
X37095963Y-75983900D01*
X37080359Y-76059464D01*
X37079567Y-76063037D01*
X37061792Y-76138040D01*
X37059802Y-76157515D01*
X37062047Y-76234658D01*
X37062100Y-76238322D01*
X37062100Y-76645500D01*
X37042098Y-76713621D01*
X36988442Y-76760114D01*
X36936100Y-76771500D01*
X36921962Y-76771500D01*
X36918613Y-76771859D01*
X36918613Y-76771860D01*
X36861399Y-76778011D01*
X36724394Y-76829111D01*
X36626109Y-76902687D01*
X36559589Y-76927498D01*
X36490215Y-76912407D01*
X36475091Y-76902687D01*
X36376805Y-76829111D01*
X36258796Y-76785096D01*
X36201960Y-76742549D01*
X36177149Y-76676029D01*
X36192240Y-76606655D01*
X36209187Y-76582735D01*
X36299040Y-76482944D01*
X36394527Y-76317556D01*
X36453542Y-76135928D01*
X36473504Y-75946000D01*
X36453542Y-75756072D01*
X36394527Y-75574444D01*
X36394527Y-75574443D01*
X36299041Y-75409057D01*
X36171252Y-75267133D01*
X36016753Y-75154883D01*
X36016752Y-75154882D01*
X35842288Y-75077206D01*
X35655487Y-75037500D01*
X35464513Y-75037500D01*
X35339979Y-75063970D01*
X35277711Y-75077206D01*
X35103246Y-75154883D01*
X34948747Y-75267133D01*
X34820958Y-75409057D01*
X34725473Y-75574443D01*
X34662775Y-75767404D01*
X34648884Y-75792465D01*
X34649173Y-75792610D01*
X34643327Y-75804247D01*
X34631189Y-75823299D01*
X34598595Y-75893194D01*
X34597001Y-75896487D01*
X34562395Y-75965397D01*
X34555963Y-75983900D01*
X34540359Y-76059464D01*
X34539567Y-76063037D01*
X34521792Y-76138040D01*
X34519802Y-76157515D01*
X34522047Y-76234658D01*
X34522100Y-76238322D01*
X34522100Y-76645500D01*
X34502098Y-76713621D01*
X34448442Y-76760114D01*
X34396100Y-76771500D01*
X34381962Y-76771500D01*
X34378613Y-76771859D01*
X34378613Y-76771860D01*
X34321399Y-76778011D01*
X34184394Y-76829111D01*
X34067339Y-76916737D01*
X34034368Y-76960782D01*
X33977532Y-77003328D01*
X33906716Y-77008392D01*
X33844404Y-76974367D01*
X33810379Y-76912054D01*
X33807500Y-76885272D01*
X33807500Y-76230136D01*
X33809601Y-76219575D01*
X33809601Y-76199999D01*
X33801517Y-76180483D01*
X33787072Y-76174500D01*
X33782000Y-76172399D01*
X33762426Y-76172399D01*
X33751864Y-76174500D01*
X23011500Y-76174500D01*
X22943379Y-76154498D01*
X22896886Y-76100842D01*
X22885500Y-76048500D01*
X22885500Y-71120000D01*
X24036844Y-71120000D01*
X24055436Y-71344368D01*
X24055436Y-71344371D01*
X24055437Y-71344372D01*
X24110702Y-71562611D01*
X24201139Y-71768790D01*
X24324278Y-71957268D01*
X24476762Y-72122908D01*
X24654421Y-72261187D01*
X24654424Y-72261189D01*
X24852426Y-72368342D01*
X25065365Y-72441444D01*
X25287431Y-72478500D01*
X25287434Y-72478500D01*
X25512566Y-72478500D01*
X25512569Y-72478500D01*
X25734635Y-72441444D01*
X25947574Y-72368342D01*
X26145576Y-72261189D01*
X26323240Y-72122906D01*
X26475722Y-71957268D01*
X26598860Y-71768791D01*
X26689296Y-71562616D01*
X26744564Y-71344368D01*
X26763156Y-71120000D01*
X26744564Y-70895632D01*
X26689296Y-70677384D01*
X26598860Y-70471209D01*
X26475722Y-70282732D01*
X26409354Y-70210638D01*
X47536500Y-70210638D01*
X47543011Y-70271201D01*
X47568561Y-70339702D01*
X47594111Y-70408205D01*
X47681738Y-70525261D01*
X47798794Y-70612888D01*
X47798795Y-70612888D01*
X47798796Y-70612889D01*
X47935799Y-70663989D01*
X47996362Y-70670500D01*
X47999731Y-70670500D01*
X49790269Y-70670500D01*
X49793638Y-70670500D01*
X49854201Y-70663989D01*
X49991204Y-70612889D01*
X50108261Y-70525261D01*
X50195889Y-70408204D01*
X50246989Y-70271201D01*
X50253500Y-70210638D01*
X50253500Y-70088638D01*
X52565500Y-70088638D01*
X52572011Y-70149201D01*
X52594926Y-70210638D01*
X52623111Y-70286205D01*
X52710738Y-70403261D01*
X52827794Y-70490888D01*
X52827795Y-70490888D01*
X52827796Y-70490889D01*
X52964799Y-70541989D01*
X53025362Y-70548500D01*
X53028731Y-70548500D01*
X54819269Y-70548500D01*
X54822638Y-70548500D01*
X54883201Y-70541989D01*
X55020204Y-70490889D01*
X55137261Y-70403261D01*
X55224889Y-70286204D01*
X55275989Y-70149201D01*
X55282500Y-70088638D01*
X55282500Y-68291362D01*
X55275989Y-68230799D01*
X55224889Y-68093796D01*
X55162992Y-68011111D01*
X55137261Y-67976738D01*
X55020205Y-67889111D01*
X54951702Y-67863561D01*
X54883201Y-67838011D01*
X54822638Y-67831500D01*
X53025362Y-67831500D01*
X53022013Y-67831859D01*
X53022013Y-67831860D01*
X52964799Y-67838011D01*
X52827794Y-67889111D01*
X52710738Y-67976738D01*
X52623111Y-68093794D01*
X52577608Y-68215794D01*
X52572011Y-68230799D01*
X52565500Y-68291362D01*
X52565500Y-70088638D01*
X50253500Y-70088638D01*
X50253500Y-68413362D01*
X50246989Y-68352799D01*
X50195889Y-68215796D01*
X50195888Y-68215794D01*
X50108261Y-68098738D01*
X49991205Y-68011111D01*
X49899047Y-67976738D01*
X49854201Y-67960011D01*
X49793638Y-67953500D01*
X47996362Y-67953500D01*
X47993013Y-67953859D01*
X47993013Y-67953860D01*
X47935799Y-67960011D01*
X47798794Y-68011111D01*
X47681738Y-68098738D01*
X47594111Y-68215794D01*
X47567175Y-68288013D01*
X47543011Y-68352799D01*
X47536500Y-68413362D01*
X47536500Y-70210638D01*
X26409354Y-70210638D01*
X26323240Y-70117094D01*
X26323239Y-70117093D01*
X26323237Y-70117091D01*
X26145579Y-69978813D01*
X26145577Y-69978812D01*
X26145576Y-69978811D01*
X26112317Y-69960812D01*
X26061929Y-69910801D01*
X26046576Y-69841484D01*
X26071136Y-69774871D01*
X26112316Y-69739187D01*
X26145576Y-69721189D01*
X26323240Y-69582906D01*
X26475722Y-69417268D01*
X26598860Y-69228791D01*
X26689296Y-69022616D01*
X26744564Y-68804368D01*
X26763156Y-68580000D01*
X26744564Y-68355632D01*
X26689296Y-68137384D01*
X26598860Y-67931209D01*
X26475722Y-67742732D01*
X26323240Y-67577094D01*
X26323239Y-67577093D01*
X26323237Y-67577091D01*
X26145579Y-67438813D01*
X26145577Y-67438812D01*
X26145576Y-67438811D01*
X26112317Y-67420812D01*
X26061929Y-67370801D01*
X26046576Y-67301484D01*
X26071136Y-67234871D01*
X26112316Y-67199187D01*
X26145576Y-67181189D01*
X26323240Y-67042906D01*
X26475722Y-66877268D01*
X26598860Y-66688791D01*
X26689296Y-66482616D01*
X26744564Y-66264368D01*
X26763156Y-66040000D01*
X26744564Y-65815632D01*
X26689296Y-65597384D01*
X26598860Y-65391209D01*
X26475722Y-65202732D01*
X26323240Y-65037094D01*
X26323239Y-65037093D01*
X26323237Y-65037091D01*
X26145578Y-64898812D01*
X26112317Y-64880812D01*
X26061927Y-64830798D01*
X26046576Y-64761481D01*
X26071138Y-64694868D01*
X26112315Y-64659188D01*
X26145576Y-64641189D01*
X26323240Y-64502906D01*
X26475722Y-64337268D01*
X26579917Y-64177786D01*
X28130658Y-64177786D01*
X28135020Y-64227633D01*
X28135500Y-64238616D01*
X28135500Y-64244180D01*
X28135924Y-64247815D01*
X28135926Y-64247834D01*
X28139135Y-64275291D01*
X28139507Y-64278932D01*
X28146228Y-64355744D01*
X28150469Y-64374873D01*
X28176846Y-64447342D01*
X28178049Y-64450804D01*
X28202304Y-64524000D01*
X28210837Y-64541627D01*
X28253232Y-64606084D01*
X28255171Y-64609127D01*
X28286047Y-64659184D01*
X28295674Y-64674792D01*
X28308034Y-64689963D01*
X28308997Y-64690872D01*
X28308999Y-64690874D01*
X28323890Y-64704923D01*
X28359712Y-64766218D01*
X28357256Y-64835506D01*
X28316459Y-64961068D01*
X28316458Y-64961072D01*
X28308468Y-65037094D01*
X28296496Y-65151000D01*
X28316458Y-65340929D01*
X28375472Y-65522556D01*
X28470958Y-65687942D01*
X28470960Y-65687944D01*
X28598747Y-65829866D01*
X28753248Y-65942118D01*
X28927712Y-66019794D01*
X29114513Y-66059500D01*
X29114515Y-66059500D01*
X29305485Y-66059500D01*
X29305487Y-66059500D01*
X29492288Y-66019794D01*
X29666752Y-65942118D01*
X29821253Y-65829866D01*
X29949040Y-65687944D01*
X30044527Y-65522556D01*
X30103542Y-65340928D01*
X30123504Y-65151000D01*
X30103542Y-64961072D01*
X30044527Y-64779444D01*
X30044527Y-64779443D01*
X29985381Y-64676999D01*
X29968500Y-64613999D01*
X29968500Y-64580435D01*
X29969831Y-64562172D01*
X29969855Y-64562005D01*
X29973341Y-64538211D01*
X29968978Y-64488357D01*
X29968499Y-64477361D01*
X29968500Y-64471820D01*
X29964862Y-64440705D01*
X29964492Y-64437078D01*
X29960286Y-64388999D01*
X29957887Y-64361573D01*
X29957886Y-64361570D01*
X29957770Y-64360242D01*
X29953537Y-64341147D01*
X29953079Y-64339889D01*
X29953079Y-64339887D01*
X29927137Y-64268611D01*
X29925977Y-64265277D01*
X29902114Y-64193261D01*
X29902111Y-64193256D01*
X29901691Y-64191988D01*
X29893170Y-64174386D01*
X29850776Y-64109928D01*
X29848808Y-64106839D01*
X29808326Y-64041209D01*
X29795964Y-64026034D01*
X29739825Y-63973069D01*
X29737197Y-63970516D01*
X29689405Y-63922724D01*
X29655379Y-63860412D01*
X29652500Y-63833629D01*
X29652500Y-59918761D01*
X29672502Y-59850640D01*
X29726158Y-59804147D01*
X29740133Y-59799533D01*
X29746282Y-59796795D01*
X29746288Y-59796794D01*
X29920752Y-59719118D01*
X30075253Y-59606866D01*
X30203040Y-59464944D01*
X30298527Y-59299556D01*
X30357542Y-59117928D01*
X30377504Y-58928000D01*
X30357542Y-58738072D01*
X30298527Y-58556444D01*
X30298527Y-58556443D01*
X30203041Y-58391057D01*
X30075252Y-58249133D01*
X29989691Y-58186969D01*
X29920752Y-58136882D01*
X29746288Y-58059206D01*
X29559487Y-58019500D01*
X29368513Y-58019500D01*
X29263624Y-58041795D01*
X29181711Y-58059206D01*
X29007246Y-58136883D01*
X28852747Y-58249133D01*
X28724958Y-58391057D01*
X28629473Y-58556443D01*
X28574612Y-58725285D01*
X28543874Y-58775443D01*
X28403225Y-58916092D01*
X28389377Y-58928061D01*
X28369944Y-58942529D01*
X28337773Y-58980868D01*
X28330360Y-58988958D01*
X28329017Y-58990301D01*
X28329011Y-58990307D01*
X28326420Y-58992899D01*
X28324149Y-58995770D01*
X28324140Y-58995781D01*
X28306997Y-59017460D01*
X28304688Y-59020294D01*
X28255119Y-59079369D01*
X28244589Y-59095899D01*
X28211995Y-59165794D01*
X28210401Y-59169087D01*
X28175795Y-59237997D01*
X28169363Y-59256500D01*
X28153759Y-59332064D01*
X28152967Y-59335637D01*
X28135192Y-59410640D01*
X28133202Y-59430116D01*
X28135446Y-59507256D01*
X28135499Y-59510919D01*
X28135499Y-64135559D01*
X28134169Y-64153816D01*
X28130658Y-64177786D01*
X26579917Y-64177786D01*
X26598860Y-64148791D01*
X26689296Y-63942616D01*
X26744564Y-63724368D01*
X26763156Y-63500000D01*
X26744564Y-63275632D01*
X26689296Y-63057384D01*
X26598860Y-62851209D01*
X26475722Y-62662732D01*
X26323240Y-62497094D01*
X26323239Y-62497093D01*
X26323237Y-62497091D01*
X26145578Y-62358812D01*
X26112317Y-62340812D01*
X26061927Y-62290798D01*
X26046576Y-62221481D01*
X26071138Y-62154868D01*
X26112315Y-62119188D01*
X26145576Y-62101189D01*
X26323240Y-61962906D01*
X26475722Y-61797268D01*
X26598860Y-61608791D01*
X26689296Y-61402616D01*
X26744564Y-61184368D01*
X26763156Y-60960000D01*
X26744564Y-60735632D01*
X26689296Y-60517384D01*
X26598860Y-60311209D01*
X26475722Y-60122732D01*
X26323240Y-59957094D01*
X26323239Y-59957093D01*
X26323237Y-59957091D01*
X26145579Y-59818813D01*
X26145577Y-59818812D01*
X26145576Y-59818811D01*
X26112317Y-59800812D01*
X26061929Y-59750801D01*
X26046576Y-59681484D01*
X26071136Y-59614871D01*
X26112316Y-59579187D01*
X26145576Y-59561189D01*
X26323240Y-59422906D01*
X26475722Y-59257268D01*
X26598860Y-59068791D01*
X26689296Y-58862616D01*
X26744564Y-58644368D01*
X26763156Y-58420000D01*
X26744564Y-58195632D01*
X26689296Y-57977384D01*
X26598860Y-57771209D01*
X26475722Y-57582732D01*
X26323240Y-57417094D01*
X26323239Y-57417093D01*
X26323237Y-57417091D01*
X26145579Y-57278813D01*
X26145577Y-57278812D01*
X26145576Y-57278811D01*
X26112317Y-57260812D01*
X26061929Y-57210801D01*
X26046576Y-57141484D01*
X26071136Y-57074871D01*
X26112316Y-57039187D01*
X26145576Y-57021189D01*
X26323240Y-56882906D01*
X26475722Y-56717268D01*
X26598860Y-56528791D01*
X26689296Y-56322616D01*
X26744564Y-56104368D01*
X26763156Y-55880000D01*
X26745750Y-55669952D01*
X26760058Y-55600415D01*
X26782222Y-55570457D01*
X27834777Y-54517902D01*
X27848624Y-54505936D01*
X27868058Y-54491469D01*
X27900221Y-54453138D01*
X27907660Y-54445020D01*
X27911580Y-54441101D01*
X27931070Y-54416450D01*
X27933234Y-54413794D01*
X27982032Y-54355640D01*
X27982035Y-54355632D01*
X27982892Y-54354612D01*
X27993402Y-54338117D01*
X28025990Y-54268231D01*
X28027587Y-54264932D01*
X28040888Y-54238446D01*
X28061609Y-54197188D01*
X28061609Y-54197185D01*
X28062207Y-54195996D01*
X28068632Y-54177513D01*
X28084227Y-54101981D01*
X28085021Y-54098399D01*
X28102500Y-54024656D01*
X28102500Y-54024654D01*
X28102807Y-54023359D01*
X28104796Y-54003888D01*
X28104757Y-54002560D01*
X28104758Y-54002558D01*
X28102553Y-53926774D01*
X28102500Y-53923110D01*
X28102500Y-43507370D01*
X28122502Y-43439249D01*
X28139400Y-43418280D01*
X42695275Y-28862405D01*
X42757588Y-28828379D01*
X42784371Y-28825500D01*
X47821162Y-28825500D01*
X47889283Y-28845502D01*
X47935776Y-28899158D01*
X47945880Y-28969432D01*
X47924375Y-29023771D01*
X47884477Y-29080750D01*
X47787715Y-29288256D01*
X47728457Y-29509412D01*
X47728457Y-29509413D01*
X47708502Y-29737500D01*
X47728456Y-29965586D01*
X47728457Y-29965587D01*
X47787715Y-30186743D01*
X47884477Y-30394250D01*
X48015804Y-30581803D01*
X48177696Y-30743695D01*
X48365249Y-30875022D01*
X48572756Y-30971784D01*
X48632015Y-30987662D01*
X48793913Y-31031043D01*
X49022000Y-31050998D01*
X49250087Y-31031043D01*
X49471243Y-30971784D01*
X49678749Y-30875023D01*
X49866300Y-30743698D01*
X50028198Y-30581800D01*
X50159523Y-30394249D01*
X50177804Y-30355043D01*
X50224722Y-30301757D01*
X50292999Y-30282296D01*
X50360959Y-30302837D01*
X50406195Y-30355043D01*
X50424476Y-30394248D01*
X50555804Y-30581803D01*
X50717696Y-30743695D01*
X50905249Y-30875022D01*
X51112756Y-30971784D01*
X51172015Y-30987662D01*
X51333913Y-31031043D01*
X51562000Y-31050998D01*
X51790087Y-31031043D01*
X52011243Y-30971784D01*
X52218749Y-30875023D01*
X52406300Y-30743698D01*
X52568198Y-30581800D01*
X52699523Y-30394249D01*
X52717804Y-30355043D01*
X52764722Y-30301757D01*
X52832999Y-30282296D01*
X52900959Y-30302837D01*
X52946195Y-30355043D01*
X52964476Y-30394248D01*
X53095804Y-30581803D01*
X53257696Y-30743695D01*
X53445249Y-30875022D01*
X53652756Y-30971784D01*
X53712015Y-30987662D01*
X53873913Y-31031043D01*
X54102000Y-31050998D01*
X54330087Y-31031043D01*
X54551243Y-30971784D01*
X54758749Y-30875023D01*
X54946300Y-30743698D01*
X55108198Y-30581800D01*
X55239523Y-30394249D01*
X55257804Y-30355043D01*
X55304722Y-30301757D01*
X55372999Y-30282296D01*
X55440959Y-30302837D01*
X55486195Y-30355043D01*
X55504476Y-30394248D01*
X55635804Y-30581803D01*
X55797696Y-30743695D01*
X55985249Y-30875022D01*
X56192756Y-30971784D01*
X56252015Y-30987662D01*
X56413913Y-31031043D01*
X56642000Y-31050998D01*
X56804914Y-31036744D01*
X56874517Y-31050733D01*
X56904989Y-31073170D01*
X57472195Y-31640376D01*
X57506221Y-31702688D01*
X57509100Y-31729471D01*
X57509100Y-36032478D01*
X57489098Y-36100599D01*
X57472195Y-36121573D01*
X54167949Y-39425820D01*
X54105637Y-39459846D01*
X54078854Y-39462725D01*
X38096571Y-39462725D01*
X38078310Y-39461395D01*
X38054341Y-39457884D01*
X38004483Y-39462246D01*
X37993502Y-39462725D01*
X37987950Y-39462725D01*
X37984315Y-39463149D01*
X37984295Y-39463151D01*
X37956839Y-39466360D01*
X37953198Y-39466732D01*
X37876381Y-39473453D01*
X37857265Y-39477691D01*
X37784789Y-39504069D01*
X37781332Y-39505271D01*
X37708129Y-39529529D01*
X37690502Y-39538063D01*
X37626048Y-39580454D01*
X37622961Y-39582421D01*
X37557348Y-39622892D01*
X37542162Y-39635263D01*
X37489217Y-39691381D01*
X37486664Y-39694008D01*
X32723610Y-44457062D01*
X32661298Y-44491088D01*
X32590483Y-44486023D01*
X32533647Y-44443476D01*
X32509205Y-44381140D01*
X32491142Y-44209272D01*
X32432127Y-44027644D01*
X32432127Y-44027643D01*
X32336641Y-43862257D01*
X32208852Y-43720333D01*
X32054353Y-43608083D01*
X32054352Y-43608082D01*
X31879888Y-43530406D01*
X31693087Y-43490700D01*
X31502113Y-43490700D01*
X31377578Y-43517170D01*
X31315311Y-43530406D01*
X31140846Y-43608083D01*
X30986347Y-43720333D01*
X30858558Y-43862257D01*
X30763072Y-44027643D01*
X30704058Y-44209270D01*
X30692295Y-44321189D01*
X30684096Y-44399200D01*
X30690330Y-44458517D01*
X30704058Y-44589129D01*
X30763071Y-44770753D01*
X30763073Y-44770756D01*
X30822219Y-44873200D01*
X30839100Y-44936199D01*
X30839100Y-45299434D01*
X30819098Y-45367555D01*
X30802195Y-45388529D01*
X29656025Y-46534698D01*
X29642177Y-46546667D01*
X29622744Y-46561135D01*
X29622742Y-46561136D01*
X29622742Y-46561137D01*
X29590573Y-46599474D01*
X29583160Y-46607564D01*
X29581806Y-46608917D01*
X29581792Y-46608932D01*
X29579219Y-46611506D01*
X29576955Y-46614368D01*
X29576948Y-46614377D01*
X29559779Y-46636089D01*
X29557469Y-46638925D01*
X29507918Y-46697979D01*
X29497391Y-46714502D01*
X29464799Y-46784393D01*
X29463205Y-46787686D01*
X29428594Y-46856603D01*
X29422163Y-46875106D01*
X29406559Y-46950670D01*
X29405767Y-46954243D01*
X29387992Y-47029246D01*
X29386002Y-47048722D01*
X29388246Y-47125862D01*
X29388299Y-47129525D01*
X29388299Y-54923564D01*
X29386969Y-54941823D01*
X29383458Y-54965790D01*
X29387820Y-55015633D01*
X29388300Y-55026616D01*
X29388300Y-55032180D01*
X29388724Y-55035815D01*
X29388726Y-55035834D01*
X29391935Y-55063291D01*
X29392307Y-55066932D01*
X29399028Y-55143744D01*
X29403269Y-55162873D01*
X29429646Y-55235342D01*
X29430849Y-55238804D01*
X29455104Y-55312000D01*
X29463637Y-55329627D01*
X29506032Y-55394084D01*
X29507971Y-55397127D01*
X29532805Y-55437388D01*
X29548474Y-55462792D01*
X29560838Y-55477967D01*
X29616955Y-55530911D01*
X29619584Y-55533465D01*
X32031692Y-57945573D01*
X32043660Y-57959420D01*
X32057034Y-57977384D01*
X32058131Y-57978858D01*
X32096470Y-58011028D01*
X32104574Y-58018455D01*
X32108499Y-58022380D01*
X32133053Y-58041795D01*
X32135892Y-58044108D01*
X32194978Y-58093686D01*
X32214037Y-58105828D01*
X32224250Y-58113904D01*
X32223620Y-58114699D01*
X32238789Y-58125320D01*
X34916996Y-60803527D01*
X34951021Y-60865837D01*
X34953900Y-60892620D01*
X34953900Y-61184999D01*
X34937019Y-61247999D01*
X34877872Y-61350443D01*
X34818858Y-61532070D01*
X34798896Y-61722000D01*
X34818858Y-61911929D01*
X34877872Y-62093556D01*
X34973358Y-62258942D01*
X35063281Y-62358812D01*
X35101147Y-62400866D01*
X35255648Y-62513118D01*
X35430112Y-62590794D01*
X35616913Y-62630500D01*
X35616915Y-62630500D01*
X35807885Y-62630500D01*
X35807887Y-62630500D01*
X35994688Y-62590794D01*
X36169152Y-62513118D01*
X36323653Y-62400866D01*
X36451440Y-62258944D01*
X36546927Y-62093556D01*
X36605942Y-61911928D01*
X36625904Y-61722000D01*
X36605942Y-61532072D01*
X36550424Y-61361206D01*
X36546928Y-61350446D01*
X36530216Y-61321500D01*
X36517268Y-61299073D01*
X36500531Y-61230080D01*
X36523751Y-61162988D01*
X36579558Y-61119101D01*
X36626388Y-61110075D01*
X37327229Y-61110075D01*
X37395350Y-61130077D01*
X37416324Y-61146980D01*
X39690117Y-63420773D01*
X39702085Y-63434620D01*
X39716556Y-63454058D01*
X39754895Y-63486228D01*
X39762999Y-63493655D01*
X39766925Y-63497581D01*
X39775028Y-63503988D01*
X39791480Y-63516997D01*
X39794321Y-63519311D01*
X39853402Y-63568885D01*
X39869915Y-63579405D01*
X39939811Y-63611998D01*
X39943103Y-63613591D01*
X40010837Y-63647609D01*
X40010839Y-63647609D01*
X40012033Y-63648209D01*
X40030515Y-63654633D01*
X40031816Y-63654901D01*
X40031819Y-63654903D01*
X40106103Y-63670241D01*
X40109655Y-63671029D01*
X40183369Y-63688500D01*
X40183371Y-63688500D01*
X40184666Y-63688807D01*
X40204139Y-63690797D01*
X40205464Y-63690758D01*
X40205467Y-63690759D01*
X40279502Y-63688604D01*
X40281284Y-63688553D01*
X40284948Y-63688500D01*
X45164629Y-63688500D01*
X45232750Y-63708502D01*
X45253724Y-63725405D01*
X46069874Y-64541555D01*
X46100612Y-64591714D01*
X46155472Y-64760555D01*
X46250958Y-64925942D01*
X46282589Y-64961072D01*
X46378747Y-65067866D01*
X46533248Y-65180118D01*
X46707712Y-65257794D01*
X46894513Y-65297500D01*
X46894515Y-65297500D01*
X47085485Y-65297500D01*
X47085487Y-65297500D01*
X47272288Y-65257794D01*
X47446752Y-65180118D01*
X47601253Y-65067866D01*
X47729040Y-64925944D01*
X47824527Y-64760556D01*
X47883542Y-64578928D01*
X47903504Y-64389000D01*
X47883542Y-64199072D01*
X47824527Y-64017444D01*
X47824527Y-64017443D01*
X47729041Y-63852057D01*
X47601252Y-63710133D01*
X47446753Y-63597883D01*
X47446752Y-63597882D01*
X47272288Y-63520206D01*
X47272284Y-63520204D01*
X47209228Y-63506801D01*
X47146755Y-63473072D01*
X47146331Y-63472650D01*
X46877276Y-63203595D01*
X46843250Y-63141283D01*
X46848315Y-63070468D01*
X46890862Y-63013632D01*
X46957382Y-62988821D01*
X46966371Y-62988500D01*
X50765414Y-62988500D01*
X50833535Y-63008502D01*
X50839448Y-63012545D01*
X50851248Y-63021118D01*
X51025712Y-63098794D01*
X51212513Y-63138500D01*
X51212515Y-63138500D01*
X51403485Y-63138500D01*
X51403487Y-63138500D01*
X51590288Y-63098794D01*
X51764752Y-63021118D01*
X51919253Y-62908866D01*
X52047040Y-62766944D01*
X52142527Y-62601556D01*
X52201542Y-62419928D01*
X52221504Y-62230000D01*
X52201542Y-62040072D01*
X52162288Y-61919261D01*
X52142527Y-61858443D01*
X52047041Y-61693057D01*
X51919252Y-61551133D01*
X51842002Y-61495008D01*
X51764752Y-61438882D01*
X51590288Y-61361206D01*
X51403487Y-61321500D01*
X51212513Y-61321500D01*
X51087979Y-61347970D01*
X51025711Y-61361206D01*
X50938479Y-61400043D01*
X50851248Y-61438882D01*
X50839472Y-61447437D01*
X50772608Y-61471294D01*
X50765414Y-61471500D01*
X41074289Y-61471500D01*
X41006168Y-61451498D01*
X40985194Y-61434595D01*
X40290526Y-60739927D01*
X40272000Y-60706000D01*
X73668444Y-60706000D01*
X73687036Y-60930368D01*
X73687036Y-60930371D01*
X73687037Y-60930372D01*
X73742302Y-61148611D01*
X73832739Y-61354790D01*
X73867082Y-61407356D01*
X73955878Y-61543268D01*
X74068125Y-61665200D01*
X74108362Y-61708908D01*
X74228229Y-61802205D01*
X74286024Y-61847189D01*
X74484026Y-61954342D01*
X74696965Y-62027444D01*
X74919031Y-62064500D01*
X74919034Y-62064500D01*
X75144166Y-62064500D01*
X75144169Y-62064500D01*
X75366235Y-62027444D01*
X75579174Y-61954342D01*
X75777176Y-61847189D01*
X75954840Y-61708906D01*
X76107322Y-61543268D01*
X76196118Y-61407354D01*
X76250121Y-61361268D01*
X76320469Y-61351693D01*
X76384826Y-61381670D01*
X76407080Y-61407353D01*
X76495878Y-61543268D01*
X76608125Y-61665200D01*
X76648362Y-61708908D01*
X76768229Y-61802205D01*
X76826024Y-61847189D01*
X77024026Y-61954342D01*
X77236965Y-62027444D01*
X77459031Y-62064500D01*
X77459034Y-62064500D01*
X77684166Y-62064500D01*
X77684169Y-62064500D01*
X77906235Y-62027444D01*
X78119174Y-61954342D01*
X78317176Y-61847189D01*
X78494840Y-61708906D01*
X78555846Y-61642635D01*
X78616696Y-61606067D01*
X78687661Y-61608200D01*
X78746206Y-61648362D01*
X78766600Y-61683942D01*
X78810709Y-61802203D01*
X78898338Y-61919261D01*
X79015394Y-62006888D01*
X79015395Y-62006888D01*
X79015396Y-62006889D01*
X79152399Y-62057989D01*
X79212962Y-62064500D01*
X79216331Y-62064500D01*
X81006869Y-62064500D01*
X81010238Y-62064500D01*
X81070801Y-62057989D01*
X81207804Y-62006889D01*
X81324861Y-61919261D01*
X81412489Y-61802204D01*
X81463589Y-61665201D01*
X81470100Y-61604638D01*
X81470100Y-59807362D01*
X81463589Y-59746799D01*
X81412489Y-59609796D01*
X81384527Y-59572443D01*
X81324861Y-59492738D01*
X81207805Y-59405111D01*
X81139302Y-59379561D01*
X81070801Y-59354011D01*
X81010238Y-59347500D01*
X79212962Y-59347500D01*
X79209613Y-59347859D01*
X79209613Y-59347860D01*
X79152399Y-59354011D01*
X79015394Y-59405111D01*
X78898338Y-59492738D01*
X78810709Y-59609796D01*
X78766600Y-59728057D01*
X78724053Y-59784893D01*
X78657533Y-59809703D01*
X78588159Y-59794611D01*
X78555846Y-59769363D01*
X78494840Y-59703094D01*
X78494839Y-59703093D01*
X78494837Y-59703091D01*
X78317178Y-59564812D01*
X78119173Y-59457657D01*
X77966110Y-59405111D01*
X77906235Y-59384556D01*
X77684169Y-59347500D01*
X77459031Y-59347500D01*
X77236965Y-59384556D01*
X77236962Y-59384556D01*
X77236962Y-59384557D01*
X77024026Y-59457657D01*
X76826021Y-59564812D01*
X76648362Y-59703091D01*
X76495878Y-59868731D01*
X76407083Y-60004643D01*
X76353079Y-60050731D01*
X76282731Y-60060306D01*
X76218374Y-60030328D01*
X76196117Y-60004643D01*
X76156497Y-59944000D01*
X76107322Y-59868732D01*
X75954840Y-59703094D01*
X75954839Y-59703093D01*
X75954837Y-59703091D01*
X75777178Y-59564812D01*
X75579173Y-59457657D01*
X75426110Y-59405111D01*
X75366235Y-59384556D01*
X75144169Y-59347500D01*
X74919031Y-59347500D01*
X74696965Y-59384556D01*
X74696962Y-59384556D01*
X74696962Y-59384557D01*
X74484026Y-59457657D01*
X74286021Y-59564812D01*
X74108362Y-59703091D01*
X73955878Y-59868731D01*
X73832739Y-60057209D01*
X73742302Y-60263388D01*
X73687210Y-60480944D01*
X73687036Y-60481632D01*
X73668444Y-60706000D01*
X40272000Y-60706000D01*
X40256500Y-60677615D01*
X40261565Y-60606800D01*
X40285982Y-60566525D01*
X40363040Y-60480944D01*
X40458527Y-60315556D01*
X40517542Y-60133928D01*
X40537504Y-59944000D01*
X40517542Y-59754072D01*
X40476968Y-59629200D01*
X40458527Y-59572443D01*
X40363041Y-59407057D01*
X40235252Y-59265133D01*
X40100815Y-59167459D01*
X40080752Y-59152882D01*
X39935779Y-59088336D01*
X39906284Y-59075204D01*
X39843228Y-59061801D01*
X39780755Y-59028072D01*
X39780331Y-59027650D01*
X39189909Y-58437228D01*
X39177937Y-58423375D01*
X39163470Y-58403943D01*
X39125127Y-58371769D01*
X39117024Y-58364343D01*
X39115694Y-58363013D01*
X39113101Y-58360420D01*
X39110235Y-58358153D01*
X39110224Y-58358144D01*
X39088530Y-58340991D01*
X39085708Y-58338692D01*
X39027640Y-58289968D01*
X39027639Y-58289967D01*
X39026621Y-58289113D01*
X39010110Y-58278594D01*
X38940205Y-58245996D01*
X38936909Y-58244401D01*
X38867996Y-58209792D01*
X38849504Y-58203365D01*
X38773942Y-58187762D01*
X38770367Y-58186969D01*
X38695356Y-58169191D01*
X38675885Y-58167202D01*
X38598741Y-58169447D01*
X38595077Y-58169500D01*
X37450371Y-58169500D01*
X37382250Y-58149498D01*
X37361276Y-58132595D01*
X37069330Y-57840649D01*
X37035304Y-57778337D01*
X37040369Y-57707522D01*
X37082916Y-57650686D01*
X37084203Y-57649736D01*
X37187253Y-57574866D01*
X37315040Y-57432944D01*
X37410527Y-57267556D01*
X37469542Y-57085928D01*
X37489504Y-56896000D01*
X37469542Y-56706072D01*
X37412139Y-56529405D01*
X37410527Y-56524443D01*
X37315041Y-56359057D01*
X37187252Y-56217133D01*
X37032753Y-56104883D01*
X37032752Y-56104882D01*
X36858288Y-56027206D01*
X36858286Y-56027205D01*
X36858285Y-56027205D01*
X36802496Y-56015346D01*
X36747705Y-55988622D01*
X36712134Y-55958775D01*
X36704029Y-55951348D01*
X36702694Y-55950013D01*
X36700101Y-55947420D01*
X36697235Y-55945153D01*
X36697224Y-55945144D01*
X36675530Y-55927991D01*
X36672708Y-55925692D01*
X36614640Y-55876968D01*
X36614639Y-55876967D01*
X36613621Y-55876113D01*
X36597110Y-55865594D01*
X36527205Y-55832996D01*
X36523909Y-55831401D01*
X36454996Y-55796792D01*
X36436504Y-55790365D01*
X36360942Y-55774762D01*
X36357367Y-55773969D01*
X36282356Y-55756191D01*
X36262885Y-55754202D01*
X36185741Y-55756447D01*
X36182077Y-55756500D01*
X36027321Y-55756500D01*
X35959200Y-55736498D01*
X35938226Y-55719595D01*
X33815405Y-53596774D01*
X33781379Y-53534462D01*
X33778500Y-53507679D01*
X33778500Y-50906138D01*
X37553500Y-50906138D01*
X37553860Y-50909486D01*
X37560011Y-50966700D01*
X37611111Y-51103705D01*
X37698738Y-51220761D01*
X37815794Y-51308388D01*
X37815795Y-51308388D01*
X37815796Y-51308389D01*
X37952799Y-51359489D01*
X38013362Y-51366000D01*
X38016731Y-51366000D01*
X39707269Y-51366000D01*
X39710638Y-51366000D01*
X39771201Y-51359489D01*
X39908204Y-51308389D01*
X40025261Y-51220761D01*
X40112889Y-51103704D01*
X40163989Y-50966701D01*
X40164999Y-50957300D01*
X40192167Y-50891709D01*
X40250484Y-50851218D01*
X40321436Y-50848682D01*
X40382494Y-50884909D01*
X40393490Y-50898498D01*
X40395804Y-50901803D01*
X40557696Y-51063695D01*
X40557699Y-51063697D01*
X40557700Y-51063698D01*
X40614834Y-51103704D01*
X40745249Y-51195022D01*
X40952756Y-51291784D01*
X41012014Y-51307662D01*
X41173913Y-51351043D01*
X41402000Y-51370998D01*
X41630087Y-51351043D01*
X41851243Y-51291784D01*
X42058749Y-51195023D01*
X42246300Y-51063698D01*
X42408198Y-50901800D01*
X42539523Y-50714249D01*
X42557804Y-50675043D01*
X42604722Y-50621757D01*
X42672999Y-50602296D01*
X42740959Y-50622837D01*
X42786195Y-50675043D01*
X42804476Y-50714248D01*
X42935804Y-50901803D01*
X43097696Y-51063695D01*
X43097699Y-51063697D01*
X43097700Y-51063698D01*
X43154834Y-51103704D01*
X43285249Y-51195022D01*
X43492756Y-51291784D01*
X43552014Y-51307662D01*
X43713913Y-51351043D01*
X43942000Y-51370998D01*
X44170087Y-51351043D01*
X44391243Y-51291784D01*
X44598749Y-51195023D01*
X44786300Y-51063698D01*
X44948198Y-50901800D01*
X45079523Y-50714249D01*
X45176284Y-50506743D01*
X45235543Y-50285587D01*
X45255498Y-50057500D01*
X45235543Y-49829413D01*
X45176284Y-49608257D01*
X45168144Y-49590801D01*
X45079522Y-49400749D01*
X44965056Y-49237276D01*
X44948198Y-49213200D01*
X44948196Y-49213198D01*
X44948195Y-49213196D01*
X44786303Y-49051304D01*
X44598750Y-48919977D01*
X44391243Y-48823215D01*
X44170087Y-48763957D01*
X44163435Y-48763375D01*
X43942000Y-48744002D01*
X43941999Y-48744002D01*
X43713912Y-48763957D01*
X43492756Y-48823215D01*
X43285249Y-48919977D01*
X43097696Y-49051304D01*
X42935804Y-49213196D01*
X42804477Y-49400750D01*
X42786195Y-49439957D01*
X42739278Y-49493242D01*
X42671000Y-49512703D01*
X42603040Y-49492161D01*
X42557805Y-49439957D01*
X42539727Y-49401189D01*
X42539523Y-49400751D01*
X42408198Y-49213200D01*
X42408196Y-49213198D01*
X42408195Y-49213196D01*
X42246303Y-49051304D01*
X42058750Y-48919977D01*
X41851243Y-48823215D01*
X41630087Y-48763957D01*
X41402000Y-48744002D01*
X41173912Y-48763957D01*
X40952756Y-48823215D01*
X40745249Y-48919977D01*
X40557696Y-49051304D01*
X40395802Y-49213198D01*
X40393487Y-49216505D01*
X40388550Y-49220450D01*
X40388007Y-49220994D01*
X40387946Y-49220933D01*
X40338028Y-49260831D01*
X40267409Y-49268137D01*
X40204050Y-49236104D01*
X40168067Y-49174901D01*
X40164999Y-49157697D01*
X40164679Y-49154721D01*
X40163989Y-49148299D01*
X40112889Y-49011296D01*
X40112888Y-49011294D01*
X40025261Y-48894238D01*
X39908205Y-48806611D01*
X39793845Y-48763957D01*
X39771201Y-48755511D01*
X39710638Y-48749000D01*
X38013362Y-48749000D01*
X38010013Y-48749359D01*
X38010013Y-48749360D01*
X37952799Y-48755511D01*
X37815794Y-48806611D01*
X37698738Y-48894238D01*
X37611111Y-49011294D01*
X37560010Y-49148299D01*
X37560011Y-49148299D01*
X37553500Y-49208862D01*
X37553500Y-50906138D01*
X33778500Y-50906138D01*
X33778500Y-48569575D01*
X33798502Y-48501454D01*
X33815405Y-48480480D01*
X39062980Y-43232905D01*
X39125292Y-43198879D01*
X39152075Y-43196000D01*
X57264868Y-43196000D01*
X57332989Y-43216002D01*
X57379482Y-43269658D01*
X57389586Y-43339932D01*
X57360092Y-43404512D01*
X57300366Y-43442896D01*
X57275851Y-43447520D01*
X57267760Y-43448227D01*
X57248623Y-43452470D01*
X57176134Y-43478853D01*
X57172676Y-43480055D01*
X57099500Y-43504303D01*
X57081872Y-43512838D01*
X57017418Y-43555229D01*
X57014331Y-43557196D01*
X56948718Y-43597667D01*
X56933532Y-43610038D01*
X56880587Y-43666156D01*
X56878034Y-43668783D01*
X51824989Y-48721828D01*
X51762677Y-48755854D01*
X51724914Y-48758254D01*
X51562000Y-48744002D01*
X51333912Y-48763957D01*
X51112756Y-48823215D01*
X50905249Y-48919977D01*
X50717696Y-49051304D01*
X50555804Y-49213196D01*
X50424477Y-49400750D01*
X50406195Y-49439957D01*
X50359278Y-49493242D01*
X50291000Y-49512703D01*
X50223040Y-49492161D01*
X50177805Y-49439957D01*
X50159727Y-49401189D01*
X50159523Y-49400751D01*
X50028198Y-49213200D01*
X50028196Y-49213198D01*
X50028195Y-49213196D01*
X49866303Y-49051304D01*
X49678750Y-48919977D01*
X49471243Y-48823215D01*
X49250087Y-48763957D01*
X49243435Y-48763375D01*
X49022000Y-48744002D01*
X49021999Y-48744002D01*
X48793912Y-48763957D01*
X48572756Y-48823215D01*
X48365249Y-48919977D01*
X48177696Y-49051304D01*
X48015804Y-49213196D01*
X47884477Y-49400749D01*
X47787715Y-49608256D01*
X47728457Y-49829412D01*
X47723700Y-49883791D01*
X47708502Y-50057500D01*
X47719859Y-50187316D01*
X47728457Y-50285587D01*
X47787715Y-50506743D01*
X47884477Y-50714250D01*
X48015804Y-50901803D01*
X48177696Y-51063695D01*
X48177699Y-51063697D01*
X48177700Y-51063698D01*
X48234834Y-51103704D01*
X48365249Y-51195022D01*
X48572756Y-51291784D01*
X48632014Y-51307662D01*
X48793913Y-51351043D01*
X49022000Y-51370998D01*
X49250087Y-51351043D01*
X49471243Y-51291784D01*
X49678749Y-51195023D01*
X49866300Y-51063698D01*
X50028198Y-50901800D01*
X50159523Y-50714249D01*
X50177804Y-50675043D01*
X50224722Y-50621757D01*
X50292999Y-50602296D01*
X50360959Y-50622837D01*
X50406195Y-50675043D01*
X50424476Y-50714248D01*
X50555804Y-50901803D01*
X50717696Y-51063695D01*
X50717699Y-51063697D01*
X50717700Y-51063698D01*
X50774834Y-51103704D01*
X50905249Y-51195022D01*
X51112756Y-51291784D01*
X51172014Y-51307662D01*
X51333913Y-51351043D01*
X51562000Y-51370998D01*
X51790087Y-51351043D01*
X52011243Y-51291784D01*
X52218749Y-51195023D01*
X52406300Y-51063698D01*
X52568198Y-50901800D01*
X52699523Y-50714249D01*
X52717804Y-50675043D01*
X52764722Y-50621757D01*
X52832999Y-50602296D01*
X52900959Y-50622837D01*
X52946195Y-50675043D01*
X52964476Y-50714248D01*
X53095804Y-50901803D01*
X53257696Y-51063695D01*
X53257699Y-51063697D01*
X53257700Y-51063698D01*
X53314834Y-51103704D01*
X53445249Y-51195022D01*
X53652756Y-51291784D01*
X53712014Y-51307662D01*
X53873913Y-51351043D01*
X54102000Y-51370998D01*
X54330087Y-51351043D01*
X54551243Y-51291784D01*
X54758749Y-51195023D01*
X54946300Y-51063698D01*
X55108198Y-50901800D01*
X55239523Y-50714249D01*
X55257804Y-50675043D01*
X55304722Y-50621757D01*
X55372999Y-50602296D01*
X55440959Y-50622837D01*
X55486195Y-50675043D01*
X55504476Y-50714248D01*
X55635804Y-50901803D01*
X55797696Y-51063695D01*
X55797699Y-51063697D01*
X55797700Y-51063698D01*
X55854834Y-51103704D01*
X55985249Y-51195022D01*
X56192756Y-51291784D01*
X56252014Y-51307662D01*
X56413913Y-51351043D01*
X56642000Y-51370998D01*
X56870087Y-51351043D01*
X57091243Y-51291784D01*
X57298749Y-51195023D01*
X57486300Y-51063698D01*
X57648198Y-50901800D01*
X57779523Y-50714249D01*
X57797804Y-50675043D01*
X57844722Y-50621757D01*
X57912999Y-50602296D01*
X57980959Y-50622837D01*
X58026195Y-50675043D01*
X58044476Y-50714248D01*
X58175804Y-50901803D01*
X58337696Y-51063695D01*
X58337699Y-51063697D01*
X58337700Y-51063698D01*
X58394834Y-51103704D01*
X58525249Y-51195022D01*
X58732756Y-51291784D01*
X58792014Y-51307662D01*
X58953913Y-51351043D01*
X59182000Y-51370998D01*
X59410087Y-51351043D01*
X59631243Y-51291784D01*
X59838749Y-51195023D01*
X60026300Y-51063698D01*
X60188198Y-50901800D01*
X60319523Y-50714249D01*
X60337804Y-50675043D01*
X60384722Y-50621757D01*
X60452999Y-50602296D01*
X60520959Y-50622837D01*
X60566195Y-50675043D01*
X60584476Y-50714248D01*
X60715804Y-50901803D01*
X60877696Y-51063695D01*
X60877699Y-51063697D01*
X60877700Y-51063698D01*
X60934834Y-51103704D01*
X61065249Y-51195022D01*
X61272756Y-51291784D01*
X61332014Y-51307662D01*
X61493913Y-51351043D01*
X61722000Y-51370998D01*
X61950087Y-51351043D01*
X62171243Y-51291784D01*
X62378749Y-51195023D01*
X62566300Y-51063698D01*
X62728198Y-50901800D01*
X62859523Y-50714249D01*
X62877804Y-50675043D01*
X62924722Y-50621757D01*
X62992999Y-50602296D01*
X63060959Y-50622837D01*
X63106195Y-50675043D01*
X63124476Y-50714248D01*
X63255804Y-50901803D01*
X63417696Y-51063695D01*
X63417699Y-51063697D01*
X63417700Y-51063698D01*
X63474834Y-51103704D01*
X63605249Y-51195022D01*
X63812756Y-51291784D01*
X63872014Y-51307662D01*
X64033913Y-51351043D01*
X64262000Y-51370998D01*
X64490087Y-51351043D01*
X64711243Y-51291784D01*
X64918749Y-51195023D01*
X65106300Y-51063698D01*
X65268198Y-50901800D01*
X65399523Y-50714249D01*
X65417804Y-50675043D01*
X65464722Y-50621757D01*
X65532999Y-50602296D01*
X65600959Y-50622837D01*
X65646195Y-50675043D01*
X65664476Y-50714248D01*
X65795804Y-50901803D01*
X65957696Y-51063695D01*
X65957699Y-51063697D01*
X65957700Y-51063698D01*
X66014834Y-51103704D01*
X66145249Y-51195022D01*
X66352756Y-51291784D01*
X66412014Y-51307662D01*
X66573913Y-51351043D01*
X66802000Y-51370998D01*
X67030087Y-51351043D01*
X67251243Y-51291784D01*
X67458749Y-51195023D01*
X67646300Y-51063698D01*
X67808198Y-50901800D01*
X67939523Y-50714249D01*
X67957804Y-50675043D01*
X68004722Y-50621757D01*
X68072999Y-50602296D01*
X68140959Y-50622837D01*
X68186195Y-50675043D01*
X68204476Y-50714248D01*
X68335804Y-50901803D01*
X68497696Y-51063695D01*
X68497699Y-51063697D01*
X68497700Y-51063698D01*
X68554834Y-51103704D01*
X68685249Y-51195022D01*
X68892756Y-51291784D01*
X68952014Y-51307662D01*
X69113913Y-51351043D01*
X69342000Y-51370998D01*
X69570087Y-51351043D01*
X69791243Y-51291784D01*
X69998749Y-51195023D01*
X70186300Y-51063698D01*
X70348198Y-50901800D01*
X70479523Y-50714249D01*
X70497804Y-50675043D01*
X70544722Y-50621757D01*
X70612999Y-50602296D01*
X70680959Y-50622837D01*
X70726195Y-50675043D01*
X70744476Y-50714248D01*
X70875804Y-50901803D01*
X71037696Y-51063695D01*
X71037699Y-51063697D01*
X71037700Y-51063698D01*
X71094834Y-51103704D01*
X71225249Y-51195022D01*
X71432756Y-51291784D01*
X71492014Y-51307662D01*
X71653913Y-51351043D01*
X71882000Y-51370998D01*
X72110087Y-51351043D01*
X72331243Y-51291784D01*
X72538749Y-51195023D01*
X72726300Y-51063698D01*
X72888198Y-50901800D01*
X73019523Y-50714249D01*
X73037804Y-50675043D01*
X73084722Y-50621757D01*
X73152999Y-50602296D01*
X73220959Y-50622837D01*
X73266195Y-50675043D01*
X73284476Y-50714248D01*
X73415804Y-50901803D01*
X73577696Y-51063695D01*
X73577699Y-51063697D01*
X73577700Y-51063698D01*
X73634834Y-51103704D01*
X73765249Y-51195022D01*
X73972756Y-51291784D01*
X74032014Y-51307662D01*
X74193913Y-51351043D01*
X74422000Y-51370998D01*
X74650087Y-51351043D01*
X74871243Y-51291784D01*
X75078749Y-51195023D01*
X75266300Y-51063698D01*
X75428198Y-50901800D01*
X75559523Y-50714249D01*
X75577804Y-50675043D01*
X75624722Y-50621757D01*
X75692999Y-50602296D01*
X75760959Y-50622837D01*
X75806195Y-50675043D01*
X75824476Y-50714248D01*
X75955804Y-50901803D01*
X76117696Y-51063695D01*
X76117699Y-51063697D01*
X76117700Y-51063698D01*
X76174834Y-51103704D01*
X76305249Y-51195022D01*
X76512756Y-51291784D01*
X76572014Y-51307662D01*
X76733913Y-51351043D01*
X76962000Y-51370998D01*
X77190087Y-51351043D01*
X77411243Y-51291784D01*
X77618749Y-51195023D01*
X77806300Y-51063698D01*
X77968198Y-50901800D01*
X78099523Y-50714249D01*
X78196284Y-50506743D01*
X78255543Y-50285587D01*
X78275498Y-50057500D01*
X78255543Y-49829413D01*
X78196284Y-49608257D01*
X78188144Y-49590801D01*
X78099522Y-49400749D01*
X77985056Y-49237276D01*
X77968198Y-49213200D01*
X77968196Y-49213198D01*
X77968195Y-49213196D01*
X77806303Y-49051304D01*
X77618750Y-48919977D01*
X77411243Y-48823215D01*
X77190087Y-48763957D01*
X76962000Y-48744002D01*
X76733912Y-48763957D01*
X76512756Y-48823215D01*
X76305249Y-48919977D01*
X76117696Y-49051304D01*
X75955804Y-49213196D01*
X75824477Y-49400750D01*
X75806195Y-49439957D01*
X75759278Y-49493242D01*
X75691000Y-49512703D01*
X75623040Y-49492161D01*
X75577805Y-49439957D01*
X75559727Y-49401189D01*
X75559523Y-49400751D01*
X75428198Y-49213200D01*
X75428196Y-49213198D01*
X75428195Y-49213196D01*
X75266303Y-49051304D01*
X75078750Y-48919977D01*
X74871243Y-48823215D01*
X74650087Y-48763957D01*
X74643435Y-48763375D01*
X74422000Y-48744002D01*
X74421999Y-48744002D01*
X74193912Y-48763957D01*
X73972756Y-48823215D01*
X73765249Y-48919977D01*
X73577696Y-49051304D01*
X73415804Y-49213196D01*
X73284477Y-49400750D01*
X73266195Y-49439957D01*
X73219278Y-49493242D01*
X73151000Y-49512703D01*
X73083040Y-49492161D01*
X73037805Y-49439957D01*
X73019727Y-49401189D01*
X73019523Y-49400751D01*
X72888198Y-49213200D01*
X72888196Y-49213198D01*
X72888195Y-49213196D01*
X72726303Y-49051304D01*
X72538750Y-48919977D01*
X72331243Y-48823215D01*
X72110087Y-48763957D01*
X71882000Y-48744002D01*
X71653912Y-48763957D01*
X71432756Y-48823215D01*
X71225249Y-48919977D01*
X71037696Y-49051304D01*
X70875804Y-49213196D01*
X70744477Y-49400750D01*
X70726195Y-49439957D01*
X70679278Y-49493242D01*
X70611000Y-49512703D01*
X70543040Y-49492161D01*
X70497805Y-49439957D01*
X70479727Y-49401189D01*
X70479523Y-49400751D01*
X70348198Y-49213200D01*
X70348196Y-49213198D01*
X70348195Y-49213196D01*
X70186303Y-49051304D01*
X69998750Y-48919977D01*
X69791243Y-48823215D01*
X69570087Y-48763957D01*
X69563435Y-48763375D01*
X69342000Y-48744002D01*
X69341999Y-48744002D01*
X69113912Y-48763957D01*
X68892756Y-48823215D01*
X68685249Y-48919977D01*
X68497696Y-49051304D01*
X68335804Y-49213196D01*
X68204477Y-49400750D01*
X68186195Y-49439957D01*
X68139278Y-49493242D01*
X68071000Y-49512703D01*
X68003040Y-49492161D01*
X67957805Y-49439957D01*
X67939727Y-49401189D01*
X67939523Y-49400751D01*
X67808198Y-49213200D01*
X67808196Y-49213198D01*
X67808195Y-49213196D01*
X67646303Y-49051304D01*
X67458750Y-48919977D01*
X67251243Y-48823215D01*
X67030087Y-48763957D01*
X66802000Y-48744002D01*
X66573912Y-48763957D01*
X66352756Y-48823215D01*
X66145249Y-48919977D01*
X65957696Y-49051304D01*
X65795804Y-49213196D01*
X65664477Y-49400750D01*
X65646195Y-49439957D01*
X65599278Y-49493242D01*
X65531000Y-49512703D01*
X65463040Y-49492161D01*
X65417805Y-49439957D01*
X65399727Y-49401189D01*
X65399523Y-49400751D01*
X65268198Y-49213200D01*
X65268196Y-49213198D01*
X65268195Y-49213196D01*
X65106303Y-49051304D01*
X64918750Y-48919977D01*
X64711243Y-48823215D01*
X64490087Y-48763957D01*
X64483435Y-48763375D01*
X64262000Y-48744002D01*
X64261999Y-48744002D01*
X64033912Y-48763957D01*
X63812756Y-48823215D01*
X63605249Y-48919977D01*
X63417696Y-49051304D01*
X63255804Y-49213196D01*
X63124477Y-49400750D01*
X63106195Y-49439957D01*
X63059278Y-49493242D01*
X62991000Y-49512703D01*
X62923040Y-49492161D01*
X62877805Y-49439957D01*
X62859727Y-49401189D01*
X62859523Y-49400751D01*
X62728198Y-49213200D01*
X62728196Y-49213198D01*
X62728195Y-49213196D01*
X62566303Y-49051304D01*
X62378750Y-48919977D01*
X62171243Y-48823215D01*
X61950087Y-48763957D01*
X61722000Y-48744002D01*
X61493912Y-48763957D01*
X61272756Y-48823215D01*
X61065249Y-48919977D01*
X60877696Y-49051304D01*
X60715804Y-49213196D01*
X60584477Y-49400750D01*
X60566195Y-49439957D01*
X60519278Y-49493242D01*
X60451000Y-49512703D01*
X60383040Y-49492161D01*
X60337805Y-49439957D01*
X60319727Y-49401189D01*
X60319523Y-49400751D01*
X60188198Y-49213200D01*
X60188196Y-49213198D01*
X60188195Y-49213196D01*
X60026303Y-49051304D01*
X59994228Y-49028845D01*
X59949900Y-48973388D01*
X59940500Y-48925637D01*
X59940500Y-48564370D01*
X59960502Y-48496249D01*
X59977405Y-48475275D01*
X61237276Y-47215405D01*
X61299588Y-47181379D01*
X61326371Y-47178500D01*
X103965629Y-47178500D01*
X104033750Y-47198502D01*
X104054724Y-47215405D01*
X107916595Y-51077276D01*
X107950621Y-51139588D01*
X107953500Y-51166371D01*
X107953500Y-51278999D01*
X107936619Y-51341999D01*
X107877472Y-51444443D01*
X107818458Y-51626070D01*
X107798496Y-51816000D01*
X107818458Y-52005929D01*
X107877472Y-52187556D01*
X107972958Y-52352942D01*
X107972960Y-52352944D01*
X108100747Y-52494866D01*
X108255248Y-52607118D01*
X108429712Y-52684794D01*
X108616513Y-52724500D01*
X108616515Y-52724500D01*
X108807485Y-52724500D01*
X108807487Y-52724500D01*
X108994288Y-52684794D01*
X109168752Y-52607118D01*
X109323253Y-52494866D01*
X109451040Y-52352944D01*
X109546527Y-52187556D01*
X109605542Y-52005928D01*
X109625504Y-51816000D01*
X109615971Y-51725305D01*
X109628743Y-51655471D01*
X109677244Y-51603624D01*
X109746077Y-51586229D01*
X109792527Y-51597030D01*
X109953712Y-51668794D01*
X110140513Y-51708500D01*
X110140515Y-51708500D01*
X110331485Y-51708500D01*
X110331487Y-51708500D01*
X110518288Y-51668794D01*
X110692752Y-51591118D01*
X110801438Y-51512152D01*
X110868307Y-51488293D01*
X110937458Y-51504374D01*
X110986939Y-51555288D01*
X111001500Y-51614088D01*
X111001500Y-53783559D01*
X111000170Y-53801820D01*
X110996658Y-53825790D01*
X111001020Y-53875633D01*
X111001500Y-53886616D01*
X111001500Y-53892180D01*
X111001924Y-53895815D01*
X111001926Y-53895834D01*
X111005135Y-53923291D01*
X111005507Y-53926932D01*
X111012228Y-54003744D01*
X111016469Y-54022873D01*
X111042846Y-54095342D01*
X111044049Y-54098804D01*
X111068304Y-54172000D01*
X111076837Y-54189627D01*
X111119232Y-54254084D01*
X111121171Y-54257127D01*
X111160970Y-54321651D01*
X111161674Y-54322792D01*
X111174038Y-54337967D01*
X111174998Y-54338873D01*
X111174999Y-54338874D01*
X111192770Y-54355640D01*
X111230155Y-54390911D01*
X111232784Y-54393465D01*
X113210092Y-56370773D01*
X113222060Y-56384620D01*
X113236531Y-56404058D01*
X113274870Y-56436228D01*
X113282974Y-56443655D01*
X113286900Y-56447581D01*
X113289780Y-56449858D01*
X113311455Y-56466997D01*
X113314296Y-56469311D01*
X113373377Y-56518885D01*
X113389890Y-56529405D01*
X113459786Y-56561998D01*
X113463078Y-56563591D01*
X113530812Y-56597609D01*
X113530814Y-56597609D01*
X113532008Y-56598209D01*
X113550490Y-56604633D01*
X113551791Y-56604901D01*
X113551794Y-56604903D01*
X113626078Y-56620241D01*
X113629630Y-56621029D01*
X113703344Y-56638500D01*
X113703346Y-56638500D01*
X113704641Y-56638807D01*
X113724114Y-56640797D01*
X113725439Y-56640758D01*
X113725442Y-56640759D01*
X113799477Y-56638604D01*
X113801259Y-56638553D01*
X113804923Y-56638500D01*
X115644629Y-56638500D01*
X115712750Y-56658502D01*
X115750111Y-56695584D01*
X115764278Y-56717268D01*
X115916760Y-56882906D01*
X115916762Y-56882908D01*
X116094418Y-57021185D01*
X116094420Y-57021186D01*
X116094424Y-57021189D01*
X116127682Y-57039187D01*
X116178071Y-57089200D01*
X116193423Y-57158517D01*
X116168862Y-57225130D01*
X116127683Y-57260812D01*
X116102794Y-57274281D01*
X116094418Y-57278814D01*
X115916762Y-57417091D01*
X115764278Y-57582731D01*
X115641139Y-57771209D01*
X115550702Y-57977388D01*
X115497429Y-58187762D01*
X115495436Y-58195632D01*
X115476844Y-58420000D01*
X115495436Y-58644368D01*
X115495436Y-58644371D01*
X115495437Y-58644372D01*
X115550702Y-58862611D01*
X115641139Y-59068790D01*
X115750913Y-59236812D01*
X115764278Y-59257268D01*
X115900378Y-59405111D01*
X115916762Y-59422908D01*
X116094418Y-59561185D01*
X116094420Y-59561186D01*
X116094424Y-59561189D01*
X116127682Y-59579187D01*
X116178071Y-59629200D01*
X116193423Y-59698517D01*
X116168862Y-59765130D01*
X116127683Y-59800812D01*
X116102794Y-59814281D01*
X116094418Y-59818814D01*
X115916762Y-59957091D01*
X115764278Y-60122731D01*
X115641139Y-60311209D01*
X115550702Y-60517388D01*
X115495437Y-60735627D01*
X115495436Y-60735632D01*
X115476844Y-60960000D01*
X115495436Y-61184368D01*
X115495436Y-61184371D01*
X115495437Y-61184372D01*
X115550702Y-61402611D01*
X115641139Y-61608790D01*
X115764278Y-61797268D01*
X115916762Y-61962908D01*
X116094418Y-62101185D01*
X116094420Y-62101186D01*
X116094424Y-62101189D01*
X116127682Y-62119187D01*
X116178071Y-62169200D01*
X116193423Y-62238517D01*
X116168862Y-62305130D01*
X116127683Y-62340812D01*
X116102794Y-62354281D01*
X116094418Y-62358814D01*
X115916762Y-62497091D01*
X115764278Y-62662731D01*
X115641139Y-62851209D01*
X115550702Y-63057388D01*
X115513678Y-63203595D01*
X115495436Y-63275632D01*
X115476844Y-63500000D01*
X115495436Y-63724368D01*
X115495436Y-63724371D01*
X115495437Y-63724372D01*
X115550702Y-63942611D01*
X115641139Y-64148790D01*
X115718333Y-64266944D01*
X115764278Y-64337268D01*
X115859522Y-64440730D01*
X115916762Y-64502908D01*
X116094418Y-64641185D01*
X116094420Y-64641186D01*
X116094424Y-64641189D01*
X116127682Y-64659187D01*
X116178071Y-64709200D01*
X116193423Y-64778517D01*
X116168862Y-64845130D01*
X116127683Y-64880812D01*
X116102794Y-64894281D01*
X116094418Y-64898814D01*
X115916762Y-65037091D01*
X115764278Y-65202731D01*
X115641139Y-65391209D01*
X115550702Y-65597388D01*
X115495437Y-65815627D01*
X115495436Y-65815632D01*
X115476844Y-66040000D01*
X115495436Y-66264368D01*
X115495436Y-66264371D01*
X115495437Y-66264372D01*
X115550702Y-66482611D01*
X115641139Y-66688790D01*
X115764278Y-66877268D01*
X115916762Y-67042908D01*
X116094418Y-67181185D01*
X116094420Y-67181186D01*
X116094424Y-67181189D01*
X116127682Y-67199187D01*
X116178071Y-67249200D01*
X116193423Y-67318517D01*
X116168862Y-67385130D01*
X116127683Y-67420812D01*
X116102794Y-67434281D01*
X116094418Y-67438814D01*
X115916762Y-67577091D01*
X115764278Y-67742731D01*
X115641139Y-67931209D01*
X115550702Y-68137388D01*
X115496153Y-68352799D01*
X115495436Y-68355632D01*
X115476844Y-68580000D01*
X115495436Y-68804368D01*
X115495436Y-68804371D01*
X115495437Y-68804372D01*
X115550702Y-69022611D01*
X115641139Y-69228790D01*
X115764278Y-69417268D01*
X115916762Y-69582908D01*
X116094418Y-69721185D01*
X116094420Y-69721186D01*
X116094424Y-69721189D01*
X116127682Y-69739187D01*
X116178071Y-69789200D01*
X116193423Y-69858517D01*
X116168862Y-69925130D01*
X116127683Y-69960812D01*
X116102794Y-69974281D01*
X116094418Y-69978814D01*
X115916762Y-70117091D01*
X115764278Y-70282731D01*
X115641139Y-70471209D01*
X115550702Y-70677388D01*
X115495437Y-70895627D01*
X115495436Y-70895632D01*
X115476844Y-71120000D01*
X115495436Y-71344368D01*
X115495436Y-71344371D01*
X115495437Y-71344372D01*
X115550702Y-71562611D01*
X115641139Y-71768790D01*
X115764278Y-71957268D01*
X115916762Y-72122908D01*
X116094421Y-72261187D01*
X116094424Y-72261189D01*
X116292426Y-72368342D01*
X116505365Y-72441444D01*
X116727431Y-72478500D01*
X116727434Y-72478500D01*
X116952566Y-72478500D01*
X116952569Y-72478500D01*
X117174635Y-72441444D01*
X117387574Y-72368342D01*
X117585576Y-72261189D01*
X117763240Y-72122906D01*
X117915722Y-71957268D01*
X118038860Y-71768791D01*
X118129296Y-71562616D01*
X118184564Y-71344368D01*
X118203156Y-71120000D01*
X118184564Y-70895632D01*
X118129296Y-70677384D01*
X118038860Y-70471209D01*
X117915722Y-70282732D01*
X117763240Y-70117094D01*
X117763239Y-70117093D01*
X117763237Y-70117091D01*
X117585579Y-69978813D01*
X117585577Y-69978812D01*
X117585576Y-69978811D01*
X117552317Y-69960812D01*
X117501929Y-69910801D01*
X117486576Y-69841484D01*
X117511136Y-69774871D01*
X117552316Y-69739187D01*
X117585576Y-69721189D01*
X117763240Y-69582906D01*
X117915722Y-69417268D01*
X118038860Y-69228791D01*
X118129296Y-69022616D01*
X118184564Y-68804368D01*
X118203156Y-68580000D01*
X118184564Y-68355632D01*
X118129296Y-68137384D01*
X118038860Y-67931209D01*
X117915722Y-67742732D01*
X117763240Y-67577094D01*
X117763239Y-67577093D01*
X117763237Y-67577091D01*
X117585579Y-67438813D01*
X117585577Y-67438812D01*
X117585576Y-67438811D01*
X117552317Y-67420812D01*
X117501929Y-67370801D01*
X117486576Y-67301484D01*
X117511136Y-67234871D01*
X117552316Y-67199187D01*
X117585576Y-67181189D01*
X117763240Y-67042906D01*
X117915722Y-66877268D01*
X118038860Y-66688791D01*
X118129296Y-66482616D01*
X118184564Y-66264368D01*
X118203156Y-66040000D01*
X118184564Y-65815632D01*
X118129296Y-65597384D01*
X118038860Y-65391209D01*
X117915722Y-65202732D01*
X117763240Y-65037094D01*
X117763239Y-65037093D01*
X117763237Y-65037091D01*
X117585579Y-64898813D01*
X117585577Y-64898812D01*
X117585576Y-64898811D01*
X117552317Y-64880812D01*
X117501929Y-64830801D01*
X117486576Y-64761484D01*
X117511136Y-64694871D01*
X117552316Y-64659187D01*
X117585576Y-64641189D01*
X117763240Y-64502906D01*
X117915722Y-64337268D01*
X118038860Y-64148791D01*
X118129296Y-63942616D01*
X118184564Y-63724368D01*
X118203156Y-63500000D01*
X118184564Y-63275632D01*
X118129296Y-63057384D01*
X118038860Y-62851209D01*
X117915722Y-62662732D01*
X117763240Y-62497094D01*
X117763239Y-62497093D01*
X117763237Y-62497091D01*
X117585579Y-62358813D01*
X117585577Y-62358812D01*
X117585576Y-62358811D01*
X117552317Y-62340812D01*
X117501929Y-62290801D01*
X117486576Y-62221484D01*
X117511136Y-62154871D01*
X117552316Y-62119187D01*
X117585576Y-62101189D01*
X117763240Y-61962906D01*
X117915722Y-61797268D01*
X118038860Y-61608791D01*
X118129296Y-61402616D01*
X118184564Y-61184368D01*
X118203156Y-60960000D01*
X118184564Y-60735632D01*
X118129296Y-60517384D01*
X118038860Y-60311209D01*
X117915722Y-60122732D01*
X117763240Y-59957094D01*
X117763239Y-59957093D01*
X117763237Y-59957091D01*
X117585579Y-59818813D01*
X117585577Y-59818812D01*
X117585576Y-59818811D01*
X117552317Y-59800812D01*
X117501929Y-59750801D01*
X117486576Y-59681484D01*
X117511136Y-59614871D01*
X117552316Y-59579187D01*
X117585576Y-59561189D01*
X117763240Y-59422906D01*
X117915722Y-59257268D01*
X118038860Y-59068791D01*
X118129296Y-58862616D01*
X118184564Y-58644368D01*
X118203156Y-58420000D01*
X118184564Y-58195632D01*
X118129296Y-57977384D01*
X118038860Y-57771209D01*
X117915722Y-57582732D01*
X117763240Y-57417094D01*
X117763239Y-57417093D01*
X117763237Y-57417091D01*
X117585579Y-57278813D01*
X117585577Y-57278812D01*
X117585576Y-57278811D01*
X117552317Y-57260812D01*
X117501929Y-57210801D01*
X117486576Y-57141484D01*
X117511136Y-57074871D01*
X117552316Y-57039187D01*
X117585576Y-57021189D01*
X117763240Y-56882906D01*
X117915722Y-56717268D01*
X118038860Y-56528791D01*
X118129296Y-56322616D01*
X118184564Y-56104368D01*
X118203156Y-55880000D01*
X118184564Y-55655632D01*
X118129296Y-55437384D01*
X118038860Y-55231209D01*
X117915722Y-55042732D01*
X117763240Y-54877094D01*
X117763239Y-54877093D01*
X117763237Y-54877091D01*
X117585578Y-54738812D01*
X117552317Y-54720812D01*
X117501927Y-54670798D01*
X117486576Y-54601481D01*
X117511138Y-54534868D01*
X117552315Y-54499188D01*
X117585576Y-54481189D01*
X117763240Y-54342906D01*
X117915722Y-54177268D01*
X118038860Y-53988791D01*
X118129296Y-53782616D01*
X118184564Y-53564368D01*
X118203156Y-53340000D01*
X118184564Y-53115632D01*
X118129296Y-52897384D01*
X118038860Y-52691209D01*
X117915722Y-52502732D01*
X117763240Y-52337094D01*
X117763239Y-52337093D01*
X117763237Y-52337091D01*
X117585579Y-52198813D01*
X117585577Y-52198812D01*
X117585576Y-52198811D01*
X117552317Y-52180812D01*
X117501929Y-52130801D01*
X117486576Y-52061484D01*
X117511136Y-51994871D01*
X117552316Y-51959187D01*
X117585576Y-51941189D01*
X117763240Y-51802906D01*
X117915722Y-51637268D01*
X118038860Y-51448791D01*
X118129296Y-51242616D01*
X118184564Y-51024368D01*
X118203156Y-50800000D01*
X118184564Y-50575632D01*
X118129296Y-50357384D01*
X118038860Y-50151209D01*
X117915722Y-49962732D01*
X117763240Y-49797094D01*
X117763239Y-49797093D01*
X117763237Y-49797091D01*
X117585579Y-49658813D01*
X117585577Y-49658812D01*
X117585576Y-49658811D01*
X117552317Y-49640812D01*
X117501929Y-49590801D01*
X117486576Y-49521484D01*
X117511136Y-49454871D01*
X117552316Y-49419187D01*
X117585576Y-49401189D01*
X117763240Y-49262906D01*
X117915722Y-49097268D01*
X118038860Y-48908791D01*
X118129296Y-48702616D01*
X118184564Y-48484368D01*
X118203156Y-48260000D01*
X118184564Y-48035632D01*
X118129296Y-47817384D01*
X118038860Y-47611209D01*
X117915722Y-47422732D01*
X117763240Y-47257094D01*
X117763239Y-47257093D01*
X117763237Y-47257091D01*
X117585579Y-47118813D01*
X117585577Y-47118812D01*
X117585576Y-47118811D01*
X117552317Y-47100812D01*
X117501929Y-47050801D01*
X117486576Y-46981484D01*
X117511136Y-46914871D01*
X117552316Y-46879187D01*
X117585576Y-46861189D01*
X117763240Y-46722906D01*
X117915722Y-46557268D01*
X118038860Y-46368791D01*
X118129296Y-46162616D01*
X118184564Y-45944368D01*
X118203156Y-45720000D01*
X118184564Y-45495632D01*
X118129296Y-45277384D01*
X118038860Y-45071209D01*
X117915722Y-44882732D01*
X117763240Y-44717094D01*
X117763239Y-44717093D01*
X117763237Y-44717091D01*
X117585579Y-44578813D01*
X117585577Y-44578812D01*
X117585576Y-44578811D01*
X117552317Y-44560812D01*
X117501929Y-44510801D01*
X117486576Y-44441484D01*
X117511136Y-44374871D01*
X117552316Y-44339187D01*
X117585576Y-44321189D01*
X117763240Y-44182906D01*
X117915722Y-44017268D01*
X118038860Y-43828791D01*
X118129296Y-43622616D01*
X118184564Y-43404368D01*
X118203156Y-43180000D01*
X118184564Y-42955632D01*
X118129296Y-42737384D01*
X118038860Y-42531209D01*
X117915722Y-42342732D01*
X117763240Y-42177094D01*
X117763239Y-42177093D01*
X117763237Y-42177091D01*
X117585579Y-42038813D01*
X117585577Y-42038812D01*
X117585576Y-42038811D01*
X117552317Y-42020812D01*
X117501929Y-41970801D01*
X117486576Y-41901484D01*
X117511136Y-41834871D01*
X117552316Y-41799187D01*
X117585576Y-41781189D01*
X117763240Y-41642906D01*
X117915722Y-41477268D01*
X118038860Y-41288791D01*
X118129296Y-41082616D01*
X118184564Y-40864368D01*
X118203156Y-40640000D01*
X118184564Y-40415632D01*
X118129296Y-40197384D01*
X118038860Y-39991209D01*
X117915722Y-39802732D01*
X117763240Y-39637094D01*
X117763239Y-39637093D01*
X117763237Y-39637091D01*
X117585579Y-39498813D01*
X117585577Y-39498812D01*
X117585576Y-39498811D01*
X117552317Y-39480812D01*
X117501929Y-39430801D01*
X117486576Y-39361484D01*
X117511136Y-39294871D01*
X117552316Y-39259187D01*
X117585576Y-39241189D01*
X117763240Y-39102906D01*
X117915722Y-38937268D01*
X118038860Y-38748791D01*
X118129296Y-38542616D01*
X118184564Y-38324368D01*
X118203156Y-38100000D01*
X118184564Y-37875632D01*
X118129296Y-37657384D01*
X118038860Y-37451209D01*
X117915722Y-37262732D01*
X117763240Y-37097094D01*
X117763239Y-37097093D01*
X117763237Y-37097091D01*
X117585579Y-36958813D01*
X117585577Y-36958812D01*
X117585576Y-36958811D01*
X117552317Y-36940812D01*
X117501929Y-36890801D01*
X117486576Y-36821484D01*
X117511136Y-36754871D01*
X117552316Y-36719187D01*
X117585576Y-36701189D01*
X117763240Y-36562906D01*
X117915722Y-36397268D01*
X118038860Y-36208791D01*
X118129296Y-36002616D01*
X118184564Y-35784368D01*
X118203156Y-35560000D01*
X118184564Y-35335632D01*
X118129296Y-35117384D01*
X118038860Y-34911209D01*
X117915722Y-34722732D01*
X117763240Y-34557094D01*
X117763239Y-34557093D01*
X117763237Y-34557091D01*
X117585579Y-34418813D01*
X117585577Y-34418812D01*
X117585576Y-34418811D01*
X117552317Y-34400812D01*
X117501929Y-34350801D01*
X117486576Y-34281484D01*
X117511136Y-34214871D01*
X117552316Y-34179187D01*
X117585576Y-34161189D01*
X117763240Y-34022906D01*
X117915722Y-33857268D01*
X118038860Y-33668791D01*
X118129296Y-33462616D01*
X118184564Y-33244368D01*
X118203156Y-33020000D01*
X118184564Y-32795632D01*
X118129296Y-32577384D01*
X118038860Y-32371209D01*
X117915722Y-32182732D01*
X117763240Y-32017094D01*
X117763239Y-32017093D01*
X117763237Y-32017091D01*
X117585578Y-31878812D01*
X117552317Y-31860812D01*
X117501927Y-31810798D01*
X117486576Y-31741481D01*
X117511138Y-31674868D01*
X117552315Y-31639188D01*
X117585576Y-31621189D01*
X117763240Y-31482906D01*
X117915722Y-31317268D01*
X118038860Y-31128791D01*
X118129296Y-30922616D01*
X118184564Y-30704368D01*
X118203156Y-30480000D01*
X118184564Y-30255632D01*
X118129296Y-30037384D01*
X118038860Y-29831209D01*
X117915722Y-29642732D01*
X117763240Y-29477094D01*
X117763239Y-29477093D01*
X117763237Y-29477091D01*
X117585579Y-29338813D01*
X117585577Y-29338812D01*
X117585576Y-29338811D01*
X117552317Y-29320812D01*
X117501929Y-29270801D01*
X117486576Y-29201484D01*
X117511136Y-29134871D01*
X117552316Y-29099187D01*
X117585576Y-29081189D01*
X117763240Y-28942906D01*
X117915722Y-28777268D01*
X118038860Y-28588791D01*
X118129296Y-28382616D01*
X118184564Y-28164368D01*
X118203156Y-27940000D01*
X118184564Y-27715632D01*
X118129296Y-27497384D01*
X118038860Y-27291209D01*
X117915722Y-27102732D01*
X117772524Y-26947179D01*
X117741103Y-26883514D01*
X117749090Y-26812968D01*
X117793949Y-26757939D01*
X117821183Y-26743789D01*
X117936204Y-26700889D01*
X118053261Y-26613261D01*
X118140889Y-26496204D01*
X118191989Y-26359201D01*
X118198500Y-26298638D01*
X118198500Y-24501362D01*
X118191989Y-24440799D01*
X118140889Y-24303796D01*
X118140888Y-24303794D01*
X118053261Y-24186738D01*
X117936205Y-24099111D01*
X117867702Y-24073560D01*
X117799201Y-24048011D01*
X117738638Y-24041500D01*
X115941362Y-24041500D01*
X115938013Y-24041859D01*
X115938013Y-24041860D01*
X115880799Y-24048011D01*
X115743794Y-24099111D01*
X115626738Y-24186738D01*
X115539111Y-24303794D01*
X115488011Y-24440799D01*
X115481500Y-24501362D01*
X115481500Y-26298638D01*
X115481860Y-26301986D01*
X115488011Y-26359200D01*
X115539111Y-26496205D01*
X115626738Y-26613261D01*
X115743794Y-26700888D01*
X115743795Y-26700888D01*
X115743796Y-26700889D01*
X115858808Y-26743786D01*
X115915642Y-26786331D01*
X115940453Y-26852852D01*
X115925362Y-26922226D01*
X115907475Y-26947178D01*
X115764281Y-27102728D01*
X115641139Y-27291209D01*
X115550702Y-27497388D01*
X115495437Y-27715627D01*
X115495436Y-27715632D01*
X115476844Y-27940000D01*
X115495436Y-28164368D01*
X115495436Y-28164371D01*
X115495437Y-28164372D01*
X115550702Y-28382611D01*
X115550703Y-28382614D01*
X115550704Y-28382616D01*
X115568392Y-28422940D01*
X115641139Y-28588790D01*
X115764278Y-28777268D01*
X115916762Y-28942908D01*
X116094418Y-29081185D01*
X116094420Y-29081186D01*
X116094424Y-29081189D01*
X116127682Y-29099187D01*
X116178071Y-29149200D01*
X116193423Y-29218517D01*
X116168862Y-29285130D01*
X116127683Y-29320812D01*
X116102794Y-29334281D01*
X116094418Y-29338814D01*
X115916762Y-29477091D01*
X115764278Y-29642731D01*
X115641139Y-29831209D01*
X115550702Y-30037388D01*
X115512881Y-30186743D01*
X115495436Y-30255632D01*
X115476844Y-30480000D01*
X115495436Y-30704368D01*
X115495436Y-30704371D01*
X115495437Y-30704372D01*
X115550702Y-30922611D01*
X115641139Y-31128790D01*
X115764278Y-31317268D01*
X115916762Y-31482908D01*
X116018611Y-31562181D01*
X116094424Y-31621189D01*
X116127682Y-31639187D01*
X116178070Y-31689197D01*
X116193423Y-31758513D01*
X116168863Y-31825127D01*
X116127683Y-31860811D01*
X116094423Y-31878810D01*
X115916762Y-32017091D01*
X115764278Y-32182731D01*
X115641139Y-32371209D01*
X115550702Y-32577388D01*
X115495437Y-32795627D01*
X115495436Y-32795632D01*
X115476844Y-33020000D01*
X115495436Y-33244368D01*
X115495436Y-33244371D01*
X115495437Y-33244372D01*
X115550702Y-33462611D01*
X115641139Y-33668790D01*
X115764278Y-33857268D01*
X115916762Y-34022908D01*
X116094418Y-34161185D01*
X116094420Y-34161186D01*
X116094424Y-34161189D01*
X116127682Y-34179187D01*
X116178071Y-34229200D01*
X116193423Y-34298517D01*
X116168862Y-34365130D01*
X116127683Y-34400812D01*
X116102794Y-34414281D01*
X116094418Y-34418814D01*
X115916762Y-34557091D01*
X115764278Y-34722731D01*
X115641139Y-34911209D01*
X115550702Y-35117388D01*
X115506255Y-35292908D01*
X115495436Y-35335632D01*
X115476844Y-35560000D01*
X115495436Y-35784368D01*
X115495436Y-35784371D01*
X115495437Y-35784372D01*
X115550702Y-36002611D01*
X115641139Y-36208790D01*
X115704642Y-36305988D01*
X115764278Y-36397268D01*
X115826790Y-36465174D01*
X115916762Y-36562908D01*
X116094418Y-36701185D01*
X116094420Y-36701186D01*
X116094424Y-36701189D01*
X116127682Y-36719187D01*
X116178071Y-36769200D01*
X116193423Y-36838517D01*
X116168862Y-36905130D01*
X116127683Y-36940812D01*
X116106805Y-36952111D01*
X116094418Y-36958814D01*
X115916762Y-37097091D01*
X115764278Y-37262731D01*
X115641139Y-37451209D01*
X115550702Y-37657388D01*
X115512881Y-37806743D01*
X115495436Y-37875632D01*
X115476844Y-38100000D01*
X115495436Y-38324368D01*
X115495436Y-38324371D01*
X115495437Y-38324372D01*
X115550702Y-38542611D01*
X115641139Y-38748790D01*
X115648448Y-38759977D01*
X115764278Y-38937268D01*
X115903066Y-39088031D01*
X115916762Y-39102908D01*
X116094418Y-39241185D01*
X116094420Y-39241186D01*
X116094424Y-39241189D01*
X116127682Y-39259187D01*
X116178071Y-39309200D01*
X116193423Y-39378517D01*
X116168862Y-39445130D01*
X116127683Y-39480812D01*
X116102794Y-39494281D01*
X116094418Y-39498814D01*
X115916762Y-39637091D01*
X115764278Y-39802731D01*
X115641139Y-39991209D01*
X115550702Y-40197388D01*
X115512881Y-40346743D01*
X115495436Y-40415632D01*
X115476844Y-40640000D01*
X115495436Y-40864368D01*
X115495436Y-40864371D01*
X115495437Y-40864372D01*
X115550702Y-41082611D01*
X115641139Y-41288790D01*
X115729269Y-41423683D01*
X115764278Y-41477268D01*
X115818283Y-41535933D01*
X115916762Y-41642908D01*
X116094418Y-41781185D01*
X116094420Y-41781186D01*
X116094424Y-41781189D01*
X116127682Y-41799187D01*
X116178071Y-41849200D01*
X116193423Y-41918517D01*
X116168862Y-41985130D01*
X116127683Y-42020812D01*
X116102794Y-42034281D01*
X116094418Y-42038814D01*
X115916762Y-42177091D01*
X115764278Y-42342731D01*
X115641139Y-42531209D01*
X115550702Y-42737388D01*
X115499453Y-42939769D01*
X115495436Y-42955632D01*
X115476844Y-43180000D01*
X115495436Y-43404368D01*
X115495436Y-43404371D01*
X115495437Y-43404372D01*
X115550702Y-43622611D01*
X115641139Y-43828790D01*
X115663004Y-43862257D01*
X115764278Y-44017268D01*
X115841498Y-44101151D01*
X115916762Y-44182908D01*
X116094418Y-44321185D01*
X116094420Y-44321186D01*
X116094424Y-44321189D01*
X116127682Y-44339187D01*
X116178071Y-44389200D01*
X116193423Y-44458517D01*
X116168862Y-44525130D01*
X116127683Y-44560812D01*
X116102794Y-44574281D01*
X116094418Y-44578814D01*
X115916762Y-44717091D01*
X115764278Y-44882731D01*
X115641139Y-45071209D01*
X115550702Y-45277388D01*
X115522558Y-45388529D01*
X115495436Y-45495632D01*
X115476844Y-45720000D01*
X115495436Y-45944368D01*
X115495436Y-45944371D01*
X115495437Y-45944372D01*
X115550702Y-46162611D01*
X115641139Y-46368790D01*
X115749532Y-46534698D01*
X115764278Y-46557268D01*
X115909023Y-46714502D01*
X115916762Y-46722908D01*
X116094418Y-46861185D01*
X116094420Y-46861186D01*
X116094424Y-46861189D01*
X116127682Y-46879187D01*
X116178071Y-46929200D01*
X116193423Y-46998517D01*
X116168862Y-47065130D01*
X116127683Y-47100812D01*
X116102794Y-47114281D01*
X116094418Y-47118814D01*
X115916762Y-47257091D01*
X115764278Y-47422731D01*
X115641139Y-47611209D01*
X115550702Y-47817388D01*
X115495887Y-48033850D01*
X115495436Y-48035632D01*
X115476844Y-48260000D01*
X115495436Y-48484368D01*
X115495436Y-48484371D01*
X115495437Y-48484372D01*
X115550702Y-48702611D01*
X115641139Y-48908790D01*
X115719574Y-49028844D01*
X115764278Y-49097268D01*
X115874044Y-49216505D01*
X115916762Y-49262908D01*
X116094418Y-49401185D01*
X116094420Y-49401186D01*
X116094424Y-49401189D01*
X116127682Y-49419187D01*
X116178071Y-49469200D01*
X116193423Y-49538517D01*
X116168862Y-49605130D01*
X116127683Y-49640812D01*
X116102794Y-49654281D01*
X116094418Y-49658814D01*
X115916762Y-49797091D01*
X115764278Y-49962731D01*
X115641139Y-50151209D01*
X115550702Y-50357388D01*
X115512881Y-50506743D01*
X115495436Y-50575632D01*
X115476844Y-50800000D01*
X115495436Y-51024368D01*
X115495436Y-51024371D01*
X115495437Y-51024372D01*
X115550702Y-51242611D01*
X115641139Y-51448790D01*
X115641140Y-51448791D01*
X115764278Y-51637268D01*
X115841498Y-51721151D01*
X115916762Y-51802908D01*
X116094418Y-51941185D01*
X116094420Y-51941186D01*
X116094424Y-51941189D01*
X116127682Y-51959187D01*
X116178071Y-52009200D01*
X116193423Y-52078517D01*
X116168862Y-52145130D01*
X116127683Y-52180812D01*
X116102794Y-52194281D01*
X116094418Y-52198814D01*
X115916762Y-52337091D01*
X115764278Y-52502731D01*
X115641139Y-52691209D01*
X115550702Y-52897388D01*
X115495437Y-53115627D01*
X115495436Y-53115632D01*
X115476844Y-53340000D01*
X115495436Y-53564368D01*
X115495436Y-53564371D01*
X115495437Y-53564372D01*
X115550702Y-53782611D01*
X115641139Y-53988790D01*
X115760012Y-54170738D01*
X115764278Y-54177268D01*
X115912351Y-54338117D01*
X115916762Y-54342908D01*
X116094418Y-54481185D01*
X116094420Y-54481186D01*
X116094424Y-54481189D01*
X116127682Y-54499187D01*
X116178071Y-54549200D01*
X116193423Y-54618517D01*
X116168862Y-54685130D01*
X116127683Y-54720812D01*
X116102794Y-54734281D01*
X116094418Y-54738814D01*
X115916762Y-54877091D01*
X115764276Y-55042734D01*
X115750112Y-55064415D01*
X115696108Y-55110504D01*
X115644629Y-55121500D01*
X114158371Y-55121500D01*
X114090250Y-55101498D01*
X114069276Y-55084595D01*
X112555405Y-53570724D01*
X112521379Y-53508412D01*
X112518500Y-53481629D01*
X112518500Y-47105235D01*
X112519831Y-47086972D01*
X112519859Y-47086777D01*
X112523341Y-47063011D01*
X112518979Y-47013151D01*
X112518500Y-47002171D01*
X112518500Y-47000287D01*
X112518500Y-46996620D01*
X112514862Y-46965505D01*
X112514492Y-46961878D01*
X112513668Y-46952456D01*
X112507887Y-46886373D01*
X112507886Y-46886370D01*
X112507770Y-46885042D01*
X112503537Y-46865947D01*
X112503079Y-46864689D01*
X112503079Y-46864687D01*
X112477137Y-46793411D01*
X112475977Y-46790077D01*
X112452114Y-46718061D01*
X112452111Y-46718056D01*
X112451691Y-46716788D01*
X112443167Y-46699180D01*
X112400775Y-46634725D01*
X112398807Y-46631636D01*
X112358326Y-46566008D01*
X112345964Y-46550834D01*
X112289825Y-46497869D01*
X112287197Y-46495316D01*
X108797109Y-43005228D01*
X108785137Y-42991375D01*
X108770670Y-42971943D01*
X108732327Y-42939769D01*
X108724224Y-42932343D01*
X108722894Y-42931013D01*
X108720301Y-42928420D01*
X108717435Y-42926153D01*
X108717424Y-42926144D01*
X108695730Y-42908991D01*
X108692908Y-42906692D01*
X108634840Y-42857968D01*
X108634839Y-42857967D01*
X108633821Y-42857113D01*
X108617310Y-42846594D01*
X108547405Y-42813996D01*
X108544109Y-42812401D01*
X108475196Y-42777792D01*
X108456704Y-42771365D01*
X108381142Y-42755762D01*
X108377567Y-42754969D01*
X108302556Y-42737191D01*
X108283085Y-42735202D01*
X108205941Y-42737447D01*
X108202277Y-42737500D01*
X96389571Y-42737500D01*
X96321450Y-42717498D01*
X96300476Y-42700595D01*
X95662126Y-42062245D01*
X95631388Y-42012086D01*
X95576527Y-41843244D01*
X95481041Y-41677857D01*
X95353252Y-41535933D01*
X95276002Y-41479808D01*
X95198752Y-41423682D01*
X95024288Y-41346006D01*
X94837487Y-41306300D01*
X94646513Y-41306300D01*
X94521979Y-41332770D01*
X94459711Y-41346006D01*
X94285246Y-41423683D01*
X94130747Y-41535933D01*
X94002958Y-41677857D01*
X93907472Y-41843243D01*
X93848458Y-42024870D01*
X93828496Y-42214800D01*
X93848458Y-42404729D01*
X93907472Y-42586356D01*
X94002958Y-42751742D01*
X94006578Y-42755762D01*
X94130747Y-42893666D01*
X94285248Y-43005918D01*
X94459712Y-43083594D01*
X94522771Y-43096997D01*
X94585244Y-43130726D01*
X94585668Y-43131149D01*
X94676924Y-43222405D01*
X94710950Y-43284717D01*
X94705885Y-43355532D01*
X94663338Y-43412368D01*
X94596818Y-43437179D01*
X94587829Y-43437500D01*
X80641220Y-43437500D01*
X80573099Y-43417498D01*
X80526606Y-43363842D01*
X80516502Y-43293568D01*
X80538007Y-43239229D01*
X80639522Y-43094250D01*
X80639523Y-43094249D01*
X80736284Y-42886743D01*
X80795543Y-42665587D01*
X80815498Y-42437500D01*
X80795543Y-42209413D01*
X80746095Y-42024872D01*
X80736284Y-41988256D01*
X80639522Y-41780749D01*
X80508195Y-41593196D01*
X80346303Y-41431304D01*
X80158748Y-41299976D01*
X80119543Y-41281695D01*
X80066257Y-41234778D01*
X80046796Y-41166501D01*
X80067337Y-41098541D01*
X80119543Y-41053305D01*
X80124163Y-41051150D01*
X80158749Y-41035023D01*
X80346300Y-40903698D01*
X80508198Y-40741800D01*
X80639523Y-40554249D01*
X80736284Y-40346743D01*
X80795543Y-40125587D01*
X80815498Y-39897500D01*
X80795543Y-39669413D01*
X80743035Y-39473453D01*
X80736284Y-39448256D01*
X80642305Y-39246718D01*
X80639523Y-39240751D01*
X80628402Y-39224869D01*
X80522455Y-39073561D01*
X80508198Y-39053200D01*
X80508197Y-39053199D01*
X80508195Y-39053196D01*
X80346303Y-38891304D01*
X80158748Y-38759976D01*
X80119543Y-38741695D01*
X80066257Y-38694778D01*
X80046796Y-38626501D01*
X80067337Y-38558541D01*
X80119543Y-38513305D01*
X80124163Y-38511150D01*
X80158749Y-38495023D01*
X80346300Y-38363698D01*
X80508198Y-38201800D01*
X80639523Y-38014249D01*
X80736284Y-37806743D01*
X80795543Y-37585587D01*
X80815498Y-37357500D01*
X80795543Y-37129413D01*
X80736284Y-36908257D01*
X80728144Y-36890801D01*
X80639522Y-36700749D01*
X80508195Y-36513196D01*
X80346303Y-36351304D01*
X80158750Y-36219977D01*
X79951243Y-36123215D01*
X79730087Y-36063957D01*
X79502000Y-36044002D01*
X79501999Y-36044002D01*
X79273912Y-36063957D01*
X79052756Y-36123215D01*
X78845249Y-36219977D01*
X78657696Y-36351304D01*
X78495804Y-36513196D01*
X78364477Y-36700749D01*
X78267715Y-36908256D01*
X78208457Y-37129412D01*
X78188502Y-37357500D01*
X78202754Y-37520414D01*
X78188764Y-37590018D01*
X78166328Y-37620489D01*
X76725225Y-39061592D01*
X76711377Y-39073561D01*
X76691944Y-39088029D01*
X76691942Y-39088030D01*
X76691942Y-39088031D01*
X76659773Y-39126368D01*
X76652360Y-39134458D01*
X76651017Y-39135801D01*
X76651011Y-39135807D01*
X76648420Y-39138399D01*
X76646149Y-39141270D01*
X76646140Y-39141281D01*
X76628997Y-39162960D01*
X76626688Y-39165794D01*
X76577120Y-39224869D01*
X76564979Y-39243927D01*
X76561236Y-39248661D01*
X76542029Y-39276088D01*
X74957522Y-40860596D01*
X74895212Y-40894620D01*
X74868429Y-40897500D01*
X56135771Y-40897500D01*
X56067650Y-40877498D01*
X56021157Y-40823842D01*
X56011053Y-40753568D01*
X56040547Y-40688988D01*
X56046676Y-40682405D01*
X56926350Y-39802731D01*
X59672777Y-37056302D01*
X59686624Y-37044336D01*
X59706058Y-37029869D01*
X59738221Y-36991538D01*
X59745660Y-36983420D01*
X59749580Y-36979501D01*
X59769070Y-36954850D01*
X59771234Y-36952194D01*
X59820032Y-36894040D01*
X59820035Y-36894033D01*
X59820895Y-36893009D01*
X59831403Y-36876514D01*
X59831965Y-36875308D01*
X59831967Y-36875306D01*
X59864022Y-36806559D01*
X59865572Y-36803358D01*
X59899609Y-36735588D01*
X59899610Y-36735583D01*
X59900207Y-36734395D01*
X59906631Y-36715917D01*
X59906901Y-36714609D01*
X59906902Y-36714607D01*
X59922251Y-36640266D01*
X59923001Y-36636884D01*
X59940500Y-36563056D01*
X59940500Y-36563051D01*
X59940807Y-36561756D01*
X59942796Y-36542288D01*
X59942757Y-36540960D01*
X59942758Y-36540958D01*
X59940553Y-36465174D01*
X59940500Y-36461510D01*
X59940500Y-30869367D01*
X59960502Y-30801246D01*
X59994228Y-30766154D01*
X60026300Y-30743698D01*
X60188198Y-30581800D01*
X60319523Y-30394249D01*
X60337804Y-30355043D01*
X60384722Y-30301757D01*
X60452999Y-30282296D01*
X60520959Y-30302837D01*
X60566195Y-30355043D01*
X60584476Y-30394248D01*
X60715804Y-30581803D01*
X60877696Y-30743695D01*
X61065249Y-30875022D01*
X61272756Y-30971784D01*
X61332015Y-30987662D01*
X61493913Y-31031043D01*
X61722000Y-31050998D01*
X61950087Y-31031043D01*
X62171243Y-30971784D01*
X62378749Y-30875023D01*
X62566300Y-30743698D01*
X62728198Y-30581800D01*
X62859523Y-30394249D01*
X62877804Y-30355043D01*
X62924722Y-30301757D01*
X62992999Y-30282296D01*
X63060959Y-30302837D01*
X63106195Y-30355043D01*
X63124476Y-30394248D01*
X63255804Y-30581803D01*
X63417696Y-30743695D01*
X63605249Y-30875022D01*
X63812756Y-30971784D01*
X63872015Y-30987662D01*
X64033913Y-31031043D01*
X64262000Y-31050998D01*
X64490087Y-31031043D01*
X64711243Y-30971784D01*
X64918749Y-30875023D01*
X65106300Y-30743698D01*
X65268198Y-30581800D01*
X65399523Y-30394249D01*
X65417804Y-30355043D01*
X65464722Y-30301757D01*
X65532999Y-30282296D01*
X65600959Y-30302837D01*
X65646195Y-30355043D01*
X65664476Y-30394248D01*
X65795804Y-30581803D01*
X65957696Y-30743695D01*
X66145249Y-30875022D01*
X66352756Y-30971784D01*
X66412015Y-30987662D01*
X66573913Y-31031043D01*
X66802000Y-31050998D01*
X67030087Y-31031043D01*
X67251243Y-30971784D01*
X67458749Y-30875023D01*
X67646300Y-30743698D01*
X67808198Y-30581800D01*
X67939523Y-30394249D01*
X67957804Y-30355043D01*
X68004722Y-30301757D01*
X68072999Y-30282296D01*
X68140959Y-30302837D01*
X68186195Y-30355043D01*
X68204476Y-30394248D01*
X68335804Y-30581803D01*
X68497696Y-30743695D01*
X68685249Y-30875022D01*
X68892756Y-30971784D01*
X68952015Y-30987662D01*
X69113913Y-31031043D01*
X69342000Y-31050998D01*
X69570087Y-31031043D01*
X69791243Y-30971784D01*
X69998749Y-30875023D01*
X70186300Y-30743698D01*
X70348198Y-30581800D01*
X70479523Y-30394249D01*
X70497804Y-30355043D01*
X70544722Y-30301757D01*
X70612999Y-30282296D01*
X70680959Y-30302837D01*
X70726195Y-30355043D01*
X70744476Y-30394248D01*
X70875804Y-30581803D01*
X71037696Y-30743695D01*
X71225249Y-30875022D01*
X71432756Y-30971784D01*
X71492015Y-30987662D01*
X71653913Y-31031043D01*
X71882000Y-31050998D01*
X72044914Y-31036744D01*
X72114517Y-31050733D01*
X72144989Y-31073170D01*
X75090592Y-34018773D01*
X75102560Y-34032620D01*
X75117031Y-34052058D01*
X75155370Y-34084228D01*
X75163474Y-34091655D01*
X75167400Y-34095581D01*
X75170280Y-34097858D01*
X75191955Y-34114997D01*
X75194796Y-34117311D01*
X75226572Y-34143974D01*
X75247088Y-34161189D01*
X75253877Y-34166885D01*
X75270390Y-34177405D01*
X75340286Y-34209998D01*
X75343578Y-34211591D01*
X75411312Y-34245609D01*
X75411314Y-34245609D01*
X75412508Y-34246209D01*
X75430990Y-34252633D01*
X75432291Y-34252901D01*
X75432294Y-34252903D01*
X75506577Y-34268241D01*
X75510078Y-34269017D01*
X75583844Y-34286500D01*
X75583847Y-34286500D01*
X75585147Y-34286808D01*
X75604615Y-34288797D01*
X75605940Y-34288758D01*
X75605943Y-34288759D01*
X75679978Y-34286604D01*
X75681760Y-34286553D01*
X75685424Y-34286500D01*
X84876029Y-34286500D01*
X84944150Y-34306502D01*
X84965124Y-34323405D01*
X86885395Y-36243676D01*
X86919421Y-36305988D01*
X86922300Y-36332771D01*
X86922300Y-37918599D01*
X86905419Y-37981599D01*
X86846272Y-38084043D01*
X86787258Y-38265670D01*
X86767296Y-38455600D01*
X86787258Y-38645529D01*
X86846272Y-38827156D01*
X86941758Y-38992542D01*
X86941760Y-38992544D01*
X87069547Y-39134466D01*
X87224048Y-39246718D01*
X87398512Y-39324394D01*
X87585313Y-39364100D01*
X87585315Y-39364100D01*
X87776285Y-39364100D01*
X87776287Y-39364100D01*
X87963088Y-39324394D01*
X88137552Y-39246718D01*
X88292053Y-39134466D01*
X88419840Y-38992544D01*
X88515327Y-38827156D01*
X88574342Y-38645528D01*
X88594304Y-38455600D01*
X88574342Y-38265672D01*
X88543731Y-38171462D01*
X88515327Y-38084043D01*
X88456181Y-37981599D01*
X88439300Y-37918599D01*
X88439300Y-36030835D01*
X88440631Y-36012572D01*
X88442090Y-36002611D01*
X88444141Y-35988611D01*
X88439779Y-35938751D01*
X88439300Y-35927771D01*
X88439300Y-35925887D01*
X88439300Y-35922220D01*
X88435662Y-35891105D01*
X88435292Y-35887478D01*
X88428687Y-35811973D01*
X88428686Y-35811970D01*
X88428570Y-35810642D01*
X88424337Y-35791547D01*
X88423879Y-35790289D01*
X88423879Y-35790287D01*
X88397937Y-35719011D01*
X88396777Y-35715677D01*
X88372914Y-35643661D01*
X88372911Y-35643656D01*
X88372491Y-35642388D01*
X88363967Y-35624780D01*
X88321575Y-35560325D01*
X88319607Y-35557236D01*
X88279128Y-35491611D01*
X88266764Y-35476434D01*
X88210625Y-35423469D01*
X88207997Y-35420916D01*
X88050676Y-35263595D01*
X88016650Y-35201283D01*
X88021715Y-35130468D01*
X88064262Y-35073632D01*
X88130782Y-35048821D01*
X88139771Y-35048500D01*
X92622500Y-35048500D01*
X92690621Y-35068502D01*
X92737114Y-35122158D01*
X92748499Y-35174499D01*
X92748500Y-35188638D01*
X92755011Y-35249201D01*
X92771312Y-35292906D01*
X92806111Y-35386205D01*
X92893738Y-35503261D01*
X93010794Y-35590888D01*
X93010795Y-35590888D01*
X93010796Y-35590889D01*
X93147799Y-35641989D01*
X93208362Y-35648500D01*
X93211731Y-35648500D01*
X95002269Y-35648500D01*
X95005638Y-35648500D01*
X95066201Y-35641989D01*
X95203204Y-35590889D01*
X95320261Y-35503261D01*
X95407889Y-35386204D01*
X95451999Y-35267941D01*
X95494545Y-35211107D01*
X95561065Y-35186296D01*
X95630439Y-35201387D01*
X95662753Y-35226635D01*
X95696777Y-35263595D01*
X95723762Y-35292908D01*
X95843629Y-35386205D01*
X95901424Y-35431189D01*
X96099426Y-35538342D01*
X96312365Y-35611444D01*
X96534431Y-35648500D01*
X96534434Y-35648500D01*
X96759566Y-35648500D01*
X96759569Y-35648500D01*
X96981635Y-35611444D01*
X97194574Y-35538342D01*
X97392576Y-35431189D01*
X97570240Y-35292906D01*
X97722722Y-35127268D01*
X97811518Y-34991354D01*
X97865521Y-34945268D01*
X97935869Y-34935693D01*
X98000226Y-34965670D01*
X98022480Y-34991353D01*
X98111278Y-35127268D01*
X98223525Y-35249200D01*
X98263762Y-35292908D01*
X98383629Y-35386205D01*
X98441424Y-35431189D01*
X98639426Y-35538342D01*
X98852365Y-35611444D01*
X99074431Y-35648500D01*
X99074434Y-35648500D01*
X99299566Y-35648500D01*
X99299569Y-35648500D01*
X99521635Y-35611444D01*
X99734574Y-35538342D01*
X99932576Y-35431189D01*
X100110240Y-35292906D01*
X100262722Y-35127268D01*
X100351518Y-34991354D01*
X100405521Y-34945268D01*
X100475869Y-34935693D01*
X100540226Y-34965670D01*
X100562480Y-34991353D01*
X100651278Y-35127268D01*
X100763525Y-35249200D01*
X100803762Y-35292908D01*
X100923629Y-35386205D01*
X100981424Y-35431189D01*
X101179426Y-35538342D01*
X101392365Y-35611444D01*
X101614431Y-35648500D01*
X101614434Y-35648500D01*
X101839566Y-35648500D01*
X101839569Y-35648500D01*
X102061635Y-35611444D01*
X102274574Y-35538342D01*
X102472576Y-35431189D01*
X102650240Y-35292906D01*
X102802722Y-35127268D01*
X102891518Y-34991354D01*
X102945521Y-34945268D01*
X103015869Y-34935693D01*
X103080226Y-34965670D01*
X103102480Y-34991353D01*
X103191278Y-35127268D01*
X103303525Y-35249200D01*
X103343762Y-35292908D01*
X103463629Y-35386205D01*
X103521424Y-35431189D01*
X103719426Y-35538342D01*
X103932365Y-35611444D01*
X104154431Y-35648500D01*
X104154434Y-35648500D01*
X104379566Y-35648500D01*
X104379569Y-35648500D01*
X104601635Y-35611444D01*
X104814574Y-35538342D01*
X105012576Y-35431189D01*
X105190240Y-35292906D01*
X105342722Y-35127268D01*
X105465860Y-34938791D01*
X105556296Y-34732616D01*
X105611564Y-34514368D01*
X105630156Y-34290000D01*
X105611564Y-34065632D01*
X105556296Y-33847384D01*
X105465860Y-33641209D01*
X105342722Y-33452732D01*
X105190240Y-33287094D01*
X105190239Y-33287093D01*
X105190237Y-33287091D01*
X105012578Y-33148812D01*
X104814573Y-33041657D01*
X104661510Y-32989111D01*
X104601635Y-32968556D01*
X104379569Y-32931500D01*
X104154431Y-32931500D01*
X103932365Y-32968556D01*
X103932362Y-32968556D01*
X103932362Y-32968557D01*
X103719426Y-33041657D01*
X103521421Y-33148812D01*
X103343762Y-33287091D01*
X103191278Y-33452731D01*
X103102483Y-33588643D01*
X103048479Y-33634731D01*
X102978131Y-33644306D01*
X102913774Y-33614328D01*
X102891517Y-33588643D01*
X102816369Y-33473621D01*
X102802722Y-33452732D01*
X102650240Y-33287094D01*
X102650239Y-33287093D01*
X102650237Y-33287091D01*
X102472578Y-33148812D01*
X102274573Y-33041657D01*
X102121510Y-32989111D01*
X102061635Y-32968556D01*
X101839569Y-32931500D01*
X101614431Y-32931500D01*
X101392365Y-32968556D01*
X101392362Y-32968556D01*
X101392362Y-32968557D01*
X101179426Y-33041657D01*
X100981421Y-33148812D01*
X100803762Y-33287091D01*
X100651278Y-33452731D01*
X100562483Y-33588643D01*
X100508479Y-33634731D01*
X100438131Y-33644306D01*
X100373774Y-33614328D01*
X100351517Y-33588643D01*
X100276369Y-33473621D01*
X100262722Y-33452732D01*
X100110240Y-33287094D01*
X100110239Y-33287093D01*
X100110237Y-33287091D01*
X99932578Y-33148812D01*
X99734573Y-33041657D01*
X99581510Y-32989111D01*
X99521635Y-32968556D01*
X99299569Y-32931500D01*
X99074431Y-32931500D01*
X98852365Y-32968556D01*
X98852362Y-32968556D01*
X98852362Y-32968557D01*
X98639426Y-33041657D01*
X98441421Y-33148812D01*
X98263762Y-33287091D01*
X98111278Y-33452731D01*
X98022483Y-33588643D01*
X97968479Y-33634731D01*
X97898131Y-33644306D01*
X97833774Y-33614328D01*
X97811517Y-33588643D01*
X97736369Y-33473621D01*
X97722722Y-33452732D01*
X97570240Y-33287094D01*
X97570239Y-33287093D01*
X97570237Y-33287091D01*
X97392578Y-33148812D01*
X97194573Y-33041657D01*
X97041510Y-32989111D01*
X96981635Y-32968556D01*
X96759569Y-32931500D01*
X96534431Y-32931500D01*
X96312365Y-32968556D01*
X96312362Y-32968556D01*
X96312362Y-32968557D01*
X96099426Y-33041657D01*
X95901421Y-33148812D01*
X95723758Y-33287094D01*
X95662754Y-33353362D01*
X95601901Y-33389933D01*
X95530937Y-33387798D01*
X95472392Y-33347636D01*
X95451998Y-33312056D01*
X95442688Y-33287094D01*
X95407889Y-33193796D01*
X95407888Y-33193794D01*
X95320261Y-33076738D01*
X95203205Y-32989111D01*
X95134702Y-32963561D01*
X95066201Y-32938011D01*
X95005638Y-32931500D01*
X93208362Y-32931500D01*
X93205013Y-32931859D01*
X93205013Y-32931860D01*
X93147799Y-32938011D01*
X93010794Y-32989111D01*
X92893738Y-33076738D01*
X92806111Y-33193794D01*
X92771313Y-33287091D01*
X92755011Y-33330799D01*
X92748500Y-33391362D01*
X92748500Y-33394730D01*
X92748500Y-33405500D01*
X92728498Y-33473621D01*
X92674842Y-33520114D01*
X92622500Y-33531500D01*
X87361371Y-33531500D01*
X87293250Y-33511498D01*
X87272276Y-33494595D01*
X86114909Y-32337228D01*
X86102937Y-32323375D01*
X86088470Y-32303943D01*
X86050127Y-32271769D01*
X86042024Y-32264343D01*
X86040694Y-32263013D01*
X86038101Y-32260420D01*
X86035235Y-32258153D01*
X86035224Y-32258144D01*
X86013530Y-32240991D01*
X86010708Y-32238692D01*
X85952640Y-32189968D01*
X85952639Y-32189967D01*
X85951621Y-32189113D01*
X85935110Y-32178594D01*
X85865205Y-32145996D01*
X85861909Y-32144401D01*
X85792996Y-32109792D01*
X85774504Y-32103365D01*
X85698942Y-32087762D01*
X85695367Y-32086969D01*
X85620356Y-32069191D01*
X85600885Y-32067202D01*
X85523741Y-32069447D01*
X85520077Y-32069500D01*
X77878871Y-32069500D01*
X77810750Y-32049498D01*
X77789776Y-32032595D01*
X77011619Y-31254438D01*
X76977593Y-31192126D01*
X76982658Y-31121311D01*
X77025205Y-31064475D01*
X77089730Y-31039823D01*
X77190087Y-31031043D01*
X77411243Y-30971784D01*
X77618749Y-30875023D01*
X77806300Y-30743698D01*
X77968198Y-30581800D01*
X78099523Y-30394249D01*
X78196284Y-30186743D01*
X78255543Y-29965587D01*
X78275498Y-29737500D01*
X78255543Y-29509413D01*
X78196284Y-29288257D01*
X78194824Y-29285127D01*
X78099522Y-29080749D01*
X77968195Y-28893196D01*
X77806303Y-28731304D01*
X77618750Y-28599977D01*
X77411243Y-28503215D01*
X77190087Y-28443957D01*
X76962000Y-28424002D01*
X76733912Y-28443957D01*
X76512756Y-28503215D01*
X76305249Y-28599977D01*
X76117696Y-28731304D01*
X75955804Y-28893196D01*
X75824477Y-29080750D01*
X75806195Y-29119957D01*
X75759278Y-29173242D01*
X75691000Y-29192703D01*
X75623040Y-29172161D01*
X75577805Y-29119957D01*
X75559727Y-29081189D01*
X75559523Y-29080751D01*
X75428198Y-28893200D01*
X75428197Y-28893199D01*
X75428195Y-28893196D01*
X75266303Y-28731304D01*
X75078750Y-28599977D01*
X74871243Y-28503215D01*
X74650087Y-28443957D01*
X74422000Y-28424002D01*
X74193912Y-28443957D01*
X73972756Y-28503215D01*
X73765249Y-28599977D01*
X73577696Y-28731304D01*
X73415804Y-28893196D01*
X73284477Y-29080750D01*
X73266195Y-29119957D01*
X73219278Y-29173242D01*
X73151000Y-29192703D01*
X73083040Y-29172161D01*
X73037805Y-29119957D01*
X73019727Y-29081189D01*
X73019523Y-29080751D01*
X72888198Y-28893200D01*
X72888197Y-28893199D01*
X72888195Y-28893196D01*
X72726303Y-28731304D01*
X72538750Y-28599977D01*
X72331243Y-28503215D01*
X72110087Y-28443957D01*
X71882000Y-28424002D01*
X71653912Y-28443957D01*
X71432756Y-28503215D01*
X71225249Y-28599977D01*
X71037696Y-28731304D01*
X70875804Y-28893196D01*
X70744477Y-29080750D01*
X70726195Y-29119957D01*
X70679278Y-29173242D01*
X70611000Y-29192703D01*
X70543040Y-29172161D01*
X70497805Y-29119957D01*
X70479727Y-29081189D01*
X70479523Y-29080751D01*
X70348198Y-28893200D01*
X70348197Y-28893199D01*
X70348195Y-28893196D01*
X70186303Y-28731304D01*
X69998748Y-28599976D01*
X69976353Y-28589533D01*
X69923069Y-28542615D01*
X69910000Y-28514972D01*
X69907114Y-28506262D01*
X69907112Y-28506259D01*
X69906691Y-28504988D01*
X69898170Y-28487386D01*
X69897435Y-28486268D01*
X69855756Y-28422900D01*
X69853812Y-28419846D01*
X69813330Y-28354213D01*
X69800964Y-28339034D01*
X69744825Y-28286069D01*
X69742197Y-28283516D01*
X69034909Y-27576228D01*
X69022937Y-27562375D01*
X69008470Y-27542943D01*
X69001573Y-27537156D01*
X68970127Y-27510769D01*
X68962024Y-27503343D01*
X68960694Y-27502013D01*
X68958101Y-27499420D01*
X68955235Y-27497153D01*
X68955224Y-27497144D01*
X68933530Y-27479991D01*
X68930708Y-27477692D01*
X68872640Y-27428968D01*
X68872639Y-27428967D01*
X68871621Y-27428113D01*
X68855110Y-27417594D01*
X68785205Y-27384996D01*
X68781909Y-27383401D01*
X68776622Y-27380746D01*
X68764954Y-27374886D01*
X68712996Y-27348792D01*
X68694504Y-27342365D01*
X68618942Y-27326762D01*
X68615367Y-27325969D01*
X68540356Y-27308191D01*
X68520885Y-27306202D01*
X68443741Y-27308447D01*
X68440077Y-27308500D01*
X42482441Y-27308500D01*
X42464180Y-27307170D01*
X42440211Y-27303659D01*
X42390353Y-27308021D01*
X42379372Y-27308500D01*
X42373820Y-27308500D01*
X42370185Y-27308924D01*
X42370165Y-27308926D01*
X42342709Y-27312135D01*
X42339068Y-27312507D01*
X42262251Y-27319228D01*
X42243139Y-27323465D01*
X42170653Y-27349846D01*
X42167198Y-27351047D01*
X42093995Y-27375305D01*
X42076372Y-27383837D01*
X42011932Y-27426220D01*
X42008843Y-27428188D01*
X41943221Y-27468665D01*
X41928036Y-27481034D01*
X41875087Y-27537156D01*
X41872534Y-27539783D01*
X26853225Y-42559092D01*
X26839377Y-42571061D01*
X26808134Y-42594323D01*
X26807439Y-42593390D01*
X26761696Y-42623819D01*
X26690708Y-42624939D01*
X26630384Y-42587503D01*
X26608907Y-42554112D01*
X26598862Y-42531212D01*
X26537636Y-42437499D01*
X26475722Y-42342732D01*
X26323240Y-42177094D01*
X26323239Y-42177093D01*
X26323237Y-42177091D01*
X26145579Y-42038813D01*
X26145577Y-42038812D01*
X26145576Y-42038811D01*
X26112317Y-42020812D01*
X26061929Y-41970801D01*
X26046576Y-41901484D01*
X26071136Y-41834871D01*
X26112316Y-41799187D01*
X26145576Y-41781189D01*
X26323240Y-41642906D01*
X26475722Y-41477268D01*
X26598860Y-41288791D01*
X26689296Y-41082616D01*
X26744564Y-40864368D01*
X26763156Y-40640000D01*
X26744564Y-40415632D01*
X26689296Y-40197384D01*
X26598860Y-39991209D01*
X26475722Y-39802732D01*
X26323240Y-39637094D01*
X26323239Y-39637093D01*
X26323237Y-39637091D01*
X26145579Y-39498813D01*
X26145577Y-39498812D01*
X26145576Y-39498811D01*
X26112317Y-39480812D01*
X26061929Y-39430801D01*
X26046576Y-39361484D01*
X26071136Y-39294871D01*
X26112316Y-39259187D01*
X26145576Y-39241189D01*
X26323240Y-39102906D01*
X26475722Y-38937268D01*
X26598860Y-38748791D01*
X26689296Y-38542616D01*
X26744564Y-38324368D01*
X26763156Y-38100000D01*
X26744564Y-37875632D01*
X26689296Y-37657384D01*
X26598860Y-37451209D01*
X26475722Y-37262732D01*
X26323240Y-37097094D01*
X26323239Y-37097093D01*
X26323237Y-37097091D01*
X26145579Y-36958813D01*
X26145577Y-36958812D01*
X26145576Y-36958811D01*
X26112317Y-36940812D01*
X26061929Y-36890801D01*
X26046576Y-36821484D01*
X26071136Y-36754871D01*
X26112316Y-36719187D01*
X26145576Y-36701189D01*
X26323240Y-36562906D01*
X26475722Y-36397268D01*
X26598860Y-36208791D01*
X26689296Y-36002616D01*
X26744564Y-35784368D01*
X26763156Y-35560000D01*
X26744564Y-35335632D01*
X26689296Y-35117384D01*
X26598860Y-34911209D01*
X26475722Y-34722732D01*
X26323240Y-34557094D01*
X26323239Y-34557093D01*
X26323237Y-34557091D01*
X26145579Y-34418813D01*
X26145577Y-34418812D01*
X26145576Y-34418811D01*
X26112317Y-34400812D01*
X26061929Y-34350801D01*
X26046576Y-34281484D01*
X26071136Y-34214871D01*
X26112316Y-34179187D01*
X26145576Y-34161189D01*
X26323240Y-34022906D01*
X26475722Y-33857268D01*
X26598860Y-33668791D01*
X26689296Y-33462616D01*
X26744564Y-33244368D01*
X26763156Y-33020000D01*
X26744564Y-32795632D01*
X26689296Y-32577384D01*
X26598860Y-32371209D01*
X26475722Y-32182732D01*
X26323240Y-32017094D01*
X26323239Y-32017093D01*
X26323237Y-32017091D01*
X26145578Y-31878812D01*
X26112317Y-31860812D01*
X26061927Y-31810798D01*
X26046576Y-31741481D01*
X26071138Y-31674868D01*
X26112315Y-31639188D01*
X26145576Y-31621189D01*
X26323240Y-31482906D01*
X26475722Y-31317268D01*
X26598860Y-31128791D01*
X26689296Y-30922616D01*
X26744564Y-30704368D01*
X26763156Y-30480000D01*
X26744564Y-30255632D01*
X26689296Y-30037384D01*
X26598860Y-29831209D01*
X26475722Y-29642732D01*
X26323240Y-29477094D01*
X26323239Y-29477093D01*
X26323237Y-29477091D01*
X26145579Y-29338813D01*
X26145577Y-29338812D01*
X26145576Y-29338811D01*
X26112317Y-29320812D01*
X26061929Y-29270801D01*
X26046576Y-29201484D01*
X26071136Y-29134871D01*
X26112316Y-29099187D01*
X26145576Y-29081189D01*
X26323240Y-28942906D01*
X26475722Y-28777268D01*
X26598860Y-28588791D01*
X26689296Y-28382616D01*
X26744564Y-28164368D01*
X26763156Y-27940000D01*
X26744564Y-27715632D01*
X26689296Y-27497384D01*
X26598860Y-27291209D01*
X26475722Y-27102732D01*
X26332524Y-26947179D01*
X26301103Y-26883514D01*
X26309090Y-26812968D01*
X26353949Y-26757939D01*
X26381183Y-26743789D01*
X26496204Y-26700889D01*
X26613261Y-26613261D01*
X26700889Y-26496204D01*
X26751989Y-26359201D01*
X26758500Y-26298638D01*
X26758500Y-24501362D01*
X26751989Y-24440799D01*
X26700889Y-24303796D01*
X26700888Y-24303794D01*
X26613261Y-24186738D01*
X26496205Y-24099111D01*
X26427702Y-24073560D01*
X26359201Y-24048011D01*
X26298638Y-24041500D01*
X24501362Y-24041500D01*
X24498013Y-24041859D01*
X24498013Y-24041860D01*
X24440799Y-24048011D01*
X24303794Y-24099111D01*
X24186738Y-24186738D01*
X24099111Y-24303794D01*
X24048011Y-24440798D01*
X24048011Y-24440799D01*
X24041500Y-24501362D01*
X24041500Y-26298638D01*
X24041860Y-26301986D01*
X24048011Y-26359200D01*
X24099111Y-26496205D01*
X24186738Y-26613261D01*
X24303794Y-26700888D01*
X24303795Y-26700888D01*
X24303796Y-26700889D01*
X24418808Y-26743786D01*
X24475642Y-26786331D01*
X24500453Y-26852852D01*
X24485362Y-26922226D01*
X24467475Y-26947178D01*
X24324281Y-27102728D01*
X24201139Y-27291209D01*
X24110702Y-27497388D01*
X24055437Y-27715627D01*
X24055436Y-27715632D01*
X24036844Y-27940000D01*
X24055436Y-28164368D01*
X24055436Y-28164371D01*
X24055437Y-28164372D01*
X24110702Y-28382611D01*
X24110703Y-28382614D01*
X24110704Y-28382616D01*
X24128392Y-28422940D01*
X24201139Y-28588790D01*
X24324278Y-28777268D01*
X24476762Y-28942908D01*
X24510592Y-28969239D01*
X24654424Y-29081189D01*
X24687682Y-29099187D01*
X24738070Y-29149197D01*
X24753423Y-29218513D01*
X24728863Y-29285127D01*
X24687683Y-29320811D01*
X24654423Y-29338810D01*
X24476762Y-29477091D01*
X24324278Y-29642731D01*
X24201139Y-29831209D01*
X24110702Y-30037388D01*
X24072881Y-30186743D01*
X24055436Y-30255632D01*
X24036844Y-30480000D01*
X24055436Y-30704368D01*
X24055436Y-30704371D01*
X24055437Y-30704372D01*
X24110702Y-30922611D01*
X24201139Y-31128790D01*
X24324278Y-31317268D01*
X24476762Y-31482908D01*
X24578611Y-31562181D01*
X24654424Y-31621189D01*
X24687682Y-31639187D01*
X24738070Y-31689197D01*
X24753423Y-31758513D01*
X24728863Y-31825127D01*
X24687683Y-31860811D01*
X24654423Y-31878810D01*
X24476762Y-32017091D01*
X24324278Y-32182731D01*
X24201139Y-32371209D01*
X24110702Y-32577388D01*
X24055437Y-32795627D01*
X24055436Y-32795632D01*
X24036844Y-33020000D01*
X24055436Y-33244368D01*
X24055436Y-33244371D01*
X24055437Y-33244372D01*
X24110702Y-33462611D01*
X24201139Y-33668790D01*
X24324278Y-33857268D01*
X24476762Y-34022908D01*
X24654418Y-34161185D01*
X24654420Y-34161186D01*
X24654424Y-34161189D01*
X24687682Y-34179187D01*
X24738071Y-34229200D01*
X24753423Y-34298517D01*
X24728862Y-34365130D01*
X24687683Y-34400812D01*
X24662794Y-34414281D01*
X24654418Y-34418814D01*
X24476762Y-34557091D01*
X24324278Y-34722731D01*
X24201139Y-34911209D01*
X24110702Y-35117388D01*
X24066255Y-35292908D01*
X24055436Y-35335632D01*
X24036844Y-35560000D01*
X24055436Y-35784368D01*
X24055436Y-35784371D01*
X24055437Y-35784372D01*
X24110702Y-36002611D01*
X24201139Y-36208790D01*
X24264642Y-36305988D01*
X24324278Y-36397268D01*
X24386790Y-36465174D01*
X24476762Y-36562908D01*
X24654418Y-36701185D01*
X24654420Y-36701186D01*
X24654424Y-36701189D01*
X24687682Y-36719187D01*
X24738071Y-36769200D01*
X24753423Y-36838517D01*
X24728862Y-36905130D01*
X24687683Y-36940812D01*
X24666805Y-36952111D01*
X24654418Y-36958814D01*
X24476762Y-37097091D01*
X24324278Y-37262731D01*
X24201139Y-37451209D01*
X24110702Y-37657388D01*
X24072881Y-37806743D01*
X24055436Y-37875632D01*
X24036844Y-38100000D01*
X24055436Y-38324368D01*
X24055436Y-38324371D01*
X24055437Y-38324372D01*
X24110702Y-38542611D01*
X24201139Y-38748790D01*
X24208448Y-38759977D01*
X24324278Y-38937268D01*
X24463066Y-39088031D01*
X24476762Y-39102908D01*
X24654418Y-39241185D01*
X24654420Y-39241186D01*
X24654424Y-39241189D01*
X24687682Y-39259187D01*
X24738071Y-39309200D01*
X24753423Y-39378517D01*
X24728862Y-39445130D01*
X24687683Y-39480812D01*
X24662794Y-39494281D01*
X24654418Y-39498814D01*
X24476762Y-39637091D01*
X24324278Y-39802731D01*
X24201139Y-39991209D01*
X24110702Y-40197388D01*
X24072881Y-40346743D01*
X24055436Y-40415632D01*
X24036844Y-40640000D01*
X24055436Y-40864368D01*
X24055436Y-40864371D01*
X24055437Y-40864372D01*
X24110702Y-41082611D01*
X24201139Y-41288790D01*
X24289269Y-41423683D01*
X24324278Y-41477268D01*
X24378283Y-41535933D01*
X24476762Y-41642908D01*
X24523133Y-41679000D01*
X24654424Y-41781189D01*
X24687682Y-41799187D01*
X24738070Y-41849197D01*
X24753423Y-41918513D01*
X24728863Y-41985127D01*
X24687683Y-42020811D01*
X24654423Y-42038810D01*
X24476762Y-42177091D01*
X24324278Y-42342731D01*
X24201139Y-42531209D01*
X24110702Y-42737388D01*
X24059453Y-42939769D01*
X24055436Y-42955632D01*
X24036844Y-43180000D01*
X24055436Y-43404368D01*
X24055436Y-43404371D01*
X24055437Y-43404372D01*
X24110702Y-43622611D01*
X24201139Y-43828790D01*
X24223004Y-43862257D01*
X24324278Y-44017268D01*
X24401498Y-44101151D01*
X24476762Y-44182908D01*
X24654418Y-44321185D01*
X24654420Y-44321186D01*
X24654424Y-44321189D01*
X24687682Y-44339187D01*
X24738071Y-44389200D01*
X24753423Y-44458517D01*
X24728862Y-44525130D01*
X24687683Y-44560812D01*
X24662794Y-44574281D01*
X24654418Y-44578814D01*
X24476762Y-44717091D01*
X24324278Y-44882731D01*
X24201139Y-45071209D01*
X24110702Y-45277388D01*
X24082558Y-45388529D01*
X24055436Y-45495632D01*
X24036844Y-45720000D01*
X24055436Y-45944368D01*
X24055436Y-45944371D01*
X24055437Y-45944372D01*
X24110702Y-46162611D01*
X24201139Y-46368790D01*
X24309532Y-46534698D01*
X24324278Y-46557268D01*
X24469023Y-46714502D01*
X24476762Y-46722908D01*
X24654418Y-46861185D01*
X24654420Y-46861186D01*
X24654424Y-46861189D01*
X24687682Y-46879187D01*
X24738071Y-46929200D01*
X24753423Y-46998517D01*
X24728862Y-47065130D01*
X24687683Y-47100812D01*
X24662794Y-47114281D01*
X24654418Y-47118814D01*
X24476762Y-47257091D01*
X24324278Y-47422731D01*
X24201139Y-47611209D01*
X24110702Y-47817388D01*
X24055887Y-48033850D01*
X24055436Y-48035632D01*
X24036844Y-48260000D01*
X24055436Y-48484368D01*
X24055436Y-48484371D01*
X24055437Y-48484372D01*
X24110702Y-48702611D01*
X24201139Y-48908790D01*
X24279574Y-49028844D01*
X24324278Y-49097268D01*
X24434044Y-49216505D01*
X24476762Y-49262908D01*
X24654418Y-49401185D01*
X24654420Y-49401186D01*
X24654424Y-49401189D01*
X24687682Y-49419187D01*
X24738071Y-49469200D01*
X24753423Y-49538517D01*
X24728862Y-49605130D01*
X24687683Y-49640812D01*
X24662794Y-49654281D01*
X24654418Y-49658814D01*
X24476762Y-49797091D01*
X24324278Y-49962731D01*
X24201139Y-50151209D01*
X24110702Y-50357388D01*
X24072881Y-50506743D01*
X24055436Y-50575632D01*
X24036844Y-50800000D01*
X24055436Y-51024368D01*
X24055436Y-51024371D01*
X24055437Y-51024372D01*
X24110702Y-51242611D01*
X24201139Y-51448790D01*
X24201140Y-51448791D01*
X24324278Y-51637268D01*
X24401498Y-51721151D01*
X24476762Y-51802908D01*
X24578611Y-51882181D01*
X24654424Y-51941189D01*
X24687682Y-51959187D01*
X24738070Y-52009197D01*
X24753423Y-52078513D01*
X24728863Y-52145127D01*
X24687683Y-52180811D01*
X24654423Y-52198810D01*
X24476762Y-52337091D01*
X24324278Y-52502731D01*
X24201139Y-52691209D01*
X24110702Y-52897388D01*
X24055437Y-53115627D01*
X24055436Y-53115632D01*
X24036844Y-53340000D01*
X24055436Y-53564368D01*
X24055436Y-53564371D01*
X24055437Y-53564372D01*
X24110702Y-53782611D01*
X24201139Y-53988790D01*
X24320012Y-54170738D01*
X24324278Y-54177268D01*
X24472351Y-54338117D01*
X24476762Y-54342908D01*
X24654418Y-54481185D01*
X24654420Y-54481186D01*
X24654424Y-54481189D01*
X24687682Y-54499187D01*
X24738071Y-54549200D01*
X24753423Y-54618517D01*
X24728862Y-54685130D01*
X24687683Y-54720812D01*
X24662794Y-54734281D01*
X24654418Y-54738814D01*
X24476762Y-54877091D01*
X24324278Y-55042731D01*
X24201139Y-55231209D01*
X24110702Y-55437388D01*
X24065037Y-55617718D01*
X24055436Y-55655632D01*
X24036844Y-55880000D01*
X24055436Y-56104368D01*
X24055436Y-56104371D01*
X24055437Y-56104372D01*
X24110702Y-56322611D01*
X24201139Y-56528790D01*
X24324278Y-56717268D01*
X24476762Y-56882908D01*
X24654418Y-57021185D01*
X24654420Y-57021186D01*
X24654424Y-57021189D01*
X24687682Y-57039187D01*
X24738071Y-57089200D01*
X24753423Y-57158517D01*
X24728862Y-57225130D01*
X24687683Y-57260812D01*
X24662794Y-57274281D01*
X24654418Y-57278814D01*
X24476762Y-57417091D01*
X24324278Y-57582731D01*
X24201139Y-57771209D01*
X24110702Y-57977388D01*
X24057429Y-58187762D01*
X24055436Y-58195632D01*
X24036844Y-58420000D01*
X24055436Y-58644368D01*
X24055436Y-58644371D01*
X24055437Y-58644372D01*
X24110702Y-58862611D01*
X24201139Y-59068790D01*
X24310913Y-59236812D01*
X24324278Y-59257268D01*
X24460378Y-59405111D01*
X24476762Y-59422908D01*
X24654418Y-59561185D01*
X24654420Y-59561186D01*
X24654424Y-59561189D01*
X24687682Y-59579187D01*
X24738071Y-59629200D01*
X24753423Y-59698517D01*
X24728862Y-59765130D01*
X24687683Y-59800812D01*
X24662794Y-59814281D01*
X24654418Y-59818814D01*
X24476762Y-59957091D01*
X24324278Y-60122731D01*
X24201139Y-60311209D01*
X24110702Y-60517388D01*
X24055437Y-60735627D01*
X24055436Y-60735632D01*
X24036844Y-60960000D01*
X24055436Y-61184368D01*
X24055436Y-61184371D01*
X24055437Y-61184372D01*
X24110702Y-61402611D01*
X24201139Y-61608790D01*
X24324278Y-61797268D01*
X24476762Y-61962908D01*
X24559675Y-62027442D01*
X24654424Y-62101189D01*
X24687682Y-62119187D01*
X24738070Y-62169197D01*
X24753423Y-62238513D01*
X24728863Y-62305127D01*
X24687683Y-62340811D01*
X24654423Y-62358810D01*
X24476762Y-62497091D01*
X24324278Y-62662731D01*
X24201139Y-62851209D01*
X24110702Y-63057388D01*
X24073678Y-63203595D01*
X24055436Y-63275632D01*
X24036844Y-63500000D01*
X24055436Y-63724368D01*
X24055436Y-63724371D01*
X24055437Y-63724372D01*
X24110702Y-63942611D01*
X24201139Y-64148790D01*
X24278333Y-64266944D01*
X24324278Y-64337268D01*
X24419522Y-64440730D01*
X24476762Y-64502908D01*
X24526508Y-64541627D01*
X24654424Y-64641189D01*
X24687682Y-64659187D01*
X24738070Y-64709197D01*
X24753423Y-64778513D01*
X24728863Y-64845127D01*
X24687683Y-64880811D01*
X24654423Y-64898810D01*
X24476762Y-65037091D01*
X24324278Y-65202731D01*
X24201139Y-65391209D01*
X24110702Y-65597388D01*
X24055437Y-65815627D01*
X24055436Y-65815632D01*
X24036844Y-66040000D01*
X24055436Y-66264368D01*
X24055436Y-66264371D01*
X24055437Y-66264372D01*
X24110702Y-66482611D01*
X24201139Y-66688790D01*
X24324278Y-66877268D01*
X24476762Y-67042908D01*
X24654418Y-67181185D01*
X24654420Y-67181186D01*
X24654424Y-67181189D01*
X24687682Y-67199187D01*
X24738071Y-67249200D01*
X24753423Y-67318517D01*
X24728862Y-67385130D01*
X24687683Y-67420812D01*
X24662794Y-67434281D01*
X24654418Y-67438814D01*
X24476762Y-67577091D01*
X24324278Y-67742731D01*
X24201139Y-67931209D01*
X24110702Y-68137388D01*
X24056153Y-68352799D01*
X24055436Y-68355632D01*
X24036844Y-68580000D01*
X24055436Y-68804368D01*
X24055436Y-68804371D01*
X24055437Y-68804372D01*
X24110702Y-69022611D01*
X24201139Y-69228790D01*
X24324278Y-69417268D01*
X24476762Y-69582908D01*
X24654418Y-69721185D01*
X24654420Y-69721186D01*
X24654424Y-69721189D01*
X24687682Y-69739187D01*
X24738071Y-69789200D01*
X24753423Y-69858517D01*
X24728862Y-69925130D01*
X24687683Y-69960812D01*
X24662794Y-69974281D01*
X24654418Y-69978814D01*
X24476762Y-70117091D01*
X24324278Y-70282731D01*
X24201139Y-70471209D01*
X24110702Y-70677388D01*
X24055437Y-70895627D01*
X24055436Y-70895632D01*
X24036844Y-71120000D01*
X22885500Y-71120000D01*
X22885500Y-23011500D01*
X22905502Y-22943379D01*
X22959158Y-22896886D01*
X23011500Y-22885500D01*
X119228500Y-22885500D01*
X119296621Y-22905502D01*
G37*
G04 #@! TD.AperFunction*
M02*
