M48
; DRILL file {KiCad 7.0.2-0} date 2023 April 27, Thursday 16:56:12
; FORMAT={-:-/ absolute / inch / decimal}
; #@! TF.CreationDate,2023-04-27T16:56:12-04:00
; #@! TF.GenerationSoftware,Kicad,Pcbnew,7.0.2-0
; #@! TF.FileFunction,Plated,1,2,PTH
FMAT,2
INCH
; #@! TA.AperFunction,Plated,PTH,ViaDrill
T1C0.0197
; #@! TA.AperFunction,Plated,PTH,ComponentDrill
T2C0.0315
; #@! TA.AperFunction,Plated,PTH,ComponentDrill
T3C0.0394
%
G90
G05
T1
X1.15Y-2.565
X1.16Y-2.32
X1.244Y-1.748
X1.4Y-2.99
X1.406Y-2.43
X1.44Y-2.24
X1.5Y-2.99
X1.56Y-2.36
X1.6Y-3.0
X1.85Y-2.535
X2.02Y-2.45
X3.452Y-1.514
X3.73Y-1.662
X4.22Y-1.88
X4.28Y-2.04
X4.3Y-1.8
X4.34Y-2.0
T2
X1.53Y-1.9708
X1.63Y-1.9708
X1.73Y-1.9708
X1.83Y-1.9708
X1.93Y-1.1708
X1.93Y-1.9708
X2.03Y-1.1708
X2.03Y-1.9708
X2.13Y-1.1708
X2.13Y-1.9708
X2.23Y-1.1708
X2.23Y-1.9708
X2.33Y-1.1708
X2.33Y-1.9708
X2.43Y-1.1708
X2.43Y-1.9708
X2.53Y-1.1708
X2.53Y-1.9708
X2.63Y-1.1708
X2.63Y-1.9708
X2.73Y-1.1708
X2.73Y-1.9708
X2.83Y-1.1708
X2.83Y-1.9708
X2.93Y-1.1708
X2.93Y-1.9708
X3.03Y-1.1708
X3.03Y-1.9708
X3.13Y-1.4708
X3.13Y-1.5708
X3.13Y-1.6708
T3
X1.0Y-1.0
X1.0Y-1.1
X1.0Y-1.2
X1.0Y-1.3
X1.0Y-1.4
X1.0Y-1.5
X1.0Y-1.6
X1.0Y-1.7
X1.0Y-1.8
X1.0Y-1.9
X1.0Y-2.0
X1.0Y-2.1
X1.0Y-2.2
X1.0Y-2.3
X1.0Y-2.4
X1.0Y-2.5
X1.0Y-2.6
X1.0Y-2.7
X1.0Y-2.8
X1.0Y-2.9
X1.925Y-2.7288
X1.925Y-2.8288
X2.123Y-2.724
X2.123Y-2.824
X2.854Y-2.39
X2.954Y-2.39
X3.054Y-2.39
X3.154Y-2.39
X3.705Y-1.35
X3.805Y-1.35
X3.905Y-1.35
X4.005Y-1.35
X4.105Y-1.35
X4.205Y-1.35
X4.6Y-1.0
X4.6Y-1.1
X4.6Y-1.2
X4.6Y-1.3
X4.6Y-1.4
X4.6Y-1.5
X4.6Y-1.6
X4.6Y-1.7
X4.6Y-1.8
X4.6Y-1.9
X4.6Y-2.0
X4.6Y-2.1
X4.6Y-2.2
X4.6Y-2.3
X4.6Y-2.4
X4.6Y-2.5
X4.6Y-2.6
X4.6Y-2.7
X4.6Y-2.8
X4.6Y-2.9
T0
M30
