G04 #@! TF.GenerationSoftware,KiCad,Pcbnew,7.0.2-0*
G04 #@! TF.CreationDate,2023-04-27T16:56:16-04:00*
G04 #@! TF.ProjectId,TFT_CAN,5446545f-4341-44e2-9e6b-696361645f70,rev?*
G04 #@! TF.SameCoordinates,Original*
G04 #@! TF.FileFunction,Legend,Top*
G04 #@! TF.FilePolarity,Positive*
%FSLAX46Y46*%
G04 Gerber Fmt 4.6, Leading zero omitted, Abs format (unit mm)*
G04 Created by KiCad (PCBNEW 7.0.2-0) date 2023-04-27 16:56:16*
%MOMM*%
%LPD*%
G01*
G04 APERTURE LIST*
%ADD10C,0.200000*%
%ADD11C,0.150000*%
%ADD12C,0.500000*%
%ADD13C,0.120000*%
G04 APERTURE END LIST*
D10*
X33004285Y-75029761D02*
X32909047Y-75125000D01*
X32909047Y-75125000D02*
X32623333Y-75220238D01*
X32623333Y-75220238D02*
X32432857Y-75220238D01*
X32432857Y-75220238D02*
X32147142Y-75125000D01*
X32147142Y-75125000D02*
X31956666Y-74934523D01*
X31956666Y-74934523D02*
X31861428Y-74744047D01*
X31861428Y-74744047D02*
X31766190Y-74363095D01*
X31766190Y-74363095D02*
X31766190Y-74077380D01*
X31766190Y-74077380D02*
X31861428Y-73696428D01*
X31861428Y-73696428D02*
X31956666Y-73505952D01*
X31956666Y-73505952D02*
X32147142Y-73315476D01*
X32147142Y-73315476D02*
X32432857Y-73220238D01*
X32432857Y-73220238D02*
X32623333Y-73220238D01*
X32623333Y-73220238D02*
X32909047Y-73315476D01*
X32909047Y-73315476D02*
X33004285Y-73410714D01*
X33766190Y-74648809D02*
X34718571Y-74648809D01*
X33575714Y-75220238D02*
X34242380Y-73220238D01*
X34242380Y-73220238D02*
X34909047Y-75220238D01*
X35575714Y-75220238D02*
X35575714Y-73220238D01*
X35575714Y-73220238D02*
X36718571Y-75220238D01*
X36718571Y-75220238D02*
X36718571Y-73220238D01*
D11*
X94652180Y-31326057D02*
X94699800Y-31373676D01*
X94699800Y-31373676D02*
X94747419Y-31516533D01*
X94747419Y-31516533D02*
X94747419Y-31611771D01*
X94747419Y-31611771D02*
X94699800Y-31754628D01*
X94699800Y-31754628D02*
X94604561Y-31849866D01*
X94604561Y-31849866D02*
X94509323Y-31897485D01*
X94509323Y-31897485D02*
X94318847Y-31945104D01*
X94318847Y-31945104D02*
X94175990Y-31945104D01*
X94175990Y-31945104D02*
X93985514Y-31897485D01*
X93985514Y-31897485D02*
X93890276Y-31849866D01*
X93890276Y-31849866D02*
X93795038Y-31754628D01*
X93795038Y-31754628D02*
X93747419Y-31611771D01*
X93747419Y-31611771D02*
X93747419Y-31516533D01*
X93747419Y-31516533D02*
X93795038Y-31373676D01*
X93795038Y-31373676D02*
X93842657Y-31326057D01*
X94699800Y-30945104D02*
X94747419Y-30802247D01*
X94747419Y-30802247D02*
X94747419Y-30564152D01*
X94747419Y-30564152D02*
X94699800Y-30468914D01*
X94699800Y-30468914D02*
X94652180Y-30421295D01*
X94652180Y-30421295D02*
X94556942Y-30373676D01*
X94556942Y-30373676D02*
X94461704Y-30373676D01*
X94461704Y-30373676D02*
X94366466Y-30421295D01*
X94366466Y-30421295D02*
X94318847Y-30468914D01*
X94318847Y-30468914D02*
X94271228Y-30564152D01*
X94271228Y-30564152D02*
X94223609Y-30754628D01*
X94223609Y-30754628D02*
X94175990Y-30849866D01*
X94175990Y-30849866D02*
X94128371Y-30897485D01*
X94128371Y-30897485D02*
X94033133Y-30945104D01*
X94033133Y-30945104D02*
X93937895Y-30945104D01*
X93937895Y-30945104D02*
X93842657Y-30897485D01*
X93842657Y-30897485D02*
X93795038Y-30849866D01*
X93795038Y-30849866D02*
X93747419Y-30754628D01*
X93747419Y-30754628D02*
X93747419Y-30516533D01*
X93747419Y-30516533D02*
X93795038Y-30373676D01*
X93842657Y-29992723D02*
X93795038Y-29945104D01*
X93795038Y-29945104D02*
X93747419Y-29849866D01*
X93747419Y-29849866D02*
X93747419Y-29611771D01*
X93747419Y-29611771D02*
X93795038Y-29516533D01*
X93795038Y-29516533D02*
X93842657Y-29468914D01*
X93842657Y-29468914D02*
X93937895Y-29421295D01*
X93937895Y-29421295D02*
X94033133Y-29421295D01*
X94033133Y-29421295D02*
X94175990Y-29468914D01*
X94175990Y-29468914D02*
X94747419Y-30040342D01*
X94747419Y-30040342D02*
X94747419Y-29421295D01*
X76616495Y-63267419D02*
X77187923Y-63267419D01*
X76902209Y-64267419D02*
X76902209Y-63267419D01*
X77426019Y-63267419D02*
X78092685Y-64267419D01*
X78092685Y-63267419D02*
X77426019Y-64267419D01*
X71351438Y-65277904D02*
X71303819Y-65373142D01*
X71303819Y-65373142D02*
X71303819Y-65515999D01*
X71303819Y-65515999D02*
X71351438Y-65658856D01*
X71351438Y-65658856D02*
X71446676Y-65754094D01*
X71446676Y-65754094D02*
X71541914Y-65801713D01*
X71541914Y-65801713D02*
X71732390Y-65849332D01*
X71732390Y-65849332D02*
X71875247Y-65849332D01*
X71875247Y-65849332D02*
X72065723Y-65801713D01*
X72065723Y-65801713D02*
X72160961Y-65754094D01*
X72160961Y-65754094D02*
X72256200Y-65658856D01*
X72256200Y-65658856D02*
X72303819Y-65515999D01*
X72303819Y-65515999D02*
X72303819Y-65420761D01*
X72303819Y-65420761D02*
X72256200Y-65277904D01*
X72256200Y-65277904D02*
X72208580Y-65230285D01*
X72208580Y-65230285D02*
X71875247Y-65230285D01*
X71875247Y-65230285D02*
X71875247Y-65420761D01*
X72303819Y-64801713D02*
X71303819Y-64801713D01*
X71303819Y-64801713D02*
X72303819Y-64230285D01*
X72303819Y-64230285D02*
X71303819Y-64230285D01*
X72303819Y-63754094D02*
X71303819Y-63754094D01*
X71303819Y-63754094D02*
X71303819Y-63515999D01*
X71303819Y-63515999D02*
X71351438Y-63373142D01*
X71351438Y-63373142D02*
X71446676Y-63277904D01*
X71446676Y-63277904D02*
X71541914Y-63230285D01*
X71541914Y-63230285D02*
X71732390Y-63182666D01*
X71732390Y-63182666D02*
X71875247Y-63182666D01*
X71875247Y-63182666D02*
X72065723Y-63230285D01*
X72065723Y-63230285D02*
X72160961Y-63277904D01*
X72160961Y-63277904D02*
X72256200Y-63373142D01*
X72256200Y-63373142D02*
X72303819Y-63515999D01*
X72303819Y-63515999D02*
X72303819Y-63754094D01*
X96985800Y-31945104D02*
X97033419Y-31802247D01*
X97033419Y-31802247D02*
X97033419Y-31564152D01*
X97033419Y-31564152D02*
X96985800Y-31468914D01*
X96985800Y-31468914D02*
X96938180Y-31421295D01*
X96938180Y-31421295D02*
X96842942Y-31373676D01*
X96842942Y-31373676D02*
X96747704Y-31373676D01*
X96747704Y-31373676D02*
X96652466Y-31421295D01*
X96652466Y-31421295D02*
X96604847Y-31468914D01*
X96604847Y-31468914D02*
X96557228Y-31564152D01*
X96557228Y-31564152D02*
X96509609Y-31754628D01*
X96509609Y-31754628D02*
X96461990Y-31849866D01*
X96461990Y-31849866D02*
X96414371Y-31897485D01*
X96414371Y-31897485D02*
X96319133Y-31945104D01*
X96319133Y-31945104D02*
X96223895Y-31945104D01*
X96223895Y-31945104D02*
X96128657Y-31897485D01*
X96128657Y-31897485D02*
X96081038Y-31849866D01*
X96081038Y-31849866D02*
X96033419Y-31754628D01*
X96033419Y-31754628D02*
X96033419Y-31516533D01*
X96033419Y-31516533D02*
X96081038Y-31373676D01*
X96938180Y-30373676D02*
X96985800Y-30421295D01*
X96985800Y-30421295D02*
X97033419Y-30564152D01*
X97033419Y-30564152D02*
X97033419Y-30659390D01*
X97033419Y-30659390D02*
X96985800Y-30802247D01*
X96985800Y-30802247D02*
X96890561Y-30897485D01*
X96890561Y-30897485D02*
X96795323Y-30945104D01*
X96795323Y-30945104D02*
X96604847Y-30992723D01*
X96604847Y-30992723D02*
X96461990Y-30992723D01*
X96461990Y-30992723D02*
X96271514Y-30945104D01*
X96271514Y-30945104D02*
X96176276Y-30897485D01*
X96176276Y-30897485D02*
X96081038Y-30802247D01*
X96081038Y-30802247D02*
X96033419Y-30659390D01*
X96033419Y-30659390D02*
X96033419Y-30564152D01*
X96033419Y-30564152D02*
X96081038Y-30421295D01*
X96081038Y-30421295D02*
X96128657Y-30373676D01*
X97033419Y-29945104D02*
X96033419Y-29945104D01*
X97033419Y-29373676D02*
X96461990Y-29802247D01*
X96033419Y-29373676D02*
X96604847Y-29945104D01*
X27206819Y-71506466D02*
X27968724Y-71506466D01*
X27587771Y-71887419D02*
X27587771Y-71125514D01*
X28349676Y-70887419D02*
X28968723Y-70887419D01*
X28968723Y-70887419D02*
X28635390Y-71268371D01*
X28635390Y-71268371D02*
X28778247Y-71268371D01*
X28778247Y-71268371D02*
X28873485Y-71315990D01*
X28873485Y-71315990D02*
X28921104Y-71363609D01*
X28921104Y-71363609D02*
X28968723Y-71458847D01*
X28968723Y-71458847D02*
X28968723Y-71696942D01*
X28968723Y-71696942D02*
X28921104Y-71792180D01*
X28921104Y-71792180D02*
X28873485Y-71839800D01*
X28873485Y-71839800D02*
X28778247Y-71887419D01*
X28778247Y-71887419D02*
X28492533Y-71887419D01*
X28492533Y-71887419D02*
X28397295Y-71839800D01*
X28397295Y-71839800D02*
X28349676Y-71792180D01*
X29397295Y-71792180D02*
X29444914Y-71839800D01*
X29444914Y-71839800D02*
X29397295Y-71887419D01*
X29397295Y-71887419D02*
X29349676Y-71839800D01*
X29349676Y-71839800D02*
X29397295Y-71792180D01*
X29397295Y-71792180D02*
X29397295Y-71887419D01*
X29778247Y-70887419D02*
X30397294Y-70887419D01*
X30397294Y-70887419D02*
X30063961Y-71268371D01*
X30063961Y-71268371D02*
X30206818Y-71268371D01*
X30206818Y-71268371D02*
X30302056Y-71315990D01*
X30302056Y-71315990D02*
X30349675Y-71363609D01*
X30349675Y-71363609D02*
X30397294Y-71458847D01*
X30397294Y-71458847D02*
X30397294Y-71696942D01*
X30397294Y-71696942D02*
X30349675Y-71792180D01*
X30349675Y-71792180D02*
X30302056Y-71839800D01*
X30302056Y-71839800D02*
X30206818Y-71887419D01*
X30206818Y-71887419D02*
X29921104Y-71887419D01*
X29921104Y-71887419D02*
X29825866Y-71839800D01*
X29825866Y-71839800D02*
X29778247Y-71792180D01*
X30730628Y-71220752D02*
X30968723Y-71887419D01*
X30968723Y-71887419D02*
X31206818Y-71220752D01*
X79685819Y-66443028D02*
X80685819Y-66109695D01*
X80685819Y-66109695D02*
X79685819Y-65776362D01*
X80162009Y-65109695D02*
X80209628Y-64966838D01*
X80209628Y-64966838D02*
X80257247Y-64919219D01*
X80257247Y-64919219D02*
X80352485Y-64871600D01*
X80352485Y-64871600D02*
X80495342Y-64871600D01*
X80495342Y-64871600D02*
X80590580Y-64919219D01*
X80590580Y-64919219D02*
X80638200Y-64966838D01*
X80638200Y-64966838D02*
X80685819Y-65062076D01*
X80685819Y-65062076D02*
X80685819Y-65443028D01*
X80685819Y-65443028D02*
X79685819Y-65443028D01*
X79685819Y-65443028D02*
X79685819Y-65109695D01*
X79685819Y-65109695D02*
X79733438Y-65014457D01*
X79733438Y-65014457D02*
X79781057Y-64966838D01*
X79781057Y-64966838D02*
X79876295Y-64919219D01*
X79876295Y-64919219D02*
X79971533Y-64919219D01*
X79971533Y-64919219D02*
X80066771Y-64966838D01*
X80066771Y-64966838D02*
X80114390Y-65014457D01*
X80114390Y-65014457D02*
X80162009Y-65109695D01*
X80162009Y-65109695D02*
X80162009Y-65443028D01*
X80685819Y-64014457D02*
X80162009Y-64014457D01*
X80162009Y-64014457D02*
X80066771Y-64062076D01*
X80066771Y-64062076D02*
X80019152Y-64157314D01*
X80019152Y-64157314D02*
X80019152Y-64347790D01*
X80019152Y-64347790D02*
X80066771Y-64443028D01*
X80638200Y-64014457D02*
X80685819Y-64109695D01*
X80685819Y-64109695D02*
X80685819Y-64347790D01*
X80685819Y-64347790D02*
X80638200Y-64443028D01*
X80638200Y-64443028D02*
X80542961Y-64490647D01*
X80542961Y-64490647D02*
X80447723Y-64490647D01*
X80447723Y-64490647D02*
X80352485Y-64443028D01*
X80352485Y-64443028D02*
X80304866Y-64347790D01*
X80304866Y-64347790D02*
X80304866Y-64109695D01*
X80304866Y-64109695D02*
X80257247Y-64014457D01*
X80019152Y-63681123D02*
X80019152Y-63300171D01*
X79685819Y-63538266D02*
X80542961Y-63538266D01*
X80542961Y-63538266D02*
X80638200Y-63490647D01*
X80638200Y-63490647D02*
X80685819Y-63395409D01*
X80685819Y-63395409D02*
X80685819Y-63300171D01*
X113347619Y-52802619D02*
X114014285Y-53802619D01*
X114014285Y-52802619D02*
X113347619Y-53802619D01*
X114395238Y-53421666D02*
X115157143Y-53421666D01*
X114776190Y-53802619D02*
X114776190Y-53040714D01*
X27009886Y-66302600D02*
X27152743Y-66350219D01*
X27152743Y-66350219D02*
X27390838Y-66350219D01*
X27390838Y-66350219D02*
X27486076Y-66302600D01*
X27486076Y-66302600D02*
X27533695Y-66254980D01*
X27533695Y-66254980D02*
X27581314Y-66159742D01*
X27581314Y-66159742D02*
X27581314Y-66064504D01*
X27581314Y-66064504D02*
X27533695Y-65969266D01*
X27533695Y-65969266D02*
X27486076Y-65921647D01*
X27486076Y-65921647D02*
X27390838Y-65874028D01*
X27390838Y-65874028D02*
X27200362Y-65826409D01*
X27200362Y-65826409D02*
X27105124Y-65778790D01*
X27105124Y-65778790D02*
X27057505Y-65731171D01*
X27057505Y-65731171D02*
X27009886Y-65635933D01*
X27009886Y-65635933D02*
X27009886Y-65540695D01*
X27009886Y-65540695D02*
X27057505Y-65445457D01*
X27057505Y-65445457D02*
X27105124Y-65397838D01*
X27105124Y-65397838D02*
X27200362Y-65350219D01*
X27200362Y-65350219D02*
X27438457Y-65350219D01*
X27438457Y-65350219D02*
X27581314Y-65397838D01*
X28581314Y-66254980D02*
X28533695Y-66302600D01*
X28533695Y-66302600D02*
X28390838Y-66350219D01*
X28390838Y-66350219D02*
X28295600Y-66350219D01*
X28295600Y-66350219D02*
X28152743Y-66302600D01*
X28152743Y-66302600D02*
X28057505Y-66207361D01*
X28057505Y-66207361D02*
X28009886Y-66112123D01*
X28009886Y-66112123D02*
X27962267Y-65921647D01*
X27962267Y-65921647D02*
X27962267Y-65778790D01*
X27962267Y-65778790D02*
X28009886Y-65588314D01*
X28009886Y-65588314D02*
X28057505Y-65493076D01*
X28057505Y-65493076D02*
X28152743Y-65397838D01*
X28152743Y-65397838D02*
X28295600Y-65350219D01*
X28295600Y-65350219D02*
X28390838Y-65350219D01*
X28390838Y-65350219D02*
X28533695Y-65397838D01*
X28533695Y-65397838D02*
X28581314Y-65445457D01*
X29009886Y-66350219D02*
X29009886Y-65350219D01*
X29581314Y-66350219D02*
X29152743Y-65778790D01*
X29581314Y-65350219D02*
X29009886Y-65921647D01*
X113731752Y-45858828D02*
X113731752Y-46335019D01*
X113398419Y-45335019D02*
X113731752Y-45858828D01*
X113731752Y-45858828D02*
X114065085Y-45335019D01*
X114398419Y-45954066D02*
X115160324Y-45954066D01*
X99624219Y-31897484D02*
X98624219Y-31897484D01*
X98624219Y-31897484D02*
X99338504Y-31564151D01*
X99338504Y-31564151D02*
X98624219Y-31230818D01*
X98624219Y-31230818D02*
X99624219Y-31230818D01*
X98624219Y-30564151D02*
X98624219Y-30373675D01*
X98624219Y-30373675D02*
X98671838Y-30278437D01*
X98671838Y-30278437D02*
X98767076Y-30183199D01*
X98767076Y-30183199D02*
X98957552Y-30135580D01*
X98957552Y-30135580D02*
X99290885Y-30135580D01*
X99290885Y-30135580D02*
X99481361Y-30183199D01*
X99481361Y-30183199D02*
X99576600Y-30278437D01*
X99576600Y-30278437D02*
X99624219Y-30373675D01*
X99624219Y-30373675D02*
X99624219Y-30564151D01*
X99624219Y-30564151D02*
X99576600Y-30659389D01*
X99576600Y-30659389D02*
X99481361Y-30754627D01*
X99481361Y-30754627D02*
X99290885Y-30802246D01*
X99290885Y-30802246D02*
X98957552Y-30802246D01*
X98957552Y-30802246D02*
X98767076Y-30754627D01*
X98767076Y-30754627D02*
X98671838Y-30659389D01*
X98671838Y-30659389D02*
X98624219Y-30564151D01*
X99576600Y-29754627D02*
X99624219Y-29611770D01*
X99624219Y-29611770D02*
X99624219Y-29373675D01*
X99624219Y-29373675D02*
X99576600Y-29278437D01*
X99576600Y-29278437D02*
X99528980Y-29230818D01*
X99528980Y-29230818D02*
X99433742Y-29183199D01*
X99433742Y-29183199D02*
X99338504Y-29183199D01*
X99338504Y-29183199D02*
X99243266Y-29230818D01*
X99243266Y-29230818D02*
X99195647Y-29278437D01*
X99195647Y-29278437D02*
X99148028Y-29373675D01*
X99148028Y-29373675D02*
X99100409Y-29564151D01*
X99100409Y-29564151D02*
X99052790Y-29659389D01*
X99052790Y-29659389D02*
X99005171Y-29707008D01*
X99005171Y-29707008D02*
X98909933Y-29754627D01*
X98909933Y-29754627D02*
X98814695Y-29754627D01*
X98814695Y-29754627D02*
X98719457Y-29707008D01*
X98719457Y-29707008D02*
X98671838Y-29659389D01*
X98671838Y-29659389D02*
X98624219Y-29564151D01*
X98624219Y-29564151D02*
X98624219Y-29326056D01*
X98624219Y-29326056D02*
X98671838Y-29183199D01*
X99624219Y-28754627D02*
X98624219Y-28754627D01*
X113579352Y-50735628D02*
X113579352Y-51211819D01*
X113246019Y-50211819D02*
X113579352Y-50735628D01*
X113579352Y-50735628D02*
X113912685Y-50211819D01*
X114246019Y-50830866D02*
X115007924Y-50830866D01*
X114626971Y-51211819D02*
X114626971Y-50449914D01*
D12*
X74749286Y-71082657D02*
X76463572Y-71082657D01*
X75606429Y-74082657D02*
X75606429Y-71082657D01*
X78463571Y-72511228D02*
X77463571Y-72511228D01*
X77463571Y-74082657D02*
X77463571Y-71082657D01*
X77463571Y-71082657D02*
X78892143Y-71082657D01*
X79606429Y-71082657D02*
X81320715Y-71082657D01*
X80463572Y-74082657D02*
X80463572Y-71082657D01*
X86320714Y-73796942D02*
X86177857Y-73939800D01*
X86177857Y-73939800D02*
X85749285Y-74082657D01*
X85749285Y-74082657D02*
X85463571Y-74082657D01*
X85463571Y-74082657D02*
X85035000Y-73939800D01*
X85035000Y-73939800D02*
X84749285Y-73654085D01*
X84749285Y-73654085D02*
X84606428Y-73368371D01*
X84606428Y-73368371D02*
X84463571Y-72796942D01*
X84463571Y-72796942D02*
X84463571Y-72368371D01*
X84463571Y-72368371D02*
X84606428Y-71796942D01*
X84606428Y-71796942D02*
X84749285Y-71511228D01*
X84749285Y-71511228D02*
X85035000Y-71225514D01*
X85035000Y-71225514D02*
X85463571Y-71082657D01*
X85463571Y-71082657D02*
X85749285Y-71082657D01*
X85749285Y-71082657D02*
X86177857Y-71225514D01*
X86177857Y-71225514D02*
X86320714Y-71368371D01*
X87463571Y-73225514D02*
X88892143Y-73225514D01*
X87177857Y-74082657D02*
X88177857Y-71082657D01*
X88177857Y-71082657D02*
X89177857Y-74082657D01*
X90177857Y-74082657D02*
X90177857Y-71082657D01*
X90177857Y-71082657D02*
X91892143Y-74082657D01*
X91892143Y-74082657D02*
X91892143Y-71082657D01*
X95177857Y-71082657D02*
X96177857Y-74082657D01*
X96177857Y-74082657D02*
X97177857Y-71082657D01*
X99749286Y-74082657D02*
X98035000Y-74082657D01*
X98892143Y-74082657D02*
X98892143Y-71082657D01*
X98892143Y-71082657D02*
X98606429Y-71511228D01*
X98606429Y-71511228D02*
X98320714Y-71796942D01*
X98320714Y-71796942D02*
X98035000Y-71939800D01*
X101035000Y-73796942D02*
X101177857Y-73939800D01*
X101177857Y-73939800D02*
X101035000Y-74082657D01*
X101035000Y-74082657D02*
X100892143Y-73939800D01*
X100892143Y-73939800D02*
X101035000Y-73796942D01*
X101035000Y-73796942D02*
X101035000Y-74082657D01*
X103035000Y-71082657D02*
X103320714Y-71082657D01*
X103320714Y-71082657D02*
X103606428Y-71225514D01*
X103606428Y-71225514D02*
X103749286Y-71368371D01*
X103749286Y-71368371D02*
X103892143Y-71654085D01*
X103892143Y-71654085D02*
X104035000Y-72225514D01*
X104035000Y-72225514D02*
X104035000Y-72939800D01*
X104035000Y-72939800D02*
X103892143Y-73511228D01*
X103892143Y-73511228D02*
X103749286Y-73796942D01*
X103749286Y-73796942D02*
X103606428Y-73939800D01*
X103606428Y-73939800D02*
X103320714Y-74082657D01*
X103320714Y-74082657D02*
X103035000Y-74082657D01*
X103035000Y-74082657D02*
X102749286Y-73939800D01*
X102749286Y-73939800D02*
X102606428Y-73796942D01*
X102606428Y-73796942D02*
X102463571Y-73511228D01*
X102463571Y-73511228D02*
X102320714Y-72939800D01*
X102320714Y-72939800D02*
X102320714Y-72225514D01*
X102320714Y-72225514D02*
X102463571Y-71654085D01*
X102463571Y-71654085D02*
X102606428Y-71368371D01*
X102606428Y-71368371D02*
X102749286Y-71225514D01*
X102749286Y-71225514D02*
X103035000Y-71082657D01*
D11*
X74671733Y-64267419D02*
X74338400Y-63791228D01*
X74100305Y-64267419D02*
X74100305Y-63267419D01*
X74100305Y-63267419D02*
X74481257Y-63267419D01*
X74481257Y-63267419D02*
X74576495Y-63315038D01*
X74576495Y-63315038D02*
X74624114Y-63362657D01*
X74624114Y-63362657D02*
X74671733Y-63457895D01*
X74671733Y-63457895D02*
X74671733Y-63600752D01*
X74671733Y-63600752D02*
X74624114Y-63695990D01*
X74624114Y-63695990D02*
X74576495Y-63743609D01*
X74576495Y-63743609D02*
X74481257Y-63791228D01*
X74481257Y-63791228D02*
X74100305Y-63791228D01*
X75005067Y-63267419D02*
X75671733Y-64267419D01*
X75671733Y-63267419D02*
X75005067Y-64267419D01*
X106342638Y-31373676D02*
X106295019Y-31468914D01*
X106295019Y-31468914D02*
X106295019Y-31611771D01*
X106295019Y-31611771D02*
X106342638Y-31754628D01*
X106342638Y-31754628D02*
X106437876Y-31849866D01*
X106437876Y-31849866D02*
X106533114Y-31897485D01*
X106533114Y-31897485D02*
X106723590Y-31945104D01*
X106723590Y-31945104D02*
X106866447Y-31945104D01*
X106866447Y-31945104D02*
X107056923Y-31897485D01*
X107056923Y-31897485D02*
X107152161Y-31849866D01*
X107152161Y-31849866D02*
X107247400Y-31754628D01*
X107247400Y-31754628D02*
X107295019Y-31611771D01*
X107295019Y-31611771D02*
X107295019Y-31516533D01*
X107295019Y-31516533D02*
X107247400Y-31373676D01*
X107247400Y-31373676D02*
X107199780Y-31326057D01*
X107199780Y-31326057D02*
X106866447Y-31326057D01*
X106866447Y-31326057D02*
X106866447Y-31516533D01*
X107295019Y-30897485D02*
X106295019Y-30897485D01*
X106295019Y-30897485D02*
X107295019Y-30326057D01*
X107295019Y-30326057D02*
X106295019Y-30326057D01*
X107295019Y-29849866D02*
X106295019Y-29849866D01*
X106295019Y-29849866D02*
X106295019Y-29611771D01*
X106295019Y-29611771D02*
X106342638Y-29468914D01*
X106342638Y-29468914D02*
X106437876Y-29373676D01*
X106437876Y-29373676D02*
X106533114Y-29326057D01*
X106533114Y-29326057D02*
X106723590Y-29278438D01*
X106723590Y-29278438D02*
X106866447Y-29278438D01*
X106866447Y-29278438D02*
X107056923Y-29326057D01*
X107056923Y-29326057D02*
X107152161Y-29373676D01*
X107152161Y-29373676D02*
X107247400Y-29468914D01*
X107247400Y-29468914D02*
X107295019Y-29611771D01*
X107295019Y-29611771D02*
X107295019Y-29849866D01*
X103602619Y-32040343D02*
X104602619Y-31707010D01*
X104602619Y-31707010D02*
X103602619Y-31373677D01*
X104078809Y-30707010D02*
X104126428Y-30564153D01*
X104126428Y-30564153D02*
X104174047Y-30516534D01*
X104174047Y-30516534D02*
X104269285Y-30468915D01*
X104269285Y-30468915D02*
X104412142Y-30468915D01*
X104412142Y-30468915D02*
X104507380Y-30516534D01*
X104507380Y-30516534D02*
X104555000Y-30564153D01*
X104555000Y-30564153D02*
X104602619Y-30659391D01*
X104602619Y-30659391D02*
X104602619Y-31040343D01*
X104602619Y-31040343D02*
X103602619Y-31040343D01*
X103602619Y-31040343D02*
X103602619Y-30707010D01*
X103602619Y-30707010D02*
X103650238Y-30611772D01*
X103650238Y-30611772D02*
X103697857Y-30564153D01*
X103697857Y-30564153D02*
X103793095Y-30516534D01*
X103793095Y-30516534D02*
X103888333Y-30516534D01*
X103888333Y-30516534D02*
X103983571Y-30564153D01*
X103983571Y-30564153D02*
X104031190Y-30611772D01*
X104031190Y-30611772D02*
X104078809Y-30707010D01*
X104078809Y-30707010D02*
X104078809Y-31040343D01*
X104602619Y-29611772D02*
X104078809Y-29611772D01*
X104078809Y-29611772D02*
X103983571Y-29659391D01*
X103983571Y-29659391D02*
X103935952Y-29754629D01*
X103935952Y-29754629D02*
X103935952Y-29945105D01*
X103935952Y-29945105D02*
X103983571Y-30040343D01*
X104555000Y-29611772D02*
X104602619Y-29707010D01*
X104602619Y-29707010D02*
X104602619Y-29945105D01*
X104602619Y-29945105D02*
X104555000Y-30040343D01*
X104555000Y-30040343D02*
X104459761Y-30087962D01*
X104459761Y-30087962D02*
X104364523Y-30087962D01*
X104364523Y-30087962D02*
X104269285Y-30040343D01*
X104269285Y-30040343D02*
X104221666Y-29945105D01*
X104221666Y-29945105D02*
X104221666Y-29707010D01*
X104221666Y-29707010D02*
X104174047Y-29611772D01*
X103935952Y-29278438D02*
X103935952Y-28897486D01*
X103602619Y-29135581D02*
X104459761Y-29135581D01*
X104459761Y-29135581D02*
X104555000Y-29087962D01*
X104555000Y-29087962D02*
X104602619Y-28992724D01*
X104602619Y-28992724D02*
X104602619Y-28897486D01*
X42436238Y-82295904D02*
X42388619Y-82391142D01*
X42388619Y-82391142D02*
X42388619Y-82533999D01*
X42388619Y-82533999D02*
X42436238Y-82676856D01*
X42436238Y-82676856D02*
X42531476Y-82772094D01*
X42531476Y-82772094D02*
X42626714Y-82819713D01*
X42626714Y-82819713D02*
X42817190Y-82867332D01*
X42817190Y-82867332D02*
X42960047Y-82867332D01*
X42960047Y-82867332D02*
X43150523Y-82819713D01*
X43150523Y-82819713D02*
X43245761Y-82772094D01*
X43245761Y-82772094D02*
X43341000Y-82676856D01*
X43341000Y-82676856D02*
X43388619Y-82533999D01*
X43388619Y-82533999D02*
X43388619Y-82438761D01*
X43388619Y-82438761D02*
X43341000Y-82295904D01*
X43341000Y-82295904D02*
X43293380Y-82248285D01*
X43293380Y-82248285D02*
X42960047Y-82248285D01*
X42960047Y-82248285D02*
X42960047Y-82438761D01*
X43388619Y-81819713D02*
X42388619Y-81819713D01*
X42388619Y-81819713D02*
X43388619Y-81248285D01*
X43388619Y-81248285D02*
X42388619Y-81248285D01*
X43388619Y-80772094D02*
X42388619Y-80772094D01*
X42388619Y-80772094D02*
X42388619Y-80533999D01*
X42388619Y-80533999D02*
X42436238Y-80391142D01*
X42436238Y-80391142D02*
X42531476Y-80295904D01*
X42531476Y-80295904D02*
X42626714Y-80248285D01*
X42626714Y-80248285D02*
X42817190Y-80200666D01*
X42817190Y-80200666D02*
X42960047Y-80200666D01*
X42960047Y-80200666D02*
X43150523Y-80248285D01*
X43150523Y-80248285D02*
X43245761Y-80295904D01*
X43245761Y-80295904D02*
X43341000Y-80391142D01*
X43341000Y-80391142D02*
X43388619Y-80533999D01*
X43388619Y-80533999D02*
X43388619Y-80772094D01*
D10*
X89208171Y-31614800D02*
X89493885Y-31710038D01*
X89493885Y-31710038D02*
X89970076Y-31710038D01*
X89970076Y-31710038D02*
X90160552Y-31614800D01*
X90160552Y-31614800D02*
X90255790Y-31519561D01*
X90255790Y-31519561D02*
X90351028Y-31329085D01*
X90351028Y-31329085D02*
X90351028Y-31138609D01*
X90351028Y-31138609D02*
X90255790Y-30948133D01*
X90255790Y-30948133D02*
X90160552Y-30852895D01*
X90160552Y-30852895D02*
X89970076Y-30757657D01*
X89970076Y-30757657D02*
X89589123Y-30662419D01*
X89589123Y-30662419D02*
X89398647Y-30567180D01*
X89398647Y-30567180D02*
X89303409Y-30471942D01*
X89303409Y-30471942D02*
X89208171Y-30281466D01*
X89208171Y-30281466D02*
X89208171Y-30090990D01*
X89208171Y-30090990D02*
X89303409Y-29900514D01*
X89303409Y-29900514D02*
X89398647Y-29805276D01*
X89398647Y-29805276D02*
X89589123Y-29710038D01*
X89589123Y-29710038D02*
X90065314Y-29710038D01*
X90065314Y-29710038D02*
X90351028Y-29805276D01*
X91208171Y-31710038D02*
X91208171Y-29710038D01*
X91208171Y-29710038D02*
X91684361Y-29710038D01*
X91684361Y-29710038D02*
X91970076Y-29805276D01*
X91970076Y-29805276D02*
X92160552Y-29995752D01*
X92160552Y-29995752D02*
X92255790Y-30186228D01*
X92255790Y-30186228D02*
X92351028Y-30567180D01*
X92351028Y-30567180D02*
X92351028Y-30852895D01*
X92351028Y-30852895D02*
X92255790Y-31233847D01*
X92255790Y-31233847D02*
X92160552Y-31424323D01*
X92160552Y-31424323D02*
X91970076Y-31614800D01*
X91970076Y-31614800D02*
X91684361Y-31710038D01*
X91684361Y-31710038D02*
X91208171Y-31710038D01*
D11*
X111230019Y-71100066D02*
X111991924Y-71100066D01*
X111610971Y-71481019D02*
X111610971Y-70719114D01*
X112372876Y-70481019D02*
X112991923Y-70481019D01*
X112991923Y-70481019D02*
X112658590Y-70861971D01*
X112658590Y-70861971D02*
X112801447Y-70861971D01*
X112801447Y-70861971D02*
X112896685Y-70909590D01*
X112896685Y-70909590D02*
X112944304Y-70957209D01*
X112944304Y-70957209D02*
X112991923Y-71052447D01*
X112991923Y-71052447D02*
X112991923Y-71290542D01*
X112991923Y-71290542D02*
X112944304Y-71385780D01*
X112944304Y-71385780D02*
X112896685Y-71433400D01*
X112896685Y-71433400D02*
X112801447Y-71481019D01*
X112801447Y-71481019D02*
X112515733Y-71481019D01*
X112515733Y-71481019D02*
X112420495Y-71433400D01*
X112420495Y-71433400D02*
X112372876Y-71385780D01*
X113420495Y-71385780D02*
X113468114Y-71433400D01*
X113468114Y-71433400D02*
X113420495Y-71481019D01*
X113420495Y-71481019D02*
X113372876Y-71433400D01*
X113372876Y-71433400D02*
X113420495Y-71385780D01*
X113420495Y-71385780D02*
X113420495Y-71481019D01*
X113801447Y-70481019D02*
X114420494Y-70481019D01*
X114420494Y-70481019D02*
X114087161Y-70861971D01*
X114087161Y-70861971D02*
X114230018Y-70861971D01*
X114230018Y-70861971D02*
X114325256Y-70909590D01*
X114325256Y-70909590D02*
X114372875Y-70957209D01*
X114372875Y-70957209D02*
X114420494Y-71052447D01*
X114420494Y-71052447D02*
X114420494Y-71290542D01*
X114420494Y-71290542D02*
X114372875Y-71385780D01*
X114372875Y-71385780D02*
X114325256Y-71433400D01*
X114325256Y-71433400D02*
X114230018Y-71481019D01*
X114230018Y-71481019D02*
X113944304Y-71481019D01*
X113944304Y-71481019D02*
X113849066Y-71433400D01*
X113849066Y-71433400D02*
X113801447Y-71385780D01*
X114753828Y-70814352D02*
X114991923Y-71481019D01*
X114991923Y-71481019D02*
X115230018Y-70814352D01*
X113398419Y-47824219D02*
X114065085Y-48824219D01*
X114065085Y-47824219D02*
X113398419Y-48824219D01*
X114446038Y-48443266D02*
X115207943Y-48443266D01*
X27990895Y-73424238D02*
X27895657Y-73376619D01*
X27895657Y-73376619D02*
X27752800Y-73376619D01*
X27752800Y-73376619D02*
X27609943Y-73424238D01*
X27609943Y-73424238D02*
X27514705Y-73519476D01*
X27514705Y-73519476D02*
X27467086Y-73614714D01*
X27467086Y-73614714D02*
X27419467Y-73805190D01*
X27419467Y-73805190D02*
X27419467Y-73948047D01*
X27419467Y-73948047D02*
X27467086Y-74138523D01*
X27467086Y-74138523D02*
X27514705Y-74233761D01*
X27514705Y-74233761D02*
X27609943Y-74329000D01*
X27609943Y-74329000D02*
X27752800Y-74376619D01*
X27752800Y-74376619D02*
X27848038Y-74376619D01*
X27848038Y-74376619D02*
X27990895Y-74329000D01*
X27990895Y-74329000D02*
X28038514Y-74281380D01*
X28038514Y-74281380D02*
X28038514Y-73948047D01*
X28038514Y-73948047D02*
X27848038Y-73948047D01*
X28467086Y-74376619D02*
X28467086Y-73376619D01*
X28467086Y-73376619D02*
X29038514Y-74376619D01*
X29038514Y-74376619D02*
X29038514Y-73376619D01*
X29514705Y-74376619D02*
X29514705Y-73376619D01*
X29514705Y-73376619D02*
X29752800Y-73376619D01*
X29752800Y-73376619D02*
X29895657Y-73424238D01*
X29895657Y-73424238D02*
X29990895Y-73519476D01*
X29990895Y-73519476D02*
X30038514Y-73614714D01*
X30038514Y-73614714D02*
X30086133Y-73805190D01*
X30086133Y-73805190D02*
X30086133Y-73948047D01*
X30086133Y-73948047D02*
X30038514Y-74138523D01*
X30038514Y-74138523D02*
X29990895Y-74233761D01*
X29990895Y-74233761D02*
X29895657Y-74329000D01*
X29895657Y-74329000D02*
X29752800Y-74376619D01*
X29752800Y-74376619D02*
X29514705Y-74376619D01*
X27551142Y-58838180D02*
X27503523Y-58885800D01*
X27503523Y-58885800D02*
X27360666Y-58933419D01*
X27360666Y-58933419D02*
X27265428Y-58933419D01*
X27265428Y-58933419D02*
X27122571Y-58885800D01*
X27122571Y-58885800D02*
X27027333Y-58790561D01*
X27027333Y-58790561D02*
X26979714Y-58695323D01*
X26979714Y-58695323D02*
X26932095Y-58504847D01*
X26932095Y-58504847D02*
X26932095Y-58361990D01*
X26932095Y-58361990D02*
X26979714Y-58171514D01*
X26979714Y-58171514D02*
X27027333Y-58076276D01*
X27027333Y-58076276D02*
X27122571Y-57981038D01*
X27122571Y-57981038D02*
X27265428Y-57933419D01*
X27265428Y-57933419D02*
X27360666Y-57933419D01*
X27360666Y-57933419D02*
X27503523Y-57981038D01*
X27503523Y-57981038D02*
X27551142Y-58028657D01*
X27932095Y-58885800D02*
X28074952Y-58933419D01*
X28074952Y-58933419D02*
X28313047Y-58933419D01*
X28313047Y-58933419D02*
X28408285Y-58885800D01*
X28408285Y-58885800D02*
X28455904Y-58838180D01*
X28455904Y-58838180D02*
X28503523Y-58742942D01*
X28503523Y-58742942D02*
X28503523Y-58647704D01*
X28503523Y-58647704D02*
X28455904Y-58552466D01*
X28455904Y-58552466D02*
X28408285Y-58504847D01*
X28408285Y-58504847D02*
X28313047Y-58457228D01*
X28313047Y-58457228D02*
X28122571Y-58409609D01*
X28122571Y-58409609D02*
X28027333Y-58361990D01*
X28027333Y-58361990D02*
X27979714Y-58314371D01*
X27979714Y-58314371D02*
X27932095Y-58219133D01*
X27932095Y-58219133D02*
X27932095Y-58123895D01*
X27932095Y-58123895D02*
X27979714Y-58028657D01*
X27979714Y-58028657D02*
X28027333Y-57981038D01*
X28027333Y-57981038D02*
X28122571Y-57933419D01*
X28122571Y-57933419D02*
X28360666Y-57933419D01*
X28360666Y-57933419D02*
X28503523Y-57981038D01*
X29455904Y-58933419D02*
X28884476Y-58933419D01*
X29170190Y-58933419D02*
X29170190Y-57933419D01*
X29170190Y-57933419D02*
X29074952Y-58076276D01*
X29074952Y-58076276D02*
X28979714Y-58171514D01*
X28979714Y-58171514D02*
X28884476Y-58219133D01*
X34895619Y-82597428D02*
X35895619Y-82264095D01*
X35895619Y-82264095D02*
X34895619Y-81930762D01*
X35371809Y-81264095D02*
X35419428Y-81121238D01*
X35419428Y-81121238D02*
X35467047Y-81073619D01*
X35467047Y-81073619D02*
X35562285Y-81026000D01*
X35562285Y-81026000D02*
X35705142Y-81026000D01*
X35705142Y-81026000D02*
X35800380Y-81073619D01*
X35800380Y-81073619D02*
X35848000Y-81121238D01*
X35848000Y-81121238D02*
X35895619Y-81216476D01*
X35895619Y-81216476D02*
X35895619Y-81597428D01*
X35895619Y-81597428D02*
X34895619Y-81597428D01*
X34895619Y-81597428D02*
X34895619Y-81264095D01*
X34895619Y-81264095D02*
X34943238Y-81168857D01*
X34943238Y-81168857D02*
X34990857Y-81121238D01*
X34990857Y-81121238D02*
X35086095Y-81073619D01*
X35086095Y-81073619D02*
X35181333Y-81073619D01*
X35181333Y-81073619D02*
X35276571Y-81121238D01*
X35276571Y-81121238D02*
X35324190Y-81168857D01*
X35324190Y-81168857D02*
X35371809Y-81264095D01*
X35371809Y-81264095D02*
X35371809Y-81597428D01*
X35895619Y-80168857D02*
X35371809Y-80168857D01*
X35371809Y-80168857D02*
X35276571Y-80216476D01*
X35276571Y-80216476D02*
X35228952Y-80311714D01*
X35228952Y-80311714D02*
X35228952Y-80502190D01*
X35228952Y-80502190D02*
X35276571Y-80597428D01*
X35848000Y-80168857D02*
X35895619Y-80264095D01*
X35895619Y-80264095D02*
X35895619Y-80502190D01*
X35895619Y-80502190D02*
X35848000Y-80597428D01*
X35848000Y-80597428D02*
X35752761Y-80645047D01*
X35752761Y-80645047D02*
X35657523Y-80645047D01*
X35657523Y-80645047D02*
X35562285Y-80597428D01*
X35562285Y-80597428D02*
X35514666Y-80502190D01*
X35514666Y-80502190D02*
X35514666Y-80264095D01*
X35514666Y-80264095D02*
X35467047Y-80168857D01*
X35228952Y-79835523D02*
X35228952Y-79454571D01*
X34895619Y-79692666D02*
X35752761Y-79692666D01*
X35752761Y-79692666D02*
X35848000Y-79645047D01*
X35848000Y-79645047D02*
X35895619Y-79549809D01*
X35895619Y-79549809D02*
X35895619Y-79454571D01*
X102265819Y-31897484D02*
X101265819Y-31897484D01*
X101265819Y-31897484D02*
X101980104Y-31564151D01*
X101980104Y-31564151D02*
X101265819Y-31230818D01*
X101265819Y-31230818D02*
X102265819Y-31230818D01*
X102265819Y-30754627D02*
X101265819Y-30754627D01*
X102218200Y-30326056D02*
X102265819Y-30183199D01*
X102265819Y-30183199D02*
X102265819Y-29945104D01*
X102265819Y-29945104D02*
X102218200Y-29849866D01*
X102218200Y-29849866D02*
X102170580Y-29802247D01*
X102170580Y-29802247D02*
X102075342Y-29754628D01*
X102075342Y-29754628D02*
X101980104Y-29754628D01*
X101980104Y-29754628D02*
X101884866Y-29802247D01*
X101884866Y-29802247D02*
X101837247Y-29849866D01*
X101837247Y-29849866D02*
X101789628Y-29945104D01*
X101789628Y-29945104D02*
X101742009Y-30135580D01*
X101742009Y-30135580D02*
X101694390Y-30230818D01*
X101694390Y-30230818D02*
X101646771Y-30278437D01*
X101646771Y-30278437D02*
X101551533Y-30326056D01*
X101551533Y-30326056D02*
X101456295Y-30326056D01*
X101456295Y-30326056D02*
X101361057Y-30278437D01*
X101361057Y-30278437D02*
X101313438Y-30230818D01*
X101313438Y-30230818D02*
X101265819Y-30135580D01*
X101265819Y-30135580D02*
X101265819Y-29897485D01*
X101265819Y-29897485D02*
X101313438Y-29754628D01*
X101265819Y-29135580D02*
X101265819Y-28945104D01*
X101265819Y-28945104D02*
X101313438Y-28849866D01*
X101313438Y-28849866D02*
X101408676Y-28754628D01*
X101408676Y-28754628D02*
X101599152Y-28707009D01*
X101599152Y-28707009D02*
X101932485Y-28707009D01*
X101932485Y-28707009D02*
X102122961Y-28754628D01*
X102122961Y-28754628D02*
X102218200Y-28849866D01*
X102218200Y-28849866D02*
X102265819Y-28945104D01*
X102265819Y-28945104D02*
X102265819Y-29135580D01*
X102265819Y-29135580D02*
X102218200Y-29230818D01*
X102218200Y-29230818D02*
X102122961Y-29326056D01*
X102122961Y-29326056D02*
X101932485Y-29373675D01*
X101932485Y-29373675D02*
X101599152Y-29373675D01*
X101599152Y-29373675D02*
X101408676Y-29326056D01*
X101408676Y-29326056D02*
X101313438Y-29230818D01*
X101313438Y-29230818D02*
X101265819Y-29135580D01*
X41051819Y-81621285D02*
X41051819Y-82097475D01*
X41051819Y-82097475D02*
X40051819Y-82097475D01*
X40051819Y-81097475D02*
X40051819Y-80906999D01*
X40051819Y-80906999D02*
X40099438Y-80811761D01*
X40099438Y-80811761D02*
X40194676Y-80716523D01*
X40194676Y-80716523D02*
X40385152Y-80668904D01*
X40385152Y-80668904D02*
X40718485Y-80668904D01*
X40718485Y-80668904D02*
X40908961Y-80716523D01*
X40908961Y-80716523D02*
X41004200Y-80811761D01*
X41004200Y-80811761D02*
X41051819Y-80906999D01*
X41051819Y-80906999D02*
X41051819Y-81097475D01*
X41051819Y-81097475D02*
X41004200Y-81192713D01*
X41004200Y-81192713D02*
X40908961Y-81287951D01*
X40908961Y-81287951D02*
X40718485Y-81335570D01*
X40718485Y-81335570D02*
X40385152Y-81335570D01*
X40385152Y-81335570D02*
X40194676Y-81287951D01*
X40194676Y-81287951D02*
X40099438Y-81192713D01*
X40099438Y-81192713D02*
X40051819Y-81097475D01*
X112471295Y-73271838D02*
X112376057Y-73224219D01*
X112376057Y-73224219D02*
X112233200Y-73224219D01*
X112233200Y-73224219D02*
X112090343Y-73271838D01*
X112090343Y-73271838D02*
X111995105Y-73367076D01*
X111995105Y-73367076D02*
X111947486Y-73462314D01*
X111947486Y-73462314D02*
X111899867Y-73652790D01*
X111899867Y-73652790D02*
X111899867Y-73795647D01*
X111899867Y-73795647D02*
X111947486Y-73986123D01*
X111947486Y-73986123D02*
X111995105Y-74081361D01*
X111995105Y-74081361D02*
X112090343Y-74176600D01*
X112090343Y-74176600D02*
X112233200Y-74224219D01*
X112233200Y-74224219D02*
X112328438Y-74224219D01*
X112328438Y-74224219D02*
X112471295Y-74176600D01*
X112471295Y-74176600D02*
X112518914Y-74128980D01*
X112518914Y-74128980D02*
X112518914Y-73795647D01*
X112518914Y-73795647D02*
X112328438Y-73795647D01*
X112947486Y-74224219D02*
X112947486Y-73224219D01*
X112947486Y-73224219D02*
X113518914Y-74224219D01*
X113518914Y-74224219D02*
X113518914Y-73224219D01*
X113995105Y-74224219D02*
X113995105Y-73224219D01*
X113995105Y-73224219D02*
X114233200Y-73224219D01*
X114233200Y-73224219D02*
X114376057Y-73271838D01*
X114376057Y-73271838D02*
X114471295Y-73367076D01*
X114471295Y-73367076D02*
X114518914Y-73462314D01*
X114518914Y-73462314D02*
X114566533Y-73652790D01*
X114566533Y-73652790D02*
X114566533Y-73795647D01*
X114566533Y-73795647D02*
X114518914Y-73986123D01*
X114518914Y-73986123D02*
X114471295Y-74081361D01*
X114471295Y-74081361D02*
X114376057Y-74176600D01*
X114376057Y-74176600D02*
X114233200Y-74224219D01*
X114233200Y-74224219D02*
X113995105Y-74224219D01*
X26927372Y-63861019D02*
X26927372Y-62861019D01*
X26927372Y-62861019D02*
X27260705Y-63575304D01*
X27260705Y-63575304D02*
X27594038Y-62861019D01*
X27594038Y-62861019D02*
X27594038Y-63861019D01*
X28070229Y-63861019D02*
X28070229Y-62861019D01*
X28498800Y-63813400D02*
X28641657Y-63861019D01*
X28641657Y-63861019D02*
X28879752Y-63861019D01*
X28879752Y-63861019D02*
X28974990Y-63813400D01*
X28974990Y-63813400D02*
X29022609Y-63765780D01*
X29022609Y-63765780D02*
X29070228Y-63670542D01*
X29070228Y-63670542D02*
X29070228Y-63575304D01*
X29070228Y-63575304D02*
X29022609Y-63480066D01*
X29022609Y-63480066D02*
X28974990Y-63432447D01*
X28974990Y-63432447D02*
X28879752Y-63384828D01*
X28879752Y-63384828D02*
X28689276Y-63337209D01*
X28689276Y-63337209D02*
X28594038Y-63289590D01*
X28594038Y-63289590D02*
X28546419Y-63241971D01*
X28546419Y-63241971D02*
X28498800Y-63146733D01*
X28498800Y-63146733D02*
X28498800Y-63051495D01*
X28498800Y-63051495D02*
X28546419Y-62956257D01*
X28546419Y-62956257D02*
X28594038Y-62908638D01*
X28594038Y-62908638D02*
X28689276Y-62861019D01*
X28689276Y-62861019D02*
X28927371Y-62861019D01*
X28927371Y-62861019D02*
X29070228Y-62908638D01*
X29689276Y-62861019D02*
X29879752Y-62861019D01*
X29879752Y-62861019D02*
X29974990Y-62908638D01*
X29974990Y-62908638D02*
X30070228Y-63003876D01*
X30070228Y-63003876D02*
X30117847Y-63194352D01*
X30117847Y-63194352D02*
X30117847Y-63527685D01*
X30117847Y-63527685D02*
X30070228Y-63718161D01*
X30070228Y-63718161D02*
X29974990Y-63813400D01*
X29974990Y-63813400D02*
X29879752Y-63861019D01*
X29879752Y-63861019D02*
X29689276Y-63861019D01*
X29689276Y-63861019D02*
X29594038Y-63813400D01*
X29594038Y-63813400D02*
X29498800Y-63718161D01*
X29498800Y-63718161D02*
X29451181Y-63527685D01*
X29451181Y-63527685D02*
X29451181Y-63194352D01*
X29451181Y-63194352D02*
X29498800Y-63003876D01*
X29498800Y-63003876D02*
X29594038Y-62908638D01*
X29594038Y-62908638D02*
X29689276Y-62861019D01*
X38562619Y-81803808D02*
X37562619Y-81803808D01*
X38038809Y-81803808D02*
X38038809Y-81232380D01*
X38562619Y-81232380D02*
X37562619Y-81232380D01*
X38562619Y-80756189D02*
X37562619Y-80756189D01*
X26978172Y-61575019D02*
X26978172Y-60575019D01*
X26978172Y-60575019D02*
X27311505Y-61289304D01*
X27311505Y-61289304D02*
X27644838Y-60575019D01*
X27644838Y-60575019D02*
X27644838Y-61575019D01*
X28311505Y-60575019D02*
X28501981Y-60575019D01*
X28501981Y-60575019D02*
X28597219Y-60622638D01*
X28597219Y-60622638D02*
X28692457Y-60717876D01*
X28692457Y-60717876D02*
X28740076Y-60908352D01*
X28740076Y-60908352D02*
X28740076Y-61241685D01*
X28740076Y-61241685D02*
X28692457Y-61432161D01*
X28692457Y-61432161D02*
X28597219Y-61527400D01*
X28597219Y-61527400D02*
X28501981Y-61575019D01*
X28501981Y-61575019D02*
X28311505Y-61575019D01*
X28311505Y-61575019D02*
X28216267Y-61527400D01*
X28216267Y-61527400D02*
X28121029Y-61432161D01*
X28121029Y-61432161D02*
X28073410Y-61241685D01*
X28073410Y-61241685D02*
X28073410Y-60908352D01*
X28073410Y-60908352D02*
X28121029Y-60717876D01*
X28121029Y-60717876D02*
X28216267Y-60622638D01*
X28216267Y-60622638D02*
X28311505Y-60575019D01*
X29121029Y-61527400D02*
X29263886Y-61575019D01*
X29263886Y-61575019D02*
X29501981Y-61575019D01*
X29501981Y-61575019D02*
X29597219Y-61527400D01*
X29597219Y-61527400D02*
X29644838Y-61479780D01*
X29644838Y-61479780D02*
X29692457Y-61384542D01*
X29692457Y-61384542D02*
X29692457Y-61289304D01*
X29692457Y-61289304D02*
X29644838Y-61194066D01*
X29644838Y-61194066D02*
X29597219Y-61146447D01*
X29597219Y-61146447D02*
X29501981Y-61098828D01*
X29501981Y-61098828D02*
X29311505Y-61051209D01*
X29311505Y-61051209D02*
X29216267Y-61003590D01*
X29216267Y-61003590D02*
X29168648Y-60955971D01*
X29168648Y-60955971D02*
X29121029Y-60860733D01*
X29121029Y-60860733D02*
X29121029Y-60765495D01*
X29121029Y-60765495D02*
X29168648Y-60670257D01*
X29168648Y-60670257D02*
X29216267Y-60622638D01*
X29216267Y-60622638D02*
X29311505Y-60575019D01*
X29311505Y-60575019D02*
X29549600Y-60575019D01*
X29549600Y-60575019D02*
X29692457Y-60622638D01*
X30121029Y-61575019D02*
X30121029Y-60575019D01*
X74180914Y-58327000D02*
X74323771Y-58374619D01*
X74323771Y-58374619D02*
X74561866Y-58374619D01*
X74561866Y-58374619D02*
X74657104Y-58327000D01*
X74657104Y-58327000D02*
X74704723Y-58279380D01*
X74704723Y-58279380D02*
X74752342Y-58184142D01*
X74752342Y-58184142D02*
X74752342Y-58088904D01*
X74752342Y-58088904D02*
X74704723Y-57993666D01*
X74704723Y-57993666D02*
X74657104Y-57946047D01*
X74657104Y-57946047D02*
X74561866Y-57898428D01*
X74561866Y-57898428D02*
X74371390Y-57850809D01*
X74371390Y-57850809D02*
X74276152Y-57803190D01*
X74276152Y-57803190D02*
X74228533Y-57755571D01*
X74228533Y-57755571D02*
X74180914Y-57660333D01*
X74180914Y-57660333D02*
X74180914Y-57565095D01*
X74180914Y-57565095D02*
X74228533Y-57469857D01*
X74228533Y-57469857D02*
X74276152Y-57422238D01*
X74276152Y-57422238D02*
X74371390Y-57374619D01*
X74371390Y-57374619D02*
X74609485Y-57374619D01*
X74609485Y-57374619D02*
X74752342Y-57422238D01*
X75180914Y-57850809D02*
X75514247Y-57850809D01*
X75657104Y-58374619D02*
X75180914Y-58374619D01*
X75180914Y-58374619D02*
X75180914Y-57374619D01*
X75180914Y-57374619D02*
X75657104Y-57374619D01*
X76657104Y-58374619D02*
X76323771Y-57898428D01*
X76085676Y-58374619D02*
X76085676Y-57374619D01*
X76085676Y-57374619D02*
X76466628Y-57374619D01*
X76466628Y-57374619D02*
X76561866Y-57422238D01*
X76561866Y-57422238D02*
X76609485Y-57469857D01*
X76609485Y-57469857D02*
X76657104Y-57565095D01*
X76657104Y-57565095D02*
X76657104Y-57707952D01*
X76657104Y-57707952D02*
X76609485Y-57803190D01*
X76609485Y-57803190D02*
X76561866Y-57850809D01*
X76561866Y-57850809D02*
X76466628Y-57898428D01*
X76466628Y-57898428D02*
X76085676Y-57898428D01*
X77609485Y-58374619D02*
X77038057Y-58374619D01*
X77323771Y-58374619D02*
X77323771Y-57374619D01*
X77323771Y-57374619D02*
X77228533Y-57517476D01*
X77228533Y-57517476D02*
X77133295Y-57612714D01*
X77133295Y-57612714D02*
X77038057Y-57660333D01*
X38276904Y-48974285D02*
X38276904Y-48498095D01*
X38562619Y-49069523D02*
X37562619Y-48736190D01*
X37562619Y-48736190D02*
X38562619Y-48402857D01*
X38562619Y-47545714D02*
X38562619Y-48117142D01*
X38562619Y-47831428D02*
X37562619Y-47831428D01*
X37562619Y-47831428D02*
X37705476Y-47926666D01*
X37705476Y-47926666D02*
X37800714Y-48021904D01*
X37800714Y-48021904D02*
X37848333Y-48117142D01*
X56036619Y-64051166D02*
X55560428Y-64384499D01*
X56036619Y-64622594D02*
X55036619Y-64622594D01*
X55036619Y-64622594D02*
X55036619Y-64241642D01*
X55036619Y-64241642D02*
X55084238Y-64146404D01*
X55084238Y-64146404D02*
X55131857Y-64098785D01*
X55131857Y-64098785D02*
X55227095Y-64051166D01*
X55227095Y-64051166D02*
X55369952Y-64051166D01*
X55369952Y-64051166D02*
X55465190Y-64098785D01*
X55465190Y-64098785D02*
X55512809Y-64146404D01*
X55512809Y-64146404D02*
X55560428Y-64241642D01*
X55560428Y-64241642D02*
X55560428Y-64622594D01*
X56036619Y-63098785D02*
X56036619Y-63670213D01*
X56036619Y-63384499D02*
X55036619Y-63384499D01*
X55036619Y-63384499D02*
X55179476Y-63479737D01*
X55179476Y-63479737D02*
X55274714Y-63574975D01*
X55274714Y-63574975D02*
X55322333Y-63670213D01*
X52590667Y-67275000D02*
X52733524Y-67322619D01*
X52733524Y-67322619D02*
X52971619Y-67322619D01*
X52971619Y-67322619D02*
X53066857Y-67275000D01*
X53066857Y-67275000D02*
X53114476Y-67227380D01*
X53114476Y-67227380D02*
X53162095Y-67132142D01*
X53162095Y-67132142D02*
X53162095Y-67036904D01*
X53162095Y-67036904D02*
X53114476Y-66941666D01*
X53114476Y-66941666D02*
X53066857Y-66894047D01*
X53066857Y-66894047D02*
X52971619Y-66846428D01*
X52971619Y-66846428D02*
X52781143Y-66798809D01*
X52781143Y-66798809D02*
X52685905Y-66751190D01*
X52685905Y-66751190D02*
X52638286Y-66703571D01*
X52638286Y-66703571D02*
X52590667Y-66608333D01*
X52590667Y-66608333D02*
X52590667Y-66513095D01*
X52590667Y-66513095D02*
X52638286Y-66417857D01*
X52638286Y-66417857D02*
X52685905Y-66370238D01*
X52685905Y-66370238D02*
X52781143Y-66322619D01*
X52781143Y-66322619D02*
X53019238Y-66322619D01*
X53019238Y-66322619D02*
X53162095Y-66370238D01*
X53495429Y-66322619D02*
X53733524Y-67322619D01*
X53733524Y-67322619D02*
X53924000Y-66608333D01*
X53924000Y-66608333D02*
X54114476Y-67322619D01*
X54114476Y-67322619D02*
X54352572Y-66322619D01*
X55257333Y-67322619D02*
X54685905Y-67322619D01*
X54971619Y-67322619D02*
X54971619Y-66322619D01*
X54971619Y-66322619D02*
X54876381Y-66465476D01*
X54876381Y-66465476D02*
X54781143Y-66560714D01*
X54781143Y-66560714D02*
X54685905Y-66608333D01*
X47561667Y-67397000D02*
X47704524Y-67444619D01*
X47704524Y-67444619D02*
X47942619Y-67444619D01*
X47942619Y-67444619D02*
X48037857Y-67397000D01*
X48037857Y-67397000D02*
X48085476Y-67349380D01*
X48085476Y-67349380D02*
X48133095Y-67254142D01*
X48133095Y-67254142D02*
X48133095Y-67158904D01*
X48133095Y-67158904D02*
X48085476Y-67063666D01*
X48085476Y-67063666D02*
X48037857Y-67016047D01*
X48037857Y-67016047D02*
X47942619Y-66968428D01*
X47942619Y-66968428D02*
X47752143Y-66920809D01*
X47752143Y-66920809D02*
X47656905Y-66873190D01*
X47656905Y-66873190D02*
X47609286Y-66825571D01*
X47609286Y-66825571D02*
X47561667Y-66730333D01*
X47561667Y-66730333D02*
X47561667Y-66635095D01*
X47561667Y-66635095D02*
X47609286Y-66539857D01*
X47609286Y-66539857D02*
X47656905Y-66492238D01*
X47656905Y-66492238D02*
X47752143Y-66444619D01*
X47752143Y-66444619D02*
X47990238Y-66444619D01*
X47990238Y-66444619D02*
X48133095Y-66492238D01*
X48466429Y-66444619D02*
X48704524Y-67444619D01*
X48704524Y-67444619D02*
X48895000Y-66730333D01*
X48895000Y-66730333D02*
X49085476Y-67444619D01*
X49085476Y-67444619D02*
X49323572Y-66444619D01*
X49656905Y-66539857D02*
X49704524Y-66492238D01*
X49704524Y-66492238D02*
X49799762Y-66444619D01*
X49799762Y-66444619D02*
X50037857Y-66444619D01*
X50037857Y-66444619D02*
X50133095Y-66492238D01*
X50133095Y-66492238D02*
X50180714Y-66539857D01*
X50180714Y-66539857D02*
X50228333Y-66635095D01*
X50228333Y-66635095D02*
X50228333Y-66730333D01*
X50228333Y-66730333D02*
X50180714Y-66873190D01*
X50180714Y-66873190D02*
X49609286Y-67444619D01*
X49609286Y-67444619D02*
X50228333Y-67444619D01*
X51007619Y-63999166D02*
X50531428Y-64332499D01*
X51007619Y-64570594D02*
X50007619Y-64570594D01*
X50007619Y-64570594D02*
X50007619Y-64189642D01*
X50007619Y-64189642D02*
X50055238Y-64094404D01*
X50055238Y-64094404D02*
X50102857Y-64046785D01*
X50102857Y-64046785D02*
X50198095Y-63999166D01*
X50198095Y-63999166D02*
X50340952Y-63999166D01*
X50340952Y-63999166D02*
X50436190Y-64046785D01*
X50436190Y-64046785D02*
X50483809Y-64094404D01*
X50483809Y-64094404D02*
X50531428Y-64189642D01*
X50531428Y-64189642D02*
X50531428Y-64570594D01*
X50102857Y-63618213D02*
X50055238Y-63570594D01*
X50055238Y-63570594D02*
X50007619Y-63475356D01*
X50007619Y-63475356D02*
X50007619Y-63237261D01*
X50007619Y-63237261D02*
X50055238Y-63142023D01*
X50055238Y-63142023D02*
X50102857Y-63094404D01*
X50102857Y-63094404D02*
X50198095Y-63046785D01*
X50198095Y-63046785D02*
X50293333Y-63046785D01*
X50293333Y-63046785D02*
X50436190Y-63094404D01*
X50436190Y-63094404D02*
X51007619Y-63665832D01*
X51007619Y-63665832D02*
X51007619Y-63046785D01*
D13*
X92777000Y-35620000D02*
X92777000Y-34290000D01*
X94107000Y-35620000D02*
X92777000Y-35620000D01*
X95377000Y-35620000D02*
X108137000Y-35620000D01*
X95377000Y-35620000D02*
X95377000Y-32960000D01*
X108137000Y-35620000D02*
X108137000Y-32960000D01*
X95377000Y-32960000D02*
X108137000Y-32960000D01*
X81441600Y-59376000D02*
X81441600Y-60706000D01*
X80111600Y-59376000D02*
X81441600Y-59376000D01*
X78841600Y-59376000D02*
X71161600Y-59376000D01*
X78841600Y-59376000D02*
X78841600Y-62036000D01*
X71161600Y-59376000D02*
X71161600Y-62036000D01*
X78841600Y-62036000D02*
X71161600Y-62036000D01*
X85962000Y-31007500D02*
G75*
G03*
X83312000Y-28357500I-2650000J0D01*
G01*
X35052000Y-28357500D02*
G75*
G03*
X32402000Y-31007500I0J-2650000D01*
G01*
X83312000Y-51437500D02*
G75*
G03*
X85962000Y-48787500I0J2650000D01*
G01*
X32402000Y-48787500D02*
G75*
G03*
X35052000Y-51437500I2650000J0D01*
G01*
X35052000Y-28357500D02*
X83312000Y-28357500D01*
X85962000Y-31007500D02*
X85962000Y-48787500D01*
X32402000Y-31007500D02*
X32402000Y-48787500D01*
X35052000Y-51437500D02*
X83312000Y-51437500D01*
X39862000Y-51757500D02*
X37862000Y-51757500D01*
X54659000Y-63657436D02*
X54659000Y-64111564D01*
X53189000Y-63657436D02*
X53189000Y-64111564D01*
X52594000Y-67860000D02*
X53924000Y-67860000D01*
X52594000Y-69190000D02*
X52594000Y-67860000D01*
X52594000Y-70460000D02*
X52594000Y-73060000D01*
X52594000Y-70460000D02*
X55254000Y-70460000D01*
X52594000Y-73060000D02*
X55254000Y-73060000D01*
X55254000Y-70460000D02*
X55254000Y-73060000D01*
X47565000Y-67982000D02*
X48895000Y-67982000D01*
X47565000Y-69312000D02*
X47565000Y-67982000D01*
X47565000Y-70582000D02*
X47565000Y-73182000D01*
X47565000Y-70582000D02*
X50225000Y-70582000D01*
X47565000Y-73182000D02*
X50225000Y-73182000D01*
X50225000Y-70582000D02*
X50225000Y-73182000D01*
X49630000Y-63605436D02*
X49630000Y-64059564D01*
X48160000Y-63605436D02*
X48160000Y-64059564D01*
M02*
