G04 #@! TF.GenerationSoftware,KiCad,Pcbnew,(5.1.9-0-10_14)*
G04 #@! TF.CreationDate,2021-01-10T20:35:50-05:00*
G04 #@! TF.ProjectId,ebike_TFT,6562696b-655f-4544-9654-2e6b69636164,rev?*
G04 #@! TF.SameCoordinates,Original*
G04 #@! TF.FileFunction,Legend,Top*
G04 #@! TF.FilePolarity,Positive*
%FSLAX46Y46*%
G04 Gerber Fmt 4.6, Leading zero omitted, Abs format (unit mm)*
G04 Created by KiCad (PCBNEW (5.1.9-0-10_14)) date 2021-01-10 20:35:50*
%MOMM*%
%LPD*%
G01*
G04 APERTURE LIST*
%ADD10C,0.120000*%
%ADD11C,0.150000*%
G04 APERTURE END LIST*
D10*
X24070000Y-24070000D02*
X25400000Y-24070000D01*
X24070000Y-25400000D02*
X24070000Y-24070000D01*
X24070000Y-26670000D02*
X26730000Y-26670000D01*
X26730000Y-26670000D02*
X26730000Y-74990000D01*
X24070000Y-26670000D02*
X24070000Y-74990000D01*
X24070000Y-74990000D02*
X26730000Y-74990000D01*
X110130000Y-38980000D02*
X108800000Y-38980000D01*
X110130000Y-37650000D02*
X110130000Y-38980000D01*
X110130000Y-36380000D02*
X107470000Y-36380000D01*
X107470000Y-36380000D02*
X107470000Y-33780000D01*
X110130000Y-36380000D02*
X110130000Y-33780000D01*
X110130000Y-33780000D02*
X107470000Y-33780000D01*
X102180000Y-38980000D02*
X100850000Y-38980000D01*
X102180000Y-37650000D02*
X102180000Y-38980000D01*
X102180000Y-36380000D02*
X99520000Y-36380000D01*
X99520000Y-36380000D02*
X99520000Y-33780000D01*
X102180000Y-36380000D02*
X102180000Y-33780000D01*
X102180000Y-33780000D02*
X99520000Y-33780000D01*
X100470000Y-27530000D02*
X100470000Y-26200000D01*
X101800000Y-27530000D02*
X100470000Y-27530000D01*
X103070000Y-27530000D02*
X103070000Y-24870000D01*
X103070000Y-24870000D02*
X110750000Y-24870000D01*
X103070000Y-27530000D02*
X110750000Y-27530000D01*
X110750000Y-27530000D02*
X110750000Y-24870000D01*
X115510000Y-24070000D02*
X116840000Y-24070000D01*
X115510000Y-25400000D02*
X115510000Y-24070000D01*
X115510000Y-26670000D02*
X118170000Y-26670000D01*
X118170000Y-26670000D02*
X118170000Y-74990000D01*
X115510000Y-26670000D02*
X115510000Y-74990000D01*
X115510000Y-74990000D02*
X118170000Y-74990000D01*
D11*
X25066666Y-22522380D02*
X25066666Y-23236666D01*
X25019047Y-23379523D01*
X24923809Y-23474761D01*
X24780952Y-23522380D01*
X24685714Y-23522380D01*
X25495238Y-22617619D02*
X25542857Y-22570000D01*
X25638095Y-22522380D01*
X25876190Y-22522380D01*
X25971428Y-22570000D01*
X26019047Y-22617619D01*
X26066666Y-22712857D01*
X26066666Y-22808095D01*
X26019047Y-22950952D01*
X25447619Y-23522380D01*
X26066666Y-23522380D01*
X107466666Y-40384761D02*
X107609523Y-40432380D01*
X107847619Y-40432380D01*
X107942857Y-40384761D01*
X107990476Y-40337142D01*
X108038095Y-40241904D01*
X108038095Y-40146666D01*
X107990476Y-40051428D01*
X107942857Y-40003809D01*
X107847619Y-39956190D01*
X107657142Y-39908571D01*
X107561904Y-39860952D01*
X107514285Y-39813333D01*
X107466666Y-39718095D01*
X107466666Y-39622857D01*
X107514285Y-39527619D01*
X107561904Y-39480000D01*
X107657142Y-39432380D01*
X107895238Y-39432380D01*
X108038095Y-39480000D01*
X108371428Y-39432380D02*
X108609523Y-40432380D01*
X108800000Y-39718095D01*
X108990476Y-40432380D01*
X109228571Y-39432380D01*
X109561904Y-39527619D02*
X109609523Y-39480000D01*
X109704761Y-39432380D01*
X109942857Y-39432380D01*
X110038095Y-39480000D01*
X110085714Y-39527619D01*
X110133333Y-39622857D01*
X110133333Y-39718095D01*
X110085714Y-39860952D01*
X109514285Y-40432380D01*
X110133333Y-40432380D01*
X99516666Y-40384761D02*
X99659523Y-40432380D01*
X99897619Y-40432380D01*
X99992857Y-40384761D01*
X100040476Y-40337142D01*
X100088095Y-40241904D01*
X100088095Y-40146666D01*
X100040476Y-40051428D01*
X99992857Y-40003809D01*
X99897619Y-39956190D01*
X99707142Y-39908571D01*
X99611904Y-39860952D01*
X99564285Y-39813333D01*
X99516666Y-39718095D01*
X99516666Y-39622857D01*
X99564285Y-39527619D01*
X99611904Y-39480000D01*
X99707142Y-39432380D01*
X99945238Y-39432380D01*
X100088095Y-39480000D01*
X100421428Y-39432380D02*
X100659523Y-40432380D01*
X100850000Y-39718095D01*
X101040476Y-40432380D01*
X101278571Y-39432380D01*
X102183333Y-40432380D02*
X101611904Y-40432380D01*
X101897619Y-40432380D02*
X101897619Y-39432380D01*
X101802380Y-39575238D01*
X101707142Y-39670476D01*
X101611904Y-39718095D01*
X99874761Y-27914285D02*
X99922380Y-27771428D01*
X99922380Y-27533333D01*
X99874761Y-27438095D01*
X99827142Y-27390476D01*
X99731904Y-27342857D01*
X99636666Y-27342857D01*
X99541428Y-27390476D01*
X99493809Y-27438095D01*
X99446190Y-27533333D01*
X99398571Y-27723809D01*
X99350952Y-27819047D01*
X99303333Y-27866666D01*
X99208095Y-27914285D01*
X99112857Y-27914285D01*
X99017619Y-27866666D01*
X98970000Y-27819047D01*
X98922380Y-27723809D01*
X98922380Y-27485714D01*
X98970000Y-27342857D01*
X99398571Y-26914285D02*
X99398571Y-26580952D01*
X99922380Y-26438095D02*
X99922380Y-26914285D01*
X98922380Y-26914285D01*
X98922380Y-26438095D01*
X99922380Y-25438095D02*
X99446190Y-25771428D01*
X99922380Y-26009523D02*
X98922380Y-26009523D01*
X98922380Y-25628571D01*
X98970000Y-25533333D01*
X99017619Y-25485714D01*
X99112857Y-25438095D01*
X99255714Y-25438095D01*
X99350952Y-25485714D01*
X99398571Y-25533333D01*
X99446190Y-25628571D01*
X99446190Y-26009523D01*
X99922380Y-24485714D02*
X99922380Y-25057142D01*
X99922380Y-24771428D02*
X98922380Y-24771428D01*
X99065238Y-24866666D01*
X99160476Y-24961904D01*
X99208095Y-25057142D01*
X116506666Y-22522380D02*
X116506666Y-23236666D01*
X116459047Y-23379523D01*
X116363809Y-23474761D01*
X116220952Y-23522380D01*
X116125714Y-23522380D01*
X117506666Y-23522380D02*
X116935238Y-23522380D01*
X117220952Y-23522380D02*
X117220952Y-22522380D01*
X117125714Y-22665238D01*
X117030476Y-22760476D01*
X116935238Y-22808095D01*
M02*
