G04 #@! TF.GenerationSoftware,KiCad,Pcbnew,(6.0.7-1)-1*
G04 #@! TF.CreationDate,2022-10-14T20:53:50-04:00*
G04 #@! TF.ProjectId,ebike_TFT,6562696b-655f-4544-9654-2e6b69636164,rev?*
G04 #@! TF.SameCoordinates,Original*
G04 #@! TF.FileFunction,Soldermask,Bot*
G04 #@! TF.FilePolarity,Negative*
%FSLAX46Y46*%
G04 Gerber Fmt 4.6, Leading zero omitted, Abs format (unit mm)*
G04 Created by KiCad (PCBNEW (6.0.7-1)-1) date 2022-10-14 20:53:50*
%MOMM*%
%LPD*%
G01*
G04 APERTURE LIST*
G04 Aperture macros list*
%AMRoundRect*
0 Rectangle with rounded corners*
0 $1 Rounding radius*
0 $2 $3 $4 $5 $6 $7 $8 $9 X,Y pos of 4 corners*
0 Add a 4 corners polygon primitive as box body*
4,1,4,$2,$3,$4,$5,$6,$7,$8,$9,$2,$3,0*
0 Add four circle primitives for the rounded corners*
1,1,$1+$1,$2,$3*
1,1,$1+$1,$4,$5*
1,1,$1+$1,$6,$7*
1,1,$1+$1,$8,$9*
0 Add four rect primitives between the rounded corners*
20,1,$1+$1,$2,$3,$4,$5,0*
20,1,$1+$1,$4,$5,$6,$7,0*
20,1,$1+$1,$6,$7,$8,$9,0*
20,1,$1+$1,$8,$9,$2,$3,0*%
G04 Aperture macros list end*
%ADD10C,1.702000*%
%ADD11RoundRect,0.051000X0.800000X0.800000X-0.800000X0.800000X-0.800000X-0.800000X0.800000X-0.800000X0*%
%ADD12RoundRect,0.051000X-0.850000X-0.850000X0.850000X-0.850000X0.850000X0.850000X-0.850000X0.850000X0*%
%ADD13O,1.802000X1.802000*%
%ADD14RoundRect,0.051000X0.850000X-0.850000X0.850000X0.850000X-0.850000X0.850000X-0.850000X-0.850000X0*%
%ADD15RoundRect,0.051000X0.850000X0.850000X-0.850000X0.850000X-0.850000X-0.850000X0.850000X-0.850000X0*%
%ADD16RoundRect,0.300999X0.450001X-0.262501X0.450001X0.262501X-0.450001X0.262501X-0.450001X-0.262501X0*%
G04 APERTURE END LIST*
D10*
X46990000Y-26924000D03*
X44450000Y-26924000D03*
X41910000Y-26924000D03*
X39370000Y-26924000D03*
X49530000Y-26924000D03*
X52070000Y-26924000D03*
X54610000Y-26924000D03*
X36830000Y-26924000D03*
X34290000Y-26924000D03*
X31750000Y-26924000D03*
X29210000Y-26924000D03*
X41910000Y-29464000D03*
X41910000Y-32004000D03*
X41910000Y-34544000D03*
X41910000Y-37084000D03*
X41910000Y-39624000D03*
X29210000Y-42164000D03*
X31750000Y-42164000D03*
X34290000Y-42164000D03*
X36830000Y-42164000D03*
X39370000Y-42164000D03*
X41910000Y-42164000D03*
X44450000Y-42164000D03*
X46990000Y-42164000D03*
X57150000Y-26924000D03*
X59690000Y-26924000D03*
X62230000Y-26924000D03*
X64770000Y-26924000D03*
X67310000Y-26924000D03*
X69850000Y-26924000D03*
X72390000Y-26924000D03*
X74930000Y-26924000D03*
X77470000Y-26924000D03*
X80010000Y-26924000D03*
X82550000Y-26924000D03*
X85090000Y-26924000D03*
D11*
X87630000Y-26924000D03*
D10*
X49530000Y-42164000D03*
X52070000Y-42164000D03*
X54610000Y-42164000D03*
X57150000Y-42164000D03*
X59690000Y-42164000D03*
X62230000Y-42164000D03*
X64770000Y-42164000D03*
X67310000Y-42164000D03*
X69850000Y-42164000D03*
X72390000Y-42164000D03*
X74930000Y-42164000D03*
X77470000Y-42164000D03*
X80010000Y-42164000D03*
X82550000Y-42164000D03*
X85090000Y-42164000D03*
X87630000Y-42164000D03*
X85090000Y-39624000D03*
X80010000Y-39624000D03*
X77470000Y-39624000D03*
X74930000Y-39624000D03*
X81280000Y-29924000D03*
X78740000Y-29924000D03*
X76200000Y-29924000D03*
X73660000Y-29924000D03*
X71120000Y-29924000D03*
D12*
X116840000Y-25400000D03*
D13*
X116840000Y-27940000D03*
X116840000Y-30480000D03*
X116840000Y-33020000D03*
X116840000Y-35560000D03*
X116840000Y-38100000D03*
X116840000Y-40640000D03*
X116840000Y-43180000D03*
X116840000Y-45720000D03*
X116840000Y-48260000D03*
X116840000Y-50800000D03*
X116840000Y-53340000D03*
X116840000Y-55880000D03*
X116840000Y-58420000D03*
X116840000Y-60960000D03*
X116840000Y-63500000D03*
X116840000Y-66040000D03*
X116840000Y-68580000D03*
X116840000Y-71120000D03*
X116840000Y-73660000D03*
D12*
X25400000Y-25400000D03*
D13*
X25400000Y-27940000D03*
X25400000Y-30480000D03*
X25400000Y-33020000D03*
X25400000Y-35560000D03*
X25400000Y-38100000D03*
X25400000Y-40640000D03*
X25400000Y-43180000D03*
X25400000Y-45720000D03*
X25400000Y-48260000D03*
X25400000Y-50800000D03*
X25400000Y-53340000D03*
X25400000Y-55880000D03*
X25400000Y-58420000D03*
X25400000Y-60960000D03*
X25400000Y-63500000D03*
X25400000Y-66040000D03*
X25400000Y-68580000D03*
X25400000Y-71120000D03*
X25400000Y-73660000D03*
D14*
X101800000Y-26200000D03*
D13*
X104340000Y-26200000D03*
X106880000Y-26200000D03*
X109420000Y-26200000D03*
D15*
X100850000Y-37650000D03*
D13*
X100850000Y-35110000D03*
D15*
X108800000Y-37650000D03*
D13*
X108800000Y-35110000D03*
D16*
X108800000Y-43912500D03*
X108800000Y-42087500D03*
X100800000Y-43912500D03*
X100800000Y-42087500D03*
M02*
