M48
; DRILL file {KiCad (6.0.7-1)-1} date Friday, October 14, 2022 at 08:53:45 PM
; FORMAT={-:-/ absolute / metric / decimal}
; #@! TF.CreationDate,2022-10-14T20:53:45-04:00
; #@! TF.GenerationSoftware,Kicad,Pcbnew,(6.0.7-1)-1
; #@! TF.FileFunction,Plated,1,2,PTH
FMAT,2
METRIC
; #@! TA.AperFunction,Plated,PTH,ViaDrill
T1C0.400
; #@! TA.AperFunction,Plated,PTH,ComponentDrill
T2C1.000
; #@! TA.AperFunction,Plated,PTH,ComponentDrill
T3C1.100
%
G90
G05
T1
X40.894Y-54.991
X42.797Y-47.879
X43.053Y-53.721
X45.205Y-46.795
X47.03Y-45.67
X67.33Y-45.67
X69.205Y-46.795
X70.847Y-47.879
X72.644Y-53.232
X73.655Y-54.545
X76.708Y-44.069
X89.916Y-35.56
X92.202Y-37.592
X92.456Y-36.322
X109.474Y-52.324
X109.855Y-56.769
X110.325Y-53.325
X111.03Y-55.83
T2
X25.4Y-25.4
X25.4Y-27.94
X25.4Y-30.48
X25.4Y-33.02
X25.4Y-35.56
X25.4Y-38.1
X25.4Y-40.64
X25.4Y-43.18
X25.4Y-45.72
X25.4Y-48.26
X25.4Y-50.8
X25.4Y-53.34
X25.4Y-55.88
X25.4Y-58.42
X25.4Y-60.96
X25.4Y-63.5
X25.4Y-66.04
X25.4Y-68.58
X25.4Y-71.12
X25.4Y-73.66
X100.85Y-35.11
X100.85Y-37.65
X101.8Y-26.2
X104.34Y-26.2
X106.88Y-26.2
X108.8Y-35.11
X108.8Y-37.65
X109.42Y-26.2
X116.84Y-25.4
X116.84Y-27.94
X116.84Y-30.48
X116.84Y-33.02
X116.84Y-35.56
X116.84Y-38.1
X116.84Y-40.64
X116.84Y-43.18
X116.84Y-45.72
X116.84Y-48.26
X116.84Y-50.8
X116.84Y-53.34
X116.84Y-55.88
X116.84Y-58.42
X116.84Y-60.96
X116.84Y-63.5
X116.84Y-66.04
X116.84Y-68.58
X116.84Y-71.12
X116.84Y-73.66
T3
X29.21Y-26.924
X29.21Y-42.164
X31.75Y-26.924
X31.75Y-42.164
X34.29Y-26.924
X34.29Y-42.164
X36.83Y-26.924
X36.83Y-42.164
X39.37Y-26.924
X39.37Y-42.164
X41.91Y-26.924
X41.91Y-29.464
X41.91Y-32.004
X41.91Y-34.544
X41.91Y-37.084
X41.91Y-39.624
X41.91Y-42.164
X44.45Y-26.924
X44.45Y-42.164
X46.99Y-26.924
X46.99Y-42.164
X49.53Y-26.924
X49.53Y-42.164
X52.07Y-26.924
X52.07Y-42.164
X54.61Y-26.924
X54.61Y-42.164
X57.15Y-26.924
X57.15Y-42.164
X59.69Y-26.924
X59.69Y-42.164
X62.23Y-26.924
X62.23Y-42.164
X64.77Y-26.924
X64.77Y-42.164
X67.31Y-26.924
X67.31Y-42.164
X69.85Y-26.924
X69.85Y-42.164
X71.12Y-29.924
X72.39Y-26.924
X72.39Y-42.164
X73.66Y-29.924
X74.93Y-26.924
X74.93Y-39.624
X74.93Y-42.164
X76.2Y-29.924
X77.47Y-26.924
X77.47Y-39.624
X77.47Y-42.164
X78.74Y-29.924
X80.01Y-26.924
X80.01Y-39.624
X80.01Y-42.164
X81.28Y-29.924
X82.55Y-26.924
X82.55Y-42.164
X85.09Y-26.924
X85.09Y-39.624
X85.09Y-42.164
X87.63Y-26.924
X87.63Y-42.164
T0
M30
