G04 #@! TF.GenerationSoftware,KiCad,Pcbnew,(5.1.9-0-10_14)*
G04 #@! TF.CreationDate,2021-01-10T20:35:50-05:00*
G04 #@! TF.ProjectId,ebike_TFT,6562696b-655f-4544-9654-2e6b69636164,rev?*
G04 #@! TF.SameCoordinates,Original*
G04 #@! TF.FileFunction,Legend,Bot*
G04 #@! TF.FilePolarity,Positive*
%FSLAX46Y46*%
G04 Gerber Fmt 4.6, Leading zero omitted, Abs format (unit mm)*
G04 Created by KiCad (PCBNEW (5.1.9-0-10_14)) date 2021-01-10 20:35:50*
%MOMM*%
%LPD*%
G01*
G04 APERTURE LIST*
%ADD10C,0.300000*%
%ADD11C,0.150000*%
%ADD12C,0.100000*%
%ADD13C,0.120000*%
G04 APERTURE END LIST*
D10*
X80978571Y-69735714D02*
X79978571Y-69735714D01*
X79550000Y-71307142D02*
X80978571Y-71307142D01*
X80978571Y-68307142D01*
X79550000Y-68307142D01*
X77264285Y-69735714D02*
X76835714Y-69878571D01*
X76692857Y-70021428D01*
X76550000Y-70307142D01*
X76550000Y-70735714D01*
X76692857Y-71021428D01*
X76835714Y-71164285D01*
X77121428Y-71307142D01*
X78264285Y-71307142D01*
X78264285Y-68307142D01*
X77264285Y-68307142D01*
X76978571Y-68450000D01*
X76835714Y-68592857D01*
X76692857Y-68878571D01*
X76692857Y-69164285D01*
X76835714Y-69450000D01*
X76978571Y-69592857D01*
X77264285Y-69735714D01*
X78264285Y-69735714D01*
X75264285Y-71307142D02*
X75264285Y-68307142D01*
X73835714Y-71307142D02*
X73835714Y-68307142D01*
X72121428Y-71307142D02*
X73407142Y-69592857D01*
X72121428Y-68307142D02*
X73835714Y-70021428D01*
X70835714Y-69735714D02*
X69835714Y-69735714D01*
X69407142Y-71307142D02*
X70835714Y-71307142D01*
X70835714Y-68307142D01*
X69407142Y-68307142D01*
X66264285Y-68307142D02*
X64550000Y-68307142D01*
X65407142Y-71307142D02*
X65407142Y-68307142D01*
X62550000Y-69735714D02*
X63550000Y-69735714D01*
X63550000Y-71307142D02*
X63550000Y-68307142D01*
X62121428Y-68307142D01*
X61407142Y-68307142D02*
X59692857Y-68307142D01*
X60550000Y-71307142D02*
X60550000Y-68307142D01*
X55407142Y-69735714D02*
X54978571Y-69878571D01*
X54835714Y-70021428D01*
X54692857Y-70307142D01*
X54692857Y-70735714D01*
X54835714Y-71021428D01*
X54978571Y-71164285D01*
X55264285Y-71307142D01*
X56407142Y-71307142D01*
X56407142Y-68307142D01*
X55407142Y-68307142D01*
X55121428Y-68450000D01*
X54978571Y-68592857D01*
X54835714Y-68878571D01*
X54835714Y-69164285D01*
X54978571Y-69450000D01*
X55121428Y-69592857D01*
X55407142Y-69735714D01*
X56407142Y-69735714D01*
X52835714Y-68307142D02*
X52264285Y-68307142D01*
X51978571Y-68450000D01*
X51692857Y-68735714D01*
X51550000Y-69307142D01*
X51550000Y-70307142D01*
X51692857Y-70878571D01*
X51978571Y-71164285D01*
X52264285Y-71307142D01*
X52835714Y-71307142D01*
X53121428Y-71164285D01*
X53407142Y-70878571D01*
X53550000Y-70307142D01*
X53550000Y-69307142D01*
X53407142Y-68735714D01*
X53121428Y-68450000D01*
X52835714Y-68307142D01*
X50407142Y-70450000D02*
X48978571Y-70450000D01*
X50692857Y-71307142D02*
X49692857Y-68307142D01*
X48692857Y-71307142D01*
X45978571Y-71307142D02*
X46978571Y-69878571D01*
X47692857Y-71307142D02*
X47692857Y-68307142D01*
X46550000Y-68307142D01*
X46264285Y-68450000D01*
X46121428Y-68592857D01*
X45978571Y-68878571D01*
X45978571Y-69307142D01*
X46121428Y-69592857D01*
X46264285Y-69735714D01*
X46550000Y-69878571D01*
X47692857Y-69878571D01*
X44692857Y-71307142D02*
X44692857Y-68307142D01*
X43978571Y-68307142D01*
X43550000Y-68450000D01*
X43264285Y-68735714D01*
X43121428Y-69021428D01*
X42978571Y-69592857D01*
X42978571Y-70021428D01*
X43121428Y-70592857D01*
X43264285Y-70878571D01*
X43550000Y-71164285D01*
X43978571Y-71307142D01*
X44692857Y-71307142D01*
X39835714Y-68307142D02*
X38835714Y-71307142D01*
X37835714Y-68307142D01*
X35264285Y-71307142D02*
X36978571Y-71307142D01*
X36121428Y-71307142D02*
X36121428Y-68307142D01*
X36407142Y-68735714D01*
X36692857Y-69021428D01*
X36978571Y-69164285D01*
X33978571Y-71021428D02*
X33835714Y-71164285D01*
X33978571Y-71307142D01*
X34121428Y-71164285D01*
X33978571Y-71021428D01*
X33978571Y-71307142D01*
X31978571Y-68307142D02*
X31692857Y-68307142D01*
X31407142Y-68450000D01*
X31264285Y-68592857D01*
X31121428Y-68878571D01*
X30978571Y-69450000D01*
X30978571Y-70164285D01*
X31121428Y-70735714D01*
X31264285Y-71021428D01*
X31407142Y-71164285D01*
X31692857Y-71307142D01*
X31978571Y-71307142D01*
X32264285Y-71164285D01*
X32407142Y-71021428D01*
X32550000Y-70735714D01*
X32692857Y-70164285D01*
X32692857Y-69450000D01*
X32550000Y-68878571D01*
X32407142Y-68592857D01*
X32264285Y-68450000D01*
X31978571Y-68307142D01*
D11*
X89210000Y-26620000D02*
X89210000Y-25350000D01*
X89210000Y-25350000D02*
X81590000Y-25350000D01*
X81590000Y-25350000D02*
X81590000Y-26620000D01*
X90480000Y-38050000D02*
X90480000Y-41860000D01*
X90480000Y-41860000D02*
X87940000Y-41860000D01*
X87940000Y-41860000D02*
X87940000Y-38050000D01*
X87940000Y-38050000D02*
X90480000Y-38050000D01*
X89210000Y-31700000D02*
X81590000Y-31700000D01*
X81590000Y-31700000D02*
X81590000Y-26620000D01*
X89210000Y-31700000D02*
X89210000Y-26620000D01*
X90480000Y-32970000D02*
X90480000Y-35510000D01*
X90480000Y-35510000D02*
X87940000Y-35510000D01*
X87940000Y-35510000D02*
X87940000Y-32970000D01*
X87940000Y-32970000D02*
X90480000Y-32970000D01*
X87940000Y-59640000D02*
X87940000Y-57100000D01*
X87940000Y-57100000D02*
X82860000Y-57100000D01*
X82860000Y-57100000D02*
X82860000Y-59640000D01*
X90480000Y-53290000D02*
X80320000Y-53290000D01*
X80320000Y-44400000D02*
X90480000Y-44400000D01*
X80320000Y-53290000D02*
X80320000Y-44400000D01*
X90480000Y-53290000D02*
X90480000Y-44400000D01*
X76510000Y-26620000D02*
X76510000Y-62180000D01*
X76510000Y-62180000D02*
X94290000Y-62180000D01*
X94290000Y-62180000D02*
X94290000Y-26620000D01*
X94290000Y-26620000D02*
X76510000Y-26620000D01*
D12*
G36*
X88321000Y-48337000D02*
G01*
X88067000Y-48083000D01*
X87813000Y-48464000D01*
X88067000Y-48718000D01*
X88321000Y-48337000D01*
G37*
X88321000Y-48337000D02*
X88067000Y-48083000D01*
X87813000Y-48464000D01*
X88067000Y-48718000D01*
X88321000Y-48337000D01*
G36*
X88702000Y-48718000D02*
G01*
X88448000Y-48464000D01*
X88194000Y-48845000D01*
X88448000Y-49099000D01*
X88702000Y-48718000D01*
G37*
X88702000Y-48718000D02*
X88448000Y-48464000D01*
X88194000Y-48845000D01*
X88448000Y-49099000D01*
X88702000Y-48718000D01*
G36*
X87559000Y-49353000D02*
G01*
X87305000Y-49099000D01*
X87051000Y-49480000D01*
X87305000Y-49734000D01*
X87559000Y-49353000D01*
G37*
X87559000Y-49353000D02*
X87305000Y-49099000D01*
X87051000Y-49480000D01*
X87305000Y-49734000D01*
X87559000Y-49353000D01*
G36*
X89464000Y-48591000D02*
G01*
X89210000Y-48337000D01*
X88956000Y-48718000D01*
X89210000Y-48972000D01*
X89464000Y-48591000D01*
G37*
X89464000Y-48591000D02*
X89210000Y-48337000D01*
X88956000Y-48718000D01*
X89210000Y-48972000D01*
X89464000Y-48591000D01*
G36*
X87940000Y-48845000D02*
G01*
X87686000Y-48591000D01*
X87432000Y-48972000D01*
X87686000Y-49226000D01*
X87940000Y-48845000D01*
G37*
X87940000Y-48845000D02*
X87686000Y-48591000D01*
X87432000Y-48972000D01*
X87686000Y-49226000D01*
X87940000Y-48845000D01*
G36*
X89845000Y-48972000D02*
G01*
X89591000Y-48718000D01*
X89337000Y-49099000D01*
X89591000Y-49353000D01*
X89845000Y-48972000D01*
G37*
X89845000Y-48972000D02*
X89591000Y-48718000D01*
X89337000Y-49099000D01*
X89591000Y-49353000D01*
X89845000Y-48972000D01*
G36*
X89083000Y-48210000D02*
G01*
X88829000Y-47956000D01*
X88575000Y-48337000D01*
X88829000Y-48591000D01*
X89083000Y-48210000D01*
G37*
X89083000Y-48210000D02*
X88829000Y-47956000D01*
X88575000Y-48337000D01*
X88829000Y-48591000D01*
X89083000Y-48210000D01*
G36*
X88321000Y-49226000D02*
G01*
X88067000Y-48972000D01*
X87813000Y-49353000D01*
X88067000Y-49607000D01*
X88321000Y-49226000D01*
G37*
X88321000Y-49226000D02*
X88067000Y-48972000D01*
X87813000Y-49353000D01*
X88067000Y-49607000D01*
X88321000Y-49226000D01*
D13*
X100065000Y-43227064D02*
X100065000Y-42772936D01*
X101535000Y-43227064D02*
X101535000Y-42772936D01*
X108065000Y-43227064D02*
X108065000Y-42772936D01*
X109535000Y-43227064D02*
X109535000Y-42772936D01*
D11*
X83352380Y-40538095D02*
X84161904Y-40538095D01*
X84257142Y-40585714D01*
X84304761Y-40633333D01*
X84352380Y-40728571D01*
X84352380Y-40919047D01*
X84304761Y-41014285D01*
X84257142Y-41061904D01*
X84161904Y-41109523D01*
X83352380Y-41109523D01*
X84352380Y-42109523D02*
X84352380Y-41538095D01*
X84352380Y-41823809D02*
X83352380Y-41823809D01*
X83495238Y-41728571D01*
X83590476Y-41633333D01*
X83638095Y-41538095D01*
X84192666Y-44628333D02*
X83492666Y-44628333D01*
X83992666Y-44861666D01*
X83492666Y-45095000D01*
X84192666Y-45095000D01*
X84192666Y-45428333D02*
X83492666Y-45428333D01*
X84192666Y-45828333D02*
X83792666Y-45528333D01*
X83492666Y-45828333D02*
X83892666Y-45428333D01*
X83559333Y-46095000D02*
X83526000Y-46128333D01*
X83492666Y-46195000D01*
X83492666Y-46361666D01*
X83526000Y-46428333D01*
X83559333Y-46461666D01*
X83626000Y-46495000D01*
X83692666Y-46495000D01*
X83792666Y-46461666D01*
X84192666Y-46061666D01*
X84192666Y-46495000D01*
X83492666Y-46928333D02*
X83492666Y-46995000D01*
X83526000Y-47061666D01*
X83559333Y-47095000D01*
X83626000Y-47128333D01*
X83759333Y-47161666D01*
X83926000Y-47161666D01*
X84059333Y-47128333D01*
X84126000Y-47095000D01*
X84159333Y-47061666D01*
X84192666Y-46995000D01*
X84192666Y-46928333D01*
X84159333Y-46861666D01*
X84126000Y-46828333D01*
X84059333Y-46795000D01*
X83926000Y-46761666D01*
X83759333Y-46761666D01*
X83626000Y-46795000D01*
X83559333Y-46828333D01*
X83526000Y-46861666D01*
X83492666Y-46928333D01*
X84192666Y-47461666D02*
X83492666Y-47461666D01*
X83492666Y-47628333D01*
X83526000Y-47728333D01*
X83592666Y-47795000D01*
X83659333Y-47828333D01*
X83792666Y-47861666D01*
X83892666Y-47861666D01*
X84026000Y-47828333D01*
X84092666Y-47795000D01*
X84159333Y-47728333D01*
X84192666Y-47628333D01*
X84192666Y-47461666D01*
X83492666Y-48095000D02*
X84192666Y-48561666D01*
X83492666Y-48561666D02*
X84192666Y-48095000D01*
X84192666Y-49195000D02*
X84192666Y-48795000D01*
X84192666Y-48995000D02*
X83492666Y-48995000D01*
X83592666Y-48928333D01*
X83659333Y-48861666D01*
X83692666Y-48795000D01*
X83559333Y-49461666D02*
X83526000Y-49495000D01*
X83492666Y-49561666D01*
X83492666Y-49728333D01*
X83526000Y-49795000D01*
X83559333Y-49828333D01*
X83626000Y-49861666D01*
X83692666Y-49861666D01*
X83792666Y-49828333D01*
X84192666Y-49428333D01*
X84192666Y-49861666D01*
X83792666Y-50261666D02*
X83759333Y-50195000D01*
X83726000Y-50161666D01*
X83659333Y-50128333D01*
X83626000Y-50128333D01*
X83559333Y-50161666D01*
X83526000Y-50195000D01*
X83492666Y-50261666D01*
X83492666Y-50395000D01*
X83526000Y-50461666D01*
X83559333Y-50495000D01*
X83626000Y-50528333D01*
X83659333Y-50528333D01*
X83726000Y-50495000D01*
X83759333Y-50461666D01*
X83792666Y-50395000D01*
X83792666Y-50261666D01*
X83826000Y-50195000D01*
X83859333Y-50161666D01*
X83926000Y-50128333D01*
X84059333Y-50128333D01*
X84126000Y-50161666D01*
X84159333Y-50195000D01*
X84192666Y-50261666D01*
X84192666Y-50395000D01*
X84159333Y-50461666D01*
X84126000Y-50495000D01*
X84059333Y-50528333D01*
X83926000Y-50528333D01*
X83859333Y-50495000D01*
X83826000Y-50461666D01*
X83792666Y-50395000D01*
X83492666Y-50728333D02*
X84192666Y-50961666D01*
X83492666Y-51195000D01*
X84192666Y-51761666D02*
X84192666Y-51428333D01*
X83492666Y-51428333D01*
X84192666Y-51995000D02*
X83492666Y-51995000D01*
X83826000Y-51995000D02*
X83826000Y-52395000D01*
X84192666Y-52395000D02*
X83492666Y-52395000D01*
X83492666Y-53061666D02*
X83492666Y-52728333D01*
X83826000Y-52695000D01*
X83792666Y-52728333D01*
X83759333Y-52795000D01*
X83759333Y-52961666D01*
X83792666Y-53028333D01*
X83826000Y-53061666D01*
X83892666Y-53095000D01*
X84059333Y-53095000D01*
X84126000Y-53061666D01*
X84159333Y-53028333D01*
X84192666Y-52961666D01*
X84192666Y-52795000D01*
X84159333Y-52728333D01*
X84126000Y-52695000D01*
X85462666Y-45111666D02*
X84762666Y-45111666D01*
X85262666Y-45345000D01*
X84762666Y-45578333D01*
X85462666Y-45578333D01*
X85462666Y-45911666D02*
X84762666Y-45911666D01*
X85462666Y-46311666D02*
X85062666Y-46011666D01*
X84762666Y-46311666D02*
X85162666Y-45911666D01*
X85462666Y-46945000D02*
X85462666Y-46611666D01*
X84762666Y-46611666D01*
X84829333Y-47145000D02*
X84796000Y-47178333D01*
X84762666Y-47245000D01*
X84762666Y-47411666D01*
X84796000Y-47478333D01*
X84829333Y-47511666D01*
X84896000Y-47545000D01*
X84962666Y-47545000D01*
X85062666Y-47511666D01*
X85462666Y-47111666D01*
X85462666Y-47545000D01*
X84762666Y-48145000D02*
X84762666Y-48011666D01*
X84796000Y-47945000D01*
X84829333Y-47911666D01*
X84929333Y-47845000D01*
X85062666Y-47811666D01*
X85329333Y-47811666D01*
X85396000Y-47845000D01*
X85429333Y-47878333D01*
X85462666Y-47945000D01*
X85462666Y-48078333D01*
X85429333Y-48145000D01*
X85396000Y-48178333D01*
X85329333Y-48211666D01*
X85162666Y-48211666D01*
X85096000Y-48178333D01*
X85062666Y-48145000D01*
X85029333Y-48078333D01*
X85029333Y-47945000D01*
X85062666Y-47878333D01*
X85096000Y-47845000D01*
X85162666Y-47811666D01*
X84762666Y-48445000D02*
X84762666Y-48911666D01*
X85462666Y-48445000D01*
X85462666Y-48911666D01*
X84762666Y-49478333D02*
X84762666Y-49345000D01*
X84796000Y-49278333D01*
X84829333Y-49245000D01*
X84929333Y-49178333D01*
X85062666Y-49145000D01*
X85329333Y-49145000D01*
X85396000Y-49178333D01*
X85429333Y-49211666D01*
X85462666Y-49278333D01*
X85462666Y-49411666D01*
X85429333Y-49478333D01*
X85396000Y-49511666D01*
X85329333Y-49545000D01*
X85162666Y-49545000D01*
X85096000Y-49511666D01*
X85062666Y-49478333D01*
X85029333Y-49411666D01*
X85029333Y-49278333D01*
X85062666Y-49211666D01*
X85096000Y-49178333D01*
X85162666Y-49145000D01*
X84996000Y-50145000D02*
X85462666Y-50145000D01*
X84729333Y-49978333D02*
X85229333Y-49811666D01*
X85229333Y-50245000D01*
X84762666Y-50411666D02*
X85462666Y-50645000D01*
X84762666Y-50878333D01*
X85096000Y-51345000D02*
X85096000Y-51111666D01*
X85462666Y-51111666D02*
X84762666Y-51111666D01*
X84762666Y-51445000D01*
X84762666Y-51611666D02*
X84762666Y-52011666D01*
X85462666Y-51811666D02*
X84762666Y-51811666D01*
X84996000Y-52545000D02*
X85462666Y-52545000D01*
X84729333Y-52378333D02*
X85229333Y-52211666D01*
X85229333Y-52645000D01*
X82922666Y-44628333D02*
X82222666Y-44628333D01*
X82722666Y-44861666D01*
X82222666Y-45095000D01*
X82922666Y-45095000D01*
X82922666Y-45428333D02*
X82222666Y-45428333D01*
X82922666Y-45828333D02*
X82522666Y-45528333D01*
X82222666Y-45828333D02*
X82622666Y-45428333D01*
X82289333Y-46095000D02*
X82256000Y-46128333D01*
X82222666Y-46195000D01*
X82222666Y-46361666D01*
X82256000Y-46428333D01*
X82289333Y-46461666D01*
X82356000Y-46495000D01*
X82422666Y-46495000D01*
X82522666Y-46461666D01*
X82922666Y-46061666D01*
X82922666Y-46495000D01*
X82222666Y-46928333D02*
X82222666Y-46995000D01*
X82256000Y-47061666D01*
X82289333Y-47095000D01*
X82356000Y-47128333D01*
X82489333Y-47161666D01*
X82656000Y-47161666D01*
X82789333Y-47128333D01*
X82856000Y-47095000D01*
X82889333Y-47061666D01*
X82922666Y-46995000D01*
X82922666Y-46928333D01*
X82889333Y-46861666D01*
X82856000Y-46828333D01*
X82789333Y-46795000D01*
X82656000Y-46761666D01*
X82489333Y-46761666D01*
X82356000Y-46795000D01*
X82289333Y-46828333D01*
X82256000Y-46861666D01*
X82222666Y-46928333D01*
X82922666Y-47461666D02*
X82222666Y-47461666D01*
X82222666Y-47628333D01*
X82256000Y-47728333D01*
X82322666Y-47795000D01*
X82389333Y-47828333D01*
X82522666Y-47861666D01*
X82622666Y-47861666D01*
X82756000Y-47828333D01*
X82822666Y-47795000D01*
X82889333Y-47728333D01*
X82922666Y-47628333D01*
X82922666Y-47461666D01*
X82222666Y-48095000D02*
X82922666Y-48561666D01*
X82222666Y-48561666D02*
X82922666Y-48095000D01*
X82289333Y-48795000D02*
X82256000Y-48828333D01*
X82222666Y-48895000D01*
X82222666Y-49061666D01*
X82256000Y-49128333D01*
X82289333Y-49161666D01*
X82356000Y-49195000D01*
X82422666Y-49195000D01*
X82522666Y-49161666D01*
X82922666Y-48761666D01*
X82922666Y-49195000D01*
X82222666Y-49828333D02*
X82222666Y-49495000D01*
X82556000Y-49461666D01*
X82522666Y-49495000D01*
X82489333Y-49561666D01*
X82489333Y-49728333D01*
X82522666Y-49795000D01*
X82556000Y-49828333D01*
X82622666Y-49861666D01*
X82789333Y-49861666D01*
X82856000Y-49828333D01*
X82889333Y-49795000D01*
X82922666Y-49728333D01*
X82922666Y-49561666D01*
X82889333Y-49495000D01*
X82856000Y-49461666D01*
X82222666Y-50461666D02*
X82222666Y-50328333D01*
X82256000Y-50261666D01*
X82289333Y-50228333D01*
X82389333Y-50161666D01*
X82522666Y-50128333D01*
X82789333Y-50128333D01*
X82856000Y-50161666D01*
X82889333Y-50195000D01*
X82922666Y-50261666D01*
X82922666Y-50395000D01*
X82889333Y-50461666D01*
X82856000Y-50495000D01*
X82789333Y-50528333D01*
X82622666Y-50528333D01*
X82556000Y-50495000D01*
X82522666Y-50461666D01*
X82489333Y-50395000D01*
X82489333Y-50261666D01*
X82522666Y-50195000D01*
X82556000Y-50161666D01*
X82622666Y-50128333D01*
X82222666Y-50728333D02*
X82922666Y-50961666D01*
X82222666Y-51195000D01*
X82922666Y-51761666D02*
X82922666Y-51428333D01*
X82222666Y-51428333D01*
X82922666Y-51995000D02*
X82222666Y-51995000D01*
X82556000Y-51995000D02*
X82556000Y-52395000D01*
X82922666Y-52395000D02*
X82222666Y-52395000D01*
X82222666Y-52661666D02*
X82222666Y-53128333D01*
X82922666Y-52828333D01*
X102902380Y-42833333D02*
X102426190Y-42500000D01*
X102902380Y-42261904D02*
X101902380Y-42261904D01*
X101902380Y-42642857D01*
X101950000Y-42738095D01*
X101997619Y-42785714D01*
X102092857Y-42833333D01*
X102235714Y-42833333D01*
X102330952Y-42785714D01*
X102378571Y-42738095D01*
X102426190Y-42642857D01*
X102426190Y-42261904D01*
X101902380Y-43690476D02*
X101902380Y-43500000D01*
X101950000Y-43404761D01*
X101997619Y-43357142D01*
X102140476Y-43261904D01*
X102330952Y-43214285D01*
X102711904Y-43214285D01*
X102807142Y-43261904D01*
X102854761Y-43309523D01*
X102902380Y-43404761D01*
X102902380Y-43595238D01*
X102854761Y-43690476D01*
X102807142Y-43738095D01*
X102711904Y-43785714D01*
X102473809Y-43785714D01*
X102378571Y-43738095D01*
X102330952Y-43690476D01*
X102283333Y-43595238D01*
X102283333Y-43404761D01*
X102330952Y-43309523D01*
X102378571Y-43261904D01*
X102473809Y-43214285D01*
X110902380Y-42833333D02*
X110426190Y-42500000D01*
X110902380Y-42261904D02*
X109902380Y-42261904D01*
X109902380Y-42642857D01*
X109950000Y-42738095D01*
X109997619Y-42785714D01*
X110092857Y-42833333D01*
X110235714Y-42833333D01*
X110330952Y-42785714D01*
X110378571Y-42738095D01*
X110426190Y-42642857D01*
X110426190Y-42261904D01*
X110902380Y-43785714D02*
X110902380Y-43214285D01*
X110902380Y-43500000D02*
X109902380Y-43500000D01*
X110045238Y-43404761D01*
X110140476Y-43309523D01*
X110188095Y-43214285D01*
M02*
