M48
; DRILL file {KiCad (5.1.9-0-10_14)} date Sunday, January 10, 2021 at 08:35:47 PM
; FORMAT={-:-/ absolute / inch / decimal}
; #@! TF.CreationDate,2021-01-10T20:35:47-05:00
; #@! TF.GenerationSoftware,Kicad,Pcbnew,(5.1.9-0-10_14)
; #@! TF.FileFunction,Plated,1,2,PTH
FMAT,2
INCH
T1C0.0157
T2C0.0394
T3C0.0433
%
G90
G05
T1
X1.6077Y-2.036
X1.6085Y-2.1474
X1.6876Y-1.9423
X1.7797Y-1.8423
X1.8516Y-1.798
X2.6508Y-1.798
X2.7246Y-1.8423
X2.7919Y-1.9423
X2.8656Y-2.036
X2.8998Y-2.1474
X3.2185Y-1.872
X3.5453Y-1.498
X3.6165Y-2.6
X3.8898Y-1.7323
X4.3435Y-2.0994
X4.3713Y-2.198
X4.3768Y-2.298
X4.3902Y-2.398
X4.3903Y-1.7288
T2
X1.0Y-1.0
X1.0Y-1.1
X1.0Y-1.2
X1.0Y-1.3
X1.0Y-1.4
X1.0Y-1.5
X1.0Y-1.6
X1.0Y-1.7
X1.0Y-1.8
X1.0Y-1.9
X1.0Y-2.0
X1.0Y-2.1
X1.0Y-2.2
X1.0Y-2.3
X1.0Y-2.4
X1.0Y-2.5
X1.0Y-2.6
X1.0Y-2.7
X1.0Y-2.8
X1.0Y-2.9
X3.9705Y-1.3823
X3.9705Y-1.4823
X4.0079Y-1.0315
X4.1079Y-1.0315
X4.2079Y-1.0315
X4.2835Y-1.3823
X4.2835Y-1.4823
X4.3079Y-1.0315
X4.6Y-1.0
X4.6Y-1.1
X4.6Y-1.2
X4.6Y-1.3
X4.6Y-1.4
X4.6Y-1.5
X4.6Y-1.6
X4.6Y-1.7
X4.6Y-1.8
X4.6Y-1.9
X4.6Y-2.0
X4.6Y-2.1
X4.6Y-2.2
X4.6Y-2.3
X4.6Y-2.4
X4.6Y-2.5
X4.6Y-2.6
X4.6Y-2.7
X4.6Y-2.8
X4.6Y-2.9
T3
X3.0622Y-1.098
X3.0622Y-1.198
X3.0622Y-1.298
X3.0622Y-1.398
X3.0622Y-1.498
X3.0622Y-1.598
X3.0622Y-1.698
X3.0622Y-1.798
X3.0622Y-1.898
X3.0622Y-1.998
X3.0622Y-2.098
X3.0622Y-2.198
X3.0622Y-2.298
X3.0622Y-2.398
X3.6622Y-1.098
X3.6622Y-1.198
X3.6622Y-1.298
X3.6622Y-1.398
X3.6622Y-1.498
X3.6622Y-1.598
X3.6622Y-1.698
X3.6622Y-1.798
X3.6622Y-1.898
X3.6622Y-1.998
X3.6622Y-2.098
X3.6622Y-2.198
X3.6622Y-2.298
X3.6622Y-2.398
T0
M30
