G04 #@! TF.GenerationSoftware,KiCad,Pcbnew,(5.1.9-0-10_14)*
G04 #@! TF.CreationDate,2021-01-10T20:35:50-05:00*
G04 #@! TF.ProjectId,ebike_TFT,6562696b-655f-4544-9654-2e6b69636164,rev?*
G04 #@! TF.SameCoordinates,Original*
G04 #@! TF.FileFunction,Copper,L1,Top*
G04 #@! TF.FilePolarity,Positive*
%FSLAX46Y46*%
G04 Gerber Fmt 4.6, Leading zero omitted, Abs format (unit mm)*
G04 Created by KiCad (PCBNEW (5.1.9-0-10_14)) date 2021-01-10 20:35:50*
%MOMM*%
%LPD*%
G01*
G04 APERTURE LIST*
G04 #@! TA.AperFunction,ComponentPad*
%ADD10O,1.700000X1.700000*%
G04 #@! TD*
G04 #@! TA.AperFunction,ComponentPad*
%ADD11R,1.700000X1.700000*%
G04 #@! TD*
G04 #@! TA.AperFunction,ComponentPad*
%ADD12R,1.600000X1.600000*%
G04 #@! TD*
G04 #@! TA.AperFunction,ComponentPad*
%ADD13C,1.600000*%
G04 #@! TD*
G04 #@! TA.AperFunction,ViaPad*
%ADD14C,0.800000*%
G04 #@! TD*
G04 #@! TA.AperFunction,Conductor*
%ADD15C,0.250000*%
G04 #@! TD*
G04 #@! TA.AperFunction,Conductor*
%ADD16C,0.254000*%
G04 #@! TD*
G04 #@! TA.AperFunction,Conductor*
%ADD17C,0.100000*%
G04 #@! TD*
G04 APERTURE END LIST*
D10*
X25400000Y-73660000D03*
X25400000Y-71120000D03*
X25400000Y-68580000D03*
X25400000Y-66040000D03*
X25400000Y-63500000D03*
X25400000Y-60960000D03*
X25400000Y-58420000D03*
X25400000Y-55880000D03*
X25400000Y-53340000D03*
X25400000Y-50800000D03*
X25400000Y-48260000D03*
X25400000Y-45720000D03*
X25400000Y-43180000D03*
X25400000Y-40640000D03*
X25400000Y-38100000D03*
X25400000Y-35560000D03*
X25400000Y-33020000D03*
X25400000Y-30480000D03*
X25400000Y-27940000D03*
D11*
X25400000Y-25400000D03*
D12*
X93020000Y-27890000D03*
D13*
X93020000Y-30430000D03*
X93020000Y-32970000D03*
X93020000Y-35510000D03*
X93020000Y-38050000D03*
X93020000Y-40590000D03*
X93020000Y-43130000D03*
X93020000Y-45670000D03*
X93020000Y-48210000D03*
X93020000Y-50750000D03*
X93020000Y-53290000D03*
X93020000Y-55830000D03*
X93020000Y-58370000D03*
X77780000Y-27890000D03*
X77780000Y-30430000D03*
X77780000Y-32970000D03*
X77780000Y-35510000D03*
X77780000Y-38050000D03*
X77780000Y-40590000D03*
X77780000Y-43130000D03*
X77780000Y-45670000D03*
X77780000Y-48210000D03*
X77780000Y-50750000D03*
X77780000Y-53290000D03*
X77780000Y-55830000D03*
X77780000Y-58370000D03*
X93020000Y-60910000D03*
X77780000Y-60910000D03*
D10*
X108800000Y-35110000D03*
D11*
X108800000Y-37650000D03*
D10*
X100850000Y-35110000D03*
D11*
X100850000Y-37650000D03*
D10*
X109420000Y-26200000D03*
X106880000Y-26200000D03*
X104340000Y-26200000D03*
D11*
X101800000Y-26200000D03*
D10*
X116840000Y-73660000D03*
X116840000Y-71120000D03*
X116840000Y-68580000D03*
X116840000Y-66040000D03*
X116840000Y-63500000D03*
X116840000Y-60960000D03*
X116840000Y-58420000D03*
X116840000Y-55880000D03*
X116840000Y-53340000D03*
X116840000Y-50800000D03*
X116840000Y-48260000D03*
X116840000Y-45720000D03*
X116840000Y-43180000D03*
X116840000Y-40640000D03*
X116840000Y-38100000D03*
X116840000Y-35560000D03*
X116840000Y-33020000D03*
X116840000Y-30480000D03*
X116840000Y-27940000D03*
D11*
X116840000Y-25400000D03*
D14*
X98800000Y-44000000D03*
X111512500Y-43912500D03*
X91860000Y-66040000D03*
X111170000Y-58370000D03*
X111510000Y-60910000D03*
X111030000Y-55830000D03*
X40855001Y-54544999D03*
X73655001Y-54544999D03*
X110325000Y-53325000D03*
X40834999Y-51715001D03*
X72784999Y-51715001D03*
X42864999Y-49335001D03*
X70914999Y-49335001D03*
X81750000Y-47550000D03*
X90050000Y-38050000D03*
X45204999Y-46795001D03*
X69204999Y-46795001D03*
X47030000Y-45670000D03*
X67330000Y-45670000D03*
D15*
X82910000Y-66040000D02*
X77780000Y-60910000D01*
X91860000Y-66040000D02*
X82910000Y-66040000D01*
X111170000Y-58370000D02*
X93020000Y-58370000D01*
X111510000Y-60910000D02*
X93020000Y-60910000D01*
X36055001Y-54544999D02*
X29250010Y-61349990D01*
X29250009Y-65186401D02*
X27400000Y-67036410D01*
X27400000Y-67036410D02*
X26943590Y-67036410D01*
X29250010Y-61349990D02*
X29250009Y-65186401D01*
X26943590Y-67036410D02*
X25400000Y-68580000D01*
X91734999Y-54544999D02*
X91305001Y-54544999D01*
X93020000Y-55830000D02*
X91734999Y-54544999D01*
X91305001Y-54544999D02*
X73655001Y-54544999D01*
X91355001Y-54544999D02*
X91305001Y-54544999D01*
X111030000Y-55830000D02*
X93020000Y-55830000D01*
X40855001Y-54544999D02*
X36055001Y-54544999D01*
X37684999Y-51715001D02*
X28800000Y-60600000D01*
X28800000Y-60600000D02*
X28800000Y-65000000D01*
X27760000Y-66040000D02*
X25400000Y-66040000D01*
X28800000Y-65000000D02*
X27760000Y-66040000D01*
X93055000Y-53325000D02*
X93020000Y-53290000D01*
X110325000Y-53325000D02*
X93055000Y-53325000D01*
X40834999Y-51715001D02*
X37684999Y-51715001D01*
X72784999Y-51715001D02*
X73184998Y-52115000D01*
X93020000Y-53290000D02*
X91490000Y-53290000D01*
X91490000Y-53290000D02*
X90315000Y-52115000D01*
X73184998Y-52115000D02*
X90315000Y-52115000D01*
X80014999Y-49335001D02*
X70914999Y-49335001D01*
X93020000Y-38050000D02*
X90050000Y-38050000D01*
X80075000Y-49275000D02*
X80014999Y-49335001D01*
X80075000Y-49225000D02*
X81750000Y-47550000D01*
X80075000Y-49275000D02*
X80075000Y-49225000D01*
X32814999Y-49335001D02*
X42864999Y-49335001D01*
X26355000Y-54925000D02*
X27225000Y-54925000D01*
X25400000Y-55880000D02*
X26355000Y-54925000D01*
X27225000Y-54925000D02*
X32814999Y-49335001D01*
X77780000Y-38050000D02*
X80550000Y-40820000D01*
X80550000Y-40820000D02*
X80550000Y-45500000D01*
X80550000Y-45500000D02*
X79254999Y-46795001D01*
X79254999Y-46795001D02*
X69204999Y-46795001D01*
X33754999Y-46795001D02*
X45204999Y-46795001D01*
X27750000Y-52800000D02*
X33754999Y-46795001D01*
X25940000Y-52800000D02*
X27750000Y-52800000D01*
X25400000Y-53340000D02*
X25940000Y-52800000D01*
X77780000Y-45670000D02*
X67330000Y-45670000D01*
X47030000Y-45670000D02*
X33730000Y-45670000D01*
X33730000Y-45670000D02*
X30350000Y-49050000D01*
X30350000Y-49050000D02*
X28300000Y-49050000D01*
X28300000Y-49050000D02*
X26850000Y-47600000D01*
X26850000Y-47170000D02*
X25400000Y-45720000D01*
X26850000Y-47600000D02*
X26850000Y-47170000D01*
X102810000Y-30270000D02*
X106880000Y-26200000D01*
X93020000Y-32970000D02*
X94880000Y-32970000D01*
X97580000Y-30270000D02*
X102810000Y-30270000D01*
X94880000Y-32970000D02*
X97580000Y-30270000D01*
X104340000Y-27660000D02*
X102600000Y-29400000D01*
X104340000Y-26200000D02*
X104340000Y-27660000D01*
X102600000Y-29400000D02*
X97000000Y-29400000D01*
X95970000Y-30430000D02*
X93020000Y-30430000D01*
X97000000Y-29400000D02*
X95970000Y-30430000D01*
D16*
X115351928Y-26250000D02*
X115364188Y-26374482D01*
X115400498Y-26494180D01*
X115459463Y-26604494D01*
X115538815Y-26701185D01*
X115635506Y-26780537D01*
X115745820Y-26839502D01*
X115818380Y-26861513D01*
X115686525Y-26993368D01*
X115524010Y-27236589D01*
X115412068Y-27506842D01*
X115355000Y-27793740D01*
X115355000Y-28086260D01*
X115412068Y-28373158D01*
X115524010Y-28643411D01*
X115686525Y-28886632D01*
X115893368Y-29093475D01*
X116067760Y-29210000D01*
X115893368Y-29326525D01*
X115686525Y-29533368D01*
X115524010Y-29776589D01*
X115412068Y-30046842D01*
X115355000Y-30333740D01*
X115355000Y-30626260D01*
X115412068Y-30913158D01*
X115524010Y-31183411D01*
X115686525Y-31426632D01*
X115893368Y-31633475D01*
X116067760Y-31750000D01*
X115893368Y-31866525D01*
X115686525Y-32073368D01*
X115524010Y-32316589D01*
X115412068Y-32586842D01*
X115355000Y-32873740D01*
X115355000Y-33166260D01*
X115412068Y-33453158D01*
X115524010Y-33723411D01*
X115686525Y-33966632D01*
X115893368Y-34173475D01*
X116067760Y-34290000D01*
X115893368Y-34406525D01*
X115686525Y-34613368D01*
X115524010Y-34856589D01*
X115412068Y-35126842D01*
X115355000Y-35413740D01*
X115355000Y-35706260D01*
X115412068Y-35993158D01*
X115524010Y-36263411D01*
X115686525Y-36506632D01*
X115893368Y-36713475D01*
X116067760Y-36830000D01*
X115893368Y-36946525D01*
X115686525Y-37153368D01*
X115524010Y-37396589D01*
X115412068Y-37666842D01*
X115355000Y-37953740D01*
X115355000Y-38246260D01*
X115412068Y-38533158D01*
X115524010Y-38803411D01*
X115686525Y-39046632D01*
X115893368Y-39253475D01*
X116067760Y-39370000D01*
X115893368Y-39486525D01*
X115686525Y-39693368D01*
X115524010Y-39936589D01*
X115412068Y-40206842D01*
X115355000Y-40493740D01*
X115355000Y-40786260D01*
X115412068Y-41073158D01*
X115524010Y-41343411D01*
X115686525Y-41586632D01*
X115893368Y-41793475D01*
X116067760Y-41910000D01*
X115893368Y-42026525D01*
X115686525Y-42233368D01*
X115524010Y-42476589D01*
X115412068Y-42746842D01*
X115355000Y-43033740D01*
X115355000Y-43326260D01*
X115412068Y-43613158D01*
X115524010Y-43883411D01*
X115686525Y-44126632D01*
X115893368Y-44333475D01*
X116067760Y-44450000D01*
X115893368Y-44566525D01*
X115686525Y-44773368D01*
X115524010Y-45016589D01*
X115412068Y-45286842D01*
X115355000Y-45573740D01*
X115355000Y-45866260D01*
X115412068Y-46153158D01*
X115524010Y-46423411D01*
X115686525Y-46666632D01*
X115893368Y-46873475D01*
X116067760Y-46990000D01*
X115893368Y-47106525D01*
X115686525Y-47313368D01*
X115524010Y-47556589D01*
X115412068Y-47826842D01*
X115355000Y-48113740D01*
X115355000Y-48406260D01*
X115412068Y-48693158D01*
X115524010Y-48963411D01*
X115686525Y-49206632D01*
X115893368Y-49413475D01*
X116067760Y-49530000D01*
X115893368Y-49646525D01*
X115686525Y-49853368D01*
X115524010Y-50096589D01*
X115412068Y-50366842D01*
X115355000Y-50653740D01*
X115355000Y-50946260D01*
X115412068Y-51233158D01*
X115524010Y-51503411D01*
X115686525Y-51746632D01*
X115893368Y-51953475D01*
X116067760Y-52070000D01*
X115893368Y-52186525D01*
X115686525Y-52393368D01*
X115524010Y-52636589D01*
X115412068Y-52906842D01*
X115355000Y-53193740D01*
X115355000Y-53486260D01*
X115412068Y-53773158D01*
X115524010Y-54043411D01*
X115686525Y-54286632D01*
X115893368Y-54493475D01*
X116067760Y-54610000D01*
X115893368Y-54726525D01*
X115686525Y-54933368D01*
X115524010Y-55176589D01*
X115412068Y-55446842D01*
X115355000Y-55733740D01*
X115355000Y-56026260D01*
X115412068Y-56313158D01*
X115524010Y-56583411D01*
X115686525Y-56826632D01*
X115893368Y-57033475D01*
X116067760Y-57150000D01*
X115893368Y-57266525D01*
X115686525Y-57473368D01*
X115524010Y-57716589D01*
X115412068Y-57986842D01*
X115355000Y-58273740D01*
X115355000Y-58566260D01*
X115412068Y-58853158D01*
X115524010Y-59123411D01*
X115686525Y-59366632D01*
X115893368Y-59573475D01*
X116067760Y-59690000D01*
X115893368Y-59806525D01*
X115686525Y-60013368D01*
X115524010Y-60256589D01*
X115412068Y-60526842D01*
X115355000Y-60813740D01*
X115355000Y-61106260D01*
X115412068Y-61393158D01*
X115524010Y-61663411D01*
X115686525Y-61906632D01*
X115893368Y-62113475D01*
X116067760Y-62230000D01*
X115893368Y-62346525D01*
X115686525Y-62553368D01*
X115524010Y-62796589D01*
X115412068Y-63066842D01*
X115355000Y-63353740D01*
X115355000Y-63646260D01*
X115412068Y-63933158D01*
X115524010Y-64203411D01*
X115686525Y-64446632D01*
X115893368Y-64653475D01*
X116067760Y-64770000D01*
X115893368Y-64886525D01*
X115686525Y-65093368D01*
X115524010Y-65336589D01*
X115412068Y-65606842D01*
X115355000Y-65893740D01*
X115355000Y-66186260D01*
X115412068Y-66473158D01*
X115524010Y-66743411D01*
X115686525Y-66986632D01*
X115893368Y-67193475D01*
X116067760Y-67310000D01*
X115893368Y-67426525D01*
X115686525Y-67633368D01*
X115524010Y-67876589D01*
X115412068Y-68146842D01*
X115355000Y-68433740D01*
X115355000Y-68726260D01*
X115412068Y-69013158D01*
X115524010Y-69283411D01*
X115686525Y-69526632D01*
X115893368Y-69733475D01*
X116067760Y-69850000D01*
X115893368Y-69966525D01*
X115686525Y-70173368D01*
X115524010Y-70416589D01*
X115412068Y-70686842D01*
X115355000Y-70973740D01*
X115355000Y-71266260D01*
X115412068Y-71553158D01*
X115524010Y-71823411D01*
X115686525Y-72066632D01*
X115893368Y-72273475D01*
X116136589Y-72435990D01*
X116406842Y-72547932D01*
X116693740Y-72605000D01*
X116986260Y-72605000D01*
X117273158Y-72547932D01*
X117340000Y-72520245D01*
X117340000Y-74290351D01*
X24660000Y-74339650D01*
X24660000Y-72411542D01*
X24696589Y-72435990D01*
X24966842Y-72547932D01*
X25253740Y-72605000D01*
X25546260Y-72605000D01*
X25833158Y-72547932D01*
X26103411Y-72435990D01*
X26346632Y-72273475D01*
X26553475Y-72066632D01*
X26715990Y-71823411D01*
X26827932Y-71553158D01*
X26885000Y-71266260D01*
X26885000Y-70973740D01*
X26827932Y-70686842D01*
X26715990Y-70416589D01*
X26553475Y-70173368D01*
X26346632Y-69966525D01*
X26172240Y-69850000D01*
X26346632Y-69733475D01*
X26553475Y-69526632D01*
X26715990Y-69283411D01*
X26827932Y-69013158D01*
X26885000Y-68726260D01*
X26885000Y-68433740D01*
X26841210Y-68213592D01*
X27258392Y-67796410D01*
X27362678Y-67796410D01*
X27400000Y-67800086D01*
X27437322Y-67796410D01*
X27437333Y-67796410D01*
X27548986Y-67785413D01*
X27692247Y-67741956D01*
X27824276Y-67671384D01*
X27940001Y-67576411D01*
X27963804Y-67547407D01*
X29761016Y-65750196D01*
X29790009Y-65726402D01*
X29813803Y-65697409D01*
X29813808Y-65697404D01*
X29884983Y-65610677D01*
X29955555Y-65478648D01*
X29999011Y-65335387D01*
X30013685Y-65186401D01*
X30010008Y-65149069D01*
X30010010Y-61664791D01*
X36369803Y-55304999D01*
X40151290Y-55304999D01*
X40195227Y-55348936D01*
X40364745Y-55462204D01*
X40553103Y-55540225D01*
X40753062Y-55579999D01*
X40956940Y-55579999D01*
X41156899Y-55540225D01*
X41345257Y-55462204D01*
X41514775Y-55348936D01*
X41658938Y-55204773D01*
X41772206Y-55035255D01*
X41850227Y-54846897D01*
X41890001Y-54646938D01*
X41890001Y-54443060D01*
X41850227Y-54243101D01*
X41772206Y-54054743D01*
X41658938Y-53885225D01*
X41514775Y-53741062D01*
X41345257Y-53627794D01*
X41156899Y-53549773D01*
X40956940Y-53509999D01*
X40753062Y-53509999D01*
X40553103Y-53549773D01*
X40364745Y-53627794D01*
X40195227Y-53741062D01*
X40151290Y-53784999D01*
X36689803Y-53784999D01*
X37999801Y-52475001D01*
X40131288Y-52475001D01*
X40175225Y-52518938D01*
X40344743Y-52632206D01*
X40533101Y-52710227D01*
X40733060Y-52750001D01*
X40936938Y-52750001D01*
X41136897Y-52710227D01*
X41325255Y-52632206D01*
X41494773Y-52518938D01*
X41638936Y-52374775D01*
X41752204Y-52205257D01*
X41830225Y-52016899D01*
X41869999Y-51816940D01*
X41869999Y-51613062D01*
X41830225Y-51413103D01*
X41752204Y-51224745D01*
X41638936Y-51055227D01*
X41494773Y-50911064D01*
X41325255Y-50797796D01*
X41136897Y-50719775D01*
X40936938Y-50680001D01*
X40733060Y-50680001D01*
X40533101Y-50719775D01*
X40344743Y-50797796D01*
X40175225Y-50911064D01*
X40131288Y-50955001D01*
X37722321Y-50955001D01*
X37684998Y-50951325D01*
X37647675Y-50955001D01*
X37647666Y-50955001D01*
X37536013Y-50965998D01*
X37392752Y-51009455D01*
X37260722Y-51080027D01*
X37177082Y-51148669D01*
X37144998Y-51175000D01*
X37121200Y-51203998D01*
X28289003Y-60036196D01*
X28259999Y-60059999D01*
X28222196Y-60106063D01*
X28165026Y-60175724D01*
X28111948Y-60275026D01*
X28094454Y-60307754D01*
X28050997Y-60451015D01*
X28040000Y-60562668D01*
X28040000Y-60562678D01*
X28036324Y-60600000D01*
X28040000Y-60637323D01*
X28040001Y-64685197D01*
X27445199Y-65280000D01*
X26678178Y-65280000D01*
X26553475Y-65093368D01*
X26346632Y-64886525D01*
X26172240Y-64770000D01*
X26346632Y-64653475D01*
X26553475Y-64446632D01*
X26715990Y-64203411D01*
X26827932Y-63933158D01*
X26885000Y-63646260D01*
X26885000Y-63353740D01*
X26827932Y-63066842D01*
X26715990Y-62796589D01*
X26553475Y-62553368D01*
X26346632Y-62346525D01*
X26172240Y-62230000D01*
X26346632Y-62113475D01*
X26553475Y-61906632D01*
X26715990Y-61663411D01*
X26827932Y-61393158D01*
X26885000Y-61106260D01*
X26885000Y-60813740D01*
X26827932Y-60526842D01*
X26715990Y-60256589D01*
X26553475Y-60013368D01*
X26346632Y-59806525D01*
X26172240Y-59690000D01*
X26346632Y-59573475D01*
X26553475Y-59366632D01*
X26715990Y-59123411D01*
X26827932Y-58853158D01*
X26885000Y-58566260D01*
X26885000Y-58273740D01*
X26827932Y-57986842D01*
X26715990Y-57716589D01*
X26553475Y-57473368D01*
X26346632Y-57266525D01*
X26172240Y-57150000D01*
X26346632Y-57033475D01*
X26553475Y-56826632D01*
X26715990Y-56583411D01*
X26827932Y-56313158D01*
X26885000Y-56026260D01*
X26885000Y-55733740D01*
X26875305Y-55685000D01*
X27187678Y-55685000D01*
X27225000Y-55688676D01*
X27262322Y-55685000D01*
X27262333Y-55685000D01*
X27373986Y-55674003D01*
X27517247Y-55630546D01*
X27649276Y-55559974D01*
X27765001Y-55465001D01*
X27788804Y-55435997D01*
X33129802Y-50095001D01*
X42161288Y-50095001D01*
X42205225Y-50138938D01*
X42374743Y-50252206D01*
X42563101Y-50330227D01*
X42763060Y-50370001D01*
X42966938Y-50370001D01*
X43166897Y-50330227D01*
X43355255Y-50252206D01*
X43524773Y-50138938D01*
X43668936Y-49994775D01*
X43782204Y-49825257D01*
X43860225Y-49636899D01*
X43899999Y-49436940D01*
X43899999Y-49233062D01*
X43860225Y-49033103D01*
X43782204Y-48844745D01*
X43668936Y-48675227D01*
X43524773Y-48531064D01*
X43355255Y-48417796D01*
X43166897Y-48339775D01*
X42966938Y-48300001D01*
X42763060Y-48300001D01*
X42563101Y-48339775D01*
X42374743Y-48417796D01*
X42205225Y-48531064D01*
X42161288Y-48575001D01*
X33049801Y-48575001D01*
X34069801Y-47555001D01*
X44501288Y-47555001D01*
X44545225Y-47598938D01*
X44714743Y-47712206D01*
X44903101Y-47790227D01*
X45103060Y-47830001D01*
X45306938Y-47830001D01*
X45506897Y-47790227D01*
X45695255Y-47712206D01*
X45864773Y-47598938D01*
X46008936Y-47454775D01*
X46122204Y-47285257D01*
X46200225Y-47096899D01*
X46239999Y-46896940D01*
X46239999Y-46693062D01*
X46200225Y-46493103D01*
X46174087Y-46430000D01*
X46326289Y-46430000D01*
X46370226Y-46473937D01*
X46539744Y-46587205D01*
X46728102Y-46665226D01*
X46928061Y-46705000D01*
X47131939Y-46705000D01*
X47331898Y-46665226D01*
X47520256Y-46587205D01*
X47689774Y-46473937D01*
X47833937Y-46329774D01*
X47947205Y-46160256D01*
X48025226Y-45971898D01*
X48065000Y-45771939D01*
X48065000Y-45568061D01*
X66295000Y-45568061D01*
X66295000Y-45771939D01*
X66334774Y-45971898D01*
X66412795Y-46160256D01*
X66526063Y-46329774D01*
X66670226Y-46473937D01*
X66839744Y-46587205D01*
X67028102Y-46665226D01*
X67228061Y-46705000D01*
X67431939Y-46705000D01*
X67631898Y-46665226D01*
X67820256Y-46587205D01*
X67989774Y-46473937D01*
X68033711Y-46430000D01*
X68235911Y-46430000D01*
X68209773Y-46493103D01*
X68169999Y-46693062D01*
X68169999Y-46896940D01*
X68209773Y-47096899D01*
X68287794Y-47285257D01*
X68401062Y-47454775D01*
X68545225Y-47598938D01*
X68714743Y-47712206D01*
X68903101Y-47790227D01*
X69103060Y-47830001D01*
X69306938Y-47830001D01*
X69506897Y-47790227D01*
X69695255Y-47712206D01*
X69864773Y-47598938D01*
X69908710Y-47555001D01*
X76498077Y-47555001D01*
X76400147Y-47791426D01*
X76345000Y-48068665D01*
X76345000Y-48351335D01*
X76389491Y-48575001D01*
X71618710Y-48575001D01*
X71574773Y-48531064D01*
X71405255Y-48417796D01*
X71216897Y-48339775D01*
X71016938Y-48300001D01*
X70813060Y-48300001D01*
X70613101Y-48339775D01*
X70424743Y-48417796D01*
X70255225Y-48531064D01*
X70111062Y-48675227D01*
X69997794Y-48844745D01*
X69919773Y-49033103D01*
X69879999Y-49233062D01*
X69879999Y-49436940D01*
X69919773Y-49636899D01*
X69997794Y-49825257D01*
X70111062Y-49994775D01*
X70255225Y-50138938D01*
X70424743Y-50252206D01*
X70613101Y-50330227D01*
X70813060Y-50370001D01*
X71016938Y-50370001D01*
X71216897Y-50330227D01*
X71405255Y-50252206D01*
X71574773Y-50138938D01*
X71618710Y-50095001D01*
X76498077Y-50095001D01*
X76400147Y-50331426D01*
X76345000Y-50608665D01*
X76345000Y-50891335D01*
X76400147Y-51168574D01*
X76477367Y-51355000D01*
X73756158Y-51355000D01*
X73702204Y-51224745D01*
X73588936Y-51055227D01*
X73444773Y-50911064D01*
X73275255Y-50797796D01*
X73086897Y-50719775D01*
X72886938Y-50680001D01*
X72683060Y-50680001D01*
X72483101Y-50719775D01*
X72294743Y-50797796D01*
X72125225Y-50911064D01*
X71981062Y-51055227D01*
X71867794Y-51224745D01*
X71789773Y-51413103D01*
X71749999Y-51613062D01*
X71749999Y-51816940D01*
X71789773Y-52016899D01*
X71867794Y-52205257D01*
X71981062Y-52374775D01*
X72125225Y-52518938D01*
X72294743Y-52632206D01*
X72483101Y-52710227D01*
X72683060Y-52750001D01*
X72760773Y-52750001D01*
X72892751Y-52820546D01*
X73036012Y-52864003D01*
X73147665Y-52875000D01*
X73147675Y-52875000D01*
X73184997Y-52878676D01*
X73222320Y-52875000D01*
X76399436Y-52875000D01*
X76345000Y-53148665D01*
X76345000Y-53431335D01*
X76400147Y-53708574D01*
X76431803Y-53784999D01*
X74358712Y-53784999D01*
X74314775Y-53741062D01*
X74145257Y-53627794D01*
X73956899Y-53549773D01*
X73756940Y-53509999D01*
X73553062Y-53509999D01*
X73353103Y-53549773D01*
X73164745Y-53627794D01*
X72995227Y-53741062D01*
X72851064Y-53885225D01*
X72737796Y-54054743D01*
X72659775Y-54243101D01*
X72620001Y-54443060D01*
X72620001Y-54646938D01*
X72659775Y-54846897D01*
X72737796Y-55035255D01*
X72851064Y-55204773D01*
X72995227Y-55348936D01*
X73164745Y-55462204D01*
X73353103Y-55540225D01*
X73553062Y-55579999D01*
X73756940Y-55579999D01*
X73956899Y-55540225D01*
X74145257Y-55462204D01*
X74314775Y-55348936D01*
X74358712Y-55304999D01*
X76444230Y-55304999D01*
X76400147Y-55411426D01*
X76345000Y-55688665D01*
X76345000Y-55971335D01*
X76400147Y-56248574D01*
X76508320Y-56509727D01*
X76665363Y-56744759D01*
X76865241Y-56944637D01*
X77097759Y-57100000D01*
X76865241Y-57255363D01*
X76665363Y-57455241D01*
X76508320Y-57690273D01*
X76400147Y-57951426D01*
X76345000Y-58228665D01*
X76345000Y-58511335D01*
X76400147Y-58788574D01*
X76508320Y-59049727D01*
X76665363Y-59284759D01*
X76865241Y-59484637D01*
X77097759Y-59640000D01*
X76865241Y-59795363D01*
X76665363Y-59995241D01*
X76508320Y-60230273D01*
X76400147Y-60491426D01*
X76345000Y-60768665D01*
X76345000Y-61051335D01*
X76400147Y-61328574D01*
X76508320Y-61589727D01*
X76665363Y-61824759D01*
X76865241Y-62024637D01*
X77100273Y-62181680D01*
X77361426Y-62289853D01*
X77638665Y-62345000D01*
X77921335Y-62345000D01*
X78103887Y-62308688D01*
X82346201Y-66551003D01*
X82369999Y-66580001D01*
X82398997Y-66603799D01*
X82485724Y-66674974D01*
X82617753Y-66745546D01*
X82761014Y-66789003D01*
X82910000Y-66803677D01*
X82947333Y-66800000D01*
X91156289Y-66800000D01*
X91200226Y-66843937D01*
X91369744Y-66957205D01*
X91558102Y-67035226D01*
X91758061Y-67075000D01*
X91961939Y-67075000D01*
X92161898Y-67035226D01*
X92350256Y-66957205D01*
X92519774Y-66843937D01*
X92663937Y-66699774D01*
X92777205Y-66530256D01*
X92855226Y-66341898D01*
X92895000Y-66141939D01*
X92895000Y-65938061D01*
X92855226Y-65738102D01*
X92777205Y-65549744D01*
X92663937Y-65380226D01*
X92519774Y-65236063D01*
X92350256Y-65122795D01*
X92161898Y-65044774D01*
X91961939Y-65005000D01*
X91758061Y-65005000D01*
X91558102Y-65044774D01*
X91369744Y-65122795D01*
X91200226Y-65236063D01*
X91156289Y-65280000D01*
X83224802Y-65280000D01*
X79178688Y-61233887D01*
X79215000Y-61051335D01*
X79215000Y-60768665D01*
X79159853Y-60491426D01*
X79051680Y-60230273D01*
X78894637Y-59995241D01*
X78694759Y-59795363D01*
X78462241Y-59640000D01*
X78694759Y-59484637D01*
X78894637Y-59284759D01*
X79051680Y-59049727D01*
X79159853Y-58788574D01*
X79215000Y-58511335D01*
X79215000Y-58228665D01*
X79159853Y-57951426D01*
X79051680Y-57690273D01*
X78894637Y-57455241D01*
X78694759Y-57255363D01*
X78462241Y-57100000D01*
X78694759Y-56944637D01*
X78894637Y-56744759D01*
X79051680Y-56509727D01*
X79159853Y-56248574D01*
X79215000Y-55971335D01*
X79215000Y-55688665D01*
X79159853Y-55411426D01*
X79115770Y-55304999D01*
X91420198Y-55304999D01*
X91621312Y-55506114D01*
X91585000Y-55688665D01*
X91585000Y-55971335D01*
X91640147Y-56248574D01*
X91748320Y-56509727D01*
X91905363Y-56744759D01*
X92105241Y-56944637D01*
X92337759Y-57100000D01*
X92105241Y-57255363D01*
X91905363Y-57455241D01*
X91748320Y-57690273D01*
X91640147Y-57951426D01*
X91585000Y-58228665D01*
X91585000Y-58511335D01*
X91640147Y-58788574D01*
X91748320Y-59049727D01*
X91905363Y-59284759D01*
X92105241Y-59484637D01*
X92337759Y-59640000D01*
X92105241Y-59795363D01*
X91905363Y-59995241D01*
X91748320Y-60230273D01*
X91640147Y-60491426D01*
X91585000Y-60768665D01*
X91585000Y-61051335D01*
X91640147Y-61328574D01*
X91748320Y-61589727D01*
X91905363Y-61824759D01*
X92105241Y-62024637D01*
X92340273Y-62181680D01*
X92601426Y-62289853D01*
X92878665Y-62345000D01*
X93161335Y-62345000D01*
X93438574Y-62289853D01*
X93699727Y-62181680D01*
X93934759Y-62024637D01*
X94134637Y-61824759D01*
X94238043Y-61670000D01*
X110806289Y-61670000D01*
X110850226Y-61713937D01*
X111019744Y-61827205D01*
X111208102Y-61905226D01*
X111408061Y-61945000D01*
X111611939Y-61945000D01*
X111811898Y-61905226D01*
X112000256Y-61827205D01*
X112169774Y-61713937D01*
X112313937Y-61569774D01*
X112427205Y-61400256D01*
X112505226Y-61211898D01*
X112545000Y-61011939D01*
X112545000Y-60808061D01*
X112505226Y-60608102D01*
X112427205Y-60419744D01*
X112313937Y-60250226D01*
X112169774Y-60106063D01*
X112000256Y-59992795D01*
X111811898Y-59914774D01*
X111611939Y-59875000D01*
X111408061Y-59875000D01*
X111208102Y-59914774D01*
X111019744Y-59992795D01*
X110850226Y-60106063D01*
X110806289Y-60150000D01*
X94238043Y-60150000D01*
X94134637Y-59995241D01*
X93934759Y-59795363D01*
X93702241Y-59640000D01*
X93934759Y-59484637D01*
X94134637Y-59284759D01*
X94238043Y-59130000D01*
X110466289Y-59130000D01*
X110510226Y-59173937D01*
X110679744Y-59287205D01*
X110868102Y-59365226D01*
X111068061Y-59405000D01*
X111271939Y-59405000D01*
X111471898Y-59365226D01*
X111660256Y-59287205D01*
X111829774Y-59173937D01*
X111973937Y-59029774D01*
X112087205Y-58860256D01*
X112165226Y-58671898D01*
X112205000Y-58471939D01*
X112205000Y-58268061D01*
X112165226Y-58068102D01*
X112087205Y-57879744D01*
X111973937Y-57710226D01*
X111829774Y-57566063D01*
X111660256Y-57452795D01*
X111471898Y-57374774D01*
X111271939Y-57335000D01*
X111068061Y-57335000D01*
X110868102Y-57374774D01*
X110679744Y-57452795D01*
X110510226Y-57566063D01*
X110466289Y-57610000D01*
X94238043Y-57610000D01*
X94134637Y-57455241D01*
X93934759Y-57255363D01*
X93702241Y-57100000D01*
X93934759Y-56944637D01*
X94134637Y-56744759D01*
X94238043Y-56590000D01*
X110326289Y-56590000D01*
X110370226Y-56633937D01*
X110539744Y-56747205D01*
X110728102Y-56825226D01*
X110928061Y-56865000D01*
X111131939Y-56865000D01*
X111331898Y-56825226D01*
X111520256Y-56747205D01*
X111689774Y-56633937D01*
X111833937Y-56489774D01*
X111947205Y-56320256D01*
X112025226Y-56131898D01*
X112065000Y-55931939D01*
X112065000Y-55728061D01*
X112025226Y-55528102D01*
X111947205Y-55339744D01*
X111833937Y-55170226D01*
X111689774Y-55026063D01*
X111520256Y-54912795D01*
X111331898Y-54834774D01*
X111131939Y-54795000D01*
X110928061Y-54795000D01*
X110728102Y-54834774D01*
X110539744Y-54912795D01*
X110370226Y-55026063D01*
X110326289Y-55070000D01*
X94238043Y-55070000D01*
X94134637Y-54915241D01*
X93934759Y-54715363D01*
X93702241Y-54560000D01*
X93934759Y-54404637D01*
X94134637Y-54204759D01*
X94214657Y-54085000D01*
X109621289Y-54085000D01*
X109665226Y-54128937D01*
X109834744Y-54242205D01*
X110023102Y-54320226D01*
X110223061Y-54360000D01*
X110426939Y-54360000D01*
X110626898Y-54320226D01*
X110815256Y-54242205D01*
X110984774Y-54128937D01*
X111128937Y-53984774D01*
X111242205Y-53815256D01*
X111320226Y-53626898D01*
X111360000Y-53426939D01*
X111360000Y-53223061D01*
X111320226Y-53023102D01*
X111242205Y-52834744D01*
X111128937Y-52665226D01*
X110984774Y-52521063D01*
X110815256Y-52407795D01*
X110626898Y-52329774D01*
X110426939Y-52290000D01*
X110223061Y-52290000D01*
X110023102Y-52329774D01*
X109834744Y-52407795D01*
X109665226Y-52521063D01*
X109621289Y-52565000D01*
X94261430Y-52565000D01*
X94134637Y-52375241D01*
X93934759Y-52175363D01*
X93702241Y-52020000D01*
X93934759Y-51864637D01*
X94134637Y-51664759D01*
X94291680Y-51429727D01*
X94399853Y-51168574D01*
X94455000Y-50891335D01*
X94455000Y-50608665D01*
X94399853Y-50331426D01*
X94291680Y-50070273D01*
X94134637Y-49835241D01*
X93934759Y-49635363D01*
X93702241Y-49480000D01*
X93934759Y-49324637D01*
X94134637Y-49124759D01*
X94291680Y-48889727D01*
X94399853Y-48628574D01*
X94455000Y-48351335D01*
X94455000Y-48068665D01*
X94399853Y-47791426D01*
X94291680Y-47530273D01*
X94134637Y-47295241D01*
X93934759Y-47095363D01*
X93702241Y-46940000D01*
X93934759Y-46784637D01*
X94134637Y-46584759D01*
X94291680Y-46349727D01*
X94399853Y-46088574D01*
X94455000Y-45811335D01*
X94455000Y-45528665D01*
X94399853Y-45251426D01*
X94291680Y-44990273D01*
X94134637Y-44755241D01*
X93934759Y-44555363D01*
X93702241Y-44400000D01*
X93934759Y-44244637D01*
X94134637Y-44044759D01*
X94232657Y-43898061D01*
X97765000Y-43898061D01*
X97765000Y-44101939D01*
X97804774Y-44301898D01*
X97882795Y-44490256D01*
X97996063Y-44659774D01*
X98140226Y-44803937D01*
X98309744Y-44917205D01*
X98498102Y-44995226D01*
X98698061Y-45035000D01*
X98901939Y-45035000D01*
X99101898Y-44995226D01*
X99290256Y-44917205D01*
X99459774Y-44803937D01*
X99603937Y-44659774D01*
X99717205Y-44490256D01*
X99795226Y-44301898D01*
X99835000Y-44101939D01*
X99835000Y-43898061D01*
X99817596Y-43810561D01*
X110477500Y-43810561D01*
X110477500Y-44014439D01*
X110517274Y-44214398D01*
X110595295Y-44402756D01*
X110708563Y-44572274D01*
X110852726Y-44716437D01*
X111022244Y-44829705D01*
X111210602Y-44907726D01*
X111410561Y-44947500D01*
X111614439Y-44947500D01*
X111814398Y-44907726D01*
X112002756Y-44829705D01*
X112172274Y-44716437D01*
X112316437Y-44572274D01*
X112429705Y-44402756D01*
X112507726Y-44214398D01*
X112547500Y-44014439D01*
X112547500Y-43810561D01*
X112507726Y-43610602D01*
X112429705Y-43422244D01*
X112316437Y-43252726D01*
X112172274Y-43108563D01*
X112002756Y-42995295D01*
X111814398Y-42917274D01*
X111614439Y-42877500D01*
X111410561Y-42877500D01*
X111210602Y-42917274D01*
X111022244Y-42995295D01*
X110852726Y-43108563D01*
X110708563Y-43252726D01*
X110595295Y-43422244D01*
X110517274Y-43610602D01*
X110477500Y-43810561D01*
X99817596Y-43810561D01*
X99795226Y-43698102D01*
X99717205Y-43509744D01*
X99603937Y-43340226D01*
X99459774Y-43196063D01*
X99290256Y-43082795D01*
X99101898Y-43004774D01*
X98901939Y-42965000D01*
X98698061Y-42965000D01*
X98498102Y-43004774D01*
X98309744Y-43082795D01*
X98140226Y-43196063D01*
X97996063Y-43340226D01*
X97882795Y-43509744D01*
X97804774Y-43698102D01*
X97765000Y-43898061D01*
X94232657Y-43898061D01*
X94291680Y-43809727D01*
X94399853Y-43548574D01*
X94455000Y-43271335D01*
X94455000Y-42988665D01*
X94399853Y-42711426D01*
X94291680Y-42450273D01*
X94134637Y-42215241D01*
X93934759Y-42015363D01*
X93702241Y-41860000D01*
X93934759Y-41704637D01*
X94134637Y-41504759D01*
X94291680Y-41269727D01*
X94399853Y-41008574D01*
X94455000Y-40731335D01*
X94455000Y-40448665D01*
X94399853Y-40171426D01*
X94291680Y-39910273D01*
X94134637Y-39675241D01*
X93934759Y-39475363D01*
X93702241Y-39320000D01*
X93934759Y-39164637D01*
X94134637Y-38964759D01*
X94291680Y-38729727D01*
X94399853Y-38468574D01*
X94455000Y-38191335D01*
X94455000Y-37908665D01*
X94399853Y-37631426D01*
X94291680Y-37370273D01*
X94134637Y-37135241D01*
X93934759Y-36935363D01*
X93732174Y-36800000D01*
X99361928Y-36800000D01*
X99361928Y-38500000D01*
X99374188Y-38624482D01*
X99410498Y-38744180D01*
X99469463Y-38854494D01*
X99548815Y-38951185D01*
X99645506Y-39030537D01*
X99755820Y-39089502D01*
X99875518Y-39125812D01*
X100000000Y-39138072D01*
X101700000Y-39138072D01*
X101824482Y-39125812D01*
X101944180Y-39089502D01*
X102054494Y-39030537D01*
X102151185Y-38951185D01*
X102230537Y-38854494D01*
X102289502Y-38744180D01*
X102325812Y-38624482D01*
X102338072Y-38500000D01*
X102338072Y-36800000D01*
X107311928Y-36800000D01*
X107311928Y-38500000D01*
X107324188Y-38624482D01*
X107360498Y-38744180D01*
X107419463Y-38854494D01*
X107498815Y-38951185D01*
X107595506Y-39030537D01*
X107705820Y-39089502D01*
X107825518Y-39125812D01*
X107950000Y-39138072D01*
X109650000Y-39138072D01*
X109774482Y-39125812D01*
X109894180Y-39089502D01*
X110004494Y-39030537D01*
X110101185Y-38951185D01*
X110180537Y-38854494D01*
X110239502Y-38744180D01*
X110275812Y-38624482D01*
X110288072Y-38500000D01*
X110288072Y-36800000D01*
X110275812Y-36675518D01*
X110239502Y-36555820D01*
X110180537Y-36445506D01*
X110101185Y-36348815D01*
X110004494Y-36269463D01*
X109894180Y-36210498D01*
X109774482Y-36174188D01*
X109650000Y-36161928D01*
X107950000Y-36161928D01*
X107825518Y-36174188D01*
X107705820Y-36210498D01*
X107595506Y-36269463D01*
X107498815Y-36348815D01*
X107419463Y-36445506D01*
X107360498Y-36555820D01*
X107324188Y-36675518D01*
X107311928Y-36800000D01*
X102338072Y-36800000D01*
X102325812Y-36675518D01*
X102289502Y-36555820D01*
X102230537Y-36445506D01*
X102151185Y-36348815D01*
X102054494Y-36269463D01*
X101944180Y-36210498D01*
X101824482Y-36174188D01*
X101700000Y-36161928D01*
X100000000Y-36161928D01*
X99875518Y-36174188D01*
X99755820Y-36210498D01*
X99645506Y-36269463D01*
X99548815Y-36348815D01*
X99469463Y-36445506D01*
X99410498Y-36555820D01*
X99374188Y-36675518D01*
X99361928Y-36800000D01*
X93732174Y-36800000D01*
X93702241Y-36780000D01*
X93934759Y-36624637D01*
X94134637Y-36424759D01*
X94291680Y-36189727D01*
X94399853Y-35928574D01*
X94455000Y-35651335D01*
X94455000Y-35368665D01*
X94399853Y-35091426D01*
X94291680Y-34830273D01*
X94134637Y-34595241D01*
X93934759Y-34395363D01*
X93702241Y-34240000D01*
X93934759Y-34084637D01*
X94134637Y-33884759D01*
X94238043Y-33730000D01*
X94842678Y-33730000D01*
X94880000Y-33733676D01*
X94917322Y-33730000D01*
X94917333Y-33730000D01*
X95028986Y-33719003D01*
X95172247Y-33675546D01*
X95304276Y-33604974D01*
X95420001Y-33510001D01*
X95443804Y-33480997D01*
X97894802Y-31030000D01*
X102772678Y-31030000D01*
X102810000Y-31033676D01*
X102847322Y-31030000D01*
X102847333Y-31030000D01*
X102958986Y-31019003D01*
X103102247Y-30975546D01*
X103234276Y-30904974D01*
X103350001Y-30810001D01*
X103373804Y-30780997D01*
X106513592Y-27641210D01*
X106733740Y-27685000D01*
X107026260Y-27685000D01*
X107313158Y-27627932D01*
X107583411Y-27515990D01*
X107826632Y-27353475D01*
X108033475Y-27146632D01*
X108195990Y-26903411D01*
X108307932Y-26633158D01*
X108365000Y-26346260D01*
X108365000Y-26053740D01*
X108307932Y-25766842D01*
X108195990Y-25496589D01*
X108033475Y-25253368D01*
X107826632Y-25046525D01*
X107583411Y-24884010D01*
X107313158Y-24772068D01*
X107026260Y-24715000D01*
X106733740Y-24715000D01*
X106446842Y-24772068D01*
X106176589Y-24884010D01*
X105933368Y-25046525D01*
X105726525Y-25253368D01*
X105610000Y-25427760D01*
X105493475Y-25253368D01*
X105286632Y-25046525D01*
X105043411Y-24884010D01*
X104773158Y-24772068D01*
X104486260Y-24715000D01*
X104193740Y-24715000D01*
X103906842Y-24772068D01*
X103636589Y-24884010D01*
X103393368Y-25046525D01*
X103261513Y-25178380D01*
X103239502Y-25105820D01*
X103180537Y-24995506D01*
X103101185Y-24898815D01*
X103004494Y-24819463D01*
X102894180Y-24760498D01*
X102774482Y-24724188D01*
X102650000Y-24711928D01*
X100950000Y-24711928D01*
X100825518Y-24724188D01*
X100705820Y-24760498D01*
X100595506Y-24819463D01*
X100498815Y-24898815D01*
X100419463Y-24995506D01*
X100360498Y-25105820D01*
X100324188Y-25225518D01*
X100311928Y-25350000D01*
X100311928Y-27050000D01*
X100324188Y-27174482D01*
X100360498Y-27294180D01*
X100419463Y-27404494D01*
X100498815Y-27501185D01*
X100595506Y-27580537D01*
X100705820Y-27639502D01*
X100825518Y-27675812D01*
X100950000Y-27688072D01*
X102650000Y-27688072D01*
X102774482Y-27675812D01*
X102894180Y-27639502D01*
X103004494Y-27580537D01*
X103101185Y-27501185D01*
X103180537Y-27404494D01*
X103239502Y-27294180D01*
X103261513Y-27221620D01*
X103393368Y-27353475D01*
X103500284Y-27424914D01*
X102285199Y-28640000D01*
X97037323Y-28640000D01*
X97000000Y-28636324D01*
X96962677Y-28640000D01*
X96962667Y-28640000D01*
X96851014Y-28650997D01*
X96707753Y-28694454D01*
X96575723Y-28765026D01*
X96527309Y-28804759D01*
X96459999Y-28859999D01*
X96436201Y-28888997D01*
X95655199Y-29670000D01*
X94238043Y-29670000D01*
X94134637Y-29515241D01*
X93934759Y-29315363D01*
X93699727Y-29158320D01*
X93438574Y-29050147D01*
X93161335Y-28995000D01*
X92878665Y-28995000D01*
X92601426Y-29050147D01*
X92340273Y-29158320D01*
X92105241Y-29315363D01*
X91905363Y-29515241D01*
X91748320Y-29750273D01*
X91640147Y-30011426D01*
X91585000Y-30288665D01*
X91585000Y-30571335D01*
X91640147Y-30848574D01*
X91748320Y-31109727D01*
X91905363Y-31344759D01*
X92105241Y-31544637D01*
X92337759Y-31700000D01*
X92105241Y-31855363D01*
X91905363Y-32055241D01*
X91748320Y-32290273D01*
X91640147Y-32551426D01*
X91585000Y-32828665D01*
X91585000Y-33111335D01*
X91640147Y-33388574D01*
X91748320Y-33649727D01*
X91905363Y-33884759D01*
X92105241Y-34084637D01*
X92337759Y-34240000D01*
X92105241Y-34395363D01*
X91905363Y-34595241D01*
X91748320Y-34830273D01*
X91640147Y-35091426D01*
X91585000Y-35368665D01*
X91585000Y-35651335D01*
X91640147Y-35928574D01*
X91748320Y-36189727D01*
X91905363Y-36424759D01*
X92105241Y-36624637D01*
X92337759Y-36780000D01*
X92105241Y-36935363D01*
X91905363Y-37135241D01*
X91801957Y-37290000D01*
X90753711Y-37290000D01*
X90709774Y-37246063D01*
X90540256Y-37132795D01*
X90351898Y-37054774D01*
X90151939Y-37015000D01*
X89948061Y-37015000D01*
X89748102Y-37054774D01*
X89559744Y-37132795D01*
X89390226Y-37246063D01*
X89246063Y-37390226D01*
X89132795Y-37559744D01*
X89054774Y-37748102D01*
X89015000Y-37948061D01*
X89015000Y-38151939D01*
X89054774Y-38351898D01*
X89132795Y-38540256D01*
X89246063Y-38709774D01*
X89390226Y-38853937D01*
X89559744Y-38967205D01*
X89748102Y-39045226D01*
X89948061Y-39085000D01*
X90151939Y-39085000D01*
X90351898Y-39045226D01*
X90540256Y-38967205D01*
X90709774Y-38853937D01*
X90753711Y-38810000D01*
X91801957Y-38810000D01*
X91905363Y-38964759D01*
X92105241Y-39164637D01*
X92337759Y-39320000D01*
X92105241Y-39475363D01*
X91905363Y-39675241D01*
X91748320Y-39910273D01*
X91640147Y-40171426D01*
X91585000Y-40448665D01*
X91585000Y-40731335D01*
X91640147Y-41008574D01*
X91748320Y-41269727D01*
X91905363Y-41504759D01*
X92105241Y-41704637D01*
X92337759Y-41860000D01*
X92105241Y-42015363D01*
X91905363Y-42215241D01*
X91748320Y-42450273D01*
X91640147Y-42711426D01*
X91585000Y-42988665D01*
X91585000Y-43271335D01*
X91640147Y-43548574D01*
X91748320Y-43809727D01*
X91905363Y-44044759D01*
X92105241Y-44244637D01*
X92337759Y-44400000D01*
X92105241Y-44555363D01*
X91905363Y-44755241D01*
X91748320Y-44990273D01*
X91640147Y-45251426D01*
X91585000Y-45528665D01*
X91585000Y-45811335D01*
X91640147Y-46088574D01*
X91748320Y-46349727D01*
X91905363Y-46584759D01*
X92105241Y-46784637D01*
X92337759Y-46940000D01*
X92105241Y-47095363D01*
X91905363Y-47295241D01*
X91748320Y-47530273D01*
X91640147Y-47791426D01*
X91585000Y-48068665D01*
X91585000Y-48351335D01*
X91640147Y-48628574D01*
X91748320Y-48889727D01*
X91905363Y-49124759D01*
X92105241Y-49324637D01*
X92337759Y-49480000D01*
X92105241Y-49635363D01*
X91905363Y-49835241D01*
X91748320Y-50070273D01*
X91640147Y-50331426D01*
X91585000Y-50608665D01*
X91585000Y-50891335D01*
X91640147Y-51168574D01*
X91748320Y-51429727D01*
X91905363Y-51664759D01*
X92105241Y-51864637D01*
X92337759Y-52020000D01*
X92105241Y-52175363D01*
X91905363Y-52375241D01*
X91803096Y-52528294D01*
X90878804Y-51604003D01*
X90855001Y-51574999D01*
X90739276Y-51480026D01*
X90607247Y-51409454D01*
X90463986Y-51365997D01*
X90352333Y-51355000D01*
X90352322Y-51355000D01*
X90315000Y-51351324D01*
X90277678Y-51355000D01*
X79082633Y-51355000D01*
X79159853Y-51168574D01*
X79215000Y-50891335D01*
X79215000Y-50608665D01*
X79159853Y-50331426D01*
X79061923Y-50095001D01*
X79977677Y-50095001D01*
X80014999Y-50098677D01*
X80052321Y-50095001D01*
X80052332Y-50095001D01*
X80163985Y-50084004D01*
X80307246Y-50040547D01*
X80439275Y-49969975D01*
X80555000Y-49875002D01*
X80578803Y-49845998D01*
X80585998Y-49838803D01*
X80615001Y-49815001D01*
X80709974Y-49699276D01*
X80749532Y-49625269D01*
X81789802Y-48585000D01*
X81851939Y-48585000D01*
X82051898Y-48545226D01*
X82240256Y-48467205D01*
X82409774Y-48353937D01*
X82553937Y-48209774D01*
X82667205Y-48040256D01*
X82745226Y-47851898D01*
X82785000Y-47651939D01*
X82785000Y-47448061D01*
X82745226Y-47248102D01*
X82667205Y-47059744D01*
X82553937Y-46890226D01*
X82409774Y-46746063D01*
X82240256Y-46632795D01*
X82051898Y-46554774D01*
X81851939Y-46515000D01*
X81648061Y-46515000D01*
X81448102Y-46554774D01*
X81259744Y-46632795D01*
X81090226Y-46746063D01*
X80946063Y-46890226D01*
X80832795Y-47059744D01*
X80754774Y-47248102D01*
X80715000Y-47448061D01*
X80715000Y-47510198D01*
X79650198Y-48575001D01*
X79170509Y-48575001D01*
X79215000Y-48351335D01*
X79215000Y-48068665D01*
X79159853Y-47791426D01*
X79061923Y-47555001D01*
X79217677Y-47555001D01*
X79254999Y-47558677D01*
X79292321Y-47555001D01*
X79292332Y-47555001D01*
X79403985Y-47544004D01*
X79547246Y-47500547D01*
X79679275Y-47429975D01*
X79795000Y-47335002D01*
X79818803Y-47305998D01*
X81061003Y-46063799D01*
X81090001Y-46040001D01*
X81153812Y-45962247D01*
X81184974Y-45924277D01*
X81255546Y-45792247D01*
X81261706Y-45771939D01*
X81299003Y-45648986D01*
X81310000Y-45537333D01*
X81310000Y-45537323D01*
X81313676Y-45500000D01*
X81310000Y-45462677D01*
X81310000Y-40857333D01*
X81313677Y-40820000D01*
X81299003Y-40671014D01*
X81255546Y-40527753D01*
X81184974Y-40395724D01*
X81113799Y-40308997D01*
X81090001Y-40279999D01*
X81061004Y-40256202D01*
X79178688Y-38373886D01*
X79215000Y-38191335D01*
X79215000Y-37908665D01*
X79159853Y-37631426D01*
X79051680Y-37370273D01*
X78894637Y-37135241D01*
X78694759Y-36935363D01*
X78462241Y-36780000D01*
X78694759Y-36624637D01*
X78894637Y-36424759D01*
X79051680Y-36189727D01*
X79159853Y-35928574D01*
X79215000Y-35651335D01*
X79215000Y-35368665D01*
X79159853Y-35091426D01*
X79051680Y-34830273D01*
X78894637Y-34595241D01*
X78694759Y-34395363D01*
X78462241Y-34240000D01*
X78694759Y-34084637D01*
X78894637Y-33884759D01*
X79051680Y-33649727D01*
X79159853Y-33388574D01*
X79215000Y-33111335D01*
X79215000Y-32828665D01*
X79159853Y-32551426D01*
X79051680Y-32290273D01*
X78894637Y-32055241D01*
X78694759Y-31855363D01*
X78462241Y-31700000D01*
X78694759Y-31544637D01*
X78894637Y-31344759D01*
X79051680Y-31109727D01*
X79159853Y-30848574D01*
X79215000Y-30571335D01*
X79215000Y-30288665D01*
X79159853Y-30011426D01*
X79051680Y-29750273D01*
X78894637Y-29515241D01*
X78694759Y-29315363D01*
X78462241Y-29160000D01*
X78694759Y-29004637D01*
X78894637Y-28804759D01*
X79051680Y-28569727D01*
X79159853Y-28308574D01*
X79215000Y-28031335D01*
X79215000Y-27748665D01*
X79159853Y-27471426D01*
X79051680Y-27210273D01*
X78894637Y-26975241D01*
X78694759Y-26775363D01*
X78459727Y-26618320D01*
X78198574Y-26510147D01*
X77921335Y-26455000D01*
X77638665Y-26455000D01*
X77361426Y-26510147D01*
X77100273Y-26618320D01*
X76865241Y-26775363D01*
X76665363Y-26975241D01*
X76508320Y-27210273D01*
X76400147Y-27471426D01*
X76345000Y-27748665D01*
X76345000Y-28031335D01*
X76400147Y-28308574D01*
X76508320Y-28569727D01*
X76665363Y-28804759D01*
X76865241Y-29004637D01*
X77097759Y-29160000D01*
X76865241Y-29315363D01*
X76665363Y-29515241D01*
X76508320Y-29750273D01*
X76400147Y-30011426D01*
X76345000Y-30288665D01*
X76345000Y-30571335D01*
X76400147Y-30848574D01*
X76508320Y-31109727D01*
X76665363Y-31344759D01*
X76865241Y-31544637D01*
X77097759Y-31700000D01*
X76865241Y-31855363D01*
X76665363Y-32055241D01*
X76508320Y-32290273D01*
X76400147Y-32551426D01*
X76345000Y-32828665D01*
X76345000Y-33111335D01*
X76400147Y-33388574D01*
X76508320Y-33649727D01*
X76665363Y-33884759D01*
X76865241Y-34084637D01*
X77097759Y-34240000D01*
X76865241Y-34395363D01*
X76665363Y-34595241D01*
X76508320Y-34830273D01*
X76400147Y-35091426D01*
X76345000Y-35368665D01*
X76345000Y-35651335D01*
X76400147Y-35928574D01*
X76508320Y-36189727D01*
X76665363Y-36424759D01*
X76865241Y-36624637D01*
X77097759Y-36780000D01*
X76865241Y-36935363D01*
X76665363Y-37135241D01*
X76508320Y-37370273D01*
X76400147Y-37631426D01*
X76345000Y-37908665D01*
X76345000Y-38191335D01*
X76400147Y-38468574D01*
X76508320Y-38729727D01*
X76665363Y-38964759D01*
X76865241Y-39164637D01*
X77097759Y-39320000D01*
X76865241Y-39475363D01*
X76665363Y-39675241D01*
X76508320Y-39910273D01*
X76400147Y-40171426D01*
X76345000Y-40448665D01*
X76345000Y-40731335D01*
X76400147Y-41008574D01*
X76508320Y-41269727D01*
X76665363Y-41504759D01*
X76865241Y-41704637D01*
X77097759Y-41860000D01*
X76865241Y-42015363D01*
X76665363Y-42215241D01*
X76508320Y-42450273D01*
X76400147Y-42711426D01*
X76345000Y-42988665D01*
X76345000Y-43271335D01*
X76400147Y-43548574D01*
X76508320Y-43809727D01*
X76665363Y-44044759D01*
X76865241Y-44244637D01*
X77097759Y-44400000D01*
X76865241Y-44555363D01*
X76665363Y-44755241D01*
X76561957Y-44910000D01*
X68033711Y-44910000D01*
X67989774Y-44866063D01*
X67820256Y-44752795D01*
X67631898Y-44674774D01*
X67431939Y-44635000D01*
X67228061Y-44635000D01*
X67028102Y-44674774D01*
X66839744Y-44752795D01*
X66670226Y-44866063D01*
X66526063Y-45010226D01*
X66412795Y-45179744D01*
X66334774Y-45368102D01*
X66295000Y-45568061D01*
X48065000Y-45568061D01*
X48025226Y-45368102D01*
X47947205Y-45179744D01*
X47833937Y-45010226D01*
X47689774Y-44866063D01*
X47520256Y-44752795D01*
X47331898Y-44674774D01*
X47131939Y-44635000D01*
X46928061Y-44635000D01*
X46728102Y-44674774D01*
X46539744Y-44752795D01*
X46370226Y-44866063D01*
X46326289Y-44910000D01*
X33767323Y-44910000D01*
X33730000Y-44906324D01*
X33692677Y-44910000D01*
X33692667Y-44910000D01*
X33581014Y-44920997D01*
X33437753Y-44964454D01*
X33305724Y-45035026D01*
X33189999Y-45129999D01*
X33166201Y-45158997D01*
X30035199Y-48290000D01*
X28614802Y-48290000D01*
X27610000Y-47285199D01*
X27610000Y-47207325D01*
X27613676Y-47170000D01*
X27610000Y-47132675D01*
X27610000Y-47132668D01*
X27599003Y-47021014D01*
X27555546Y-46877753D01*
X27484974Y-46745724D01*
X27390001Y-46629999D01*
X27361003Y-46606201D01*
X26841210Y-46086408D01*
X26885000Y-45866260D01*
X26885000Y-45573740D01*
X26827932Y-45286842D01*
X26715990Y-45016589D01*
X26553475Y-44773368D01*
X26346632Y-44566525D01*
X26172240Y-44450000D01*
X26346632Y-44333475D01*
X26553475Y-44126632D01*
X26715990Y-43883411D01*
X26827932Y-43613158D01*
X26885000Y-43326260D01*
X26885000Y-43033740D01*
X26827932Y-42746842D01*
X26715990Y-42476589D01*
X26553475Y-42233368D01*
X26346632Y-42026525D01*
X26172240Y-41910000D01*
X26346632Y-41793475D01*
X26553475Y-41586632D01*
X26715990Y-41343411D01*
X26827932Y-41073158D01*
X26885000Y-40786260D01*
X26885000Y-40493740D01*
X26827932Y-40206842D01*
X26715990Y-39936589D01*
X26553475Y-39693368D01*
X26346632Y-39486525D01*
X26172240Y-39370000D01*
X26346632Y-39253475D01*
X26553475Y-39046632D01*
X26715990Y-38803411D01*
X26827932Y-38533158D01*
X26885000Y-38246260D01*
X26885000Y-37953740D01*
X26827932Y-37666842D01*
X26715990Y-37396589D01*
X26553475Y-37153368D01*
X26346632Y-36946525D01*
X26172240Y-36830000D01*
X26346632Y-36713475D01*
X26553475Y-36506632D01*
X26715990Y-36263411D01*
X26827932Y-35993158D01*
X26885000Y-35706260D01*
X26885000Y-35413740D01*
X26827932Y-35126842D01*
X26715990Y-34856589D01*
X26553475Y-34613368D01*
X26346632Y-34406525D01*
X26172240Y-34290000D01*
X26346632Y-34173475D01*
X26553475Y-33966632D01*
X26715990Y-33723411D01*
X26827932Y-33453158D01*
X26885000Y-33166260D01*
X26885000Y-32873740D01*
X26827932Y-32586842D01*
X26715990Y-32316589D01*
X26553475Y-32073368D01*
X26346632Y-31866525D01*
X26172240Y-31750000D01*
X26346632Y-31633475D01*
X26553475Y-31426632D01*
X26715990Y-31183411D01*
X26827932Y-30913158D01*
X26885000Y-30626260D01*
X26885000Y-30333740D01*
X26827932Y-30046842D01*
X26715990Y-29776589D01*
X26553475Y-29533368D01*
X26346632Y-29326525D01*
X26172240Y-29210000D01*
X26346632Y-29093475D01*
X26553475Y-28886632D01*
X26715990Y-28643411D01*
X26827932Y-28373158D01*
X26885000Y-28086260D01*
X26885000Y-27793740D01*
X26827932Y-27506842D01*
X26715990Y-27236589D01*
X26553475Y-26993368D01*
X26421620Y-26861513D01*
X26494180Y-26839502D01*
X26604494Y-26780537D01*
X26701185Y-26701185D01*
X26780537Y-26604494D01*
X26839502Y-26494180D01*
X26875812Y-26374482D01*
X26888072Y-26250000D01*
X26888072Y-24660000D01*
X115351928Y-24660000D01*
X115351928Y-26250000D01*
G04 #@! TA.AperFunction,Conductor*
D17*
G36*
X115351928Y-26250000D02*
G01*
X115364188Y-26374482D01*
X115400498Y-26494180D01*
X115459463Y-26604494D01*
X115538815Y-26701185D01*
X115635506Y-26780537D01*
X115745820Y-26839502D01*
X115818380Y-26861513D01*
X115686525Y-26993368D01*
X115524010Y-27236589D01*
X115412068Y-27506842D01*
X115355000Y-27793740D01*
X115355000Y-28086260D01*
X115412068Y-28373158D01*
X115524010Y-28643411D01*
X115686525Y-28886632D01*
X115893368Y-29093475D01*
X116067760Y-29210000D01*
X115893368Y-29326525D01*
X115686525Y-29533368D01*
X115524010Y-29776589D01*
X115412068Y-30046842D01*
X115355000Y-30333740D01*
X115355000Y-30626260D01*
X115412068Y-30913158D01*
X115524010Y-31183411D01*
X115686525Y-31426632D01*
X115893368Y-31633475D01*
X116067760Y-31750000D01*
X115893368Y-31866525D01*
X115686525Y-32073368D01*
X115524010Y-32316589D01*
X115412068Y-32586842D01*
X115355000Y-32873740D01*
X115355000Y-33166260D01*
X115412068Y-33453158D01*
X115524010Y-33723411D01*
X115686525Y-33966632D01*
X115893368Y-34173475D01*
X116067760Y-34290000D01*
X115893368Y-34406525D01*
X115686525Y-34613368D01*
X115524010Y-34856589D01*
X115412068Y-35126842D01*
X115355000Y-35413740D01*
X115355000Y-35706260D01*
X115412068Y-35993158D01*
X115524010Y-36263411D01*
X115686525Y-36506632D01*
X115893368Y-36713475D01*
X116067760Y-36830000D01*
X115893368Y-36946525D01*
X115686525Y-37153368D01*
X115524010Y-37396589D01*
X115412068Y-37666842D01*
X115355000Y-37953740D01*
X115355000Y-38246260D01*
X115412068Y-38533158D01*
X115524010Y-38803411D01*
X115686525Y-39046632D01*
X115893368Y-39253475D01*
X116067760Y-39370000D01*
X115893368Y-39486525D01*
X115686525Y-39693368D01*
X115524010Y-39936589D01*
X115412068Y-40206842D01*
X115355000Y-40493740D01*
X115355000Y-40786260D01*
X115412068Y-41073158D01*
X115524010Y-41343411D01*
X115686525Y-41586632D01*
X115893368Y-41793475D01*
X116067760Y-41910000D01*
X115893368Y-42026525D01*
X115686525Y-42233368D01*
X115524010Y-42476589D01*
X115412068Y-42746842D01*
X115355000Y-43033740D01*
X115355000Y-43326260D01*
X115412068Y-43613158D01*
X115524010Y-43883411D01*
X115686525Y-44126632D01*
X115893368Y-44333475D01*
X116067760Y-44450000D01*
X115893368Y-44566525D01*
X115686525Y-44773368D01*
X115524010Y-45016589D01*
X115412068Y-45286842D01*
X115355000Y-45573740D01*
X115355000Y-45866260D01*
X115412068Y-46153158D01*
X115524010Y-46423411D01*
X115686525Y-46666632D01*
X115893368Y-46873475D01*
X116067760Y-46990000D01*
X115893368Y-47106525D01*
X115686525Y-47313368D01*
X115524010Y-47556589D01*
X115412068Y-47826842D01*
X115355000Y-48113740D01*
X115355000Y-48406260D01*
X115412068Y-48693158D01*
X115524010Y-48963411D01*
X115686525Y-49206632D01*
X115893368Y-49413475D01*
X116067760Y-49530000D01*
X115893368Y-49646525D01*
X115686525Y-49853368D01*
X115524010Y-50096589D01*
X115412068Y-50366842D01*
X115355000Y-50653740D01*
X115355000Y-50946260D01*
X115412068Y-51233158D01*
X115524010Y-51503411D01*
X115686525Y-51746632D01*
X115893368Y-51953475D01*
X116067760Y-52070000D01*
X115893368Y-52186525D01*
X115686525Y-52393368D01*
X115524010Y-52636589D01*
X115412068Y-52906842D01*
X115355000Y-53193740D01*
X115355000Y-53486260D01*
X115412068Y-53773158D01*
X115524010Y-54043411D01*
X115686525Y-54286632D01*
X115893368Y-54493475D01*
X116067760Y-54610000D01*
X115893368Y-54726525D01*
X115686525Y-54933368D01*
X115524010Y-55176589D01*
X115412068Y-55446842D01*
X115355000Y-55733740D01*
X115355000Y-56026260D01*
X115412068Y-56313158D01*
X115524010Y-56583411D01*
X115686525Y-56826632D01*
X115893368Y-57033475D01*
X116067760Y-57150000D01*
X115893368Y-57266525D01*
X115686525Y-57473368D01*
X115524010Y-57716589D01*
X115412068Y-57986842D01*
X115355000Y-58273740D01*
X115355000Y-58566260D01*
X115412068Y-58853158D01*
X115524010Y-59123411D01*
X115686525Y-59366632D01*
X115893368Y-59573475D01*
X116067760Y-59690000D01*
X115893368Y-59806525D01*
X115686525Y-60013368D01*
X115524010Y-60256589D01*
X115412068Y-60526842D01*
X115355000Y-60813740D01*
X115355000Y-61106260D01*
X115412068Y-61393158D01*
X115524010Y-61663411D01*
X115686525Y-61906632D01*
X115893368Y-62113475D01*
X116067760Y-62230000D01*
X115893368Y-62346525D01*
X115686525Y-62553368D01*
X115524010Y-62796589D01*
X115412068Y-63066842D01*
X115355000Y-63353740D01*
X115355000Y-63646260D01*
X115412068Y-63933158D01*
X115524010Y-64203411D01*
X115686525Y-64446632D01*
X115893368Y-64653475D01*
X116067760Y-64770000D01*
X115893368Y-64886525D01*
X115686525Y-65093368D01*
X115524010Y-65336589D01*
X115412068Y-65606842D01*
X115355000Y-65893740D01*
X115355000Y-66186260D01*
X115412068Y-66473158D01*
X115524010Y-66743411D01*
X115686525Y-66986632D01*
X115893368Y-67193475D01*
X116067760Y-67310000D01*
X115893368Y-67426525D01*
X115686525Y-67633368D01*
X115524010Y-67876589D01*
X115412068Y-68146842D01*
X115355000Y-68433740D01*
X115355000Y-68726260D01*
X115412068Y-69013158D01*
X115524010Y-69283411D01*
X115686525Y-69526632D01*
X115893368Y-69733475D01*
X116067760Y-69850000D01*
X115893368Y-69966525D01*
X115686525Y-70173368D01*
X115524010Y-70416589D01*
X115412068Y-70686842D01*
X115355000Y-70973740D01*
X115355000Y-71266260D01*
X115412068Y-71553158D01*
X115524010Y-71823411D01*
X115686525Y-72066632D01*
X115893368Y-72273475D01*
X116136589Y-72435990D01*
X116406842Y-72547932D01*
X116693740Y-72605000D01*
X116986260Y-72605000D01*
X117273158Y-72547932D01*
X117340000Y-72520245D01*
X117340000Y-74290351D01*
X24660000Y-74339650D01*
X24660000Y-72411542D01*
X24696589Y-72435990D01*
X24966842Y-72547932D01*
X25253740Y-72605000D01*
X25546260Y-72605000D01*
X25833158Y-72547932D01*
X26103411Y-72435990D01*
X26346632Y-72273475D01*
X26553475Y-72066632D01*
X26715990Y-71823411D01*
X26827932Y-71553158D01*
X26885000Y-71266260D01*
X26885000Y-70973740D01*
X26827932Y-70686842D01*
X26715990Y-70416589D01*
X26553475Y-70173368D01*
X26346632Y-69966525D01*
X26172240Y-69850000D01*
X26346632Y-69733475D01*
X26553475Y-69526632D01*
X26715990Y-69283411D01*
X26827932Y-69013158D01*
X26885000Y-68726260D01*
X26885000Y-68433740D01*
X26841210Y-68213592D01*
X27258392Y-67796410D01*
X27362678Y-67796410D01*
X27400000Y-67800086D01*
X27437322Y-67796410D01*
X27437333Y-67796410D01*
X27548986Y-67785413D01*
X27692247Y-67741956D01*
X27824276Y-67671384D01*
X27940001Y-67576411D01*
X27963804Y-67547407D01*
X29761016Y-65750196D01*
X29790009Y-65726402D01*
X29813803Y-65697409D01*
X29813808Y-65697404D01*
X29884983Y-65610677D01*
X29955555Y-65478648D01*
X29999011Y-65335387D01*
X30013685Y-65186401D01*
X30010008Y-65149069D01*
X30010010Y-61664791D01*
X36369803Y-55304999D01*
X40151290Y-55304999D01*
X40195227Y-55348936D01*
X40364745Y-55462204D01*
X40553103Y-55540225D01*
X40753062Y-55579999D01*
X40956940Y-55579999D01*
X41156899Y-55540225D01*
X41345257Y-55462204D01*
X41514775Y-55348936D01*
X41658938Y-55204773D01*
X41772206Y-55035255D01*
X41850227Y-54846897D01*
X41890001Y-54646938D01*
X41890001Y-54443060D01*
X41850227Y-54243101D01*
X41772206Y-54054743D01*
X41658938Y-53885225D01*
X41514775Y-53741062D01*
X41345257Y-53627794D01*
X41156899Y-53549773D01*
X40956940Y-53509999D01*
X40753062Y-53509999D01*
X40553103Y-53549773D01*
X40364745Y-53627794D01*
X40195227Y-53741062D01*
X40151290Y-53784999D01*
X36689803Y-53784999D01*
X37999801Y-52475001D01*
X40131288Y-52475001D01*
X40175225Y-52518938D01*
X40344743Y-52632206D01*
X40533101Y-52710227D01*
X40733060Y-52750001D01*
X40936938Y-52750001D01*
X41136897Y-52710227D01*
X41325255Y-52632206D01*
X41494773Y-52518938D01*
X41638936Y-52374775D01*
X41752204Y-52205257D01*
X41830225Y-52016899D01*
X41869999Y-51816940D01*
X41869999Y-51613062D01*
X41830225Y-51413103D01*
X41752204Y-51224745D01*
X41638936Y-51055227D01*
X41494773Y-50911064D01*
X41325255Y-50797796D01*
X41136897Y-50719775D01*
X40936938Y-50680001D01*
X40733060Y-50680001D01*
X40533101Y-50719775D01*
X40344743Y-50797796D01*
X40175225Y-50911064D01*
X40131288Y-50955001D01*
X37722321Y-50955001D01*
X37684998Y-50951325D01*
X37647675Y-50955001D01*
X37647666Y-50955001D01*
X37536013Y-50965998D01*
X37392752Y-51009455D01*
X37260722Y-51080027D01*
X37177082Y-51148669D01*
X37144998Y-51175000D01*
X37121200Y-51203998D01*
X28289003Y-60036196D01*
X28259999Y-60059999D01*
X28222196Y-60106063D01*
X28165026Y-60175724D01*
X28111948Y-60275026D01*
X28094454Y-60307754D01*
X28050997Y-60451015D01*
X28040000Y-60562668D01*
X28040000Y-60562678D01*
X28036324Y-60600000D01*
X28040000Y-60637323D01*
X28040001Y-64685197D01*
X27445199Y-65280000D01*
X26678178Y-65280000D01*
X26553475Y-65093368D01*
X26346632Y-64886525D01*
X26172240Y-64770000D01*
X26346632Y-64653475D01*
X26553475Y-64446632D01*
X26715990Y-64203411D01*
X26827932Y-63933158D01*
X26885000Y-63646260D01*
X26885000Y-63353740D01*
X26827932Y-63066842D01*
X26715990Y-62796589D01*
X26553475Y-62553368D01*
X26346632Y-62346525D01*
X26172240Y-62230000D01*
X26346632Y-62113475D01*
X26553475Y-61906632D01*
X26715990Y-61663411D01*
X26827932Y-61393158D01*
X26885000Y-61106260D01*
X26885000Y-60813740D01*
X26827932Y-60526842D01*
X26715990Y-60256589D01*
X26553475Y-60013368D01*
X26346632Y-59806525D01*
X26172240Y-59690000D01*
X26346632Y-59573475D01*
X26553475Y-59366632D01*
X26715990Y-59123411D01*
X26827932Y-58853158D01*
X26885000Y-58566260D01*
X26885000Y-58273740D01*
X26827932Y-57986842D01*
X26715990Y-57716589D01*
X26553475Y-57473368D01*
X26346632Y-57266525D01*
X26172240Y-57150000D01*
X26346632Y-57033475D01*
X26553475Y-56826632D01*
X26715990Y-56583411D01*
X26827932Y-56313158D01*
X26885000Y-56026260D01*
X26885000Y-55733740D01*
X26875305Y-55685000D01*
X27187678Y-55685000D01*
X27225000Y-55688676D01*
X27262322Y-55685000D01*
X27262333Y-55685000D01*
X27373986Y-55674003D01*
X27517247Y-55630546D01*
X27649276Y-55559974D01*
X27765001Y-55465001D01*
X27788804Y-55435997D01*
X33129802Y-50095001D01*
X42161288Y-50095001D01*
X42205225Y-50138938D01*
X42374743Y-50252206D01*
X42563101Y-50330227D01*
X42763060Y-50370001D01*
X42966938Y-50370001D01*
X43166897Y-50330227D01*
X43355255Y-50252206D01*
X43524773Y-50138938D01*
X43668936Y-49994775D01*
X43782204Y-49825257D01*
X43860225Y-49636899D01*
X43899999Y-49436940D01*
X43899999Y-49233062D01*
X43860225Y-49033103D01*
X43782204Y-48844745D01*
X43668936Y-48675227D01*
X43524773Y-48531064D01*
X43355255Y-48417796D01*
X43166897Y-48339775D01*
X42966938Y-48300001D01*
X42763060Y-48300001D01*
X42563101Y-48339775D01*
X42374743Y-48417796D01*
X42205225Y-48531064D01*
X42161288Y-48575001D01*
X33049801Y-48575001D01*
X34069801Y-47555001D01*
X44501288Y-47555001D01*
X44545225Y-47598938D01*
X44714743Y-47712206D01*
X44903101Y-47790227D01*
X45103060Y-47830001D01*
X45306938Y-47830001D01*
X45506897Y-47790227D01*
X45695255Y-47712206D01*
X45864773Y-47598938D01*
X46008936Y-47454775D01*
X46122204Y-47285257D01*
X46200225Y-47096899D01*
X46239999Y-46896940D01*
X46239999Y-46693062D01*
X46200225Y-46493103D01*
X46174087Y-46430000D01*
X46326289Y-46430000D01*
X46370226Y-46473937D01*
X46539744Y-46587205D01*
X46728102Y-46665226D01*
X46928061Y-46705000D01*
X47131939Y-46705000D01*
X47331898Y-46665226D01*
X47520256Y-46587205D01*
X47689774Y-46473937D01*
X47833937Y-46329774D01*
X47947205Y-46160256D01*
X48025226Y-45971898D01*
X48065000Y-45771939D01*
X48065000Y-45568061D01*
X66295000Y-45568061D01*
X66295000Y-45771939D01*
X66334774Y-45971898D01*
X66412795Y-46160256D01*
X66526063Y-46329774D01*
X66670226Y-46473937D01*
X66839744Y-46587205D01*
X67028102Y-46665226D01*
X67228061Y-46705000D01*
X67431939Y-46705000D01*
X67631898Y-46665226D01*
X67820256Y-46587205D01*
X67989774Y-46473937D01*
X68033711Y-46430000D01*
X68235911Y-46430000D01*
X68209773Y-46493103D01*
X68169999Y-46693062D01*
X68169999Y-46896940D01*
X68209773Y-47096899D01*
X68287794Y-47285257D01*
X68401062Y-47454775D01*
X68545225Y-47598938D01*
X68714743Y-47712206D01*
X68903101Y-47790227D01*
X69103060Y-47830001D01*
X69306938Y-47830001D01*
X69506897Y-47790227D01*
X69695255Y-47712206D01*
X69864773Y-47598938D01*
X69908710Y-47555001D01*
X76498077Y-47555001D01*
X76400147Y-47791426D01*
X76345000Y-48068665D01*
X76345000Y-48351335D01*
X76389491Y-48575001D01*
X71618710Y-48575001D01*
X71574773Y-48531064D01*
X71405255Y-48417796D01*
X71216897Y-48339775D01*
X71016938Y-48300001D01*
X70813060Y-48300001D01*
X70613101Y-48339775D01*
X70424743Y-48417796D01*
X70255225Y-48531064D01*
X70111062Y-48675227D01*
X69997794Y-48844745D01*
X69919773Y-49033103D01*
X69879999Y-49233062D01*
X69879999Y-49436940D01*
X69919773Y-49636899D01*
X69997794Y-49825257D01*
X70111062Y-49994775D01*
X70255225Y-50138938D01*
X70424743Y-50252206D01*
X70613101Y-50330227D01*
X70813060Y-50370001D01*
X71016938Y-50370001D01*
X71216897Y-50330227D01*
X71405255Y-50252206D01*
X71574773Y-50138938D01*
X71618710Y-50095001D01*
X76498077Y-50095001D01*
X76400147Y-50331426D01*
X76345000Y-50608665D01*
X76345000Y-50891335D01*
X76400147Y-51168574D01*
X76477367Y-51355000D01*
X73756158Y-51355000D01*
X73702204Y-51224745D01*
X73588936Y-51055227D01*
X73444773Y-50911064D01*
X73275255Y-50797796D01*
X73086897Y-50719775D01*
X72886938Y-50680001D01*
X72683060Y-50680001D01*
X72483101Y-50719775D01*
X72294743Y-50797796D01*
X72125225Y-50911064D01*
X71981062Y-51055227D01*
X71867794Y-51224745D01*
X71789773Y-51413103D01*
X71749999Y-51613062D01*
X71749999Y-51816940D01*
X71789773Y-52016899D01*
X71867794Y-52205257D01*
X71981062Y-52374775D01*
X72125225Y-52518938D01*
X72294743Y-52632206D01*
X72483101Y-52710227D01*
X72683060Y-52750001D01*
X72760773Y-52750001D01*
X72892751Y-52820546D01*
X73036012Y-52864003D01*
X73147665Y-52875000D01*
X73147675Y-52875000D01*
X73184997Y-52878676D01*
X73222320Y-52875000D01*
X76399436Y-52875000D01*
X76345000Y-53148665D01*
X76345000Y-53431335D01*
X76400147Y-53708574D01*
X76431803Y-53784999D01*
X74358712Y-53784999D01*
X74314775Y-53741062D01*
X74145257Y-53627794D01*
X73956899Y-53549773D01*
X73756940Y-53509999D01*
X73553062Y-53509999D01*
X73353103Y-53549773D01*
X73164745Y-53627794D01*
X72995227Y-53741062D01*
X72851064Y-53885225D01*
X72737796Y-54054743D01*
X72659775Y-54243101D01*
X72620001Y-54443060D01*
X72620001Y-54646938D01*
X72659775Y-54846897D01*
X72737796Y-55035255D01*
X72851064Y-55204773D01*
X72995227Y-55348936D01*
X73164745Y-55462204D01*
X73353103Y-55540225D01*
X73553062Y-55579999D01*
X73756940Y-55579999D01*
X73956899Y-55540225D01*
X74145257Y-55462204D01*
X74314775Y-55348936D01*
X74358712Y-55304999D01*
X76444230Y-55304999D01*
X76400147Y-55411426D01*
X76345000Y-55688665D01*
X76345000Y-55971335D01*
X76400147Y-56248574D01*
X76508320Y-56509727D01*
X76665363Y-56744759D01*
X76865241Y-56944637D01*
X77097759Y-57100000D01*
X76865241Y-57255363D01*
X76665363Y-57455241D01*
X76508320Y-57690273D01*
X76400147Y-57951426D01*
X76345000Y-58228665D01*
X76345000Y-58511335D01*
X76400147Y-58788574D01*
X76508320Y-59049727D01*
X76665363Y-59284759D01*
X76865241Y-59484637D01*
X77097759Y-59640000D01*
X76865241Y-59795363D01*
X76665363Y-59995241D01*
X76508320Y-60230273D01*
X76400147Y-60491426D01*
X76345000Y-60768665D01*
X76345000Y-61051335D01*
X76400147Y-61328574D01*
X76508320Y-61589727D01*
X76665363Y-61824759D01*
X76865241Y-62024637D01*
X77100273Y-62181680D01*
X77361426Y-62289853D01*
X77638665Y-62345000D01*
X77921335Y-62345000D01*
X78103887Y-62308688D01*
X82346201Y-66551003D01*
X82369999Y-66580001D01*
X82398997Y-66603799D01*
X82485724Y-66674974D01*
X82617753Y-66745546D01*
X82761014Y-66789003D01*
X82910000Y-66803677D01*
X82947333Y-66800000D01*
X91156289Y-66800000D01*
X91200226Y-66843937D01*
X91369744Y-66957205D01*
X91558102Y-67035226D01*
X91758061Y-67075000D01*
X91961939Y-67075000D01*
X92161898Y-67035226D01*
X92350256Y-66957205D01*
X92519774Y-66843937D01*
X92663937Y-66699774D01*
X92777205Y-66530256D01*
X92855226Y-66341898D01*
X92895000Y-66141939D01*
X92895000Y-65938061D01*
X92855226Y-65738102D01*
X92777205Y-65549744D01*
X92663937Y-65380226D01*
X92519774Y-65236063D01*
X92350256Y-65122795D01*
X92161898Y-65044774D01*
X91961939Y-65005000D01*
X91758061Y-65005000D01*
X91558102Y-65044774D01*
X91369744Y-65122795D01*
X91200226Y-65236063D01*
X91156289Y-65280000D01*
X83224802Y-65280000D01*
X79178688Y-61233887D01*
X79215000Y-61051335D01*
X79215000Y-60768665D01*
X79159853Y-60491426D01*
X79051680Y-60230273D01*
X78894637Y-59995241D01*
X78694759Y-59795363D01*
X78462241Y-59640000D01*
X78694759Y-59484637D01*
X78894637Y-59284759D01*
X79051680Y-59049727D01*
X79159853Y-58788574D01*
X79215000Y-58511335D01*
X79215000Y-58228665D01*
X79159853Y-57951426D01*
X79051680Y-57690273D01*
X78894637Y-57455241D01*
X78694759Y-57255363D01*
X78462241Y-57100000D01*
X78694759Y-56944637D01*
X78894637Y-56744759D01*
X79051680Y-56509727D01*
X79159853Y-56248574D01*
X79215000Y-55971335D01*
X79215000Y-55688665D01*
X79159853Y-55411426D01*
X79115770Y-55304999D01*
X91420198Y-55304999D01*
X91621312Y-55506114D01*
X91585000Y-55688665D01*
X91585000Y-55971335D01*
X91640147Y-56248574D01*
X91748320Y-56509727D01*
X91905363Y-56744759D01*
X92105241Y-56944637D01*
X92337759Y-57100000D01*
X92105241Y-57255363D01*
X91905363Y-57455241D01*
X91748320Y-57690273D01*
X91640147Y-57951426D01*
X91585000Y-58228665D01*
X91585000Y-58511335D01*
X91640147Y-58788574D01*
X91748320Y-59049727D01*
X91905363Y-59284759D01*
X92105241Y-59484637D01*
X92337759Y-59640000D01*
X92105241Y-59795363D01*
X91905363Y-59995241D01*
X91748320Y-60230273D01*
X91640147Y-60491426D01*
X91585000Y-60768665D01*
X91585000Y-61051335D01*
X91640147Y-61328574D01*
X91748320Y-61589727D01*
X91905363Y-61824759D01*
X92105241Y-62024637D01*
X92340273Y-62181680D01*
X92601426Y-62289853D01*
X92878665Y-62345000D01*
X93161335Y-62345000D01*
X93438574Y-62289853D01*
X93699727Y-62181680D01*
X93934759Y-62024637D01*
X94134637Y-61824759D01*
X94238043Y-61670000D01*
X110806289Y-61670000D01*
X110850226Y-61713937D01*
X111019744Y-61827205D01*
X111208102Y-61905226D01*
X111408061Y-61945000D01*
X111611939Y-61945000D01*
X111811898Y-61905226D01*
X112000256Y-61827205D01*
X112169774Y-61713937D01*
X112313937Y-61569774D01*
X112427205Y-61400256D01*
X112505226Y-61211898D01*
X112545000Y-61011939D01*
X112545000Y-60808061D01*
X112505226Y-60608102D01*
X112427205Y-60419744D01*
X112313937Y-60250226D01*
X112169774Y-60106063D01*
X112000256Y-59992795D01*
X111811898Y-59914774D01*
X111611939Y-59875000D01*
X111408061Y-59875000D01*
X111208102Y-59914774D01*
X111019744Y-59992795D01*
X110850226Y-60106063D01*
X110806289Y-60150000D01*
X94238043Y-60150000D01*
X94134637Y-59995241D01*
X93934759Y-59795363D01*
X93702241Y-59640000D01*
X93934759Y-59484637D01*
X94134637Y-59284759D01*
X94238043Y-59130000D01*
X110466289Y-59130000D01*
X110510226Y-59173937D01*
X110679744Y-59287205D01*
X110868102Y-59365226D01*
X111068061Y-59405000D01*
X111271939Y-59405000D01*
X111471898Y-59365226D01*
X111660256Y-59287205D01*
X111829774Y-59173937D01*
X111973937Y-59029774D01*
X112087205Y-58860256D01*
X112165226Y-58671898D01*
X112205000Y-58471939D01*
X112205000Y-58268061D01*
X112165226Y-58068102D01*
X112087205Y-57879744D01*
X111973937Y-57710226D01*
X111829774Y-57566063D01*
X111660256Y-57452795D01*
X111471898Y-57374774D01*
X111271939Y-57335000D01*
X111068061Y-57335000D01*
X110868102Y-57374774D01*
X110679744Y-57452795D01*
X110510226Y-57566063D01*
X110466289Y-57610000D01*
X94238043Y-57610000D01*
X94134637Y-57455241D01*
X93934759Y-57255363D01*
X93702241Y-57100000D01*
X93934759Y-56944637D01*
X94134637Y-56744759D01*
X94238043Y-56590000D01*
X110326289Y-56590000D01*
X110370226Y-56633937D01*
X110539744Y-56747205D01*
X110728102Y-56825226D01*
X110928061Y-56865000D01*
X111131939Y-56865000D01*
X111331898Y-56825226D01*
X111520256Y-56747205D01*
X111689774Y-56633937D01*
X111833937Y-56489774D01*
X111947205Y-56320256D01*
X112025226Y-56131898D01*
X112065000Y-55931939D01*
X112065000Y-55728061D01*
X112025226Y-55528102D01*
X111947205Y-55339744D01*
X111833937Y-55170226D01*
X111689774Y-55026063D01*
X111520256Y-54912795D01*
X111331898Y-54834774D01*
X111131939Y-54795000D01*
X110928061Y-54795000D01*
X110728102Y-54834774D01*
X110539744Y-54912795D01*
X110370226Y-55026063D01*
X110326289Y-55070000D01*
X94238043Y-55070000D01*
X94134637Y-54915241D01*
X93934759Y-54715363D01*
X93702241Y-54560000D01*
X93934759Y-54404637D01*
X94134637Y-54204759D01*
X94214657Y-54085000D01*
X109621289Y-54085000D01*
X109665226Y-54128937D01*
X109834744Y-54242205D01*
X110023102Y-54320226D01*
X110223061Y-54360000D01*
X110426939Y-54360000D01*
X110626898Y-54320226D01*
X110815256Y-54242205D01*
X110984774Y-54128937D01*
X111128937Y-53984774D01*
X111242205Y-53815256D01*
X111320226Y-53626898D01*
X111360000Y-53426939D01*
X111360000Y-53223061D01*
X111320226Y-53023102D01*
X111242205Y-52834744D01*
X111128937Y-52665226D01*
X110984774Y-52521063D01*
X110815256Y-52407795D01*
X110626898Y-52329774D01*
X110426939Y-52290000D01*
X110223061Y-52290000D01*
X110023102Y-52329774D01*
X109834744Y-52407795D01*
X109665226Y-52521063D01*
X109621289Y-52565000D01*
X94261430Y-52565000D01*
X94134637Y-52375241D01*
X93934759Y-52175363D01*
X93702241Y-52020000D01*
X93934759Y-51864637D01*
X94134637Y-51664759D01*
X94291680Y-51429727D01*
X94399853Y-51168574D01*
X94455000Y-50891335D01*
X94455000Y-50608665D01*
X94399853Y-50331426D01*
X94291680Y-50070273D01*
X94134637Y-49835241D01*
X93934759Y-49635363D01*
X93702241Y-49480000D01*
X93934759Y-49324637D01*
X94134637Y-49124759D01*
X94291680Y-48889727D01*
X94399853Y-48628574D01*
X94455000Y-48351335D01*
X94455000Y-48068665D01*
X94399853Y-47791426D01*
X94291680Y-47530273D01*
X94134637Y-47295241D01*
X93934759Y-47095363D01*
X93702241Y-46940000D01*
X93934759Y-46784637D01*
X94134637Y-46584759D01*
X94291680Y-46349727D01*
X94399853Y-46088574D01*
X94455000Y-45811335D01*
X94455000Y-45528665D01*
X94399853Y-45251426D01*
X94291680Y-44990273D01*
X94134637Y-44755241D01*
X93934759Y-44555363D01*
X93702241Y-44400000D01*
X93934759Y-44244637D01*
X94134637Y-44044759D01*
X94232657Y-43898061D01*
X97765000Y-43898061D01*
X97765000Y-44101939D01*
X97804774Y-44301898D01*
X97882795Y-44490256D01*
X97996063Y-44659774D01*
X98140226Y-44803937D01*
X98309744Y-44917205D01*
X98498102Y-44995226D01*
X98698061Y-45035000D01*
X98901939Y-45035000D01*
X99101898Y-44995226D01*
X99290256Y-44917205D01*
X99459774Y-44803937D01*
X99603937Y-44659774D01*
X99717205Y-44490256D01*
X99795226Y-44301898D01*
X99835000Y-44101939D01*
X99835000Y-43898061D01*
X99817596Y-43810561D01*
X110477500Y-43810561D01*
X110477500Y-44014439D01*
X110517274Y-44214398D01*
X110595295Y-44402756D01*
X110708563Y-44572274D01*
X110852726Y-44716437D01*
X111022244Y-44829705D01*
X111210602Y-44907726D01*
X111410561Y-44947500D01*
X111614439Y-44947500D01*
X111814398Y-44907726D01*
X112002756Y-44829705D01*
X112172274Y-44716437D01*
X112316437Y-44572274D01*
X112429705Y-44402756D01*
X112507726Y-44214398D01*
X112547500Y-44014439D01*
X112547500Y-43810561D01*
X112507726Y-43610602D01*
X112429705Y-43422244D01*
X112316437Y-43252726D01*
X112172274Y-43108563D01*
X112002756Y-42995295D01*
X111814398Y-42917274D01*
X111614439Y-42877500D01*
X111410561Y-42877500D01*
X111210602Y-42917274D01*
X111022244Y-42995295D01*
X110852726Y-43108563D01*
X110708563Y-43252726D01*
X110595295Y-43422244D01*
X110517274Y-43610602D01*
X110477500Y-43810561D01*
X99817596Y-43810561D01*
X99795226Y-43698102D01*
X99717205Y-43509744D01*
X99603937Y-43340226D01*
X99459774Y-43196063D01*
X99290256Y-43082795D01*
X99101898Y-43004774D01*
X98901939Y-42965000D01*
X98698061Y-42965000D01*
X98498102Y-43004774D01*
X98309744Y-43082795D01*
X98140226Y-43196063D01*
X97996063Y-43340226D01*
X97882795Y-43509744D01*
X97804774Y-43698102D01*
X97765000Y-43898061D01*
X94232657Y-43898061D01*
X94291680Y-43809727D01*
X94399853Y-43548574D01*
X94455000Y-43271335D01*
X94455000Y-42988665D01*
X94399853Y-42711426D01*
X94291680Y-42450273D01*
X94134637Y-42215241D01*
X93934759Y-42015363D01*
X93702241Y-41860000D01*
X93934759Y-41704637D01*
X94134637Y-41504759D01*
X94291680Y-41269727D01*
X94399853Y-41008574D01*
X94455000Y-40731335D01*
X94455000Y-40448665D01*
X94399853Y-40171426D01*
X94291680Y-39910273D01*
X94134637Y-39675241D01*
X93934759Y-39475363D01*
X93702241Y-39320000D01*
X93934759Y-39164637D01*
X94134637Y-38964759D01*
X94291680Y-38729727D01*
X94399853Y-38468574D01*
X94455000Y-38191335D01*
X94455000Y-37908665D01*
X94399853Y-37631426D01*
X94291680Y-37370273D01*
X94134637Y-37135241D01*
X93934759Y-36935363D01*
X93732174Y-36800000D01*
X99361928Y-36800000D01*
X99361928Y-38500000D01*
X99374188Y-38624482D01*
X99410498Y-38744180D01*
X99469463Y-38854494D01*
X99548815Y-38951185D01*
X99645506Y-39030537D01*
X99755820Y-39089502D01*
X99875518Y-39125812D01*
X100000000Y-39138072D01*
X101700000Y-39138072D01*
X101824482Y-39125812D01*
X101944180Y-39089502D01*
X102054494Y-39030537D01*
X102151185Y-38951185D01*
X102230537Y-38854494D01*
X102289502Y-38744180D01*
X102325812Y-38624482D01*
X102338072Y-38500000D01*
X102338072Y-36800000D01*
X107311928Y-36800000D01*
X107311928Y-38500000D01*
X107324188Y-38624482D01*
X107360498Y-38744180D01*
X107419463Y-38854494D01*
X107498815Y-38951185D01*
X107595506Y-39030537D01*
X107705820Y-39089502D01*
X107825518Y-39125812D01*
X107950000Y-39138072D01*
X109650000Y-39138072D01*
X109774482Y-39125812D01*
X109894180Y-39089502D01*
X110004494Y-39030537D01*
X110101185Y-38951185D01*
X110180537Y-38854494D01*
X110239502Y-38744180D01*
X110275812Y-38624482D01*
X110288072Y-38500000D01*
X110288072Y-36800000D01*
X110275812Y-36675518D01*
X110239502Y-36555820D01*
X110180537Y-36445506D01*
X110101185Y-36348815D01*
X110004494Y-36269463D01*
X109894180Y-36210498D01*
X109774482Y-36174188D01*
X109650000Y-36161928D01*
X107950000Y-36161928D01*
X107825518Y-36174188D01*
X107705820Y-36210498D01*
X107595506Y-36269463D01*
X107498815Y-36348815D01*
X107419463Y-36445506D01*
X107360498Y-36555820D01*
X107324188Y-36675518D01*
X107311928Y-36800000D01*
X102338072Y-36800000D01*
X102325812Y-36675518D01*
X102289502Y-36555820D01*
X102230537Y-36445506D01*
X102151185Y-36348815D01*
X102054494Y-36269463D01*
X101944180Y-36210498D01*
X101824482Y-36174188D01*
X101700000Y-36161928D01*
X100000000Y-36161928D01*
X99875518Y-36174188D01*
X99755820Y-36210498D01*
X99645506Y-36269463D01*
X99548815Y-36348815D01*
X99469463Y-36445506D01*
X99410498Y-36555820D01*
X99374188Y-36675518D01*
X99361928Y-36800000D01*
X93732174Y-36800000D01*
X93702241Y-36780000D01*
X93934759Y-36624637D01*
X94134637Y-36424759D01*
X94291680Y-36189727D01*
X94399853Y-35928574D01*
X94455000Y-35651335D01*
X94455000Y-35368665D01*
X94399853Y-35091426D01*
X94291680Y-34830273D01*
X94134637Y-34595241D01*
X93934759Y-34395363D01*
X93702241Y-34240000D01*
X93934759Y-34084637D01*
X94134637Y-33884759D01*
X94238043Y-33730000D01*
X94842678Y-33730000D01*
X94880000Y-33733676D01*
X94917322Y-33730000D01*
X94917333Y-33730000D01*
X95028986Y-33719003D01*
X95172247Y-33675546D01*
X95304276Y-33604974D01*
X95420001Y-33510001D01*
X95443804Y-33480997D01*
X97894802Y-31030000D01*
X102772678Y-31030000D01*
X102810000Y-31033676D01*
X102847322Y-31030000D01*
X102847333Y-31030000D01*
X102958986Y-31019003D01*
X103102247Y-30975546D01*
X103234276Y-30904974D01*
X103350001Y-30810001D01*
X103373804Y-30780997D01*
X106513592Y-27641210D01*
X106733740Y-27685000D01*
X107026260Y-27685000D01*
X107313158Y-27627932D01*
X107583411Y-27515990D01*
X107826632Y-27353475D01*
X108033475Y-27146632D01*
X108195990Y-26903411D01*
X108307932Y-26633158D01*
X108365000Y-26346260D01*
X108365000Y-26053740D01*
X108307932Y-25766842D01*
X108195990Y-25496589D01*
X108033475Y-25253368D01*
X107826632Y-25046525D01*
X107583411Y-24884010D01*
X107313158Y-24772068D01*
X107026260Y-24715000D01*
X106733740Y-24715000D01*
X106446842Y-24772068D01*
X106176589Y-24884010D01*
X105933368Y-25046525D01*
X105726525Y-25253368D01*
X105610000Y-25427760D01*
X105493475Y-25253368D01*
X105286632Y-25046525D01*
X105043411Y-24884010D01*
X104773158Y-24772068D01*
X104486260Y-24715000D01*
X104193740Y-24715000D01*
X103906842Y-24772068D01*
X103636589Y-24884010D01*
X103393368Y-25046525D01*
X103261513Y-25178380D01*
X103239502Y-25105820D01*
X103180537Y-24995506D01*
X103101185Y-24898815D01*
X103004494Y-24819463D01*
X102894180Y-24760498D01*
X102774482Y-24724188D01*
X102650000Y-24711928D01*
X100950000Y-24711928D01*
X100825518Y-24724188D01*
X100705820Y-24760498D01*
X100595506Y-24819463D01*
X100498815Y-24898815D01*
X100419463Y-24995506D01*
X100360498Y-25105820D01*
X100324188Y-25225518D01*
X100311928Y-25350000D01*
X100311928Y-27050000D01*
X100324188Y-27174482D01*
X100360498Y-27294180D01*
X100419463Y-27404494D01*
X100498815Y-27501185D01*
X100595506Y-27580537D01*
X100705820Y-27639502D01*
X100825518Y-27675812D01*
X100950000Y-27688072D01*
X102650000Y-27688072D01*
X102774482Y-27675812D01*
X102894180Y-27639502D01*
X103004494Y-27580537D01*
X103101185Y-27501185D01*
X103180537Y-27404494D01*
X103239502Y-27294180D01*
X103261513Y-27221620D01*
X103393368Y-27353475D01*
X103500284Y-27424914D01*
X102285199Y-28640000D01*
X97037323Y-28640000D01*
X97000000Y-28636324D01*
X96962677Y-28640000D01*
X96962667Y-28640000D01*
X96851014Y-28650997D01*
X96707753Y-28694454D01*
X96575723Y-28765026D01*
X96527309Y-28804759D01*
X96459999Y-28859999D01*
X96436201Y-28888997D01*
X95655199Y-29670000D01*
X94238043Y-29670000D01*
X94134637Y-29515241D01*
X93934759Y-29315363D01*
X93699727Y-29158320D01*
X93438574Y-29050147D01*
X93161335Y-28995000D01*
X92878665Y-28995000D01*
X92601426Y-29050147D01*
X92340273Y-29158320D01*
X92105241Y-29315363D01*
X91905363Y-29515241D01*
X91748320Y-29750273D01*
X91640147Y-30011426D01*
X91585000Y-30288665D01*
X91585000Y-30571335D01*
X91640147Y-30848574D01*
X91748320Y-31109727D01*
X91905363Y-31344759D01*
X92105241Y-31544637D01*
X92337759Y-31700000D01*
X92105241Y-31855363D01*
X91905363Y-32055241D01*
X91748320Y-32290273D01*
X91640147Y-32551426D01*
X91585000Y-32828665D01*
X91585000Y-33111335D01*
X91640147Y-33388574D01*
X91748320Y-33649727D01*
X91905363Y-33884759D01*
X92105241Y-34084637D01*
X92337759Y-34240000D01*
X92105241Y-34395363D01*
X91905363Y-34595241D01*
X91748320Y-34830273D01*
X91640147Y-35091426D01*
X91585000Y-35368665D01*
X91585000Y-35651335D01*
X91640147Y-35928574D01*
X91748320Y-36189727D01*
X91905363Y-36424759D01*
X92105241Y-36624637D01*
X92337759Y-36780000D01*
X92105241Y-36935363D01*
X91905363Y-37135241D01*
X91801957Y-37290000D01*
X90753711Y-37290000D01*
X90709774Y-37246063D01*
X90540256Y-37132795D01*
X90351898Y-37054774D01*
X90151939Y-37015000D01*
X89948061Y-37015000D01*
X89748102Y-37054774D01*
X89559744Y-37132795D01*
X89390226Y-37246063D01*
X89246063Y-37390226D01*
X89132795Y-37559744D01*
X89054774Y-37748102D01*
X89015000Y-37948061D01*
X89015000Y-38151939D01*
X89054774Y-38351898D01*
X89132795Y-38540256D01*
X89246063Y-38709774D01*
X89390226Y-38853937D01*
X89559744Y-38967205D01*
X89748102Y-39045226D01*
X89948061Y-39085000D01*
X90151939Y-39085000D01*
X90351898Y-39045226D01*
X90540256Y-38967205D01*
X90709774Y-38853937D01*
X90753711Y-38810000D01*
X91801957Y-38810000D01*
X91905363Y-38964759D01*
X92105241Y-39164637D01*
X92337759Y-39320000D01*
X92105241Y-39475363D01*
X91905363Y-39675241D01*
X91748320Y-39910273D01*
X91640147Y-40171426D01*
X91585000Y-40448665D01*
X91585000Y-40731335D01*
X91640147Y-41008574D01*
X91748320Y-41269727D01*
X91905363Y-41504759D01*
X92105241Y-41704637D01*
X92337759Y-41860000D01*
X92105241Y-42015363D01*
X91905363Y-42215241D01*
X91748320Y-42450273D01*
X91640147Y-42711426D01*
X91585000Y-42988665D01*
X91585000Y-43271335D01*
X91640147Y-43548574D01*
X91748320Y-43809727D01*
X91905363Y-44044759D01*
X92105241Y-44244637D01*
X92337759Y-44400000D01*
X92105241Y-44555363D01*
X91905363Y-44755241D01*
X91748320Y-44990273D01*
X91640147Y-45251426D01*
X91585000Y-45528665D01*
X91585000Y-45811335D01*
X91640147Y-46088574D01*
X91748320Y-46349727D01*
X91905363Y-46584759D01*
X92105241Y-46784637D01*
X92337759Y-46940000D01*
X92105241Y-47095363D01*
X91905363Y-47295241D01*
X91748320Y-47530273D01*
X91640147Y-47791426D01*
X91585000Y-48068665D01*
X91585000Y-48351335D01*
X91640147Y-48628574D01*
X91748320Y-48889727D01*
X91905363Y-49124759D01*
X92105241Y-49324637D01*
X92337759Y-49480000D01*
X92105241Y-49635363D01*
X91905363Y-49835241D01*
X91748320Y-50070273D01*
X91640147Y-50331426D01*
X91585000Y-50608665D01*
X91585000Y-50891335D01*
X91640147Y-51168574D01*
X91748320Y-51429727D01*
X91905363Y-51664759D01*
X92105241Y-51864637D01*
X92337759Y-52020000D01*
X92105241Y-52175363D01*
X91905363Y-52375241D01*
X91803096Y-52528294D01*
X90878804Y-51604003D01*
X90855001Y-51574999D01*
X90739276Y-51480026D01*
X90607247Y-51409454D01*
X90463986Y-51365997D01*
X90352333Y-51355000D01*
X90352322Y-51355000D01*
X90315000Y-51351324D01*
X90277678Y-51355000D01*
X79082633Y-51355000D01*
X79159853Y-51168574D01*
X79215000Y-50891335D01*
X79215000Y-50608665D01*
X79159853Y-50331426D01*
X79061923Y-50095001D01*
X79977677Y-50095001D01*
X80014999Y-50098677D01*
X80052321Y-50095001D01*
X80052332Y-50095001D01*
X80163985Y-50084004D01*
X80307246Y-50040547D01*
X80439275Y-49969975D01*
X80555000Y-49875002D01*
X80578803Y-49845998D01*
X80585998Y-49838803D01*
X80615001Y-49815001D01*
X80709974Y-49699276D01*
X80749532Y-49625269D01*
X81789802Y-48585000D01*
X81851939Y-48585000D01*
X82051898Y-48545226D01*
X82240256Y-48467205D01*
X82409774Y-48353937D01*
X82553937Y-48209774D01*
X82667205Y-48040256D01*
X82745226Y-47851898D01*
X82785000Y-47651939D01*
X82785000Y-47448061D01*
X82745226Y-47248102D01*
X82667205Y-47059744D01*
X82553937Y-46890226D01*
X82409774Y-46746063D01*
X82240256Y-46632795D01*
X82051898Y-46554774D01*
X81851939Y-46515000D01*
X81648061Y-46515000D01*
X81448102Y-46554774D01*
X81259744Y-46632795D01*
X81090226Y-46746063D01*
X80946063Y-46890226D01*
X80832795Y-47059744D01*
X80754774Y-47248102D01*
X80715000Y-47448061D01*
X80715000Y-47510198D01*
X79650198Y-48575001D01*
X79170509Y-48575001D01*
X79215000Y-48351335D01*
X79215000Y-48068665D01*
X79159853Y-47791426D01*
X79061923Y-47555001D01*
X79217677Y-47555001D01*
X79254999Y-47558677D01*
X79292321Y-47555001D01*
X79292332Y-47555001D01*
X79403985Y-47544004D01*
X79547246Y-47500547D01*
X79679275Y-47429975D01*
X79795000Y-47335002D01*
X79818803Y-47305998D01*
X81061003Y-46063799D01*
X81090001Y-46040001D01*
X81153812Y-45962247D01*
X81184974Y-45924277D01*
X81255546Y-45792247D01*
X81261706Y-45771939D01*
X81299003Y-45648986D01*
X81310000Y-45537333D01*
X81310000Y-45537323D01*
X81313676Y-45500000D01*
X81310000Y-45462677D01*
X81310000Y-40857333D01*
X81313677Y-40820000D01*
X81299003Y-40671014D01*
X81255546Y-40527753D01*
X81184974Y-40395724D01*
X81113799Y-40308997D01*
X81090001Y-40279999D01*
X81061004Y-40256202D01*
X79178688Y-38373886D01*
X79215000Y-38191335D01*
X79215000Y-37908665D01*
X79159853Y-37631426D01*
X79051680Y-37370273D01*
X78894637Y-37135241D01*
X78694759Y-36935363D01*
X78462241Y-36780000D01*
X78694759Y-36624637D01*
X78894637Y-36424759D01*
X79051680Y-36189727D01*
X79159853Y-35928574D01*
X79215000Y-35651335D01*
X79215000Y-35368665D01*
X79159853Y-35091426D01*
X79051680Y-34830273D01*
X78894637Y-34595241D01*
X78694759Y-34395363D01*
X78462241Y-34240000D01*
X78694759Y-34084637D01*
X78894637Y-33884759D01*
X79051680Y-33649727D01*
X79159853Y-33388574D01*
X79215000Y-33111335D01*
X79215000Y-32828665D01*
X79159853Y-32551426D01*
X79051680Y-32290273D01*
X78894637Y-32055241D01*
X78694759Y-31855363D01*
X78462241Y-31700000D01*
X78694759Y-31544637D01*
X78894637Y-31344759D01*
X79051680Y-31109727D01*
X79159853Y-30848574D01*
X79215000Y-30571335D01*
X79215000Y-30288665D01*
X79159853Y-30011426D01*
X79051680Y-29750273D01*
X78894637Y-29515241D01*
X78694759Y-29315363D01*
X78462241Y-29160000D01*
X78694759Y-29004637D01*
X78894637Y-28804759D01*
X79051680Y-28569727D01*
X79159853Y-28308574D01*
X79215000Y-28031335D01*
X79215000Y-27748665D01*
X79159853Y-27471426D01*
X79051680Y-27210273D01*
X78894637Y-26975241D01*
X78694759Y-26775363D01*
X78459727Y-26618320D01*
X78198574Y-26510147D01*
X77921335Y-26455000D01*
X77638665Y-26455000D01*
X77361426Y-26510147D01*
X77100273Y-26618320D01*
X76865241Y-26775363D01*
X76665363Y-26975241D01*
X76508320Y-27210273D01*
X76400147Y-27471426D01*
X76345000Y-27748665D01*
X76345000Y-28031335D01*
X76400147Y-28308574D01*
X76508320Y-28569727D01*
X76665363Y-28804759D01*
X76865241Y-29004637D01*
X77097759Y-29160000D01*
X76865241Y-29315363D01*
X76665363Y-29515241D01*
X76508320Y-29750273D01*
X76400147Y-30011426D01*
X76345000Y-30288665D01*
X76345000Y-30571335D01*
X76400147Y-30848574D01*
X76508320Y-31109727D01*
X76665363Y-31344759D01*
X76865241Y-31544637D01*
X77097759Y-31700000D01*
X76865241Y-31855363D01*
X76665363Y-32055241D01*
X76508320Y-32290273D01*
X76400147Y-32551426D01*
X76345000Y-32828665D01*
X76345000Y-33111335D01*
X76400147Y-33388574D01*
X76508320Y-33649727D01*
X76665363Y-33884759D01*
X76865241Y-34084637D01*
X77097759Y-34240000D01*
X76865241Y-34395363D01*
X76665363Y-34595241D01*
X76508320Y-34830273D01*
X76400147Y-35091426D01*
X76345000Y-35368665D01*
X76345000Y-35651335D01*
X76400147Y-35928574D01*
X76508320Y-36189727D01*
X76665363Y-36424759D01*
X76865241Y-36624637D01*
X77097759Y-36780000D01*
X76865241Y-36935363D01*
X76665363Y-37135241D01*
X76508320Y-37370273D01*
X76400147Y-37631426D01*
X76345000Y-37908665D01*
X76345000Y-38191335D01*
X76400147Y-38468574D01*
X76508320Y-38729727D01*
X76665363Y-38964759D01*
X76865241Y-39164637D01*
X77097759Y-39320000D01*
X76865241Y-39475363D01*
X76665363Y-39675241D01*
X76508320Y-39910273D01*
X76400147Y-40171426D01*
X76345000Y-40448665D01*
X76345000Y-40731335D01*
X76400147Y-41008574D01*
X76508320Y-41269727D01*
X76665363Y-41504759D01*
X76865241Y-41704637D01*
X77097759Y-41860000D01*
X76865241Y-42015363D01*
X76665363Y-42215241D01*
X76508320Y-42450273D01*
X76400147Y-42711426D01*
X76345000Y-42988665D01*
X76345000Y-43271335D01*
X76400147Y-43548574D01*
X76508320Y-43809727D01*
X76665363Y-44044759D01*
X76865241Y-44244637D01*
X77097759Y-44400000D01*
X76865241Y-44555363D01*
X76665363Y-44755241D01*
X76561957Y-44910000D01*
X68033711Y-44910000D01*
X67989774Y-44866063D01*
X67820256Y-44752795D01*
X67631898Y-44674774D01*
X67431939Y-44635000D01*
X67228061Y-44635000D01*
X67028102Y-44674774D01*
X66839744Y-44752795D01*
X66670226Y-44866063D01*
X66526063Y-45010226D01*
X66412795Y-45179744D01*
X66334774Y-45368102D01*
X66295000Y-45568061D01*
X48065000Y-45568061D01*
X48025226Y-45368102D01*
X47947205Y-45179744D01*
X47833937Y-45010226D01*
X47689774Y-44866063D01*
X47520256Y-44752795D01*
X47331898Y-44674774D01*
X47131939Y-44635000D01*
X46928061Y-44635000D01*
X46728102Y-44674774D01*
X46539744Y-44752795D01*
X46370226Y-44866063D01*
X46326289Y-44910000D01*
X33767323Y-44910000D01*
X33730000Y-44906324D01*
X33692677Y-44910000D01*
X33692667Y-44910000D01*
X33581014Y-44920997D01*
X33437753Y-44964454D01*
X33305724Y-45035026D01*
X33189999Y-45129999D01*
X33166201Y-45158997D01*
X30035199Y-48290000D01*
X28614802Y-48290000D01*
X27610000Y-47285199D01*
X27610000Y-47207325D01*
X27613676Y-47170000D01*
X27610000Y-47132675D01*
X27610000Y-47132668D01*
X27599003Y-47021014D01*
X27555546Y-46877753D01*
X27484974Y-46745724D01*
X27390001Y-46629999D01*
X27361003Y-46606201D01*
X26841210Y-46086408D01*
X26885000Y-45866260D01*
X26885000Y-45573740D01*
X26827932Y-45286842D01*
X26715990Y-45016589D01*
X26553475Y-44773368D01*
X26346632Y-44566525D01*
X26172240Y-44450000D01*
X26346632Y-44333475D01*
X26553475Y-44126632D01*
X26715990Y-43883411D01*
X26827932Y-43613158D01*
X26885000Y-43326260D01*
X26885000Y-43033740D01*
X26827932Y-42746842D01*
X26715990Y-42476589D01*
X26553475Y-42233368D01*
X26346632Y-42026525D01*
X26172240Y-41910000D01*
X26346632Y-41793475D01*
X26553475Y-41586632D01*
X26715990Y-41343411D01*
X26827932Y-41073158D01*
X26885000Y-40786260D01*
X26885000Y-40493740D01*
X26827932Y-40206842D01*
X26715990Y-39936589D01*
X26553475Y-39693368D01*
X26346632Y-39486525D01*
X26172240Y-39370000D01*
X26346632Y-39253475D01*
X26553475Y-39046632D01*
X26715990Y-38803411D01*
X26827932Y-38533158D01*
X26885000Y-38246260D01*
X26885000Y-37953740D01*
X26827932Y-37666842D01*
X26715990Y-37396589D01*
X26553475Y-37153368D01*
X26346632Y-36946525D01*
X26172240Y-36830000D01*
X26346632Y-36713475D01*
X26553475Y-36506632D01*
X26715990Y-36263411D01*
X26827932Y-35993158D01*
X26885000Y-35706260D01*
X26885000Y-35413740D01*
X26827932Y-35126842D01*
X26715990Y-34856589D01*
X26553475Y-34613368D01*
X26346632Y-34406525D01*
X26172240Y-34290000D01*
X26346632Y-34173475D01*
X26553475Y-33966632D01*
X26715990Y-33723411D01*
X26827932Y-33453158D01*
X26885000Y-33166260D01*
X26885000Y-32873740D01*
X26827932Y-32586842D01*
X26715990Y-32316589D01*
X26553475Y-32073368D01*
X26346632Y-31866525D01*
X26172240Y-31750000D01*
X26346632Y-31633475D01*
X26553475Y-31426632D01*
X26715990Y-31183411D01*
X26827932Y-30913158D01*
X26885000Y-30626260D01*
X26885000Y-30333740D01*
X26827932Y-30046842D01*
X26715990Y-29776589D01*
X26553475Y-29533368D01*
X26346632Y-29326525D01*
X26172240Y-29210000D01*
X26346632Y-29093475D01*
X26553475Y-28886632D01*
X26715990Y-28643411D01*
X26827932Y-28373158D01*
X26885000Y-28086260D01*
X26885000Y-27793740D01*
X26827932Y-27506842D01*
X26715990Y-27236589D01*
X26553475Y-26993368D01*
X26421620Y-26861513D01*
X26494180Y-26839502D01*
X26604494Y-26780537D01*
X26701185Y-26701185D01*
X26780537Y-26604494D01*
X26839502Y-26494180D01*
X26875812Y-26374482D01*
X26888072Y-26250000D01*
X26888072Y-24660000D01*
X115351928Y-24660000D01*
X115351928Y-26250000D01*
G37*
G04 #@! TD.AperFunction*
M02*
